<svg width="39" height="38" viewBox="0 0 39 38" fill="none" xmlns="http://www.w3.org/2000/svg">
<rect x="0.322754" y="0.111328" width="37.8878" height="37.8878" rx="18.9439" fill="white"/>
<path d="M21.0218 29.0017H16.9261V20.2253H13.8892C13.6276 20.2253 13.4155 20.0132 13.4155 19.7516V16.6032C13.4155 16.3416 13.6276 16.1296 13.8892 16.1296H16.6893C16.8201 16.1296 16.9261 16.0235 16.9261 15.8928V11.9502C16.9261 10.3807 18.1984 9.1084 19.7679 9.1084H24.407C24.7994 9.1084 25.1175 9.42647 25.1175 9.81884V11.9085C25.1175 12.3009 24.7994 12.619 24.407 12.619H21.9691C21.4459 12.619 21.0218 13.0431 21.0218 13.5662V16.1296H24.4896C24.8042 16.1296 25.0314 16.4308 24.945 16.7333L24.0454 19.8817C23.9873 20.0851 23.8015 20.2253 23.59 20.2253H21.0218V29.0017Z" fill="#327CEB"/>
</svg>
