<svg width="39" height="38" viewBox="0 0 39 38" fill="none" xmlns="http://www.w3.org/2000/svg">
<rect x="0.435059" y="0.111328" width="37.8878" height="37.8878" rx="18.9439" fill="white"/>
<path d="M28.8517 15.5194C28.8729 13.3411 27.9622 11.6631 26.0771 10.5063C25.4099 10.0998 24.6792 9.86014 23.8955 9.76634C23.8531 9.76634 23.8108 9.77672 23.779 9.72461H14.9361C14.8726 9.79756 14.7773 9.77673 14.7031 9.79757C13.0193 10.0685 11.7273 10.9128 10.7953 12.3094C10.3505 12.9764 10.0752 13.7059 9.9693 14.5084C9.9693 14.571 9.9693 14.6439 9.90576 14.6856V23.3881C10.0117 23.6382 10.001 23.9093 10.0752 24.1594C10.7106 26.3481 12.1615 27.703 14.396 28.2553C14.8091 28.3596 15.2327 28.3804 15.6669 28.3804C18.145 28.3804 20.6231 28.3908 23.1012 28.3804C25.3252 28.3595 27.0196 27.4007 28.1422 25.5143C28.6294 24.7014 28.8517 23.7946 28.8517 22.8566C28.8517 20.4387 28.8517 18.0103 28.8517 15.5923C28.8517 15.5715 28.8517 15.5611 28.8517 15.5402V15.5194ZM26.363 24.8056C25.6747 25.8374 24.7004 26.4106 23.4507 26.494C23.2071 26.5148 22.9742 26.5148 22.7306 26.5148C20.3901 26.5148 18.0603 26.5148 15.7198 26.5148C15.2644 26.5148 14.809 26.4835 14.3748 26.3376C13.4429 26.0145 12.7333 25.4309 12.2568 24.5763C11.9285 23.9926 11.812 23.3673 11.812 22.7003C11.812 20.4803 11.812 18.2604 11.812 16.03C11.812 15.4777 11.7908 14.9253 11.9285 14.3834C12.0767 13.8101 12.3415 13.3099 12.7333 12.8721C13.5064 12.0175 14.4807 11.6006 15.6351 11.6006C18.1344 11.6006 20.6337 11.5902 23.133 11.6006C24.7427 11.6006 25.9182 12.351 26.6278 13.7789C26.8926 14.3208 26.9667 14.9149 26.9561 15.5194C26.9561 17.906 26.9561 20.3032 26.9561 22.6898C26.9561 23.4507 26.7972 24.1594 26.363 24.7951V24.8056Z" fill="#327CEB"/>
<path d="M21.6951 14.8013C20.7523 14.3113 19.746 14.1341 18.6867 14.28C17.6063 14.4364 16.6741 14.8951 15.9008 15.6665C14.8309 16.7507 14.3649 18.0433 14.5026 19.5445C14.6191 20.785 15.1699 21.8588 16.1444 22.6615C17.691 23.9541 19.46 24.2564 21.3243 23.4641C23.1992 22.6614 24.1844 21.1811 24.2691 19.1692C24.3221 17.814 23.8242 16.6464 22.8603 15.677C22.5213 15.3225 22.1188 15.041 21.6845 14.8117L21.6951 14.8013ZM19.3858 22.0047C17.7227 22.0152 16.3881 20.6704 16.3881 19.065C16.3881 17.4179 17.7228 16.1148 19.3964 16.1148C21.0383 16.1148 22.3836 17.4491 22.3836 19.065C22.3624 20.7016 21.0489 21.9943 19.3858 22.0152V22.0047Z" fill="#327CEB"/>
<path d="M24.311 13.1113C23.664 13.1113 23.1337 13.6228 23.123 14.2596C23.123 14.8963 23.6427 15.4182 24.2897 15.4182C24.9367 15.4182 25.4671 14.9067 25.4671 14.27C25.4671 13.6332 24.9474 13.1218 24.311 13.1113Z" fill="#327CEB"/>
</svg>
