<svg width="24" height="24" viewBox="0 0 24 24" fill="none" xmlns="http://www.w3.org/2000/svg">
<g clip-path="url(#clip0_457_7854)">
<path d="M23.9826 7.98315L23.0586 10.7701L22.7644 11.6577C22.5429 11.4742 22.3164 11.2957 22.085 11.1188H22.0834C21.6172 10.7601 21.1296 10.4081 20.6172 10.0675C16.2252 7.13186 12.0432 6.16818 9.91914 5.70039C8.00004 5.27888 6.21317 5.05904 4.61475 4.96316L6.06606 0.576172C7.89425 0.698492 10.0051 0.984456 12.2945 1.56796C14.3574 2.0936 20.518 4.18461 23.9826 7.98315Z" fill="white"/>
<path d="M22.7634 11.658L21.5055 15.4583C20.1318 15.9245 18.4523 16.3394 16.5166 16.5063C14.4603 16.6849 12.6717 16.5361 11.2749 16.3063L12.6998 12.0052C13.9809 12.1738 15.5314 12.2597 17.2737 12.1093C19.1268 11.949 20.7434 11.5605 22.0824 11.1191H22.084C22.3154 11.296 22.5419 11.4745 22.7634 11.658Z" fill="white"/>
<path d="M19.8611 18.9234L18.4081 23.3103C16.5816 23.188 14.4707 22.9021 12.1797 22.3186C10.1184 21.7913 3.95614 19.6986 0.493164 15.905L1.41552 13.1165L1.70975 12.2305C1.93125 12.4106 2.15771 12.5892 2.38912 12.7677H2.39243C2.85857 13.1264 3.3462 13.4785 3.85697 13.819C8.24892 16.7547 12.4326 17.715 14.5567 18.1861C16.4741 18.606 18.261 18.8275 19.8611 18.9234Z" fill="white"/>
<path d="M13.1993 7.58109L11.776 11.8823C10.4949 11.7136 8.94603 11.6293 7.20375 11.7798C5.34905 11.9401 3.73405 12.3269 2.3951 12.7699H2.3918C2.16037 12.5897 1.93391 12.4112 1.7124 12.2294L2.97035 8.42909C4.34236 7.96128 6.02184 7.54802 7.95753 7.37942C10.0139 7.20089 11.8041 7.35132 13.1993 7.58109Z" fill="white"/>
</g>
<defs>
<clipPath id="clip0_457_7854">
<rect width="23.4831" height="22.7327" fill="white" transform="translate(0.493164 0.576172)"/>
</clipPath>
</defs>
</svg>
