<svg width="39" height="38" viewBox="0 0 39 38" fill="none" xmlns="http://www.w3.org/2000/svg">
<rect x="0.547363" y="0.111328" width="37.8878" height="37.8878" rx="18.9439" fill="white"/>
<path d="M11.0132 24.5152V24.3568C11.0984 24.1983 11.2311 24.1516 11.411 24.161C12.6805 24.1889 13.8835 23.9373 15.0014 23.3219C15.1529 23.238 15.3045 23.1448 15.4845 23.0329C15.4182 23.0143 15.3803 23.0049 15.3519 22.9956C14.6698 22.8651 14.073 22.5481 13.5709 22.082C13.1351 21.6718 12.813 21.1963 12.6236 20.6276C12.5573 20.4318 12.6331 20.3293 12.8415 20.3386C12.9173 20.3386 12.9836 20.3572 13.0594 20.3666C13.1825 20.3666 13.3057 20.3759 13.4288 20.3852C13.3909 20.3293 13.353 20.3107 13.3057 20.2827C12.1026 19.6021 11.4584 18.5766 11.3826 17.2154C11.3636 16.8985 11.4868 16.8332 11.771 16.9638C11.9889 17.057 12.1973 17.1782 12.4342 17.1875C12.4152 17.1316 12.3678 17.0942 12.3299 17.0476C11.3447 15.9475 11.1363 14.3813 11.7899 13.0761C11.9983 12.6659 12.0647 12.6566 12.3773 13.0109C14.0635 14.9127 16.176 16.0035 18.7243 16.2739C18.8948 16.2925 18.9612 16.2365 18.9422 16.0594C18.9044 15.7611 18.9233 15.4628 18.9612 15.1644C19.2832 13.0855 21.2063 11.8735 23.1578 12.1718C23.8114 12.2743 24.4083 12.5353 24.9104 12.9549C25.1093 13.1227 25.3177 13.1693 25.5735 13.0854C25.7251 13.0295 25.8861 12.9922 26.0472 12.9363C26.4356 12.8058 26.8145 12.6286 27.1745 12.4235C27.2597 12.3769 27.3544 12.3583 27.4397 12.4235C27.5249 12.4981 27.5154 12.582 27.4776 12.6752C27.2976 13.16 27.0418 13.5982 26.6724 13.9711C26.6439 13.9991 26.5871 14.027 26.606 14.0923C26.6629 14.0737 26.7102 14.0643 26.7671 14.055C27.0797 13.9804 27.3829 13.8499 27.686 13.738C27.7807 13.7007 27.8565 13.71 27.9228 13.7846C27.9891 13.8592 27.9797 13.9431 27.9228 14.027C27.9039 14.055 27.8755 14.0923 27.8565 14.1202C27.4871 14.6423 27.0513 15.1085 26.5492 15.5187C26.3408 15.6865 26.2461 15.9009 26.2461 16.1713C26.2461 16.7959 26.1798 17.4205 26.0472 18.0265C25.5545 20.3293 24.4367 22.2871 22.5894 23.7881C20.3632 25.606 17.7675 26.2213 14.9256 25.9043C13.8172 25.7831 12.7657 25.4568 11.771 24.9721C11.5058 24.8415 11.2026 24.7483 11.0132 24.4966V24.5152Z" fill="#327CEB"/>
</svg>
