<svg width="58" height="79" viewBox="0 0 58 79" fill="none" xmlns="http://www.w3.org/2000/svg">
<path d="M16.2395 37.6995V17.1179C16.2395 10.0705 21.9525 4.35742 28.9999 4.35742V4.35742C36.0473 4.35742 41.7604 10.0705 41.7604 17.1179V37.6995" stroke="#327CEB" stroke-width="7.14584" stroke-linecap="round" stroke-linejoin="round"/>
<path fill-rule="evenodd" clip-rule="evenodd" d="M6.03118 27.9583C3.21222 27.9583 0.927002 30.2435 0.927002 33.0624V73.8958C0.927002 76.7148 3.21222 79 6.03118 79H51.9688C54.7877 79 57.0729 76.7148 57.0729 73.8958V33.0624C57.0729 30.2435 54.7877 27.9583 51.9687 27.9583H6.03118ZM29 61.1354C33.2284 61.1354 36.6562 57.7076 36.6562 53.4792C36.6562 49.2507 33.2284 45.8229 29 45.8229C24.7715 45.8229 21.3437 49.2507 21.3437 53.4792C21.3437 57.7076 24.7715 61.1354 29 61.1354Z" fill="#327CEB"/>
</svg>