<svg width="405" height="343" viewBox="0 0 405 343" fill="none" xmlns="http://www.w3.org/2000/svg">
<path d="M456.317 35.3734C482.78 47.9749 511.31 65.4172 531.859 87.9071L520.911 120.902L517.475 131.259C514.888 129.122 512.245 127.041 509.545 124.98L509.512 124.954H509.492C503.966 120.706 498.185 116.536 492.111 112.502C439.944 77.6599 390.272 66.2228 365.048 60.672L365.048 60.672C342.32 55.6839 321.154 53.0755 302.211 51.9326L319.361 0.13119C341.039 1.58557 366.06 4.97744 393.193 11.8877L393.224 11.7666L393.193 11.8877C405.433 15.004 429.835 22.7624 456.317 35.3734Z" stroke="#327CEB" stroke-width="0.25"/>
<path d="M443.348 188.866L443.348 188.866C419.016 190.977 397.844 189.229 381.289 186.518L398.128 135.727C413.326 137.72 431.708 138.732 452.358 136.95L452.348 136.826L452.358 136.95C474.348 135.049 493.535 130.445 509.43 125.213C512.138 127.282 514.788 129.369 517.38 131.514L502.491 176.459C486.201 181.979 466.291 186.889 443.348 188.866Z" stroke="#327CEB" stroke-width="0.25"/>
<path d="M292.977 157.227C345.144 192.069 394.836 203.467 420.059 209.057L420.059 209.057C442.768 214.026 463.934 216.653 482.896 217.796L465.727 269.598C444.069 268.143 419.048 264.752 391.895 257.841C379.665 254.715 355.263 246.947 328.78 234.336C302.318 221.735 273.788 204.302 253.249 181.841L264.177 148.827L264.177 148.827L267.614 138.488C270.2 140.587 272.843 142.668 275.542 144.749L275.576 144.775H275.615C281.142 149.023 286.922 153.193 292.977 157.227ZM292.977 157.227C292.977 157.227 292.977 157.227 292.977 157.227L293.047 157.123L292.977 157.227C292.977 157.227 292.977 157.227 292.977 157.227Z" stroke="#327CEB" stroke-width="0.25"/>
<path d="M332.764 132.8L332.775 132.924L332.764 132.8C310.749 134.702 291.577 139.287 275.679 144.541C272.969 142.432 270.317 140.343 267.722 138.216L282.611 93.2712C298.882 87.7323 318.792 82.8413 341.735 80.8444C366.067 78.7336 387.258 80.5009 403.794 83.2121L386.974 134.003C371.776 132.011 353.414 131.018 332.764 132.8Z" stroke="#327CEB" stroke-width="0.25"/>
<path d="M75.2105 108.644C101.673 121.246 130.203 138.688 150.752 161.178L139.804 194.173L136.368 204.53C133.781 202.393 131.138 200.312 128.439 198.251L128.405 198.225H128.385C122.859 193.977 117.078 189.807 111.004 185.773C58.8375 150.931 9.16491 139.494 -16.0585 133.943L-16.0585 133.943C-38.7865 128.955 -59.9528 126.346 -78.8957 125.204L-61.7455 73.4022C-40.0678 74.8566 -15.047 78.2484 12.0865 85.1587L12.1174 85.0376L12.0865 85.1587C24.326 88.275 48.7282 96.0334 75.2105 108.644Z" stroke="#327CEB" stroke-width="0.25"/>
<path d="M62.2412 262.137L62.2411 262.137C37.9092 264.248 16.7368 262.5 0.182305 259.789L17.0214 208.998C32.2193 210.991 50.6015 212.003 71.2514 210.221L71.2406 210.097L71.2514 210.221C93.2408 208.32 112.428 203.716 128.323 198.484C131.031 200.553 133.681 202.64 136.273 204.785L121.384 249.73C105.094 255.25 85.1841 260.16 62.2412 262.137Z" stroke="#327CEB" stroke-width="0.25"/>
<path d="M-88.1303 230.498C-35.9638 265.34 13.7285 276.738 38.9517 282.328L38.952 282.328C61.6603 287.297 82.8265 289.924 101.789 291.067L84.6193 342.869C62.9612 341.414 37.9404 338.023 10.7874 331.112C-1.44235 327.986 -25.8446 320.218 -52.327 307.607C-78.7893 295.006 -107.319 277.573 -127.858 255.112L-116.93 222.098L-116.93 222.098L-113.494 211.759C-110.907 213.858 -108.265 215.939 -105.565 218.02L-105.531 218.046H-105.492C-99.9657 222.294 -94.185 226.464 -88.1303 230.498ZM-88.1303 230.498C-88.1303 230.498 -88.1303 230.498 -88.1303 230.498L-88.0609 230.394L-88.1302 230.498C-88.1303 230.498 -88.1303 230.498 -88.1303 230.498Z" stroke="#327CEB" stroke-width="0.25"/>
<path d="M-48.3437 206.071L-48.3329 206.195L-48.3437 206.071C-70.3586 207.973 -89.5306 212.558 -105.429 217.812C-108.139 215.703 -110.791 213.614 -113.385 211.487L-98.4962 166.542C-82.2256 161.003 -62.3157 156.112 -39.3726 154.115C-15.0409 152.005 6.15099 153.772 22.6862 156.483L5.86665 207.274C-9.33122 205.282 -27.6939 204.289 -48.3437 206.071Z" stroke="#327CEB" stroke-width="0.25"/>
</svg>
