<svg width="1920" height="1080" viewBox="0 0 1920 1080" fill="none" xmlns="http://www.w3.org/2000/svg">
<g opacity="0.5">
<path d="M1841.07 67.9403C1932.78 111.644 2031.66 172.147 2102.87 250.174L2064.92 364.654L2052.93 400.814C2043.91 393.348 2034.68 386.08 2025.26 378.879L2025.2 378.828H2025.13C2005.97 364.09 1985.94 349.624 1964.88 335.632C1784.21 214.868 1612.17 175.226 1524.81 155.985L1524.81 155.985C1446 138.674 1372.6 129.632 1306.94 125.678L1366.46 -54.2568C1441.59 -49.2197 1528.33 -37.4603 1622.38 -13.487C1664.79 -2.68135 1749.33 24.2177 1841.07 67.9403Z" stroke="#327CEB" stroke-width="0.5"/>
<path d="M2025.01 379.339C2034.45 386.556 2043.69 393.839 2052.73 401.322L2001.08 557.335C1944.63 576.485 1875.62 593.525 1796.09 600.384C1711.68 607.712 1638.25 601.628 1580.86 592.208L1639.31 415.79C1691.97 422.708 1755.68 426.227 1827.27 420.047C1903.46 413.454 1969.94 397.485 2025.01 379.339Z" stroke="#327CEB" stroke-width="0.5"/>
<path d="M1187.25 425.25L1175.27 461.345L1175.27 461.346L1137.38 575.894C1208.55 653.819 1307.44 714.288 1399.14 757.992C1490.88 801.714 1575.42 828.647 1617.8 839.487C1617.8 839.487 1617.8 839.487 1617.8 839.487L1617.73 839.729C1711.96 863.727 1798.77 875.488 1873.9 880.519L1187.25 425.25ZM1187.25 425.25C1196.27 432.585 1205.5 439.853 1214.92 447.12L1214.99 447.172H1215.07H1215.12C1234.28 461.91 1254.31 476.376 1275.3 490.368C1455.97 611.132 1628.07 650.639 1715.44 670.015L1715.44 670.016C1794.19 687.258 1867.58 696.368 1933.31 700.322L1873.72 880.257L1187.25 425.25Z" stroke="#327CEB" stroke-width="0.5"/>
<path d="M1444.08 225.552C1528.48 218.224 1601.98 224.376 1659.3 233.796L1600.92 410.215C1548.26 403.296 1484.61 399.845 1413.03 406.025C1336.75 412.62 1270.33 428.527 1215.25 446.746H1215.24C1205.79 439.391 1196.55 432.102 1187.51 424.681L1239.15 268.669C1295.54 249.452 1364.55 232.48 1444.08 225.552Z" stroke="#327CEB" stroke-width="0.5"/>
<path d="M520.95 321.94C612.654 365.644 711.539 426.147 782.747 504.174L744.791 618.654L732.805 654.814C723.782 647.348 714.559 640.08 705.138 632.879L705.071 632.828H705.003C685.848 618.09 665.811 603.624 644.755 589.632C464.085 468.868 292.05 429.226 204.684 409.985L204.683 409.985C125.871 392.674 52.4799 383.632 -13.1889 379.678L46.3374 199.743C121.469 204.78 208.2 216.54 302.26 240.513C344.667 251.319 429.206 278.218 520.95 321.94Z" stroke="#327CEB" stroke-width="0.5"/>
<path d="M704.884 633.339C714.324 640.556 723.564 647.839 732.601 655.322L680.959 811.335C624.503 830.485 555.492 847.525 475.962 854.384C391.557 861.712 318.125 855.628 260.739 846.208L319.183 669.79C371.845 676.708 435.559 680.227 507.142 674.047C583.337 667.454 649.817 651.485 704.884 633.339Z" stroke="#327CEB" stroke-width="0.5"/>
<path d="M-132.872 679.25L-144.859 715.345L-144.859 715.346L-182.748 829.894C-111.574 907.819 -12.6889 968.288 79.0155 1011.99C170.76 1055.71 255.298 1082.65 297.672 1093.49C297.672 1093.49 297.672 1093.49 297.672 1093.49L297.61 1093.73C391.835 1117.73 478.649 1129.49 553.771 1134.52L-132.872 679.25ZM-132.872 679.25C-123.85 686.585 -114.628 693.853 -105.207 701.12L-105.14 701.172H-105.055H-105.004C-85.8487 715.91 -65.8115 730.376 -44.8244 744.368C135.847 865.132 307.95 904.639 395.316 924.015L395.316 924.016C474.061 941.258 547.452 950.368 613.188 954.322L553.594 1134.26L-132.872 679.25Z" stroke="#327CEB" stroke-width="0.5"/>
<path d="M123.951 479.552C208.356 472.224 281.855 478.376 339.175 487.796L280.798 664.215C228.136 657.296 164.49 653.845 92.9075 660.025C16.626 666.62 -49.7997 682.527 -104.874 700.746H-104.884C-114.331 693.391 -123.576 686.102 -132.62 678.681L-80.9776 522.669C-24.5896 503.452 44.4208 486.48 123.951 479.552Z" stroke="#327CEB" stroke-width="0.5"/>
</g>
</svg>
