<svg width="247" height="134" viewBox="0 0 247 134" fill="none" xmlns="http://www.w3.org/2000/svg">
<g filter="url(#filter0_d_708_3424)">
<rect x="27" y="27" width="193" height="80" rx="20" fill="white"/>
<rect x="27.5" y="27.5" width="192" height="79" rx="19.5" stroke="#002C6E"/>
<rect x="52" y="52" width="30" height="30" rx="15" fill="#DCEAFF"/>
<path fill-rule="evenodd" clip-rule="evenodd" d="M62.253 72.5722L61.4275 71.7467L62.9547 70.2194C63.0267 70.1475 63.0379 70.0347 62.9814 69.95C62.0779 68.5947 62.2566 66.79 63.4083 65.6383L65.7856 63.261C66.1409 62.9057 66.229 62.3629 66.0043 61.9134L65.6491 61.2032C65.5929 61.0908 65.615 60.9551 65.7038 60.8663L66.071 60.4991C66.128 60.4421 66.2204 60.4421 66.2774 60.4991L68.0316 62.2533L70.0954 60.1895C70.2093 60.0755 70.3941 60.0755 70.5081 60.1895L70.9209 60.6023C71.0348 60.7162 71.0348 60.901 70.9209 61.015L68.8571 63.0788L70.9209 65.1426L72.9846 63.0788C73.0986 62.9648 73.2834 62.9648 73.3974 63.0788L73.8102 63.4916C73.9241 63.6055 73.9241 63.7903 73.8102 63.9043L71.7464 65.9681L73.5006 67.7223C73.5576 67.7793 73.5576 67.8717 73.5006 67.9287L73.1334 68.2959C73.0446 68.3847 72.9089 68.4067 72.7965 68.3505L72.0862 67.9954C71.6368 67.7707 71.094 67.8588 70.7386 68.2141L68.3614 70.5913C67.2096 71.7431 65.405 71.9218 64.0497 71.0183C63.965 70.9618 63.8522 70.973 63.7802 71.0449L62.253 72.5722ZM66.4837 67.3095L65.4518 66.2776L68.5475 65.4521L68.9602 65.8648L67.4124 66.5871L68.6506 67.8254L65.3486 68.6509L64.9359 68.2382L66.4837 67.3095Z" fill="#002C6E"/>
<path d="M104.152 67.288C104.749 67.3947 105.256 67.7093 105.672 68.232C106.088 68.7547 106.296 69.3467 106.296 70.008C106.296 70.5733 106.147 71.0853 105.848 71.544C105.56 71.992 105.139 72.3493 104.584 72.616C104.029 72.872 103.384 73 102.648 73H98.2V61.88H102.44C103.197 61.88 103.848 62.008 104.392 62.264C104.936 62.52 105.347 62.8667 105.624 63.304C105.901 63.7307 106.04 64.2107 106.04 64.744C106.04 65.384 105.869 65.9173 105.528 66.344C105.187 66.7707 104.728 67.0853 104.152 67.288ZM100.024 66.552H102.28C102.877 66.552 103.341 66.4187 103.672 66.152C104.013 65.8747 104.184 65.48 104.184 64.968C104.184 64.4667 104.013 64.0773 103.672 63.8C103.341 63.512 102.877 63.368 102.28 63.368H100.024V66.552ZM102.488 71.512C103.107 71.512 103.592 71.3627 103.944 71.064C104.296 70.7653 104.472 70.3493 104.472 69.816C104.472 69.272 104.285 68.84 103.912 68.52C103.539 68.2 103.043 68.04 102.424 68.04H100.024V71.512H102.488ZM116.262 64.184V73H114.438V71.96C114.15 72.3227 113.771 72.6107 113.302 72.824C112.843 73.0267 112.353 73.128 111.83 73.128C111.137 73.128 110.513 72.984 109.958 72.696C109.414 72.408 108.982 71.9813 108.662 71.416C108.353 70.8507 108.198 70.168 108.198 69.368V64.184H110.006V69.096C110.006 69.8853 110.203 70.4933 110.598 70.92C110.993 71.336 111.531 71.544 112.214 71.544C112.897 71.544 113.435 71.336 113.83 70.92C114.235 70.4933 114.438 69.8853 114.438 69.096V64.184H116.262ZM126.605 64.184L121.197 77.144H119.309L121.101 72.856L117.629 64.184H119.661L122.141 70.904L124.717 64.184H126.605ZM138.842 70.728H134.186L133.386 73H131.482L135.466 61.864H137.578L141.562 73H139.642L138.842 70.728ZM138.33 69.24L136.522 64.072L134.698 69.24H138.33ZM144.222 63.016C143.891 63.016 143.614 62.904 143.39 62.68C143.166 62.456 143.054 62.1787 143.054 61.848C143.054 61.5173 143.166 61.24 143.39 61.016C143.614 60.792 143.891 60.68 144.222 60.68C144.542 60.68 144.814 60.792 145.038 61.016C145.262 61.24 145.374 61.5173 145.374 61.848C145.374 62.1787 145.262 62.456 145.038 62.68C144.814 62.904 144.542 63.016 144.222 63.016ZM145.118 64.184V73H143.294V64.184H145.118ZM149.337 65.464C149.603 65.016 149.955 64.6693 150.393 64.424C150.841 64.168 151.369 64.04 151.977 64.04V65.928H151.513C150.798 65.928 150.254 66.1093 149.881 66.472C149.518 66.8347 149.337 67.464 149.337 68.36V73H147.513V64.184H149.337V65.464ZM155.781 65.672V70.552C155.781 70.8827 155.856 71.1227 156.005 71.272C156.165 71.4107 156.432 71.48 156.805 71.48H157.925V73H156.485C155.664 73 155.034 72.808 154.597 72.424C154.16 72.04 153.941 71.416 153.941 70.552V65.672H152.901V64.184H153.941V61.992H155.781V64.184H157.925V65.672H155.781ZM160.534 63.016C160.204 63.016 159.926 62.904 159.702 62.68C159.478 62.456 159.366 62.1787 159.366 61.848C159.366 61.5173 159.478 61.24 159.702 61.016C159.926 60.792 160.204 60.68 160.534 60.68C160.854 60.68 161.126 60.792 161.35 61.016C161.574 61.24 161.686 61.5173 161.686 61.848C161.686 62.1787 161.574 62.456 161.35 62.68C161.126 62.904 160.854 63.016 160.534 63.016ZM161.43 64.184V73H159.606V64.184H161.43ZM174.497 64.04C175.19 64.04 175.809 64.184 176.353 64.472C176.908 64.76 177.34 65.1867 177.649 65.752C177.969 66.3173 178.129 67 178.129 67.8V73H176.321V68.072C176.321 67.2827 176.124 66.68 175.729 66.264C175.334 65.8373 174.796 65.624 174.113 65.624C173.43 65.624 172.886 65.8373 172.481 66.264C172.086 66.68 171.889 67.2827 171.889 68.072V73H170.081V68.072C170.081 67.2827 169.884 66.68 169.489 66.264C169.094 65.8373 168.556 65.624 167.873 65.624C167.19 65.624 166.646 65.8373 166.241 66.264C165.846 66.68 165.649 67.2827 165.649 68.072V73H163.825V64.184H165.649V65.192C165.948 64.8293 166.326 64.5467 166.785 64.344C167.244 64.1413 167.734 64.04 168.257 64.04C168.961 64.04 169.59 64.1893 170.145 64.488C170.7 64.7867 171.126 65.2187 171.425 65.784C171.692 65.2507 172.108 64.8293 172.673 64.52C173.238 64.2 173.846 64.04 174.497 64.04ZM188.53 68.376C188.53 68.7067 188.509 69.0053 188.466 69.272H181.73C181.783 69.976 182.045 70.5413 182.514 70.968C182.983 71.3947 183.559 71.608 184.242 71.608C185.223 71.608 185.917 71.1973 186.322 70.376H188.29C188.023 71.1867 187.538 71.8533 186.834 72.376C186.141 72.888 185.277 73.144 184.242 73.144C183.399 73.144 182.642 72.9573 181.97 72.584C181.309 72.2 180.786 71.6667 180.402 70.984C180.029 70.2907 179.842 69.4907 179.842 68.584C179.842 67.6773 180.023 66.8827 180.386 66.2C180.759 65.5067 181.277 64.9733 181.938 64.6C182.61 64.2267 183.378 64.04 184.242 64.04C185.074 64.04 185.815 64.2213 186.466 64.584C187.117 64.9467 187.623 65.4587 187.986 66.12C188.349 66.7707 188.53 67.5227 188.53 68.376ZM186.626 67.8C186.615 67.128 186.375 66.5893 185.906 66.184C185.437 65.7787 184.855 65.576 184.162 65.576C183.533 65.576 182.994 65.7787 182.546 66.184C182.098 66.5787 181.831 67.1173 181.746 67.8H186.626Z" fill="black"/>
</g>
<defs>
<filter id="filter0_d_708_3424" x="0" y="0" width="247" height="134" filterUnits="userSpaceOnUse" color-interpolation-filters="sRGB">
<feFlood flood-opacity="0" result="BackgroundImageFix"/>
<feColorMatrix in="SourceAlpha" type="matrix" values="0 0 0 0 0 0 0 0 0 0 0 0 0 0 0 0 0 0 127 0" result="hardAlpha"/>
<feMorphology radius="2" operator="dilate" in="SourceAlpha" result="effect1_dropShadow_708_3424"/>
<feOffset/>
<feGaussianBlur stdDeviation="12.5"/>
<feComposite in2="hardAlpha" operator="out"/>
<feColorMatrix type="matrix" values="0 0 0 0 0 0 0 0 0 0.172549 0 0 0 0 0.431373 0 0 0 0.15 0"/>
<feBlend mode="normal" in2="BackgroundImageFix" result="effect1_dropShadow_708_3424"/>
<feBlend mode="normal" in="SourceGraphic" in2="effect1_dropShadow_708_3424" result="shape"/>
</filter>
</defs>
</svg>
