<svg width="360" height="457" viewBox="0 0 360 457" fill="none" xmlns="http://www.w3.org/2000/svg">
<g clip-path="url(#clip0_789_3438)">
<rect y="0.582031" width="360" height="800" rx="30" fill="white"/>
<rect width="360" height="125" transform="translate(0 0.582031)" fill="#002C6E"/>
<path d="M49.762 92.052V95.202H53.992V97.2H49.762V100.53H54.532V102.582H47.242V90H54.532V92.052H49.762ZM59.3421 89.262V102.582H56.8221V89.262H59.3421ZM71.1018 97.38C71.1018 97.74 71.0778 98.064 71.0298 98.352H63.7398C63.7998 99.072 64.0518 99.636 64.4958 100.044C64.9398 100.452 65.4858 100.656 66.1338 100.656C67.0698 100.656 67.7358 100.254 68.1318 99.45H70.8498C70.5618 100.41 70.0098 101.202 69.1938 101.826C68.3778 102.438 67.3758 102.744 66.1878 102.744C65.2278 102.744 64.3638 102.534 63.5958 102.114C62.8398 101.682 62.2458 101.076 61.8138 100.296C61.3938 99.516 61.1838 98.616 61.1838 97.596C61.1838 96.564 61.3938 95.658 61.8138 94.878C62.2338 94.098 62.8218 93.498 63.5778 93.078C64.3338 92.658 65.2038 92.448 66.1878 92.448C67.1358 92.448 67.9818 92.652 68.7258 93.06C69.4818 93.468 70.0638 94.05 70.4718 94.806C70.8918 95.55 71.1018 96.408 71.1018 97.38ZM68.4918 96.66C68.4798 96.012 68.2458 95.496 67.7898 95.112C67.3338 94.716 66.7758 94.518 66.1158 94.518C65.4918 94.518 64.9638 94.71 64.5318 95.094C64.1118 95.466 63.8538 95.988 63.7578 96.66H68.4918ZM72.2932 97.596C72.2932 96.564 72.5032 95.664 72.9232 94.896C73.3432 94.116 73.9252 93.516 74.6692 93.096C75.4132 92.664 76.2652 92.448 77.2252 92.448C78.4612 92.448 79.4812 92.76 80.2852 93.384C81.1012 93.996 81.6472 94.86 81.9232 95.976H79.2052C79.0612 95.544 78.8152 95.208 78.4672 94.968C78.1312 94.716 77.7112 94.59 77.2072 94.59C76.4872 94.59 75.9172 94.854 75.4972 95.382C75.0772 95.898 74.8672 96.636 74.8672 97.596C74.8672 98.544 75.0772 99.282 75.4972 99.81C75.9172 100.326 76.4872 100.584 77.2072 100.584C78.2272 100.584 78.8932 100.128 79.2052 99.216H81.9232C81.6472 100.296 81.1012 101.154 80.2852 101.79C79.4692 102.426 78.4492 102.744 77.2252 102.744C76.2652 102.744 75.4132 102.534 74.6692 102.114C73.9252 101.682 73.3432 101.082 72.9232 100.314C72.5032 99.534 72.2932 98.628 72.2932 97.596ZM86.7033 94.68V99.504C86.7033 99.84 86.7813 100.086 86.9373 100.242C87.1053 100.386 87.3813 100.458 87.7653 100.458H88.9353V102.582H87.3513C85.2273 102.582 84.1653 101.55 84.1653 99.486V94.68H82.9773V92.61H84.1653V90.144H86.7033V92.61H88.9353V94.68H86.7033ZM93.2679 94.158C93.5919 93.63 94.0119 93.216 94.5279 92.916C95.0559 92.616 95.6559 92.466 96.3279 92.466V95.112H95.6619C94.8699 95.112 94.2699 95.298 93.8619 95.67C93.4659 96.042 93.2679 96.69 93.2679 97.614V102.582H90.7479V92.61H93.2679V94.158ZM99.3032 91.422C98.8592 91.422 98.4872 91.284 98.1872 91.008C97.8992 90.72 97.7552 90.366 97.7552 89.946C97.7552 89.526 97.8992 89.178 98.1872 88.902C98.4872 88.614 98.8592 88.47 99.3032 88.47C99.7472 88.47 100.113 88.614 100.401 88.902C100.701 89.178 100.851 89.526 100.851 89.946C100.851 90.366 100.701 90.72 100.401 91.008C100.113 91.284 99.7472 91.422 99.3032 91.422ZM100.545 92.61V102.582H98.0252V92.61H100.545ZM102.387 97.596C102.387 96.564 102.597 95.664 103.017 94.896C103.437 94.116 104.019 93.516 104.763 93.096C105.507 92.664 106.359 92.448 107.319 92.448C108.555 92.448 109.575 92.76 110.379 93.384C111.195 93.996 111.741 94.86 112.017 95.976H109.299C109.155 95.544 108.909 95.208 108.561 94.968C108.225 94.716 107.805 94.59 107.301 94.59C106.581 94.59 106.011 94.854 105.591 95.382C105.171 95.898 104.961 96.636 104.961 97.596C104.961 98.544 105.171 99.282 105.591 99.81C106.011 100.326 106.581 100.584 107.301 100.584C108.321 100.584 108.987 100.128 109.299 99.216H112.017C111.741 100.296 111.195 101.154 110.379 101.79C109.563 102.426 108.543 102.744 107.319 102.744C106.359 102.744 105.507 102.534 104.763 102.114C104.019 101.682 103.437 101.082 103.017 100.314C102.597 99.534 102.387 98.628 102.387 97.596ZM115.141 91.422C114.697 91.422 114.325 91.284 114.025 91.008C113.737 90.72 113.593 90.366 113.593 89.946C113.593 89.526 113.737 89.178 114.025 88.902C114.325 88.614 114.697 88.47 115.141 88.47C115.585 88.47 115.951 88.614 116.239 88.902C116.539 89.178 116.689 89.526 116.689 89.946C116.689 90.366 116.539 90.72 116.239 91.008C115.951 91.284 115.585 91.422 115.141 91.422ZM116.383 92.61V102.582H113.863V92.61H116.383ZM121.807 94.68V99.504C121.807 99.84 121.885 100.086 122.041 100.242C122.209 100.386 122.485 100.458 122.869 100.458H124.039V102.582H122.455C120.331 102.582 119.269 101.55 119.269 99.486V94.68H118.081V92.61H119.269V90.144H121.807V92.61H124.039V94.68H121.807ZM135.391 92.61L129.217 107.298H126.535L128.695 102.33L124.699 92.61H127.525L130.099 99.576L132.709 92.61H135.391ZM148.167 96.138C148.875 96.27 149.457 96.624 149.913 97.2C150.369 97.776 150.597 98.436 150.597 99.18C150.597 99.852 150.429 100.446 150.093 100.962C149.769 101.466 149.295 101.862 148.671 102.15C148.047 102.438 147.309 102.582 146.457 102.582H141.039V90.018H146.223C147.075 90.018 147.807 90.156 148.419 90.432C149.043 90.708 149.511 91.092 149.823 91.584C150.147 92.076 150.309 92.634 150.309 93.258C150.309 93.99 150.111 94.602 149.715 95.094C149.331 95.586 148.815 95.934 148.167 96.138ZM143.559 95.202H145.863C146.463 95.202 146.925 95.07 147.249 94.806C147.573 94.53 147.735 94.14 147.735 93.636C147.735 93.132 147.573 92.742 147.249 92.466C146.925 92.19 146.463 92.052 145.863 92.052H143.559V95.202ZM146.097 100.53C146.709 100.53 147.183 100.386 147.519 100.098C147.867 99.81 148.041 99.402 148.041 98.874C148.041 98.334 147.861 97.914 147.501 97.614C147.141 97.302 146.655 97.146 146.043 97.146H143.559V100.53H146.097ZM153.883 91.422C153.439 91.422 153.067 91.284 152.767 91.008C152.479 90.72 152.335 90.366 152.335 89.946C152.335 89.526 152.479 89.178 152.767 88.902C153.067 88.614 153.439 88.47 153.883 88.47C154.327 88.47 154.693 88.614 154.981 88.902C155.281 89.178 155.431 89.526 155.431 89.946C155.431 90.366 155.281 90.72 154.981 91.008C154.693 91.284 154.327 91.422 153.883 91.422ZM155.125 92.61V102.582H152.605V92.61H155.125ZM160.135 89.262V102.582H157.615V89.262H160.135ZM165.145 89.262V102.582H162.625V89.262H165.145Z" fill="white"/>
<path d="M31 97.582C31.5523 97.582 32 97.1343 32 96.582C32 96.0297 31.5523 95.582 31 95.582V97.582ZM15.2929 95.8749C14.9024 96.2654 14.9024 96.8986 15.2929 97.2891L21.6569 103.653C22.0474 104.044 22.6805 104.044 23.0711 103.653C23.4616 103.263 23.4616 102.629 23.0711 102.239L17.4142 96.582L23.0711 90.9252C23.4616 90.5347 23.4616 89.9015 23.0711 89.511C22.6805 89.1204 22.0474 89.1204 21.6569 89.511L15.2929 95.8749ZM31 95.582H16V97.582H31V95.582Z" fill="white"/>
<path d="M15.42 165.382C15.42 164.558 15.604 163.822 15.972 163.174C16.348 162.518 16.856 162.01 17.496 161.65C18.144 161.282 18.868 161.098 19.668 161.098C20.604 161.098 21.424 161.338 22.128 161.818C22.832 162.298 23.324 162.962 23.604 163.81H21.672C21.48 163.41 21.208 163.11 20.856 162.91C20.512 162.71 20.112 162.61 19.656 162.61C19.168 162.61 18.732 162.726 18.348 162.958C17.972 163.182 17.676 163.502 17.46 163.918C17.252 164.334 17.148 164.822 17.148 165.382C17.148 165.934 17.252 166.422 17.46 166.846C17.676 167.262 17.972 167.586 18.348 167.818C18.732 168.042 19.168 168.154 19.656 168.154C20.112 168.154 20.512 168.054 20.856 167.854C21.208 167.646 21.48 167.342 21.672 166.942H23.604C23.324 167.798 22.832 168.466 22.128 168.946C21.432 169.418 20.612 169.654 19.668 169.654C18.868 169.654 18.144 169.474 17.496 169.114C16.856 168.746 16.348 168.238 15.972 167.59C15.604 166.942 15.42 166.206 15.42 165.382ZM28.7829 162.838C29.2869 162.838 29.7349 162.95 30.1269 163.174C30.5189 163.39 30.8229 163.714 31.0389 164.146C31.2629 164.57 31.3749 165.082 31.3749 165.682V169.582H29.6949V165.91C29.6949 165.382 29.5629 164.978 29.2989 164.698C29.0349 164.41 28.6749 164.266 28.2189 164.266C27.7549 164.266 27.3869 164.41 27.1149 164.698C26.8509 164.978 26.7189 165.382 26.7189 165.91V169.582H25.0389V160.702H26.7189V163.762C26.9349 163.474 27.2229 163.25 27.5829 163.09C27.9429 162.922 28.3429 162.838 28.7829 162.838ZM35.9245 169.69C35.2845 169.69 34.7085 169.55 34.1965 169.27C33.6845 168.982 33.2805 168.578 32.9845 168.058C32.6965 167.538 32.5525 166.938 32.5525 166.258C32.5525 165.578 32.7005 164.978 32.9965 164.458C33.3005 163.938 33.7125 163.538 34.2325 163.258C34.7525 162.97 35.3325 162.826 35.9725 162.826C36.6125 162.826 37.1925 162.97 37.7125 163.258C38.2325 163.538 38.6405 163.938 38.9365 164.458C39.2405 164.978 39.3925 165.578 39.3925 166.258C39.3925 166.938 39.2365 167.538 38.9245 168.058C38.6205 168.578 38.2045 168.982 37.6765 169.27C37.1565 169.55 36.5725 169.69 35.9245 169.69ZM35.9245 168.226C36.2285 168.226 36.5125 168.154 36.7765 168.01C37.0485 167.858 37.2645 167.634 37.4245 167.338C37.5845 167.042 37.6645 166.682 37.6645 166.258C37.6645 165.626 37.4965 165.142 37.1605 164.806C36.8325 164.462 36.4285 164.29 35.9485 164.29C35.4685 164.29 35.0645 164.462 34.7365 164.806C34.4165 165.142 34.2565 165.626 34.2565 166.258C34.2565 166.89 34.4125 167.378 34.7245 167.722C35.0445 168.058 35.4445 168.226 35.9245 168.226ZM43.5769 169.69C42.9369 169.69 42.3609 169.55 41.8489 169.27C41.3369 168.982 40.9329 168.578 40.6369 168.058C40.3489 167.538 40.2049 166.938 40.2049 166.258C40.2049 165.578 40.3529 164.978 40.6489 164.458C40.9529 163.938 41.3649 163.538 41.8849 163.258C42.4049 162.97 42.9849 162.826 43.6249 162.826C44.2649 162.826 44.8449 162.97 45.3649 163.258C45.8849 163.538 46.2929 163.938 46.5889 164.458C46.8929 164.978 47.0449 165.578 47.0449 166.258C47.0449 166.938 46.8889 167.538 46.5769 168.058C46.2729 168.578 45.8569 168.982 45.3289 169.27C44.8089 169.55 44.2249 169.69 43.5769 169.69ZM43.5769 168.226C43.8809 168.226 44.1649 168.154 44.4289 168.01C44.7009 167.858 44.9169 167.634 45.0769 167.338C45.2369 167.042 45.3169 166.682 45.3169 166.258C45.3169 165.626 45.1489 165.142 44.8129 164.806C44.4849 164.462 44.0809 164.29 43.6009 164.29C43.1209 164.29 42.7169 164.462 42.3889 164.806C42.0689 165.142 41.9089 165.626 41.9089 166.258C41.9089 166.89 42.0649 167.378 42.3769 167.722C42.6969 168.058 43.0969 168.226 43.5769 168.226ZM50.8212 169.69C50.2772 169.69 49.7892 169.594 49.3572 169.402C48.9252 169.202 48.5812 168.934 48.3252 168.598C48.0772 168.262 47.9412 167.89 47.9172 167.482H49.6092C49.6412 167.738 49.7652 167.95 49.9812 168.118C50.2052 168.286 50.4812 168.37 50.8092 168.37C51.1292 168.37 51.3772 168.306 51.5532 168.178C51.7372 168.05 51.8292 167.886 51.8292 167.686C51.8292 167.47 51.7172 167.31 51.4932 167.206C51.2772 167.094 50.9292 166.974 50.4492 166.846C49.9532 166.726 49.5452 166.602 49.2252 166.474C48.9132 166.346 48.6412 166.15 48.4092 165.886C48.1852 165.622 48.0732 165.266 48.0732 164.818C48.0732 164.45 48.1772 164.114 48.3852 163.81C48.6012 163.506 48.9052 163.266 49.2972 163.09C49.6972 162.914 50.1652 162.826 50.7012 162.826C51.4932 162.826 52.1252 163.026 52.5972 163.426C53.0692 163.818 53.3292 164.35 53.3772 165.022H51.7692C51.7452 164.758 51.6332 164.55 51.4332 164.398C51.2412 164.238 50.9812 164.158 50.6532 164.158C50.3492 164.158 50.1132 164.214 49.9452 164.326C49.7852 164.438 49.7052 164.594 49.7052 164.794C49.7052 165.018 49.8172 165.19 50.0412 165.31C50.2652 165.422 50.6132 165.538 51.0852 165.658C51.5652 165.778 51.9612 165.902 52.2732 166.03C52.5852 166.158 52.8532 166.358 53.0772 166.63C53.3092 166.894 53.4292 167.246 53.4372 167.686C53.4372 168.07 53.3292 168.414 53.1132 168.718C52.9052 169.022 52.6012 169.262 52.2012 169.438C51.8092 169.606 51.3492 169.69 50.8212 169.69ZM60.9963 166.114C60.9963 166.354 60.9803 166.57 60.9483 166.762H56.0883C56.1283 167.242 56.2963 167.618 56.5923 167.89C56.8883 168.162 57.2523 168.298 57.6843 168.298C58.3083 168.298 58.7523 168.03 59.0163 167.494H60.8283C60.6363 168.134 60.2683 168.662 59.7243 169.078C59.1803 169.486 58.5123 169.69 57.7203 169.69C57.0803 169.69 56.5043 169.55 55.9923 169.27C55.4883 168.982 55.0923 168.578 54.8043 168.058C54.5243 167.538 54.3843 166.938 54.3843 166.258C54.3843 165.57 54.5243 164.966 54.8043 164.446C55.0843 163.926 55.4763 163.526 55.9803 163.246C56.4843 162.966 57.0643 162.826 57.7203 162.826C58.3523 162.826 58.9163 162.962 59.4123 163.234C59.9163 163.506 60.3043 163.894 60.5763 164.398C60.8563 164.894 60.9963 165.466 60.9963 166.114ZM59.2563 165.634C59.2483 165.202 59.0923 164.858 58.7883 164.602C58.4843 164.338 58.1123 164.206 57.6723 164.206C57.2563 164.206 56.9043 164.334 56.6163 164.59C56.3363 164.838 56.1643 165.186 56.1003 165.634H59.2563ZM71.1899 163.798C71.1899 164.246 71.0819 164.666 70.8659 165.058C70.6579 165.45 70.3259 165.766 69.8699 166.006C69.4219 166.246 68.8539 166.366 68.1659 166.366H66.7619V169.582H65.0819V161.206H68.1659C68.8139 161.206 69.3659 161.318 69.8219 161.542C70.2779 161.766 70.6179 162.074 70.8419 162.466C71.0739 162.858 71.1899 163.302 71.1899 163.798ZM68.0939 165.01C68.5579 165.01 68.9019 164.906 69.1259 164.698C69.3499 164.482 69.4619 164.182 69.4619 163.798C69.4619 162.982 69.0059 162.574 68.0939 162.574H66.7619V165.01H68.0939ZM75.3347 169.69C74.6947 169.69 74.1187 169.55 73.6067 169.27C73.0947 168.982 72.6907 168.578 72.3947 168.058C72.1067 167.538 71.9627 166.938 71.9627 166.258C71.9627 165.578 72.1107 164.978 72.4067 164.458C72.7107 163.938 73.1227 163.538 73.6427 163.258C74.1627 162.97 74.7427 162.826 75.3827 162.826C76.0227 162.826 76.6027 162.97 77.1227 163.258C77.6427 163.538 78.0507 163.938 78.3467 164.458C78.6507 164.978 78.8027 165.578 78.8027 166.258C78.8027 166.938 78.6467 167.538 78.3347 168.058C78.0307 168.578 77.6147 168.982 77.0867 169.27C76.5667 169.55 75.9827 169.69 75.3347 169.69ZM75.3347 168.226C75.6387 168.226 75.9227 168.154 76.1867 168.01C76.4587 167.858 76.6747 167.634 76.8347 167.338C76.9947 167.042 77.0747 166.682 77.0747 166.258C77.0747 165.626 76.9067 165.142 76.5707 164.806C76.2427 164.462 75.8387 164.29 75.3587 164.29C74.8787 164.29 74.4747 164.462 74.1467 164.806C73.8267 165.142 73.6667 165.626 73.6667 166.258C73.6667 166.89 73.8227 167.378 74.1347 167.722C74.4547 168.058 74.8547 168.226 75.3347 168.226ZM89.251 162.934L87.307 169.582H85.495L84.283 164.938L83.071 169.582H81.247L79.291 162.934H80.995L82.171 167.998L83.443 162.934H85.219L86.467 167.986L87.643 162.934H89.251ZM96.34 166.114C96.34 166.354 96.324 166.57 96.292 166.762H91.432C91.472 167.242 91.64 167.618 91.936 167.89C92.232 168.162 92.596 168.298 93.028 168.298C93.652 168.298 94.096 168.03 94.36 167.494H96.172C95.98 168.134 95.612 168.662 95.068 169.078C94.524 169.486 93.856 169.69 93.064 169.69C92.424 169.69 91.848 169.55 91.336 169.27C90.832 168.982 90.436 168.578 90.148 168.058C89.868 167.538 89.728 166.938 89.728 166.258C89.728 165.57 89.868 164.966 90.148 164.446C90.428 163.926 90.82 163.526 91.324 163.246C91.828 162.966 92.408 162.826 93.064 162.826C93.696 162.826 94.26 162.962 94.756 163.234C95.26 163.506 95.648 163.894 95.92 164.398C96.2 164.894 96.34 165.466 96.34 166.114ZM94.6 165.634C94.592 165.202 94.436 164.858 94.132 164.602C93.828 164.338 93.456 164.206 93.016 164.206C92.6 164.206 92.248 164.334 91.96 164.59C91.68 164.838 91.508 165.186 91.444 165.634H94.6ZM99.2463 163.966C99.4623 163.614 99.7423 163.338 100.086 163.138C100.438 162.938 100.838 162.838 101.286 162.838V164.602H100.842C100.314 164.602 99.9143 164.726 99.6423 164.974C99.3783 165.222 99.2463 165.654 99.2463 166.27V169.582H97.5663V162.934H99.2463V163.966ZM104.869 165.382C104.869 164.558 105.053 163.822 105.421 163.174C105.797 162.518 106.305 162.01 106.945 161.65C107.593 161.282 108.317 161.098 109.117 161.098C110.053 161.098 110.873 161.338 111.577 161.818C112.281 162.298 112.773 162.962 113.053 163.81H111.121C110.929 163.41 110.657 163.11 110.305 162.91C109.961 162.71 109.561 162.61 109.105 162.61C108.617 162.61 108.181 162.726 107.797 162.958C107.421 163.182 107.125 163.502 106.909 163.918C106.701 164.334 106.597 164.822 106.597 165.382C106.597 165.934 106.701 166.422 106.909 166.846C107.125 167.262 107.421 167.586 107.797 167.818C108.181 168.042 108.617 168.154 109.105 168.154C109.561 168.154 109.961 168.054 110.305 167.854C110.657 167.646 110.929 167.342 111.121 166.942H113.053C112.773 167.798 112.281 168.466 111.577 168.946C110.881 169.418 110.061 169.654 109.117 169.654C108.317 169.654 107.593 169.474 106.945 169.114C106.305 168.746 105.797 168.238 105.421 167.59C105.053 166.942 104.869 166.206 104.869 165.382ZM117.44 169.69C116.8 169.69 116.224 169.55 115.712 169.27C115.2 168.982 114.796 168.578 114.5 168.058C114.212 167.538 114.068 166.938 114.068 166.258C114.068 165.578 114.216 164.978 114.512 164.458C114.816 163.938 115.228 163.538 115.748 163.258C116.268 162.97 116.848 162.826 117.488 162.826C118.128 162.826 118.708 162.97 119.228 163.258C119.748 163.538 120.156 163.938 120.452 164.458C120.756 164.978 120.908 165.578 120.908 166.258C120.908 166.938 120.752 167.538 120.44 168.058C120.136 168.578 119.72 168.982 119.192 169.27C118.672 169.55 118.088 169.69 117.44 169.69ZM117.44 168.226C117.744 168.226 118.028 168.154 118.292 168.01C118.564 167.858 118.78 167.634 118.94 167.338C119.1 167.042 119.18 166.682 119.18 166.258C119.18 165.626 119.012 165.142 118.676 164.806C118.348 164.462 117.944 164.29 117.464 164.29C116.984 164.29 116.58 164.462 116.252 164.806C115.932 165.142 115.772 165.626 115.772 166.258C115.772 166.89 115.928 167.378 116.24 167.722C116.56 168.058 116.96 168.226 117.44 168.226ZM130.397 162.838C131.213 162.838 131.869 163.09 132.365 163.594C132.869 164.09 133.121 164.786 133.121 165.682V169.582H131.441V165.91C131.441 165.39 131.309 164.994 131.045 164.722C130.781 164.442 130.421 164.302 129.965 164.302C129.509 164.302 129.145 164.442 128.873 164.722C128.609 164.994 128.477 165.39 128.477 165.91V169.582H126.797V165.91C126.797 165.39 126.665 164.994 126.401 164.722C126.137 164.442 125.777 164.302 125.321 164.302C124.857 164.302 124.489 164.442 124.217 164.722C123.953 164.994 123.821 165.39 123.821 165.91V169.582H122.141V162.934H123.821V163.738C124.037 163.458 124.313 163.238 124.649 163.078C124.993 162.918 125.369 162.838 125.777 162.838C126.297 162.838 126.761 162.95 127.169 163.174C127.577 163.39 127.893 163.702 128.117 164.11C128.333 163.726 128.645 163.418 129.053 163.186C129.469 162.954 129.917 162.838 130.397 162.838ZM136.395 163.894C136.611 163.59 136.907 163.338 137.283 163.138C137.667 162.93 138.103 162.826 138.591 162.826C139.159 162.826 139.671 162.966 140.127 163.246C140.591 163.526 140.955 163.926 141.219 164.446C141.491 164.958 141.627 165.554 141.627 166.234C141.627 166.914 141.491 167.518 141.219 168.046C140.955 168.566 140.591 168.97 140.127 169.258C139.671 169.546 139.159 169.69 138.591 169.69C138.103 169.69 137.671 169.59 137.295 169.39C136.927 169.19 136.627 168.938 136.395 168.634V172.75H134.715V162.934H136.395V163.894ZM139.911 166.234C139.911 165.834 139.827 165.49 139.659 165.202C139.499 164.906 139.283 164.682 139.011 164.53C138.747 164.378 138.459 164.302 138.147 164.302C137.843 164.302 137.555 164.382 137.283 164.542C137.019 164.694 136.803 164.918 136.635 165.214C136.475 165.51 136.395 165.858 136.395 166.258C136.395 166.658 136.475 167.006 136.635 167.302C136.803 167.598 137.019 167.826 137.283 167.986C137.555 168.138 137.843 168.214 138.147 168.214C138.459 168.214 138.747 168.134 139.011 167.974C139.283 167.814 139.499 167.586 139.659 167.29C139.827 166.994 139.911 166.642 139.911 166.234ZM142.416 166.234C142.416 165.562 142.548 164.966 142.812 164.446C143.084 163.926 143.448 163.526 143.904 163.246C144.368 162.966 144.884 162.826 145.452 162.826C145.948 162.826 146.38 162.926 146.748 163.126C147.124 163.326 147.424 163.578 147.648 163.882V162.934H149.34V169.582H147.648V168.61C147.432 168.922 147.132 169.182 146.748 169.39C146.372 169.59 145.936 169.69 145.44 169.69C144.88 169.69 144.368 169.546 143.904 169.258C143.448 168.97 143.084 168.566 142.812 168.046C142.548 167.518 142.416 166.914 142.416 166.234ZM147.648 166.258C147.648 165.85 147.568 165.502 147.408 165.214C147.248 164.918 147.032 164.694 146.76 164.542C146.488 164.382 146.196 164.302 145.884 164.302C145.572 164.302 145.284 164.378 145.02 164.53C144.756 164.682 144.54 164.906 144.372 165.202C144.212 165.49 144.132 165.834 144.132 166.234C144.132 166.634 144.212 166.986 144.372 167.29C144.54 167.586 144.756 167.814 145.02 167.974C145.292 168.134 145.58 168.214 145.884 168.214C146.196 168.214 146.488 168.138 146.76 167.986C147.032 167.826 147.248 167.602 147.408 167.314C147.568 167.018 147.648 166.666 147.648 166.258ZM154.664 162.838C155.456 162.838 156.096 163.09 156.584 163.594C157.072 164.09 157.316 164.786 157.316 165.682V169.582H155.636V165.91C155.636 165.382 155.504 164.978 155.24 164.698C154.976 164.41 154.616 164.266 154.16 164.266C153.696 164.266 153.328 164.41 153.056 164.698C152.792 164.978 152.66 165.382 152.66 165.91V169.582H150.98V162.934H152.66V163.762C152.884 163.474 153.168 163.25 153.512 163.09C153.864 162.922 154.248 162.838 154.664 162.838ZM165.274 162.934L161.158 172.726H159.37L160.81 169.414L158.146 162.934H160.03L161.746 167.578L163.486 162.934H165.274Z" fill="black"/>
<path d="M17.508 282.562V284.662H20.328V285.994H17.508V288.214H20.688V289.582H15.828V281.194H20.688V282.562H17.508ZM25.8987 282.838C26.6907 282.838 27.3307 283.09 27.8187 283.594C28.3067 284.09 28.5507 284.786 28.5507 285.682V289.582H26.8707V285.91C26.8707 285.382 26.7387 284.978 26.4747 284.698C26.2107 284.41 25.8507 284.266 25.3947 284.266C24.9307 284.266 24.5627 284.41 24.2907 284.698C24.0267 284.978 23.8947 285.382 23.8947 285.91V289.582H22.2147V282.934H23.8947V283.762C24.1187 283.474 24.4027 283.25 24.7467 283.09C25.0987 282.922 25.4827 282.838 25.8987 282.838ZM32.1043 284.314V287.53C32.1043 287.754 32.1563 287.918 32.2603 288.022C32.3723 288.118 32.5563 288.166 32.8123 288.166H33.5923V289.582H32.5363C31.1203 289.582 30.4123 288.894 30.4123 287.518V284.314H29.6203V282.934H30.4123V281.29H32.1043V282.934H33.5923V284.314H32.1043ZM40.9807 286.114C40.9807 286.354 40.9647 286.57 40.9327 286.762H36.0727C36.1127 287.242 36.2807 287.618 36.5767 287.89C36.8727 288.162 37.2367 288.298 37.6687 288.298C38.2927 288.298 38.7367 288.03 39.0007 287.494H40.8127C40.6207 288.134 40.2527 288.662 39.7087 289.078C39.1647 289.486 38.4967 289.69 37.7047 289.69C37.0647 289.69 36.4887 289.55 35.9767 289.27C35.4727 288.982 35.0767 288.578 34.7887 288.058C34.5087 287.538 34.3687 286.938 34.3687 286.258C34.3687 285.57 34.5087 284.966 34.7887 284.446C35.0687 283.926 35.4607 283.526 35.9647 283.246C36.4687 282.966 37.0487 282.826 37.7047 282.826C38.3367 282.826 38.9007 282.962 39.3967 283.234C39.9007 283.506 40.2887 283.894 40.5607 284.398C40.8407 284.894 40.9807 285.466 40.9807 286.114ZM39.2407 285.634C39.2327 285.202 39.0767 284.858 38.7727 284.602C38.4687 284.338 38.0967 284.206 37.6567 284.206C37.2407 284.206 36.8887 284.334 36.6007 284.59C36.3207 284.838 36.1487 285.186 36.0847 285.634H39.2407ZM43.8869 283.966C44.1029 283.614 44.3829 283.338 44.7269 283.138C45.0789 282.938 45.4789 282.838 45.9269 282.838V284.602H45.4829C44.9549 284.602 44.5549 284.726 44.2829 284.974C44.0189 285.222 43.8869 285.654 43.8869 286.27V289.582H42.2069V282.934H43.8869V283.966ZM59.0498 281.206V289.582H57.3698V284.134L55.1258 289.582H53.8538L51.5978 284.134V289.582H49.9178V281.206H51.8258L54.4898 287.434L57.1538 281.206H59.0498ZM66.8908 286.114C66.8908 286.354 66.8748 286.57 66.8428 286.762H61.9828C62.0228 287.242 62.1908 287.618 62.4868 287.89C62.7828 288.162 63.1468 288.298 63.5788 288.298C64.2028 288.298 64.6468 288.03 64.9108 287.494H66.7228C66.5308 288.134 66.1628 288.662 65.6188 289.078C65.0748 289.486 64.4068 289.69 63.6148 289.69C62.9748 289.69 62.3988 289.55 61.8868 289.27C61.3828 288.982 60.9868 288.578 60.6988 288.058C60.4188 287.538 60.2788 286.938 60.2788 286.258C60.2788 285.57 60.4188 284.966 60.6988 284.446C60.9788 283.926 61.3708 283.526 61.8748 283.246C62.3788 282.966 62.9588 282.826 63.6148 282.826C64.2468 282.826 64.8108 282.962 65.3068 283.234C65.8108 283.506 66.1988 283.894 66.4708 284.398C66.7508 284.894 66.8908 285.466 66.8908 286.114ZM65.1508 285.634C65.1428 285.202 64.9868 284.858 64.6828 284.602C64.3788 284.338 64.0068 284.206 63.5668 284.206C63.1508 284.206 62.7988 284.334 62.5108 284.59C62.2308 284.838 62.0588 285.186 61.9948 285.634H65.1508ZM70.0731 284.314V287.53C70.0731 287.754 70.1251 287.918 70.2291 288.022C70.3411 288.118 70.5251 288.166 70.7811 288.166H71.5611V289.582H70.5051C69.0891 289.582 68.3811 288.894 68.3811 287.518V284.314H67.5891V282.934H68.3811V281.29H70.0731V282.934H71.5611V284.314H70.0731ZM78.9494 286.114C78.9494 286.354 78.9334 286.57 78.9014 286.762H74.0414C74.0814 287.242 74.2494 287.618 74.5454 287.89C74.8414 288.162 75.2054 288.298 75.6374 288.298C76.2614 288.298 76.7054 288.03 76.9694 287.494H78.7814C78.5894 288.134 78.2214 288.662 77.6774 289.078C77.1334 289.486 76.4654 289.69 75.6734 289.69C75.0334 289.69 74.4574 289.55 73.9454 289.27C73.4414 288.982 73.0454 288.578 72.7574 288.058C72.4774 287.538 72.3374 286.938 72.3374 286.258C72.3374 285.57 72.4774 284.966 72.7574 284.446C73.0374 283.926 73.4294 283.526 73.9334 283.246C74.4374 282.966 75.0174 282.826 75.6734 282.826C76.3054 282.826 76.8694 282.962 77.3654 283.234C77.8694 283.506 78.2574 283.894 78.5294 284.398C78.8094 284.894 78.9494 285.466 78.9494 286.114ZM77.2094 285.634C77.2014 285.202 77.0454 284.858 76.7414 284.602C76.4374 284.338 76.0654 284.206 75.6254 284.206C75.2094 284.206 74.8574 284.334 74.5694 284.59C74.2894 284.838 74.1174 285.186 74.0534 285.634H77.2094ZM81.8557 283.966C82.0717 283.614 82.3517 283.338 82.6957 283.138C83.0477 282.938 83.4477 282.838 83.8957 282.838V284.602H83.4517C82.9237 284.602 82.5237 284.726 82.2517 284.974C81.9877 285.222 81.8557 285.654 81.8557 286.27V289.582H80.1757V282.934H81.8557V283.966ZM95.0506 289.582H93.3706L89.5666 283.834V289.582H87.8866V281.194H89.5666L93.3706 286.954V281.194H95.0506V289.582ZM102.987 282.934V289.582H101.295V288.742C101.079 289.03 100.795 289.258 100.443 289.426C100.099 289.586 99.7228 289.666 99.3148 289.666C98.7948 289.666 98.3348 289.558 97.9348 289.342C97.5348 289.118 97.2188 288.794 96.9868 288.37C96.7628 287.938 96.6508 287.426 96.6508 286.834V282.934H98.3308V286.594C98.3308 287.122 98.4628 287.53 98.7268 287.818C98.9908 288.098 99.3508 288.238 99.8068 288.238C100.271 288.238 100.635 288.098 100.899 287.818C101.163 287.53 101.295 287.122 101.295 286.594V282.934H102.987ZM112.9 282.838C113.716 282.838 114.372 283.09 114.868 283.594C115.372 284.09 115.624 284.786 115.624 285.682V289.582H113.944V285.91C113.944 285.39 113.812 284.994 113.548 284.722C113.284 284.442 112.924 284.302 112.468 284.302C112.012 284.302 111.648 284.442 111.376 284.722C111.112 284.994 110.98 285.39 110.98 285.91V289.582H109.3V285.91C109.3 285.39 109.168 284.994 108.904 284.722C108.64 284.442 108.28 284.302 107.824 284.302C107.36 284.302 106.992 284.442 106.72 284.722C106.456 284.994 106.324 285.39 106.324 285.91V289.582H104.644V282.934H106.324V283.738C106.54 283.458 106.816 283.238 107.152 283.078C107.496 282.918 107.872 282.838 108.28 282.838C108.8 282.838 109.264 282.95 109.672 283.174C110.08 283.39 110.396 283.702 110.62 284.11C110.836 283.726 111.148 283.418 111.556 283.186C111.972 282.954 112.42 282.838 112.9 282.838ZM118.899 283.906C119.115 283.586 119.411 283.326 119.787 283.126C120.171 282.926 120.607 282.826 121.095 282.826C121.663 282.826 122.175 282.966 122.631 283.246C123.095 283.526 123.459 283.926 123.723 284.446C123.995 284.958 124.131 285.554 124.131 286.234C124.131 286.914 123.995 287.518 123.723 288.046C123.459 288.566 123.095 288.97 122.631 289.258C122.175 289.546 121.663 289.69 121.095 289.69C120.599 289.69 120.163 289.594 119.787 289.402C119.419 289.202 119.123 288.946 118.899 288.634V289.582H117.219V280.702H118.899V283.906ZM122.415 286.234C122.415 285.834 122.331 285.49 122.163 285.202C122.003 284.906 121.787 284.682 121.515 284.53C121.251 284.378 120.963 284.302 120.651 284.302C120.347 284.302 120.059 284.382 119.787 284.542C119.523 284.694 119.307 284.918 119.139 285.214C118.979 285.51 118.899 285.858 118.899 286.258C118.899 286.658 118.979 287.006 119.139 287.302C119.307 287.598 119.523 287.826 119.787 287.986C120.059 288.138 120.347 288.214 120.651 288.214C120.963 288.214 121.251 288.134 121.515 287.974C121.787 287.814 122.003 287.586 122.163 287.29C122.331 286.994 122.415 286.642 122.415 286.234ZM131.531 286.114C131.531 286.354 131.515 286.57 131.483 286.762H126.623C126.663 287.242 126.831 287.618 127.127 287.89C127.423 288.162 127.787 288.298 128.219 288.298C128.843 288.298 129.287 288.03 129.551 287.494H131.363C131.171 288.134 130.803 288.662 130.259 289.078C129.715 289.486 129.047 289.69 128.255 289.69C127.615 289.69 127.039 289.55 126.527 289.27C126.023 288.982 125.627 288.578 125.339 288.058C125.059 287.538 124.919 286.938 124.919 286.258C124.919 285.57 125.059 284.966 125.339 284.446C125.619 283.926 126.011 283.526 126.515 283.246C127.019 282.966 127.599 282.826 128.255 282.826C128.887 282.826 129.451 282.962 129.947 283.234C130.451 283.506 130.839 283.894 131.111 284.398C131.391 284.894 131.531 285.466 131.531 286.114ZM129.791 285.634C129.783 285.202 129.627 284.858 129.323 284.602C129.019 284.338 128.647 284.206 128.207 284.206C127.791 284.206 127.439 284.334 127.151 284.59C126.871 284.838 126.699 285.186 126.635 285.634H129.791ZM134.438 283.966C134.654 283.614 134.934 283.338 135.278 283.138C135.63 282.938 136.03 282.838 136.478 282.838V284.602H136.034C135.506 284.602 135.106 284.726 134.834 284.974C134.57 285.222 134.438 285.654 134.438 286.27V289.582H132.758V282.934H134.438V283.966Z" fill="black"/>
<path d="M246.77 302.082C246.77 301.395 246.923 300.782 247.23 300.242C247.543 299.695 247.967 299.272 248.5 298.972C249.04 298.665 249.643 298.512 250.31 298.512C251.09 298.512 251.773 298.712 252.36 299.112C252.947 299.512 253.357 300.065 253.59 300.772H251.98C251.82 300.439 251.593 300.189 251.3 300.022C251.013 299.855 250.68 299.772 250.3 299.772C249.893 299.772 249.53 299.869 249.21 300.062C248.897 300.249 248.65 300.515 248.47 300.862C248.297 301.209 248.21 301.615 248.21 302.082C248.21 302.542 248.297 302.949 248.47 303.302C248.65 303.649 248.897 303.919 249.21 304.112C249.53 304.299 249.893 304.392 250.3 304.392C250.68 304.392 251.013 304.309 251.3 304.142C251.593 303.969 251.82 303.715 251.98 303.382H253.59C253.357 304.095 252.947 304.652 252.36 305.052C251.78 305.445 251.097 305.642 250.31 305.642C249.643 305.642 249.04 305.492 248.5 305.192C247.967 304.885 247.543 304.462 247.23 303.922C246.923 303.382 246.77 302.769 246.77 302.082ZM257.906 299.962C258.326 299.962 258.699 300.055 259.026 300.242C259.352 300.422 259.606 300.692 259.786 301.052C259.972 301.405 260.066 301.832 260.066 302.332V305.582H258.666V302.522C258.666 302.082 258.556 301.745 258.336 301.512C258.116 301.272 257.816 301.152 257.436 301.152C257.049 301.152 256.742 301.272 256.516 301.512C256.296 301.745 256.186 302.082 256.186 302.522V305.582H254.786V298.182H256.186V300.732C256.366 300.492 256.606 300.305 256.906 300.172C257.206 300.032 257.539 299.962 257.906 299.962ZM263.857 305.672C263.324 305.672 262.844 305.555 262.417 305.322C261.99 305.082 261.654 304.745 261.407 304.312C261.167 303.879 261.047 303.379 261.047 302.812C261.047 302.245 261.17 301.745 261.417 301.312C261.67 300.879 262.014 300.545 262.447 300.312C262.88 300.072 263.364 299.952 263.897 299.952C264.43 299.952 264.914 300.072 265.347 300.312C265.78 300.545 266.12 300.879 266.367 301.312C266.62 301.745 266.747 302.245 266.747 302.812C266.747 303.379 266.617 303.879 266.357 304.312C266.104 304.745 265.757 305.082 265.317 305.322C264.884 305.555 264.397 305.672 263.857 305.672ZM263.857 304.452C264.11 304.452 264.347 304.392 264.567 304.272C264.794 304.145 264.974 303.959 265.107 303.712C265.24 303.465 265.307 303.165 265.307 302.812C265.307 302.285 265.167 301.882 264.887 301.602C264.614 301.315 264.277 301.172 263.877 301.172C263.477 301.172 263.14 301.315 262.867 301.602C262.6 301.882 262.467 302.285 262.467 302.812C262.467 303.339 262.597 303.745 262.857 304.032C263.124 304.312 263.457 304.452 263.857 304.452ZM270.234 305.672C269.701 305.672 269.221 305.555 268.794 305.322C268.367 305.082 268.031 304.745 267.784 304.312C267.544 303.879 267.424 303.379 267.424 302.812C267.424 302.245 267.547 301.745 267.794 301.312C268.047 300.879 268.391 300.545 268.824 300.312C269.257 300.072 269.741 299.952 270.274 299.952C270.807 299.952 271.291 300.072 271.724 300.312C272.157 300.545 272.497 300.879 272.744 301.312C272.997 301.745 273.124 302.245 273.124 302.812C273.124 303.379 272.994 303.879 272.734 304.312C272.481 304.745 272.134 305.082 271.694 305.322C271.261 305.555 270.774 305.672 270.234 305.672ZM270.234 304.452C270.487 304.452 270.724 304.392 270.944 304.272C271.171 304.145 271.351 303.959 271.484 303.712C271.617 303.465 271.684 303.165 271.684 302.812C271.684 302.285 271.544 301.882 271.264 301.602C270.991 301.315 270.654 301.172 270.254 301.172C269.854 301.172 269.517 301.315 269.244 301.602C268.977 301.882 268.844 302.285 268.844 302.812C268.844 303.339 268.974 303.745 269.234 304.032C269.501 304.312 269.834 304.452 270.234 304.452ZM276.271 305.672C275.818 305.672 275.411 305.592 275.051 305.432C274.691 305.265 274.404 305.042 274.191 304.762C273.984 304.482 273.871 304.172 273.851 303.832H275.261C275.288 304.045 275.391 304.222 275.571 304.362C275.758 304.502 275.988 304.572 276.261 304.572C276.528 304.572 276.734 304.519 276.881 304.412C277.034 304.305 277.111 304.169 277.111 304.002C277.111 303.822 277.018 303.689 276.831 303.602C276.651 303.509 276.361 303.409 275.961 303.302C275.548 303.202 275.208 303.099 274.941 302.992C274.681 302.885 274.454 302.722 274.261 302.502C274.074 302.282 273.981 301.985 273.981 301.612C273.981 301.305 274.068 301.025 274.241 300.772C274.421 300.519 274.674 300.319 275.001 300.172C275.334 300.025 275.724 299.952 276.171 299.952C276.831 299.952 277.358 300.119 277.751 300.452C278.144 300.779 278.361 301.222 278.401 301.782H277.061C277.041 301.562 276.948 301.389 276.781 301.262C276.621 301.129 276.404 301.062 276.131 301.062C275.878 301.062 275.681 301.109 275.541 301.202C275.408 301.295 275.341 301.425 275.341 301.592C275.341 301.779 275.434 301.922 275.621 302.022C275.808 302.115 276.098 302.212 276.491 302.312C276.891 302.412 277.221 302.515 277.481 302.622C277.741 302.729 277.964 302.895 278.151 303.122C278.344 303.342 278.444 303.635 278.451 304.002C278.451 304.322 278.361 304.609 278.181 304.862C278.008 305.115 277.754 305.315 277.421 305.462C277.094 305.602 276.711 305.672 276.271 305.672ZM284.75 302.692C284.75 302.892 284.737 303.072 284.71 303.232H280.66C280.693 303.632 280.833 303.945 281.08 304.172C281.327 304.399 281.63 304.512 281.99 304.512C282.51 304.512 282.88 304.289 283.1 303.842H284.61C284.45 304.375 284.143 304.815 283.69 305.162C283.237 305.502 282.68 305.672 282.02 305.672C281.487 305.672 281.007 305.555 280.58 305.322C280.16 305.082 279.83 304.745 279.59 304.312C279.357 303.879 279.24 303.379 279.24 302.812C279.24 302.239 279.357 301.735 279.59 301.302C279.823 300.869 280.15 300.535 280.57 300.302C280.99 300.069 281.473 299.952 282.02 299.952C282.547 299.952 283.017 300.065 283.43 300.292C283.85 300.519 284.173 300.842 284.4 301.262C284.633 301.675 284.75 302.152 284.75 302.692ZM283.3 302.292C283.293 301.932 283.163 301.645 282.91 301.432C282.657 301.212 282.347 301.102 281.98 301.102C281.633 301.102 281.34 301.209 281.1 301.422C280.867 301.629 280.723 301.919 280.67 302.292H283.3ZM290.695 301.192H289.725V305.582H288.305V301.192H287.675V300.042H288.305V299.762C288.305 299.082 288.498 298.582 288.885 298.262C289.272 297.942 289.855 297.792 290.635 297.812V298.992C290.295 298.985 290.058 299.042 289.925 299.162C289.792 299.282 289.725 299.499 289.725 299.812V300.042H290.695V301.192ZM293.002 300.902C293.182 300.609 293.415 300.379 293.702 300.212C293.995 300.045 294.329 299.962 294.702 299.962V301.432H294.332C293.892 301.432 293.559 301.535 293.332 301.742C293.112 301.949 293.002 302.309 293.002 302.822V305.582H291.602V300.042H293.002V300.902ZM298.105 305.672C297.572 305.672 297.092 305.555 296.665 305.322C296.238 305.082 295.902 304.745 295.655 304.312C295.415 303.879 295.295 303.379 295.295 302.812C295.295 302.245 295.418 301.745 295.665 301.312C295.918 300.879 296.262 300.545 296.695 300.312C297.128 300.072 297.612 299.952 298.145 299.952C298.678 299.952 299.162 300.072 299.595 300.312C300.028 300.545 300.368 300.879 300.615 301.312C300.868 301.745 300.995 302.245 300.995 302.812C300.995 303.379 300.865 303.879 300.605 304.312C300.352 304.745 300.005 305.082 299.565 305.322C299.132 305.555 298.645 305.672 298.105 305.672ZM298.105 304.452C298.358 304.452 298.595 304.392 298.815 304.272C299.042 304.145 299.222 303.959 299.355 303.712C299.488 303.465 299.555 303.165 299.555 302.812C299.555 302.285 299.415 301.882 299.135 301.602C298.862 301.315 298.525 301.172 298.125 301.172C297.725 301.172 297.388 301.315 297.115 301.602C296.848 301.882 296.715 302.285 296.715 302.812C296.715 303.339 296.845 303.745 297.105 304.032C297.372 304.312 297.705 304.452 298.105 304.452ZM308.902 299.962C309.582 299.962 310.129 300.172 310.542 300.592C310.962 301.005 311.172 301.585 311.172 302.332V305.582H309.772V302.522C309.772 302.089 309.662 301.759 309.442 301.532C309.222 301.299 308.922 301.182 308.542 301.182C308.162 301.182 307.859 301.299 307.632 301.532C307.412 301.759 307.302 302.089 307.302 302.522V305.582H305.902V302.522C305.902 302.089 305.792 301.759 305.572 301.532C305.352 301.299 305.052 301.182 304.672 301.182C304.285 301.182 303.979 301.299 303.752 301.532C303.532 301.759 303.422 302.089 303.422 302.522V305.582H302.022V300.042H303.422V300.712C303.602 300.479 303.832 300.295 304.112 300.162C304.399 300.029 304.712 299.962 305.052 299.962C305.485 299.962 305.872 300.055 306.212 300.242C306.552 300.422 306.815 300.682 307.002 301.022C307.182 300.702 307.442 300.445 307.782 300.252C308.129 300.059 308.502 299.962 308.902 299.962ZM317.293 305.652C316.807 305.652 316.367 305.569 315.973 305.402C315.587 305.235 315.28 304.995 315.053 304.682C314.827 304.369 314.71 303.999 314.703 303.572H316.203C316.223 303.859 316.323 304.085 316.503 304.252C316.69 304.419 316.943 304.502 317.263 304.502C317.59 304.502 317.847 304.425 318.033 304.272C318.22 304.112 318.313 303.905 318.313 303.652C318.313 303.445 318.25 303.275 318.123 303.142C317.997 303.009 317.837 302.905 317.643 302.832C317.457 302.752 317.197 302.665 316.863 302.572C316.41 302.439 316.04 302.309 315.753 302.182C315.473 302.049 315.23 301.852 315.023 301.592C314.823 301.325 314.723 300.972 314.723 300.532C314.723 300.119 314.827 299.759 315.033 299.452C315.24 299.145 315.53 298.912 315.903 298.752C316.277 298.585 316.703 298.502 317.183 298.502C317.903 298.502 318.487 298.679 318.933 299.032C319.387 299.379 319.637 299.865 319.683 300.492H318.143C318.13 300.252 318.027 300.055 317.833 299.902C317.647 299.742 317.397 299.662 317.083 299.662C316.81 299.662 316.59 299.732 316.423 299.872C316.263 300.012 316.183 300.215 316.183 300.482C316.183 300.669 316.243 300.825 316.363 300.952C316.49 301.072 316.643 301.172 316.823 301.252C317.01 301.325 317.27 301.412 317.603 301.512C318.057 301.645 318.427 301.779 318.713 301.912C319 302.045 319.247 302.245 319.453 302.512C319.66 302.779 319.763 303.129 319.763 303.562C319.763 303.935 319.667 304.282 319.473 304.602C319.28 304.922 318.997 305.179 318.623 305.372C318.25 305.559 317.807 305.652 317.293 305.652ZM320.617 302.792C320.617 302.232 320.727 301.735 320.947 301.302C321.174 300.869 321.477 300.535 321.857 300.302C322.244 300.069 322.674 299.952 323.147 299.952C323.56 299.952 323.92 300.035 324.227 300.202C324.54 300.369 324.79 300.579 324.977 300.832V300.042H326.387V305.582H324.977V304.772C324.797 305.032 324.547 305.249 324.227 305.422C323.914 305.589 323.55 305.672 323.137 305.672C322.67 305.672 322.244 305.552 321.857 305.312C321.477 305.072 321.174 304.735 320.947 304.302C320.727 303.862 320.617 303.359 320.617 302.792ZM324.977 302.812C324.977 302.472 324.91 302.182 324.777 301.942C324.644 301.695 324.464 301.509 324.237 301.382C324.01 301.249 323.767 301.182 323.507 301.182C323.247 301.182 323.007 301.245 322.787 301.372C322.567 301.499 322.387 301.685 322.247 301.932C322.114 302.172 322.047 302.459 322.047 302.792C322.047 303.125 322.114 303.419 322.247 303.672C322.387 303.919 322.567 304.109 322.787 304.242C323.014 304.375 323.254 304.442 323.507 304.442C323.767 304.442 324.01 304.379 324.237 304.252C324.464 304.119 324.644 303.932 324.777 303.692C324.91 303.445 324.977 303.152 324.977 302.812ZM330.064 304.292L331.464 300.042H332.954L330.904 305.582H329.204L327.164 300.042H328.664L330.064 304.292ZM338.891 302.692C338.891 302.892 338.877 303.072 338.851 303.232H334.801C334.834 303.632 334.974 303.945 335.221 304.172C335.467 304.399 335.771 304.512 336.131 304.512C336.651 304.512 337.021 304.289 337.241 303.842H338.751C338.591 304.375 338.284 304.815 337.831 305.162C337.377 305.502 336.821 305.672 336.161 305.672C335.627 305.672 335.147 305.555 334.721 305.322C334.301 305.082 333.971 304.745 333.731 304.312C333.497 303.879 333.381 303.379 333.381 302.812C333.381 302.239 333.497 301.735 333.731 301.302C333.964 300.869 334.291 300.535 334.711 300.302C335.131 300.069 335.614 299.952 336.161 299.952C336.687 299.952 337.157 300.065 337.571 300.292C337.991 300.519 338.314 300.842 338.541 301.262C338.774 301.675 338.891 302.152 338.891 302.692ZM337.441 302.292C337.434 301.932 337.304 301.645 337.051 301.432C336.797 301.212 336.487 301.102 336.121 301.102C335.774 301.102 335.481 301.209 335.241 301.422C335.007 301.629 334.864 301.919 334.811 302.292H337.441ZM339.553 302.792C339.553 302.232 339.663 301.735 339.883 301.302C340.109 300.869 340.416 300.535 340.803 300.302C341.189 300.069 341.619 299.952 342.093 299.952C342.453 299.952 342.796 300.032 343.123 300.192C343.449 300.345 343.709 300.552 343.903 300.812V298.182H345.323V305.582H343.903V304.762C343.729 305.035 343.486 305.255 343.173 305.422C342.859 305.589 342.496 305.672 342.083 305.672C341.616 305.672 341.189 305.552 340.803 305.312C340.416 305.072 340.109 304.735 339.883 304.302C339.663 303.862 339.553 303.359 339.553 302.792ZM343.913 302.812C343.913 302.472 343.846 302.182 343.713 301.942C343.579 301.695 343.399 301.509 343.173 301.382C342.946 301.249 342.703 301.182 342.443 301.182C342.183 301.182 341.943 301.245 341.723 301.372C341.503 301.499 341.323 301.685 341.183 301.932C341.049 302.172 340.983 302.459 340.983 302.792C340.983 303.125 341.049 303.419 341.183 303.672C341.323 303.919 341.503 304.109 341.723 304.242C341.949 304.375 342.189 304.442 342.443 304.442C342.703 304.442 342.946 304.379 343.173 304.252C343.399 304.119 343.579 303.932 343.713 303.692C343.846 303.445 343.913 303.152 343.913 302.812Z" fill="black"/>
<rect x="14.5" y="315.082" width="331" height="51" rx="5.5" stroke="#D9D9D9"/>
<path d="M33.96 336.206V344.582H32.28V339.134L30.036 344.582H28.764L26.508 339.134V344.582H24.828V336.206H26.736L29.4 342.434L32.064 336.206H33.96ZM41.801 341.114C41.801 341.354 41.785 341.57 41.753 341.762H36.893C36.933 342.242 37.101 342.618 37.397 342.89C37.693 343.162 38.057 343.298 38.489 343.298C39.113 343.298 39.557 343.03 39.821 342.494H41.633C41.441 343.134 41.073 343.662 40.529 344.078C39.985 344.486 39.317 344.69 38.525 344.69C37.885 344.69 37.309 344.55 36.797 344.27C36.293 343.982 35.897 343.578 35.609 343.058C35.329 342.538 35.189 341.938 35.189 341.258C35.189 340.57 35.329 339.966 35.609 339.446C35.889 338.926 36.281 338.526 36.785 338.246C37.289 337.966 37.869 337.826 38.525 337.826C39.157 337.826 39.721 337.962 40.217 338.234C40.721 338.506 41.109 338.894 41.381 339.398C41.661 339.894 41.801 340.466 41.801 341.114ZM40.061 340.634C40.053 340.202 39.897 339.858 39.593 339.602C39.289 339.338 38.917 339.206 38.477 339.206C38.061 339.206 37.709 339.334 37.421 339.59C37.141 339.838 36.969 340.186 36.905 340.634H40.061ZM44.9832 339.314V342.53C44.9832 342.754 45.0352 342.918 45.1392 343.022C45.2512 343.118 45.4352 343.166 45.6912 343.166H46.4712V344.582H45.4152C43.9992 344.582 43.2912 343.894 43.2912 342.518V339.314H42.4992V337.934H43.2912V336.29H44.9832V337.934H46.4712V339.314H44.9832ZM53.8596 341.114C53.8596 341.354 53.8436 341.57 53.8116 341.762H48.9516C48.9916 342.242 49.1596 342.618 49.4556 342.89C49.7516 343.162 50.1156 343.298 50.5476 343.298C51.1716 343.298 51.6156 343.03 51.8796 342.494H53.6916C53.4996 343.134 53.1316 343.662 52.5876 344.078C52.0436 344.486 51.3756 344.69 50.5836 344.69C49.9436 344.69 49.3676 344.55 48.8556 344.27C48.3516 343.982 47.9556 343.578 47.6676 343.058C47.3876 342.538 47.2476 341.938 47.2476 341.258C47.2476 340.57 47.3876 339.966 47.6676 339.446C47.9476 338.926 48.3396 338.526 48.8436 338.246C49.3476 337.966 49.9276 337.826 50.5836 337.826C51.2156 337.826 51.7796 337.962 52.2756 338.234C52.7796 338.506 53.1676 338.894 53.4396 339.398C53.7196 339.894 53.8596 340.466 53.8596 341.114ZM52.1196 340.634C52.1116 340.202 51.9556 339.858 51.6516 339.602C51.3476 339.338 50.9756 339.206 50.5356 339.206C50.1196 339.206 49.7676 339.334 49.4796 339.59C49.1996 339.838 49.0276 340.186 48.9636 340.634H52.1196ZM56.7658 338.966C56.9818 338.614 57.2618 338.338 57.6058 338.138C57.9578 337.938 58.3578 337.838 58.8058 337.838V339.602H58.3618C57.8338 339.602 57.4338 339.726 57.1618 339.974C56.8978 340.222 56.7658 340.654 56.7658 341.27V344.582H55.0858V337.934H56.7658V338.966ZM69.9608 344.582H68.2808L64.4768 338.834V344.582H62.7968V336.194H64.4768L68.2808 341.954V336.194H69.9608V344.582ZM77.897 337.934V344.582H76.205V343.742C75.989 344.03 75.705 344.258 75.353 344.426C75.009 344.586 74.633 344.666 74.225 344.666C73.705 344.666 73.245 344.558 72.845 344.342C72.445 344.118 72.129 343.794 71.897 343.37C71.673 342.938 71.561 342.426 71.561 341.834V337.934H73.241V341.594C73.241 342.122 73.373 342.53 73.637 342.818C73.901 343.098 74.261 343.238 74.717 343.238C75.181 343.238 75.545 343.098 75.809 342.818C76.073 342.53 76.205 342.122 76.205 341.594V337.934H77.897ZM87.8106 337.838C88.6266 337.838 89.2826 338.09 89.7786 338.594C90.2826 339.09 90.5346 339.786 90.5346 340.682V344.582H88.8546V340.91C88.8546 340.39 88.7226 339.994 88.4586 339.722C88.1946 339.442 87.8346 339.302 87.3786 339.302C86.9226 339.302 86.5586 339.442 86.2866 339.722C86.0226 339.994 85.8906 340.39 85.8906 340.91V344.582H84.2106V340.91C84.2106 340.39 84.0786 339.994 83.8146 339.722C83.5506 339.442 83.1906 339.302 82.7346 339.302C82.2706 339.302 81.9026 339.442 81.6306 339.722C81.3666 339.994 81.2346 340.39 81.2346 340.91V344.582H79.5546V337.934H81.2346V338.738C81.4506 338.458 81.7266 338.238 82.0626 338.078C82.4066 337.918 82.7826 337.838 83.1906 337.838C83.7106 337.838 84.1746 337.95 84.5826 338.174C84.9906 338.39 85.3066 338.702 85.5306 339.11C85.7466 338.726 86.0586 338.418 86.4666 338.186C86.8826 337.954 87.3306 337.838 87.8106 337.838ZM93.8088 338.906C94.0248 338.586 94.3208 338.326 94.6968 338.126C95.0808 337.926 95.5168 337.826 96.0048 337.826C96.5728 337.826 97.0848 337.966 97.5408 338.246C98.0048 338.526 98.3688 338.926 98.6328 339.446C98.9048 339.958 99.0408 340.554 99.0408 341.234C99.0408 341.914 98.9048 342.518 98.6328 343.046C98.3688 343.566 98.0048 343.97 97.5408 344.258C97.0848 344.546 96.5728 344.69 96.0048 344.69C95.5088 344.69 95.0728 344.594 94.6968 344.402C94.3288 344.202 94.0328 343.946 93.8088 343.634V344.582H92.1288V335.702H93.8088V338.906ZM97.3248 341.234C97.3248 340.834 97.2408 340.49 97.0728 340.202C96.9128 339.906 96.6968 339.682 96.4248 339.53C96.1608 339.378 95.8728 339.302 95.5608 339.302C95.2568 339.302 94.9688 339.382 94.6968 339.542C94.4328 339.694 94.2168 339.918 94.0488 340.214C93.8888 340.51 93.8088 340.858 93.8088 341.258C93.8088 341.658 93.8888 342.006 94.0488 342.302C94.2168 342.598 94.4328 342.826 94.6968 342.986C94.9688 343.138 95.2568 343.214 95.5608 343.214C95.8728 343.214 96.1608 343.134 96.4248 342.974C96.6968 342.814 96.9128 342.586 97.0728 342.29C97.2408 341.994 97.3248 341.642 97.3248 341.234ZM106.442 341.114C106.442 341.354 106.426 341.57 106.394 341.762H101.534C101.574 342.242 101.742 342.618 102.038 342.89C102.334 343.162 102.698 343.298 103.13 343.298C103.754 343.298 104.198 343.03 104.462 342.494H106.274C106.082 343.134 105.714 343.662 105.17 344.078C104.626 344.486 103.958 344.69 103.166 344.69C102.526 344.69 101.95 344.55 101.438 344.27C100.934 343.982 100.538 343.578 100.25 343.058C99.9696 342.538 99.8296 341.938 99.8296 341.258C99.8296 340.57 99.9696 339.966 100.25 339.446C100.53 338.926 100.922 338.526 101.426 338.246C101.93 337.966 102.51 337.826 103.166 337.826C103.798 337.826 104.362 337.962 104.858 338.234C105.362 338.506 105.75 338.894 106.022 339.398C106.302 339.894 106.442 340.466 106.442 341.114ZM104.702 340.634C104.694 340.202 104.538 339.858 104.234 339.602C103.93 339.338 103.558 339.206 103.118 339.206C102.702 339.206 102.35 339.334 102.062 339.59C101.782 339.838 101.61 340.186 101.546 340.634H104.702ZM109.348 338.966C109.564 338.614 109.844 338.338 110.188 338.138C110.54 337.938 110.94 337.838 111.388 337.838V339.602H110.944C110.416 339.602 110.016 339.726 109.744 339.974C109.48 340.222 109.348 340.654 109.348 341.27V344.582H107.668V337.934H109.348V338.966Z" fill="#888787"/>
<path d="M17.508 402.562V404.662H20.328V405.994H17.508V408.214H20.688V409.582H15.828V401.194H20.688V402.562H17.508ZM25.8987 402.838C26.6907 402.838 27.3307 403.09 27.8187 403.594C28.3067 404.09 28.5507 404.786 28.5507 405.682V409.582H26.8707V405.91C26.8707 405.382 26.7387 404.978 26.4747 404.698C26.2107 404.41 25.8507 404.266 25.3947 404.266C24.9307 404.266 24.5627 404.41 24.2907 404.698C24.0267 404.978 23.8947 405.382 23.8947 405.91V409.582H22.2147V402.934H23.8947V403.762C24.1187 403.474 24.4027 403.25 24.7467 403.09C25.0987 402.922 25.4827 402.838 25.8987 402.838ZM32.1043 404.314V407.53C32.1043 407.754 32.1563 407.918 32.2603 408.022C32.3723 408.118 32.5563 408.166 32.8123 408.166H33.5923V409.582H32.5363C31.1203 409.582 30.4123 408.894 30.4123 407.518V404.314H29.6203V402.934H30.4123V401.29H32.1043V402.934H33.5923V404.314H32.1043ZM40.9807 406.114C40.9807 406.354 40.9647 406.57 40.9327 406.762H36.0727C36.1127 407.242 36.2807 407.618 36.5767 407.89C36.8727 408.162 37.2367 408.298 37.6687 408.298C38.2927 408.298 38.7367 408.03 39.0007 407.494H40.8127C40.6207 408.134 40.2527 408.662 39.7087 409.078C39.1647 409.486 38.4967 409.69 37.7047 409.69C37.0647 409.69 36.4887 409.55 35.9767 409.27C35.4727 408.982 35.0767 408.578 34.7887 408.058C34.5087 407.538 34.3687 406.938 34.3687 406.258C34.3687 405.57 34.5087 404.966 34.7887 404.446C35.0687 403.926 35.4607 403.526 35.9647 403.246C36.4687 402.966 37.0487 402.826 37.7047 402.826C38.3367 402.826 38.9007 402.962 39.3967 403.234C39.9007 403.506 40.2887 403.894 40.5607 404.398C40.8407 404.894 40.9807 405.466 40.9807 406.114ZM39.2407 405.634C39.2327 405.202 39.0767 404.858 38.7727 404.602C38.4687 404.338 38.0967 404.206 37.6567 404.206C37.2407 404.206 36.8887 404.334 36.6007 404.59C36.3207 404.838 36.1487 405.186 36.0847 405.634H39.2407ZM43.8869 403.966C44.1029 403.614 44.3829 403.338 44.7269 403.138C45.0789 402.938 45.4789 402.838 45.9269 402.838V404.602H45.4829C44.9549 404.602 44.5549 404.726 44.2829 404.974C44.0189 405.222 43.8869 405.654 43.8869 406.27V409.582H42.2069V402.934H43.8869V403.966ZM56.0258 403.798C56.0258 404.246 55.9178 404.666 55.7018 405.058C55.4938 405.45 55.1618 405.766 54.7058 406.006C54.2578 406.246 53.6898 406.366 53.0018 406.366H51.5978V409.582H49.9178V401.206H53.0018C53.6498 401.206 54.2018 401.318 54.6578 401.542C55.1138 401.766 55.4538 402.074 55.6778 402.466C55.9098 402.858 56.0258 403.302 56.0258 403.798ZM52.9298 405.01C53.3938 405.01 53.7378 404.906 53.9618 404.698C54.1858 404.482 54.2978 404.182 54.2978 403.798C54.2978 402.982 53.8418 402.574 52.9298 402.574H51.5978V405.01H52.9298ZM60.9626 402.838C61.4666 402.838 61.9146 402.95 62.3066 403.174C62.6986 403.39 63.0026 403.714 63.2186 404.146C63.4426 404.57 63.5546 405.082 63.5546 405.682V409.582H61.8746V405.91C61.8746 405.382 61.7426 404.978 61.4786 404.698C61.2146 404.41 60.8546 404.266 60.3986 404.266C59.9346 404.266 59.5666 404.41 59.2946 404.698C59.0306 404.978 58.8986 405.382 58.8986 405.91V409.582H57.2186V400.702H58.8986V403.762C59.1146 403.474 59.4026 403.25 59.7626 403.09C60.1226 402.922 60.5226 402.838 60.9626 402.838ZM68.1042 409.69C67.4642 409.69 66.8882 409.55 66.3762 409.27C65.8642 408.982 65.4602 408.578 65.1642 408.058C64.8762 407.538 64.7322 406.938 64.7322 406.258C64.7322 405.578 64.8802 404.978 65.1762 404.458C65.4802 403.938 65.8922 403.538 66.4122 403.258C66.9322 402.97 67.5122 402.826 68.1522 402.826C68.7922 402.826 69.3722 402.97 69.8922 403.258C70.4122 403.538 70.8202 403.938 71.1162 404.458C71.4202 404.978 71.5722 405.578 71.5722 406.258C71.5722 406.938 71.4162 407.538 71.1042 408.058C70.8002 408.578 70.3842 408.982 69.8562 409.27C69.3362 409.55 68.7522 409.69 68.1042 409.69ZM68.1042 408.226C68.4082 408.226 68.6922 408.154 68.9562 408.01C69.2282 407.858 69.4442 407.634 69.6042 407.338C69.7642 407.042 69.8442 406.682 69.8442 406.258C69.8442 405.626 69.6762 405.142 69.3402 404.806C69.0122 404.462 68.6082 404.29 68.1282 404.29C67.6482 404.29 67.2442 404.462 66.9162 404.806C66.5962 405.142 66.4362 405.626 66.4362 406.258C66.4362 406.89 66.5922 407.378 66.9042 407.722C67.2242 408.058 67.6242 408.226 68.1042 408.226ZM76.4886 402.838C77.2806 402.838 77.9206 403.09 78.4086 403.594C78.8966 404.09 79.1406 404.786 79.1406 405.682V409.582H77.4606V405.91C77.4606 405.382 77.3286 404.978 77.0646 404.698C76.8006 404.41 76.4406 404.266 75.9846 404.266C75.5206 404.266 75.1526 404.41 74.8806 404.698C74.6166 404.978 74.4846 405.382 74.4846 405.91V409.582H72.8046V402.934H74.4846V403.762C74.7086 403.474 74.9926 403.25 75.3366 403.09C75.6886 402.922 76.0726 402.838 76.4886 402.838ZM86.9182 406.114C86.9182 406.354 86.9022 406.57 86.8702 406.762H82.0102C82.0502 407.242 82.2182 407.618 82.5142 407.89C82.8102 408.162 83.1742 408.298 83.6062 408.298C84.2302 408.298 84.6742 408.03 84.9382 407.494H86.7502C86.5582 408.134 86.1902 408.662 85.6462 409.078C85.1022 409.486 84.4342 409.69 83.6422 409.69C83.0022 409.69 82.4262 409.55 81.9142 409.27C81.4102 408.982 81.0142 408.578 80.7262 408.058C80.4462 407.538 80.3062 406.938 80.3062 406.258C80.3062 405.57 80.4462 404.966 80.7262 404.446C81.0062 403.926 81.3982 403.526 81.9022 403.246C82.4062 402.966 82.9862 402.826 83.6422 402.826C84.2742 402.826 84.8382 402.962 85.3342 403.234C85.8382 403.506 86.2262 403.894 86.4982 404.398C86.7782 404.894 86.9182 405.466 86.9182 406.114ZM85.1782 405.634C85.1702 405.202 85.0142 404.858 84.7102 404.602C84.4062 404.338 84.0342 404.206 83.5942 404.206C83.1782 404.206 82.8262 404.334 82.5382 404.59C82.2582 404.838 82.0862 405.186 82.0222 405.634H85.1782ZM98.1678 409.582H96.4878L92.6838 403.834V409.582H91.0038V401.194H92.6838L96.4878 406.954V401.194H98.1678V409.582ZM106.104 402.934V409.582H104.412V408.742C104.196 409.03 103.912 409.258 103.56 409.426C103.216 409.586 102.84 409.666 102.432 409.666C101.912 409.666 101.452 409.558 101.052 409.342C100.652 409.118 100.336 408.794 100.104 408.37C99.88 407.938 99.768 407.426 99.768 406.834V402.934H101.448V406.594C101.448 407.122 101.58 407.53 101.844 407.818C102.108 408.098 102.468 408.238 102.924 408.238C103.388 408.238 103.752 408.098 104.016 407.818C104.28 407.53 104.412 407.122 104.412 406.594V402.934H106.104ZM116.018 402.838C116.834 402.838 117.49 403.09 117.986 403.594C118.49 404.09 118.742 404.786 118.742 405.682V409.582H117.062V405.91C117.062 405.39 116.93 404.994 116.666 404.722C116.402 404.442 116.042 404.302 115.586 404.302C115.13 404.302 114.766 404.442 114.494 404.722C114.23 404.994 114.098 405.39 114.098 405.91V409.582H112.418V405.91C112.418 405.39 112.286 404.994 112.022 404.722C111.758 404.442 111.398 404.302 110.942 404.302C110.478 404.302 110.11 404.442 109.838 404.722C109.574 404.994 109.442 405.39 109.442 405.91V409.582H107.762V402.934H109.442V403.738C109.658 403.458 109.934 403.238 110.27 403.078C110.614 402.918 110.99 402.838 111.398 402.838C111.918 402.838 112.382 402.95 112.79 403.174C113.198 403.39 113.514 403.702 113.738 404.11C113.954 403.726 114.266 403.418 114.674 403.186C115.09 402.954 115.538 402.838 116.018 402.838ZM122.016 403.906C122.232 403.586 122.528 403.326 122.904 403.126C123.288 402.926 123.724 402.826 124.212 402.826C124.78 402.826 125.292 402.966 125.748 403.246C126.212 403.526 126.576 403.926 126.84 404.446C127.112 404.958 127.248 405.554 127.248 406.234C127.248 406.914 127.112 407.518 126.84 408.046C126.576 408.566 126.212 408.97 125.748 409.258C125.292 409.546 124.78 409.69 124.212 409.69C123.716 409.69 123.28 409.594 122.904 409.402C122.536 409.202 122.24 408.946 122.016 408.634V409.582H120.336V400.702H122.016V403.906ZM125.532 406.234C125.532 405.834 125.448 405.49 125.28 405.202C125.12 404.906 124.904 404.682 124.632 404.53C124.368 404.378 124.08 404.302 123.768 404.302C123.464 404.302 123.176 404.382 122.904 404.542C122.64 404.694 122.424 404.918 122.256 405.214C122.096 405.51 122.016 405.858 122.016 406.258C122.016 406.658 122.096 407.006 122.256 407.302C122.424 407.598 122.64 407.826 122.904 407.986C123.176 408.138 123.464 408.214 123.768 408.214C124.08 408.214 124.368 408.134 124.632 407.974C124.904 407.814 125.12 407.586 125.28 407.29C125.448 406.994 125.532 406.642 125.532 406.234ZM134.649 406.114C134.649 406.354 134.633 406.57 134.601 406.762H129.741C129.781 407.242 129.949 407.618 130.245 407.89C130.541 408.162 130.905 408.298 131.337 408.298C131.961 408.298 132.405 408.03 132.669 407.494H134.481C134.289 408.134 133.921 408.662 133.377 409.078C132.833 409.486 132.165 409.69 131.373 409.69C130.733 409.69 130.157 409.55 129.645 409.27C129.141 408.982 128.745 408.578 128.457 408.058C128.177 407.538 128.037 406.938 128.037 406.258C128.037 405.57 128.177 404.966 128.457 404.446C128.737 403.926 129.129 403.526 129.633 403.246C130.137 402.966 130.717 402.826 131.373 402.826C132.005 402.826 132.569 402.962 133.065 403.234C133.569 403.506 133.957 403.894 134.229 404.398C134.509 404.894 134.649 405.466 134.649 406.114ZM132.909 405.634C132.901 405.202 132.745 404.858 132.441 404.602C132.137 404.338 131.765 404.206 131.325 404.206C130.909 404.206 130.557 404.334 130.269 404.59C129.989 404.838 129.817 405.186 129.753 405.634H132.909ZM137.555 403.966C137.771 403.614 138.051 403.338 138.395 403.138C138.747 402.938 139.147 402.838 139.595 402.838V404.602H139.151C138.623 404.602 138.223 404.726 137.951 404.974C137.687 405.222 137.555 405.654 137.555 406.27V409.582H135.875V402.934H137.555V403.966Z" fill="black"/>
<path d="M246.77 422.082C246.77 421.395 246.923 420.782 247.23 420.242C247.543 419.695 247.967 419.272 248.5 418.972C249.04 418.665 249.643 418.512 250.31 418.512C251.09 418.512 251.773 418.712 252.36 419.112C252.947 419.512 253.357 420.065 253.59 420.772H251.98C251.82 420.439 251.593 420.189 251.3 420.022C251.013 419.855 250.68 419.772 250.3 419.772C249.893 419.772 249.53 419.869 249.21 420.062C248.897 420.249 248.65 420.515 248.47 420.862C248.297 421.209 248.21 421.615 248.21 422.082C248.21 422.542 248.297 422.949 248.47 423.302C248.65 423.649 248.897 423.919 249.21 424.112C249.53 424.299 249.893 424.392 250.3 424.392C250.68 424.392 251.013 424.309 251.3 424.142C251.593 423.969 251.82 423.715 251.98 423.382H253.59C253.357 424.095 252.947 424.652 252.36 425.052C251.78 425.445 251.097 425.642 250.31 425.642C249.643 425.642 249.04 425.492 248.5 425.192C247.967 424.885 247.543 424.462 247.23 423.922C246.923 423.382 246.77 422.769 246.77 422.082ZM257.906 419.962C258.326 419.962 258.699 420.055 259.026 420.242C259.352 420.422 259.606 420.692 259.786 421.052C259.972 421.405 260.066 421.832 260.066 422.332V425.582H258.666V422.522C258.666 422.082 258.556 421.745 258.336 421.512C258.116 421.272 257.816 421.152 257.436 421.152C257.049 421.152 256.742 421.272 256.516 421.512C256.296 421.745 256.186 422.082 256.186 422.522V425.582H254.786V418.182H256.186V420.732C256.366 420.492 256.606 420.305 256.906 420.172C257.206 420.032 257.539 419.962 257.906 419.962ZM263.857 425.672C263.324 425.672 262.844 425.555 262.417 425.322C261.99 425.082 261.654 424.745 261.407 424.312C261.167 423.879 261.047 423.379 261.047 422.812C261.047 422.245 261.17 421.745 261.417 421.312C261.67 420.879 262.014 420.545 262.447 420.312C262.88 420.072 263.364 419.952 263.897 419.952C264.43 419.952 264.914 420.072 265.347 420.312C265.78 420.545 266.12 420.879 266.367 421.312C266.62 421.745 266.747 422.245 266.747 422.812C266.747 423.379 266.617 423.879 266.357 424.312C266.104 424.745 265.757 425.082 265.317 425.322C264.884 425.555 264.397 425.672 263.857 425.672ZM263.857 424.452C264.11 424.452 264.347 424.392 264.567 424.272C264.794 424.145 264.974 423.959 265.107 423.712C265.24 423.465 265.307 423.165 265.307 422.812C265.307 422.285 265.167 421.882 264.887 421.602C264.614 421.315 264.277 421.172 263.877 421.172C263.477 421.172 263.14 421.315 262.867 421.602C262.6 421.882 262.467 422.285 262.467 422.812C262.467 423.339 262.597 423.745 262.857 424.032C263.124 424.312 263.457 424.452 263.857 424.452ZM270.234 425.672C269.701 425.672 269.221 425.555 268.794 425.322C268.367 425.082 268.031 424.745 267.784 424.312C267.544 423.879 267.424 423.379 267.424 422.812C267.424 422.245 267.547 421.745 267.794 421.312C268.047 420.879 268.391 420.545 268.824 420.312C269.257 420.072 269.741 419.952 270.274 419.952C270.807 419.952 271.291 420.072 271.724 420.312C272.157 420.545 272.497 420.879 272.744 421.312C272.997 421.745 273.124 422.245 273.124 422.812C273.124 423.379 272.994 423.879 272.734 424.312C272.481 424.745 272.134 425.082 271.694 425.322C271.261 425.555 270.774 425.672 270.234 425.672ZM270.234 424.452C270.487 424.452 270.724 424.392 270.944 424.272C271.171 424.145 271.351 423.959 271.484 423.712C271.617 423.465 271.684 423.165 271.684 422.812C271.684 422.285 271.544 421.882 271.264 421.602C270.991 421.315 270.654 421.172 270.254 421.172C269.854 421.172 269.517 421.315 269.244 421.602C268.977 421.882 268.844 422.285 268.844 422.812C268.844 423.339 268.974 423.745 269.234 424.032C269.501 424.312 269.834 424.452 270.234 424.452ZM276.271 425.672C275.818 425.672 275.411 425.592 275.051 425.432C274.691 425.265 274.404 425.042 274.191 424.762C273.984 424.482 273.871 424.172 273.851 423.832H275.261C275.288 424.045 275.391 424.222 275.571 424.362C275.758 424.502 275.988 424.572 276.261 424.572C276.528 424.572 276.734 424.519 276.881 424.412C277.034 424.305 277.111 424.169 277.111 424.002C277.111 423.822 277.018 423.689 276.831 423.602C276.651 423.509 276.361 423.409 275.961 423.302C275.548 423.202 275.208 423.099 274.941 422.992C274.681 422.885 274.454 422.722 274.261 422.502C274.074 422.282 273.981 421.985 273.981 421.612C273.981 421.305 274.068 421.025 274.241 420.772C274.421 420.519 274.674 420.319 275.001 420.172C275.334 420.025 275.724 419.952 276.171 419.952C276.831 419.952 277.358 420.119 277.751 420.452C278.144 420.779 278.361 421.222 278.401 421.782H277.061C277.041 421.562 276.948 421.389 276.781 421.262C276.621 421.129 276.404 421.062 276.131 421.062C275.878 421.062 275.681 421.109 275.541 421.202C275.408 421.295 275.341 421.425 275.341 421.592C275.341 421.779 275.434 421.922 275.621 422.022C275.808 422.115 276.098 422.212 276.491 422.312C276.891 422.412 277.221 422.515 277.481 422.622C277.741 422.729 277.964 422.895 278.151 423.122C278.344 423.342 278.444 423.635 278.451 424.002C278.451 424.322 278.361 424.609 278.181 424.862C278.008 425.115 277.754 425.315 277.421 425.462C277.094 425.602 276.711 425.672 276.271 425.672ZM284.75 422.692C284.75 422.892 284.737 423.072 284.71 423.232H280.66C280.693 423.632 280.833 423.945 281.08 424.172C281.327 424.399 281.63 424.512 281.99 424.512C282.51 424.512 282.88 424.289 283.1 423.842H284.61C284.45 424.375 284.143 424.815 283.69 425.162C283.237 425.502 282.68 425.672 282.02 425.672C281.487 425.672 281.007 425.555 280.58 425.322C280.16 425.082 279.83 424.745 279.59 424.312C279.357 423.879 279.24 423.379 279.24 422.812C279.24 422.239 279.357 421.735 279.59 421.302C279.823 420.869 280.15 420.535 280.57 420.302C280.99 420.069 281.473 419.952 282.02 419.952C282.547 419.952 283.017 420.065 283.43 420.292C283.85 420.519 284.173 420.842 284.4 421.262C284.633 421.675 284.75 422.152 284.75 422.692ZM283.3 422.292C283.293 421.932 283.163 421.645 282.91 421.432C282.657 421.212 282.347 421.102 281.98 421.102C281.633 421.102 281.34 421.209 281.1 421.422C280.867 421.629 280.723 421.919 280.67 422.292H283.3ZM290.695 421.192H289.725V425.582H288.305V421.192H287.675V420.042H288.305V419.762C288.305 419.082 288.498 418.582 288.885 418.262C289.272 417.942 289.855 417.792 290.635 417.812V418.992C290.295 418.985 290.058 419.042 289.925 419.162C289.792 419.282 289.725 419.499 289.725 419.812V420.042H290.695V421.192ZM293.002 420.902C293.182 420.609 293.415 420.379 293.702 420.212C293.995 420.045 294.329 419.962 294.702 419.962V421.432H294.332C293.892 421.432 293.559 421.535 293.332 421.742C293.112 421.949 293.002 422.309 293.002 422.822V425.582H291.602V420.042H293.002V420.902ZM298.105 425.672C297.572 425.672 297.092 425.555 296.665 425.322C296.238 425.082 295.902 424.745 295.655 424.312C295.415 423.879 295.295 423.379 295.295 422.812C295.295 422.245 295.418 421.745 295.665 421.312C295.918 420.879 296.262 420.545 296.695 420.312C297.128 420.072 297.612 419.952 298.145 419.952C298.678 419.952 299.162 420.072 299.595 420.312C300.028 420.545 300.368 420.879 300.615 421.312C300.868 421.745 300.995 422.245 300.995 422.812C300.995 423.379 300.865 423.879 300.605 424.312C300.352 424.745 300.005 425.082 299.565 425.322C299.132 425.555 298.645 425.672 298.105 425.672ZM298.105 424.452C298.358 424.452 298.595 424.392 298.815 424.272C299.042 424.145 299.222 423.959 299.355 423.712C299.488 423.465 299.555 423.165 299.555 422.812C299.555 422.285 299.415 421.882 299.135 421.602C298.862 421.315 298.525 421.172 298.125 421.172C297.725 421.172 297.388 421.315 297.115 421.602C296.848 421.882 296.715 422.285 296.715 422.812C296.715 423.339 296.845 423.745 297.105 424.032C297.372 424.312 297.705 424.452 298.105 424.452ZM308.902 419.962C309.582 419.962 310.129 420.172 310.542 420.592C310.962 421.005 311.172 421.585 311.172 422.332V425.582H309.772V422.522C309.772 422.089 309.662 421.759 309.442 421.532C309.222 421.299 308.922 421.182 308.542 421.182C308.162 421.182 307.859 421.299 307.632 421.532C307.412 421.759 307.302 422.089 307.302 422.522V425.582H305.902V422.522C305.902 422.089 305.792 421.759 305.572 421.532C305.352 421.299 305.052 421.182 304.672 421.182C304.285 421.182 303.979 421.299 303.752 421.532C303.532 421.759 303.422 422.089 303.422 422.522V425.582H302.022V420.042H303.422V420.712C303.602 420.479 303.832 420.295 304.112 420.162C304.399 420.029 304.712 419.962 305.052 419.962C305.485 419.962 305.872 420.055 306.212 420.242C306.552 420.422 306.815 420.682 307.002 421.022C307.182 420.702 307.442 420.445 307.782 420.252C308.129 420.059 308.502 419.962 308.902 419.962ZM317.293 425.652C316.807 425.652 316.367 425.569 315.973 425.402C315.587 425.235 315.28 424.995 315.053 424.682C314.827 424.369 314.71 423.999 314.703 423.572H316.203C316.223 423.859 316.323 424.085 316.503 424.252C316.69 424.419 316.943 424.502 317.263 424.502C317.59 424.502 317.847 424.425 318.033 424.272C318.22 424.112 318.313 423.905 318.313 423.652C318.313 423.445 318.25 423.275 318.123 423.142C317.997 423.009 317.837 422.905 317.643 422.832C317.457 422.752 317.197 422.665 316.863 422.572C316.41 422.439 316.04 422.309 315.753 422.182C315.473 422.049 315.23 421.852 315.023 421.592C314.823 421.325 314.723 420.972 314.723 420.532C314.723 420.119 314.827 419.759 315.033 419.452C315.24 419.145 315.53 418.912 315.903 418.752C316.277 418.585 316.703 418.502 317.183 418.502C317.903 418.502 318.487 418.679 318.933 419.032C319.387 419.379 319.637 419.865 319.683 420.492H318.143C318.13 420.252 318.027 420.055 317.833 419.902C317.647 419.742 317.397 419.662 317.083 419.662C316.81 419.662 316.59 419.732 316.423 419.872C316.263 420.012 316.183 420.215 316.183 420.482C316.183 420.669 316.243 420.825 316.363 420.952C316.49 421.072 316.643 421.172 316.823 421.252C317.01 421.325 317.27 421.412 317.603 421.512C318.057 421.645 318.427 421.779 318.713 421.912C319 422.045 319.247 422.245 319.453 422.512C319.66 422.779 319.763 423.129 319.763 423.562C319.763 423.935 319.667 424.282 319.473 424.602C319.28 424.922 318.997 425.179 318.623 425.372C318.25 425.559 317.807 425.652 317.293 425.652ZM320.617 422.792C320.617 422.232 320.727 421.735 320.947 421.302C321.174 420.869 321.477 420.535 321.857 420.302C322.244 420.069 322.674 419.952 323.147 419.952C323.56 419.952 323.92 420.035 324.227 420.202C324.54 420.369 324.79 420.579 324.977 420.832V420.042H326.387V425.582H324.977V424.772C324.797 425.032 324.547 425.249 324.227 425.422C323.914 425.589 323.55 425.672 323.137 425.672C322.67 425.672 322.244 425.552 321.857 425.312C321.477 425.072 321.174 424.735 320.947 424.302C320.727 423.862 320.617 423.359 320.617 422.792ZM324.977 422.812C324.977 422.472 324.91 422.182 324.777 421.942C324.644 421.695 324.464 421.509 324.237 421.382C324.01 421.249 323.767 421.182 323.507 421.182C323.247 421.182 323.007 421.245 322.787 421.372C322.567 421.499 322.387 421.685 322.247 421.932C322.114 422.172 322.047 422.459 322.047 422.792C322.047 423.125 322.114 423.419 322.247 423.672C322.387 423.919 322.567 424.109 322.787 424.242C323.014 424.375 323.254 424.442 323.507 424.442C323.767 424.442 324.01 424.379 324.237 424.252C324.464 424.119 324.644 423.932 324.777 423.692C324.91 423.445 324.977 423.152 324.977 422.812ZM330.064 424.292L331.464 420.042H332.954L330.904 425.582H329.204L327.164 420.042H328.664L330.064 424.292ZM338.891 422.692C338.891 422.892 338.877 423.072 338.851 423.232H334.801C334.834 423.632 334.974 423.945 335.221 424.172C335.467 424.399 335.771 424.512 336.131 424.512C336.651 424.512 337.021 424.289 337.241 423.842H338.751C338.591 424.375 338.284 424.815 337.831 425.162C337.377 425.502 336.821 425.672 336.161 425.672C335.627 425.672 335.147 425.555 334.721 425.322C334.301 425.082 333.971 424.745 333.731 424.312C333.497 423.879 333.381 423.379 333.381 422.812C333.381 422.239 333.497 421.735 333.731 421.302C333.964 420.869 334.291 420.535 334.711 420.302C335.131 420.069 335.614 419.952 336.161 419.952C336.687 419.952 337.157 420.065 337.571 420.292C337.991 420.519 338.314 420.842 338.541 421.262C338.774 421.675 338.891 422.152 338.891 422.692ZM337.441 422.292C337.434 421.932 337.304 421.645 337.051 421.432C336.797 421.212 336.487 421.102 336.121 421.102C335.774 421.102 335.481 421.209 335.241 421.422C335.007 421.629 334.864 421.919 334.811 422.292H337.441ZM339.553 422.792C339.553 422.232 339.663 421.735 339.883 421.302C340.109 420.869 340.416 420.535 340.803 420.302C341.189 420.069 341.619 419.952 342.093 419.952C342.453 419.952 342.796 420.032 343.123 420.192C343.449 420.345 343.709 420.552 343.903 420.812V418.182H345.323V425.582H343.903V424.762C343.729 425.035 343.486 425.255 343.173 425.422C342.859 425.589 342.496 425.672 342.083 425.672C341.616 425.672 341.189 425.552 340.803 425.312C340.416 425.072 340.109 424.735 339.883 424.302C339.663 423.862 339.553 423.359 339.553 422.792ZM343.913 422.812C343.913 422.472 343.846 422.182 343.713 421.942C343.579 421.695 343.399 421.509 343.173 421.382C342.946 421.249 342.703 421.182 342.443 421.182C342.183 421.182 341.943 421.245 341.723 421.372C341.503 421.499 341.323 421.685 341.183 421.932C341.049 422.172 340.983 422.459 340.983 422.792C340.983 423.125 341.049 423.419 341.183 423.672C341.323 423.919 341.503 424.109 341.723 424.242C341.949 424.375 342.189 424.442 342.443 424.442C342.703 424.442 342.946 424.379 343.173 424.252C343.399 424.119 343.579 423.932 343.713 423.692C343.846 423.445 343.913 423.152 343.913 422.812Z" fill="black"/>
<rect x="14.5" y="435.082" width="331" height="51" rx="5.5" stroke="#D9D9D9"/>
<path d="M30.936 458.798C30.936 459.246 30.828 459.666 30.612 460.058C30.404 460.45 30.072 460.766 29.616 461.006C29.168 461.246 28.6 461.366 27.912 461.366H26.508V464.582H24.828V456.206H27.912C28.56 456.206 29.112 456.318 29.568 456.542C30.024 456.766 30.364 457.074 30.588 457.466C30.82 457.858 30.936 458.302 30.936 458.798ZM27.84 460.01C28.304 460.01 28.648 459.906 28.872 459.698C29.096 459.482 29.208 459.182 29.208 458.798C29.208 457.982 28.752 457.574 27.84 457.574H26.508V460.01H27.84ZM35.8728 457.838C36.3768 457.838 36.8248 457.95 37.2168 458.174C37.6088 458.39 37.9128 458.714 38.1288 459.146C38.3528 459.57 38.4648 460.082 38.4648 460.682V464.582H36.7848V460.91C36.7848 460.382 36.6528 459.978 36.3888 459.698C36.1248 459.41 35.7648 459.266 35.3088 459.266C34.8448 459.266 34.4768 459.41 34.2048 459.698C33.9408 459.978 33.8088 460.382 33.8088 460.91V464.582H32.1288V455.702H33.8088V458.762C34.0248 458.474 34.3128 458.25 34.6728 458.09C35.0328 457.922 35.4328 457.838 35.8728 457.838ZM43.0144 464.69C42.3744 464.69 41.7984 464.55 41.2864 464.27C40.7744 463.982 40.3704 463.578 40.0744 463.058C39.7864 462.538 39.6424 461.938 39.6424 461.258C39.6424 460.578 39.7904 459.978 40.0864 459.458C40.3904 458.938 40.8024 458.538 41.3224 458.258C41.8424 457.97 42.4224 457.826 43.0624 457.826C43.7024 457.826 44.2824 457.97 44.8024 458.258C45.3224 458.538 45.7304 458.938 46.0264 459.458C46.3304 459.978 46.4824 460.578 46.4824 461.258C46.4824 461.938 46.3264 462.538 46.0144 463.058C45.7104 463.578 45.2944 463.982 44.7664 464.27C44.2464 464.55 43.6624 464.69 43.0144 464.69ZM43.0144 463.226C43.3184 463.226 43.6024 463.154 43.8664 463.01C44.1384 462.858 44.3544 462.634 44.5144 462.338C44.6744 462.042 44.7544 461.682 44.7544 461.258C44.7544 460.626 44.5864 460.142 44.2504 459.806C43.9224 459.462 43.5184 459.29 43.0384 459.29C42.5584 459.29 42.1544 459.462 41.8264 459.806C41.5064 460.142 41.3464 460.626 41.3464 461.258C41.3464 461.89 41.5024 462.378 41.8144 462.722C42.1344 463.058 42.5344 463.226 43.0144 463.226ZM51.3987 457.838C52.1907 457.838 52.8307 458.09 53.3187 458.594C53.8067 459.09 54.0507 459.786 54.0507 460.682V464.582H52.3707V460.91C52.3707 460.382 52.2387 459.978 51.9747 459.698C51.7107 459.41 51.3507 459.266 50.8947 459.266C50.4307 459.266 50.0627 459.41 49.7907 459.698C49.5267 459.978 49.3947 460.382 49.3947 460.91V464.582H47.7147V457.934H49.3947V458.762C49.6187 458.474 49.9027 458.25 50.2467 458.09C50.5987 457.922 50.9827 457.838 51.3987 457.838ZM61.8283 461.114C61.8283 461.354 61.8123 461.57 61.7803 461.762H56.9203C56.9603 462.242 57.1283 462.618 57.4243 462.89C57.7203 463.162 58.0843 463.298 58.5163 463.298C59.1403 463.298 59.5843 463.03 59.8483 462.494H61.6603C61.4683 463.134 61.1003 463.662 60.5563 464.078C60.0123 464.486 59.3443 464.69 58.5523 464.69C57.9123 464.69 57.3363 464.55 56.8243 464.27C56.3203 463.982 55.9243 463.578 55.6363 463.058C55.3563 462.538 55.2163 461.938 55.2163 461.258C55.2163 460.57 55.3563 459.966 55.6363 459.446C55.9163 458.926 56.3083 458.526 56.8123 458.246C57.3163 457.966 57.8963 457.826 58.5523 457.826C59.1843 457.826 59.7483 457.962 60.2443 458.234C60.7483 458.506 61.1363 458.894 61.4083 459.398C61.6883 459.894 61.8283 460.466 61.8283 461.114ZM60.0883 460.634C60.0803 460.202 59.9243 459.858 59.6203 459.602C59.3163 459.338 58.9443 459.206 58.5043 459.206C58.0883 459.206 57.7363 459.334 57.4483 459.59C57.1683 459.838 56.9963 460.186 56.9323 460.634H60.0883ZM73.0779 464.582H71.3979L67.5939 458.834V464.582H65.9139V456.194H67.5939L71.3979 461.954V456.194H73.0779V464.582ZM81.0142 457.934V464.582H79.3222V463.742C79.1062 464.03 78.8222 464.258 78.4702 464.426C78.1262 464.586 77.7502 464.666 77.3422 464.666C76.8222 464.666 76.3622 464.558 75.9622 464.342C75.5622 464.118 75.2462 463.794 75.0142 463.37C74.7902 462.938 74.6782 462.426 74.6782 461.834V457.934H76.3582V461.594C76.3582 462.122 76.4902 462.53 76.7542 462.818C77.0182 463.098 77.3782 463.238 77.8342 463.238C78.2982 463.238 78.6622 463.098 78.9262 462.818C79.1902 462.53 79.3222 462.122 79.3222 461.594V457.934H81.0142ZM90.9278 457.838C91.7438 457.838 92.3998 458.09 92.8958 458.594C93.3998 459.09 93.6518 459.786 93.6518 460.682V464.582H91.9718V460.91C91.9718 460.39 91.8398 459.994 91.5758 459.722C91.3118 459.442 90.9518 459.302 90.4958 459.302C90.0398 459.302 89.6758 459.442 89.4038 459.722C89.1398 459.994 89.0078 460.39 89.0078 460.91V464.582H87.3278V460.91C87.3278 460.39 87.1958 459.994 86.9318 459.722C86.6678 459.442 86.3078 459.302 85.8518 459.302C85.3878 459.302 85.0198 459.442 84.7478 459.722C84.4838 459.994 84.3518 460.39 84.3518 460.91V464.582H82.6718V457.934H84.3518V458.738C84.5678 458.458 84.8438 458.238 85.1798 458.078C85.5238 457.918 85.8998 457.838 86.3078 457.838C86.8278 457.838 87.2918 457.95 87.6998 458.174C88.1078 458.39 88.4238 458.702 88.6478 459.11C88.8638 458.726 89.1758 458.418 89.5838 458.186C89.9998 457.954 90.4478 457.838 90.9278 457.838ZM96.926 458.906C97.142 458.586 97.438 458.326 97.814 458.126C98.198 457.926 98.634 457.826 99.122 457.826C99.69 457.826 100.202 457.966 100.658 458.246C101.122 458.526 101.486 458.926 101.75 459.446C102.022 459.958 102.158 460.554 102.158 461.234C102.158 461.914 102.022 462.518 101.75 463.046C101.486 463.566 101.122 463.97 100.658 464.258C100.202 464.546 99.69 464.69 99.122 464.69C98.626 464.69 98.19 464.594 97.814 464.402C97.446 464.202 97.15 463.946 96.926 463.634V464.582H95.246V455.702H96.926V458.906ZM100.442 461.234C100.442 460.834 100.358 460.49 100.19 460.202C100.03 459.906 99.814 459.682 99.542 459.53C99.278 459.378 98.99 459.302 98.678 459.302C98.374 459.302 98.086 459.382 97.814 459.542C97.55 459.694 97.334 459.918 97.166 460.214C97.006 460.51 96.926 460.858 96.926 461.258C96.926 461.658 97.006 462.006 97.166 462.302C97.334 462.598 97.55 462.826 97.814 462.986C98.086 463.138 98.374 463.214 98.678 463.214C98.99 463.214 99.278 463.134 99.542 462.974C99.814 462.814 100.03 462.586 100.19 462.29C100.358 461.994 100.442 461.642 100.442 461.234ZM109.559 461.114C109.559 461.354 109.543 461.57 109.511 461.762H104.651C104.691 462.242 104.859 462.618 105.155 462.89C105.451 463.162 105.815 463.298 106.247 463.298C106.871 463.298 107.315 463.03 107.579 462.494H109.391C109.199 463.134 108.831 463.662 108.287 464.078C107.743 464.486 107.075 464.69 106.283 464.69C105.643 464.69 105.067 464.55 104.555 464.27C104.051 463.982 103.655 463.578 103.367 463.058C103.087 462.538 102.947 461.938 102.947 461.258C102.947 460.57 103.087 459.966 103.367 459.446C103.647 458.926 104.039 458.526 104.543 458.246C105.047 457.966 105.627 457.826 106.283 457.826C106.915 457.826 107.479 457.962 107.975 458.234C108.479 458.506 108.867 458.894 109.139 459.398C109.419 459.894 109.559 460.466 109.559 461.114ZM107.819 460.634C107.811 460.202 107.655 459.858 107.351 459.602C107.047 459.338 106.675 459.206 106.235 459.206C105.819 459.206 105.467 459.334 105.179 459.59C104.899 459.838 104.727 460.186 104.663 460.634H107.819ZM112.465 458.966C112.681 458.614 112.961 458.338 113.305 458.138C113.657 457.938 114.057 457.838 114.505 457.838V459.602H114.061C113.533 459.602 113.133 459.726 112.861 459.974C112.597 460.222 112.465 460.654 112.465 461.27V464.582H110.785V457.934H112.465V458.966Z" fill="#888787"/>
<g clip-path="url(#clip1_789_3438)">
<rect x="14.5" y="195.082" width="331" height="51" rx="5.5" fill="white"/>
<rect x="14.5" y="195.082" width="331" height="51" rx="5.5" stroke="#D9D9D9"/>
<path d="M24.42 220.382C24.42 219.558 24.604 218.822 24.972 218.174C25.348 217.518 25.856 217.01 26.496 216.65C27.144 216.282 27.868 216.098 28.668 216.098C29.604 216.098 30.424 216.338 31.128 216.818C31.832 217.298 32.324 217.962 32.604 218.81H30.672C30.48 218.41 30.208 218.11 29.856 217.91C29.512 217.71 29.112 217.61 28.656 217.61C28.168 217.61 27.732 217.726 27.348 217.958C26.972 218.182 26.676 218.502 26.46 218.918C26.252 219.334 26.148 219.822 26.148 220.382C26.148 220.934 26.252 221.422 26.46 221.846C26.676 222.262 26.972 222.586 27.348 222.818C27.732 223.042 28.168 223.154 28.656 223.154C29.112 223.154 29.512 223.054 29.856 222.854C30.208 222.646 30.48 222.342 30.672 221.942H32.604C32.324 222.798 31.832 223.466 31.128 223.946C30.432 224.418 29.612 224.654 28.668 224.654C27.868 224.654 27.144 224.474 26.496 224.114C25.856 223.746 25.348 223.238 24.972 222.59C24.604 221.942 24.42 221.206 24.42 220.382ZM37.7829 217.838C38.2869 217.838 38.7349 217.95 39.1269 218.174C39.5189 218.39 39.8229 218.714 40.0389 219.146C40.2629 219.57 40.3749 220.082 40.3749 220.682V224.582H38.6949V220.91C38.6949 220.382 38.5629 219.978 38.2989 219.698C38.0349 219.41 37.6749 219.266 37.2189 219.266C36.7549 219.266 36.3869 219.41 36.1149 219.698C35.8509 219.978 35.7189 220.382 35.7189 220.91V224.582H34.0389V215.702H35.7189V218.762C35.9349 218.474 36.2229 218.25 36.5829 218.09C36.9429 217.922 37.3429 217.838 37.7829 217.838ZM44.9245 224.69C44.2845 224.69 43.7085 224.55 43.1965 224.27C42.6845 223.982 42.2805 223.578 41.9845 223.058C41.6965 222.538 41.5525 221.938 41.5525 221.258C41.5525 220.578 41.7005 219.978 41.9965 219.458C42.3005 218.938 42.7125 218.538 43.2325 218.258C43.7525 217.97 44.3325 217.826 44.9725 217.826C45.6125 217.826 46.1925 217.97 46.7125 218.258C47.2325 218.538 47.6405 218.938 47.9365 219.458C48.2405 219.978 48.3925 220.578 48.3925 221.258C48.3925 221.938 48.2365 222.538 47.9245 223.058C47.6205 223.578 47.2045 223.982 46.6765 224.27C46.1565 224.55 45.5725 224.69 44.9245 224.69ZM44.9245 223.226C45.2285 223.226 45.5125 223.154 45.7765 223.01C46.0485 222.858 46.2645 222.634 46.4245 222.338C46.5845 222.042 46.6645 221.682 46.6645 221.258C46.6645 220.626 46.4965 220.142 46.1605 219.806C45.8325 219.462 45.4285 219.29 44.9485 219.29C44.4685 219.29 44.0645 219.462 43.7365 219.806C43.4165 220.142 43.2565 220.626 43.2565 221.258C43.2565 221.89 43.4125 222.378 43.7245 222.722C44.0445 223.058 44.4445 223.226 44.9245 223.226ZM52.5769 224.69C51.9369 224.69 51.3609 224.55 50.8489 224.27C50.3369 223.982 49.9329 223.578 49.6369 223.058C49.3489 222.538 49.2049 221.938 49.2049 221.258C49.2049 220.578 49.3529 219.978 49.6489 219.458C49.9529 218.938 50.3649 218.538 50.8849 218.258C51.4049 217.97 51.9849 217.826 52.6249 217.826C53.2649 217.826 53.8449 217.97 54.3649 218.258C54.8849 218.538 55.2929 218.938 55.5889 219.458C55.8929 219.978 56.0449 220.578 56.0449 221.258C56.0449 221.938 55.8889 222.538 55.5769 223.058C55.2729 223.578 54.8569 223.982 54.3289 224.27C53.8089 224.55 53.2249 224.69 52.5769 224.69ZM52.5769 223.226C52.8809 223.226 53.1649 223.154 53.4289 223.01C53.7009 222.858 53.9169 222.634 54.0769 222.338C54.2369 222.042 54.3169 221.682 54.3169 221.258C54.3169 220.626 54.1489 220.142 53.8129 219.806C53.4849 219.462 53.0809 219.29 52.6009 219.29C52.1209 219.29 51.7169 219.462 51.3889 219.806C51.0689 220.142 50.9089 220.626 50.9089 221.258C50.9089 221.89 51.0649 222.378 51.3769 222.722C51.6969 223.058 52.0969 223.226 52.5769 223.226ZM59.8212 224.69C59.2772 224.69 58.7892 224.594 58.3572 224.402C57.9252 224.202 57.5812 223.934 57.3252 223.598C57.0772 223.262 56.9412 222.89 56.9172 222.482H58.6092C58.6412 222.738 58.7652 222.95 58.9812 223.118C59.2052 223.286 59.4812 223.37 59.8092 223.37C60.1292 223.37 60.3772 223.306 60.5532 223.178C60.7372 223.05 60.8292 222.886 60.8292 222.686C60.8292 222.47 60.7172 222.31 60.4932 222.206C60.2772 222.094 59.9292 221.974 59.4492 221.846C58.9532 221.726 58.5452 221.602 58.2252 221.474C57.9132 221.346 57.6412 221.15 57.4092 220.886C57.1852 220.622 57.0732 220.266 57.0732 219.818C57.0732 219.45 57.1772 219.114 57.3852 218.81C57.6012 218.506 57.9052 218.266 58.2972 218.09C58.6972 217.914 59.1652 217.826 59.7012 217.826C60.4932 217.826 61.1252 218.026 61.5972 218.426C62.0692 218.818 62.3292 219.35 62.3772 220.022H60.7692C60.7452 219.758 60.6332 219.55 60.4332 219.398C60.2412 219.238 59.9812 219.158 59.6532 219.158C59.3492 219.158 59.1132 219.214 58.9452 219.326C58.7852 219.438 58.7052 219.594 58.7052 219.794C58.7052 220.018 58.8172 220.19 59.0412 220.31C59.2652 220.422 59.6132 220.538 60.0852 220.658C60.5652 220.778 60.9612 220.902 61.2732 221.03C61.5852 221.158 61.8532 221.358 62.0772 221.63C62.3092 221.894 62.4292 222.246 62.4372 222.686C62.4372 223.07 62.3292 223.414 62.1132 223.718C61.9052 224.022 61.6012 224.262 61.2012 224.438C60.8092 224.606 60.3492 224.69 59.8212 224.69ZM69.9963 221.114C69.9963 221.354 69.9803 221.57 69.9483 221.762H65.0883C65.1283 222.242 65.2963 222.618 65.5923 222.89C65.8883 223.162 66.2523 223.298 66.6843 223.298C67.3083 223.298 67.7523 223.03 68.0163 222.494H69.8283C69.6363 223.134 69.2683 223.662 68.7243 224.078C68.1803 224.486 67.5123 224.69 66.7203 224.69C66.0803 224.69 65.5043 224.55 64.9923 224.27C64.4883 223.982 64.0923 223.578 63.8043 223.058C63.5243 222.538 63.3843 221.938 63.3843 221.258C63.3843 220.57 63.5243 219.966 63.8043 219.446C64.0843 218.926 64.4763 218.526 64.9803 218.246C65.4843 217.966 66.0643 217.826 66.7203 217.826C67.3523 217.826 67.9163 217.962 68.4123 218.234C68.9163 218.506 69.3043 218.894 69.5763 219.398C69.8563 219.894 69.9963 220.466 69.9963 221.114ZM68.2563 220.634C68.2483 220.202 68.0923 219.858 67.7883 219.602C67.4843 219.338 67.1123 219.206 66.6723 219.206C66.2563 219.206 65.9043 219.334 65.6163 219.59C65.3363 219.838 65.1643 220.186 65.1003 220.634H68.2563ZM73.6739 220.382C73.6739 219.558 73.8579 218.822 74.2259 218.174C74.6019 217.518 75.1099 217.01 75.7499 216.65C76.3979 216.282 77.1219 216.098 77.9219 216.098C78.8579 216.098 79.6779 216.338 80.3819 216.818C81.0859 217.298 81.5779 217.962 81.8579 218.81H79.9259C79.7339 218.41 79.4619 218.11 79.1099 217.91C78.7659 217.71 78.3659 217.61 77.9099 217.61C77.4219 217.61 76.9859 217.726 76.6019 217.958C76.2259 218.182 75.9299 218.502 75.7139 218.918C75.5059 219.334 75.4019 219.822 75.4019 220.382C75.4019 220.934 75.5059 221.422 75.7139 221.846C75.9299 222.262 76.2259 222.586 76.6019 222.818C76.9859 223.042 77.4219 223.154 77.9099 223.154C78.3659 223.154 78.7659 223.054 79.1099 222.854C79.4619 222.646 79.7339 222.342 79.9259 221.942H81.8579C81.5779 222.798 81.0859 223.466 80.3819 223.946C79.6859 224.418 78.8659 224.654 77.9219 224.654C77.1219 224.654 76.3979 224.474 75.7499 224.114C75.1099 223.746 74.6019 223.238 74.2259 222.59C73.8579 221.942 73.6739 221.206 73.6739 220.382ZM86.2448 224.69C85.6048 224.69 85.0288 224.55 84.5168 224.27C84.0048 223.982 83.6008 223.578 83.3048 223.058C83.0168 222.538 82.8728 221.938 82.8728 221.258C82.8728 220.578 83.0208 219.978 83.3168 219.458C83.6208 218.938 84.0328 218.538 84.5528 218.258C85.0728 217.97 85.6528 217.826 86.2928 217.826C86.9328 217.826 87.5128 217.97 88.0328 218.258C88.5528 218.538 88.9608 218.938 89.2568 219.458C89.5608 219.978 89.7128 220.578 89.7128 221.258C89.7128 221.938 89.5568 222.538 89.2448 223.058C88.9408 223.578 88.5248 223.982 87.9968 224.27C87.4768 224.55 86.8928 224.69 86.2448 224.69ZM86.2448 223.226C86.5488 223.226 86.8328 223.154 87.0968 223.01C87.3688 222.858 87.5848 222.634 87.7448 222.338C87.9048 222.042 87.9848 221.682 87.9848 221.258C87.9848 220.626 87.8168 220.142 87.4808 219.806C87.1528 219.462 86.7488 219.29 86.2688 219.29C85.7888 219.29 85.3848 219.462 85.0568 219.806C84.7368 220.142 84.5768 220.626 84.5768 221.258C84.5768 221.89 84.7328 222.378 85.0448 222.722C85.3648 223.058 85.7648 223.226 86.2448 223.226ZM99.2012 217.838C100.017 217.838 100.673 218.09 101.169 218.594C101.673 219.09 101.925 219.786 101.925 220.682V224.582H100.245V220.91C100.245 220.39 100.113 219.994 99.8492 219.722C99.5852 219.442 99.2252 219.302 98.7692 219.302C98.3132 219.302 97.9492 219.442 97.6772 219.722C97.4132 219.994 97.2812 220.39 97.2812 220.91V224.582H95.6012V220.91C95.6012 220.39 95.4692 219.994 95.2052 219.722C94.9412 219.442 94.5812 219.302 94.1252 219.302C93.6612 219.302 93.2932 219.442 93.0212 219.722C92.7572 219.994 92.6252 220.39 92.6252 220.91V224.582H90.9452V217.934H92.6252V218.738C92.8412 218.458 93.1172 218.238 93.4532 218.078C93.7972 217.918 94.1732 217.838 94.5812 217.838C95.1012 217.838 95.5652 217.95 95.9732 218.174C96.3812 218.39 96.6972 218.702 96.9212 219.11C97.1372 218.726 97.4492 218.418 97.8572 218.186C98.2732 217.954 98.7212 217.838 99.2012 217.838ZM105.199 218.894C105.415 218.59 105.711 218.338 106.087 218.138C106.471 217.93 106.907 217.826 107.395 217.826C107.963 217.826 108.475 217.966 108.931 218.246C109.395 218.526 109.759 218.926 110.023 219.446C110.295 219.958 110.431 220.554 110.431 221.234C110.431 221.914 110.295 222.518 110.023 223.046C109.759 223.566 109.395 223.97 108.931 224.258C108.475 224.546 107.963 224.69 107.395 224.69C106.907 224.69 106.475 224.59 106.099 224.39C105.731 224.19 105.431 223.938 105.199 223.634V227.75H103.519V217.934H105.199V218.894ZM108.715 221.234C108.715 220.834 108.631 220.49 108.463 220.202C108.303 219.906 108.087 219.682 107.815 219.53C107.551 219.378 107.263 219.302 106.951 219.302C106.647 219.302 106.359 219.382 106.087 219.542C105.823 219.694 105.607 219.918 105.439 220.214C105.279 220.51 105.199 220.858 105.199 221.258C105.199 221.658 105.279 222.006 105.439 222.302C105.607 222.598 105.823 222.826 106.087 222.986C106.359 223.138 106.647 223.214 106.951 223.214C107.263 223.214 107.551 223.134 107.815 222.974C108.087 222.814 108.303 222.586 108.463 222.29C108.631 221.994 108.715 221.642 108.715 221.234ZM111.22 221.234C111.22 220.562 111.352 219.966 111.616 219.446C111.888 218.926 112.252 218.526 112.708 218.246C113.172 217.966 113.688 217.826 114.256 217.826C114.752 217.826 115.184 217.926 115.552 218.126C115.928 218.326 116.228 218.578 116.452 218.882V217.934H118.144V224.582H116.452V223.61C116.236 223.922 115.936 224.182 115.552 224.39C115.176 224.59 114.74 224.69 114.244 224.69C113.684 224.69 113.172 224.546 112.708 224.258C112.252 223.97 111.888 223.566 111.616 223.046C111.352 222.518 111.22 221.914 111.22 221.234ZM116.452 221.258C116.452 220.85 116.372 220.502 116.212 220.214C116.052 219.918 115.836 219.694 115.564 219.542C115.292 219.382 115 219.302 114.688 219.302C114.376 219.302 114.088 219.378 113.824 219.53C113.56 219.682 113.344 219.906 113.176 220.202C113.016 220.49 112.936 220.834 112.936 221.234C112.936 221.634 113.016 221.986 113.176 222.29C113.344 222.586 113.56 222.814 113.824 222.974C114.096 223.134 114.384 223.214 114.688 223.214C115 223.214 115.292 223.138 115.564 222.986C115.836 222.826 116.052 222.602 116.212 222.314C116.372 222.018 116.452 221.666 116.452 221.258ZM123.469 217.838C124.261 217.838 124.901 218.09 125.389 218.594C125.877 219.09 126.121 219.786 126.121 220.682V224.582H124.441V220.91C124.441 220.382 124.309 219.978 124.045 219.698C123.781 219.41 123.421 219.266 122.965 219.266C122.501 219.266 122.133 219.41 121.861 219.698C121.597 219.978 121.465 220.382 121.465 220.91V224.582H119.785V217.934H121.465V218.762C121.689 218.474 121.973 218.25 122.317 218.09C122.669 217.922 123.053 217.838 123.469 217.838ZM134.079 217.934L129.963 227.726H128.175L129.615 224.414L126.951 217.934H128.835L130.551 222.578L132.291 217.934H134.079Z" fill="#888787"/>
<path d="M314.5 216.582L319.211 223.435C319.599 223.998 320.425 224.015 320.835 223.468L326 216.582" stroke="#888787" stroke-width="2" stroke-linecap="round"/>
</g>
</g>
<rect x="0.5" y="1.08203" width="359" height="799" rx="29.5" stroke="black"/>
<defs>
<clipPath id="clip0_789_3438">
<rect y="0.582031" width="360" height="800" rx="30" fill="white"/>
</clipPath>
<clipPath id="clip1_789_3438">
<rect width="332" height="52" fill="white" transform="translate(14 194.582)"/>
</clipPath>
</defs>
</svg>
