<svg xmlns="http://www.w3.org/2000/svg" fill="none" viewBox="24 21 253 88">
<g filter="url(#filter0_d_789_3481)">
<rect x="27" y="27.3093" width="247" height="80" rx="20" fill="white"/>
<rect x="27.5" y="27.8093" width="246" height="79" rx="19.5" stroke="#002C6E"/>
<rect x="52" y="52.3093" width="30" height="30" rx="15" fill="#DCEAFF"/>
<path fill-rule="evenodd" clip-rule="evenodd" d="M62.253 72.8815L61.4275 72.056L62.9547 70.5288C63.0267 70.4568 63.0379 70.344 62.9814 70.2593C62.0779 68.904 62.2566 67.0994 63.4083 65.9476L65.7856 63.5704C66.1409 63.215 66.229 62.6722 66.0043 62.2228L65.6491 61.5125C65.5929 61.4001 65.615 61.2644 65.7038 61.1756L66.071 60.8084C66.128 60.7514 66.2204 60.7514 66.2774 60.8084L68.0316 62.5626L70.0954 60.4988C70.2093 60.3849 70.3941 60.3849 70.5081 60.4988L70.9209 60.9116C71.0348 61.0256 71.0348 61.2104 70.9209 61.3243L68.8571 63.3881L70.9209 65.4519L72.9846 63.3881C73.0986 63.2741 73.2834 63.2741 73.3974 63.3881L73.8102 63.8009C73.9241 63.9149 73.9241 64.0997 73.8102 64.2136L71.7464 66.2774L73.5006 68.0316C73.5576 68.0886 73.5576 68.181 73.5006 68.238L73.1334 68.6052C73.0446 68.694 72.9089 68.716 72.7965 68.6599L72.0862 68.3047C71.6368 68.08 71.094 68.1681 70.7386 68.5234L68.3614 70.9006C67.2096 72.0524 65.405 72.2311 64.0497 71.3276C63.965 71.2711 63.8522 71.2823 63.7802 71.3543L62.253 72.8815ZM66.4837 67.6188L65.4518 66.5869L68.5475 65.7614L68.9602 66.1741L67.4124 66.8965L68.6506 68.1347L65.3486 68.9602L64.9359 68.5475L66.4837 67.6188Z" fill="#002C6E"/>
<path d="M105.976 65.5013C105.976 66.0667 105.843 66.6 105.576 67.1013C105.309 67.6027 104.883 68.0133 104.296 68.3333C103.709 68.6427 102.957 68.7973 102.04 68.7973H100.024V73.3093H98.2V62.1893H102.04C102.893 62.1893 103.613 62.3387 104.2 62.6373C104.797 62.9253 105.24 63.32 105.528 63.8213C105.827 64.3227 105.976 64.8827 105.976 65.5013ZM102.04 67.3093C102.733 67.3093 103.251 67.1547 103.592 66.8453C103.933 66.5253 104.104 66.0773 104.104 65.5013C104.104 64.2853 103.416 63.6773 102.04 63.6773H100.024V67.3093H102.04ZM107.108 68.8613C107.108 67.976 107.289 67.192 107.652 66.5093C108.025 65.8267 108.526 65.2987 109.156 64.9253C109.796 64.5413 110.5 64.3493 111.268 64.3493C111.961 64.3493 112.564 64.488 113.076 64.7653C113.598 65.032 114.014 65.368 114.324 65.7733V64.4933H116.164V73.3093H114.324V71.9973C114.014 72.4133 113.593 72.76 113.06 73.0373C112.526 73.3147 111.918 73.4533 111.236 73.4533C110.478 73.4533 109.785 73.2613 109.156 72.8773C108.526 72.4827 108.025 71.9387 107.652 71.2453C107.289 70.5413 107.108 69.7467 107.108 68.8613ZM114.324 68.8933C114.324 68.2853 114.196 67.7573 113.94 67.3093C113.694 66.8613 113.369 66.52 112.964 66.2853C112.558 66.0507 112.121 65.9333 111.652 65.9333C111.182 65.9333 110.745 66.0507 110.34 66.2853C109.934 66.5093 109.604 66.8453 109.348 67.2933C109.102 67.7307 108.98 68.2533 108.98 68.8613C108.98 69.4693 109.102 70.0027 109.348 70.4613C109.604 70.92 109.934 71.272 110.34 71.5173C110.756 71.752 111.193 71.8693 111.652 71.8693C112.121 71.8693 112.558 71.752 112.964 71.5173C113.369 71.2827 113.694 70.9413 113.94 70.4933C114.196 70.0347 114.324 69.5013 114.324 68.8933ZM126.495 64.4933L121.087 77.4533H119.199L120.991 73.1653L117.519 64.4933H119.551L122.031 71.2133L124.607 64.4933H126.495ZM133.852 63.6613V66.9253H137.692V68.4133H133.852V71.8213H138.172V73.3093H132.028V62.1733H138.172V63.6613H133.852ZM142.243 61.4693V73.3093H140.419V61.4693H142.243ZM152.718 68.6853C152.718 69.016 152.696 69.3147 152.654 69.5813H145.918C145.971 70.2853 146.232 70.8507 146.702 71.2773C147.171 71.704 147.747 71.9173 148.43 71.9173C149.411 71.9173 150.104 71.5067 150.51 70.6853H152.477C152.211 71.496 151.726 72.1627 151.022 72.6853C150.328 73.1973 149.464 73.4533 148.43 73.4533C147.587 73.4533 146.83 73.2667 146.158 72.8933C145.496 72.5093 144.974 71.976 144.59 71.2933C144.216 70.6 144.03 69.8 144.03 68.8933C144.03 67.9867 144.211 67.192 144.574 66.5093C144.947 65.816 145.464 65.2827 146.126 64.9093C146.798 64.536 147.566 64.3493 148.43 64.3493C149.262 64.3493 150.003 64.5307 150.654 64.8933C151.304 65.256 151.811 65.768 152.174 66.4293C152.536 67.08 152.718 67.832 152.718 68.6853ZM150.814 68.1093C150.803 67.4373 150.563 66.8987 150.094 66.4933C149.624 66.088 149.043 65.8853 148.35 65.8853C147.72 65.8853 147.182 66.088 146.734 66.4933C146.286 66.888 146.019 67.4267 145.934 68.1093H150.814ZM153.905 68.8933C153.905 67.9867 154.086 67.192 154.449 66.5093C154.822 65.816 155.334 65.2827 155.985 64.9093C156.635 64.536 157.382 64.3493 158.225 64.3493C159.291 64.3493 160.171 64.6053 160.865 65.1173C161.569 65.6187 162.043 66.3387 162.289 67.2773H160.321C160.161 66.84 159.905 66.4987 159.553 66.2533C159.201 66.008 158.758 65.8853 158.225 65.8853C157.478 65.8853 156.881 66.152 156.433 66.6853C155.995 67.208 155.777 67.944 155.777 68.8933C155.777 69.8427 155.995 70.584 156.433 71.1173C156.881 71.6507 157.478 71.9173 158.225 71.9173C159.281 71.9173 159.979 71.4533 160.321 70.5253H162.289C162.033 71.4213 161.553 72.136 160.849 72.6693C160.145 73.192 159.27 73.4533 158.225 73.4533C157.382 73.4533 156.635 73.2667 155.985 72.8933C155.334 72.5093 154.822 71.976 154.449 71.2933C154.086 70.6 153.905 69.8 153.905 68.8933ZM166.234 65.9813V70.8613C166.234 71.192 166.309 71.432 166.458 71.5813C166.618 71.72 166.885 71.7893 167.258 71.7893H168.378V73.3093H166.938C166.117 73.3093 165.488 73.1173 165.05 72.7333C164.613 72.3493 164.394 71.7253 164.394 70.8613V65.9813H163.354V64.4933H164.394V62.3013H166.234V64.4933H168.378V65.9813H166.234ZM171.883 65.7733C172.15 65.3253 172.502 64.9787 172.939 64.7333C173.387 64.4773 173.915 64.3493 174.523 64.3493V66.2373H174.059C173.345 66.2373 172.801 66.4187 172.427 66.7813C172.065 67.144 171.883 67.7733 171.883 68.6693V73.3093H170.059V64.4933H171.883V65.7733ZM177.128 63.3253C176.797 63.3253 176.52 63.2133 176.296 62.9893C176.072 62.7653 175.96 62.488 175.96 62.1573C175.96 61.8267 176.072 61.5493 176.296 61.3253C176.52 61.1013 176.797 60.9893 177.128 60.9893C177.448 60.9893 177.72 61.1013 177.944 61.3253C178.168 61.5493 178.28 61.8267 178.28 62.1573C178.28 62.488 178.168 62.7653 177.944 62.9893C177.72 63.2133 177.448 63.3253 177.128 63.3253ZM178.024 64.4933V73.3093H176.2V64.4933H178.024ZM179.811 68.8933C179.811 67.9867 179.992 67.192 180.355 66.5093C180.728 65.816 181.24 65.2827 181.891 64.9093C182.541 64.536 183.288 64.3493 184.131 64.3493C185.197 64.3493 186.077 64.6053 186.771 65.1173C187.475 65.6187 187.949 66.3387 188.195 67.2773H186.227C186.067 66.84 185.811 66.4987 185.459 66.2533C185.107 66.008 184.664 65.8853 184.131 65.8853C183.384 65.8853 182.787 66.152 182.339 66.6853C181.901 67.208 181.683 67.944 181.683 68.8933C181.683 69.8427 181.901 70.584 182.339 71.1173C182.787 71.6507 183.384 71.9173 184.131 71.9173C185.187 71.9173 185.885 71.4533 186.227 70.5253H188.195C187.939 71.4213 187.459 72.136 186.755 72.6693C186.051 73.192 185.176 73.4533 184.131 73.4533C183.288 73.4533 182.541 73.2667 181.891 72.8933C181.24 72.5093 180.728 71.976 180.355 71.2933C179.992 70.6 179.811 69.8 179.811 68.8933ZM190.941 63.3253C190.61 63.3253 190.333 63.2133 190.109 62.9893C189.885 62.7653 189.773 62.488 189.773 62.1573C189.773 61.8267 189.885 61.5493 190.109 61.3253C190.333 61.1013 190.61 60.9893 190.941 60.9893C191.261 60.9893 191.533 61.1013 191.757 61.3253C191.981 61.5493 192.093 61.8267 192.093 62.1573C192.093 62.488 191.981 62.7653 191.757 62.9893C191.533 63.2133 191.261 63.3253 190.941 63.3253ZM191.837 64.4933V73.3093H190.013V64.4933H191.837ZM196.359 65.9813V70.8613C196.359 71.192 196.434 71.432 196.583 71.5813C196.743 71.72 197.01 71.7893 197.383 71.7893H198.503V73.3093H197.063C196.242 73.3093 195.613 73.1173 195.175 72.7333C194.738 72.3493 194.519 71.7253 194.519 70.8613V65.9813H193.479V64.4933H194.519V62.3013H196.359V64.4933H198.503V65.9813H196.359ZM208.12 64.4933L202.712 77.4533H200.824L202.616 73.1653L199.144 64.4933H201.176L203.656 71.2133L206.232 64.4933H208.12ZM219.605 67.5973C220.202 67.704 220.709 68.0187 221.125 68.5413C221.541 69.064 221.749 69.656 221.749 70.3173C221.749 70.8827 221.6 71.3947 221.301 71.8533C221.013 72.3013 220.592 72.6587 220.037 72.9253C219.482 73.1813 218.837 73.3093 218.101 73.3093H213.653V62.1893H217.893C218.65 62.1893 219.301 62.3173 219.845 62.5733C220.389 62.8293 220.8 63.176 221.077 63.6133C221.354 64.04 221.493 64.52 221.493 65.0533C221.493 65.6933 221.322 66.2267 220.981 66.6533C220.64 67.08 220.181 67.3947 219.605 67.5973ZM215.477 66.8613H217.733C218.33 66.8613 218.794 66.728 219.125 66.4613C219.466 66.184 219.637 65.7893 219.637 65.2773C219.637 64.776 219.466 64.3867 219.125 64.1093C218.794 63.8213 218.33 63.6773 217.733 63.6773H215.477V66.8613ZM217.941 71.8213C218.56 71.8213 219.045 71.672 219.397 71.3733C219.749 71.0747 219.925 70.6587 219.925 70.1253C219.925 69.5813 219.738 69.1493 219.365 68.8293C218.992 68.5093 218.496 68.3493 217.877 68.3493H215.477V71.8213H217.941ZM224.659 63.3253C224.329 63.3253 224.051 63.2133 223.827 62.9893C223.603 62.7653 223.491 62.488 223.491 62.1573C223.491 61.8267 223.603 61.5493 223.827 61.3253C224.051 61.1013 224.329 60.9893 224.659 60.9893C224.979 60.9893 225.251 61.1013 225.475 61.3253C225.699 61.5493 225.811 61.8267 225.811 62.1573C225.811 62.488 225.699 62.7653 225.475 62.9893C225.251 63.2133 224.979 63.3253 224.659 63.3253ZM225.555 64.4933V73.3093H223.731V64.4933H225.555ZM229.774 61.4693V73.3093H227.95V61.4693H229.774ZM233.993 61.4693V73.3093H232.169V61.4693H233.993ZM239.588 73.4533C238.894 73.4533 238.27 73.3307 237.716 73.0853C237.172 72.8293 236.74 72.488 236.42 72.0613C236.1 71.624 235.929 71.1387 235.908 70.6053H237.796C237.828 70.9787 238.004 71.2933 238.324 71.5493C238.654 71.7947 239.065 71.9173 239.556 71.9173C240.068 71.9173 240.462 71.8213 240.74 71.6293C241.028 71.4267 241.172 71.1707 241.172 70.8613C241.172 70.5307 241.012 70.2853 240.692 70.1253C240.382 69.9653 239.886 69.7893 239.204 69.5973C238.542 69.416 238.004 69.24 237.588 69.0693C237.172 68.8987 236.809 68.6373 236.5 68.2853C236.201 67.9333 236.052 67.4693 236.052 66.8933C236.052 66.424 236.19 65.9973 236.468 65.6133C236.745 65.2187 237.14 64.9093 237.652 64.6853C238.174 64.4613 238.772 64.3493 239.444 64.3493C240.446 64.3493 241.252 64.6053 241.86 65.1173C242.478 65.6187 242.809 66.3067 242.852 67.1813H241.028C240.996 66.7867 240.836 66.472 240.548 66.2373C240.26 66.0027 239.87 65.8853 239.38 65.8853C238.9 65.8853 238.532 65.976 238.276 66.1573C238.02 66.3387 237.892 66.5787 237.892 66.8773C237.892 67.112 237.977 67.3093 238.148 67.4693C238.318 67.6293 238.526 67.7573 238.772 67.8533C239.017 67.9387 239.38 68.0507 239.86 68.1893C240.5 68.36 241.022 68.536 241.428 68.7173C241.844 68.888 242.201 69.144 242.5 69.4853C242.798 69.8267 242.953 70.28 242.964 70.8453C242.964 71.3467 242.825 71.7947 242.548 72.1893C242.27 72.584 241.876 72.8933 241.364 73.1173C240.862 73.3413 240.27 73.4533 239.588 73.4533Z" fill="black"/>
</g>
<defs>
<filter id="filter0_d_789_3481" x="0" y="0.309326" width="301" height="134" filterUnits="userSpaceOnUse" color-interpolation-filters="sRGB">
<feFlood flood-opacity="0" result="BackgroundImageFix"/>
<feColorMatrix in="SourceAlpha" type="matrix" values="0 0 0 0 0 0 0 0 0 0 0 0 0 0 0 0 0 0 127 0" result="hardAlpha"/>
<feMorphology radius="2" operator="dilate" in="SourceAlpha" result="effect1_dropShadow_789_3481"/>
<feOffset/>
<feGaussianBlur stdDeviation="12.5"/>
<feComposite in2="hardAlpha" operator="out"/>
<feColorMatrix type="matrix" values="0 0 0 0 0 0 0 0 0 0.172549 0 0 0 0 0.431373 0 0 0 0.15 0"/>
<feBlend mode="normal" in2="BackgroundImageFix" result="effect1_dropShadow_789_3481"/>
<feBlend mode="normal" in="SourceGraphic" in2="effect1_dropShadow_789_3481" result="shape"/>
</filter>
</defs>
</svg>