<svg width="337" height="135" viewBox="27 17 285 95" fill="none" xmlns="http://www.w3.org/2000/svg">
<g filter="url(#filter0_d_789_3487)">
<rect x="27" y="27.582" width="283" height="80" rx="20" fill="white"/>
<rect x="27.5" y="28.082" width="282" height="79" rx="19.5" stroke="#002C6E"/>
<rect x="52" y="52.582" width="30" height="30" rx="15" fill="#DCEAFF"/>
<path d="M59.5244 71.8808V64.0309C59.5244 62.7922 60.5286 61.7881 61.7672 61.7881H69.9909C72.4682 61.7881 74.4765 63.7964 74.4765 66.2737V73.376C74.4765 74.2017 73.8071 74.8712 72.9813 74.8712H62.5148C60.8633 74.8712 59.5244 73.5323 59.5244 71.8808Z" fill="#002C6E"/>
<path d="M64.0098 60.293L65.1312 62.162H66.2526L67.374 60.293" stroke="#002C6E" stroke-width="1.12141" stroke-linecap="round"/>
<rect x="60.6455" y="62.9097" width="9.34506" height="9.34506" rx="1.12141" fill="#DCEAFF"/>
<path d="M63.2627 68.3297H65.1317L64.571 70.5725H65.3186L67.5614 66.8345H65.3186L66.0662 64.7786H65.3186L63.2627 68.3297Z" fill="#002C6E"/>
<path d="M103.976 73.582L101.416 69.134H100.024V73.582H98.2V62.462H102.04C102.893 62.462 103.613 62.6114 104.2 62.91C104.797 63.2087 105.24 63.6087 105.528 64.11C105.827 64.6114 105.976 65.1714 105.976 65.79C105.976 66.5154 105.763 67.1767 105.336 67.774C104.92 68.3607 104.275 68.7607 103.4 68.974L106.152 73.582H103.976ZM100.024 67.678H102.04C102.723 67.678 103.235 67.5074 103.576 67.166C103.928 66.8247 104.104 66.366 104.104 65.79C104.104 65.214 103.933 64.766 103.592 64.446C103.251 64.1154 102.733 63.95 102.04 63.95H100.024V67.678ZM116.389 68.958C116.389 69.2887 116.368 69.5874 116.325 69.854H109.589C109.643 70.558 109.904 71.1234 110.373 71.55C110.843 71.9767 111.419 72.19 112.101 72.19C113.083 72.19 113.776 71.7794 114.181 70.958H116.149C115.883 71.7687 115.397 72.4354 114.693 72.958C114 73.47 113.136 73.726 112.101 73.726C111.259 73.726 110.501 73.5394 109.829 73.166C109.168 72.782 108.645 72.2487 108.261 71.566C107.888 70.8727 107.701 70.0727 107.701 69.166C107.701 68.2594 107.883 67.4647 108.245 66.782C108.619 66.0887 109.136 65.5554 109.797 65.182C110.469 64.8087 111.237 64.622 112.101 64.622C112.933 64.622 113.675 64.8034 114.325 65.166C114.976 65.5287 115.483 66.0407 115.845 66.702C116.208 67.3527 116.389 68.1047 116.389 68.958ZM114.485 68.382C114.475 67.71 114.235 67.1714 113.765 66.766C113.296 66.3607 112.715 66.158 112.021 66.158C111.392 66.158 110.853 66.3607 110.405 66.766C109.957 67.1607 109.691 67.6994 109.605 68.382H114.485ZM122.632 64.622C123.326 64.622 123.944 64.766 124.488 65.054C125.043 65.342 125.475 65.7687 125.784 66.334C126.094 66.8994 126.248 67.582 126.248 68.382V73.582H124.44V68.654C124.44 67.8647 124.243 67.262 123.848 66.846C123.454 66.4194 122.915 66.206 122.232 66.206C121.55 66.206 121.006 66.4194 120.6 66.846C120.206 67.262 120.008 67.8647 120.008 68.654V73.582H118.184V64.766H120.008V65.774C120.307 65.4114 120.686 65.1287 121.144 64.926C121.614 64.7234 122.11 64.622 122.632 64.622ZM136.655 68.958C136.655 69.2887 136.634 69.5874 136.591 69.854H129.855C129.908 70.558 130.17 71.1234 130.639 71.55C131.108 71.9767 131.684 72.19 132.367 72.19C133.348 72.19 134.042 71.7794 134.447 70.958H136.415C136.148 71.7687 135.663 72.4354 134.959 72.958C134.266 73.47 133.402 73.726 132.367 73.726C131.524 73.726 130.767 73.5394 130.095 73.166C129.434 72.782 128.911 72.2487 128.527 71.566C128.154 70.8727 127.967 70.0727 127.967 69.166C127.967 68.2594 128.148 67.4647 128.511 66.782C128.884 66.0887 129.402 65.5554 130.063 65.182C130.735 64.8087 131.503 64.622 132.367 64.622C133.199 64.622 133.94 64.8034 134.591 65.166C135.242 65.5287 135.748 66.0407 136.111 66.702C136.474 67.3527 136.655 68.1047 136.655 68.958ZM134.751 68.382C134.74 67.71 134.5 67.1714 134.031 66.766C133.562 66.3607 132.98 66.158 132.287 66.158C131.658 66.158 131.119 66.3607 130.671 66.766C130.223 67.1607 129.956 67.6994 129.871 68.382H134.751ZM150.29 64.766L147.554 73.582H145.634L143.858 67.07L142.082 73.582H140.162L137.41 64.766H139.266L141.106 71.854L142.978 64.766H144.882L146.674 71.822L148.498 64.766H150.29ZM162.993 62.462V63.95H160.033V73.582H158.209V63.95H155.233V62.462H162.993ZM174.425 62.462L170.249 73.582H168.137L163.945 62.462H165.897L169.193 71.71L172.505 62.462H174.425ZM183.77 73.694C183.024 73.694 182.352 73.566 181.754 73.31C181.157 73.0434 180.688 72.67 180.346 72.19C180.005 71.71 179.834 71.15 179.834 70.51H181.786C181.829 70.99 182.016 71.3847 182.346 71.694C182.688 72.0034 183.162 72.158 183.77 72.158C184.4 72.158 184.89 72.0087 185.242 71.71C185.594 71.4007 185.77 71.006 185.77 70.526C185.77 70.1527 185.658 69.8487 185.434 69.614C185.221 69.3794 184.949 69.198 184.618 69.07C184.298 68.942 183.85 68.8034 183.274 68.654C182.549 68.462 181.957 68.27 181.498 68.078C181.05 67.8754 180.666 67.566 180.346 67.15C180.026 66.734 179.866 66.1794 179.866 65.486C179.866 64.846 180.026 64.286 180.346 63.806C180.666 63.326 181.114 62.958 181.69 62.702C182.266 62.446 182.933 62.318 183.69 62.318C184.768 62.318 185.648 62.59 186.33 63.134C187.024 63.6674 187.408 64.4034 187.482 65.342H185.466C185.434 64.9367 185.242 64.59 184.89 64.302C184.538 64.014 184.074 63.87 183.498 63.87C182.976 63.87 182.549 64.0034 182.218 64.27C181.888 64.5367 181.722 64.9207 181.722 65.422C181.722 65.7634 181.824 66.046 182.026 66.27C182.24 66.4834 182.506 66.654 182.826 66.782C183.146 66.91 183.584 67.0487 184.138 67.198C184.874 67.4007 185.472 67.6034 185.93 67.806C186.4 68.0087 186.794 68.3234 187.114 68.75C187.445 69.166 187.61 69.726 187.61 70.43C187.61 70.9954 187.456 71.5287 187.146 72.03C186.848 72.5314 186.405 72.9367 185.818 73.246C185.242 73.5447 184.56 73.694 183.77 73.694ZM197.747 64.766V73.582H195.923V72.542C195.635 72.9047 195.256 73.1927 194.787 73.406C194.328 73.6087 193.837 73.71 193.315 73.71C192.621 73.71 191.997 73.566 191.443 73.278C190.899 72.99 190.467 72.5634 190.147 71.998C189.837 71.4327 189.683 70.75 189.683 69.95V64.766H191.491V69.678C191.491 70.4674 191.688 71.0754 192.083 71.502C192.477 71.918 193.016 72.126 193.699 72.126C194.381 72.126 194.92 71.918 195.315 71.502C195.72 71.0754 195.923 70.4674 195.923 69.678V64.766H197.747ZM201.977 66.078C202.286 65.6514 202.708 65.3047 203.241 65.038C203.785 64.7607 204.388 64.622 205.049 64.622C205.828 64.622 206.532 64.8087 207.161 65.182C207.79 65.5554 208.286 66.0887 208.649 66.782C209.012 67.4647 209.193 68.2487 209.193 69.134C209.193 70.0194 209.012 70.814 208.649 71.518C208.286 72.2114 207.785 72.7554 207.145 73.15C206.516 73.534 205.817 73.726 205.049 73.726C204.366 73.726 203.758 73.5927 203.225 73.326C202.702 73.0594 202.286 72.718 201.977 72.302V73.582H200.153V61.742H201.977V66.078ZM207.337 69.134C207.337 68.526 207.209 68.0034 206.953 67.566C206.708 67.118 206.377 66.782 205.961 66.558C205.556 66.3234 205.118 66.206 204.649 66.206C204.19 66.206 203.753 66.3234 203.337 66.558C202.932 66.7927 202.601 67.134 202.345 67.582C202.1 68.03 201.977 68.558 201.977 69.166C201.977 69.774 202.1 70.3074 202.345 70.766C202.601 71.214 202.932 71.5554 203.337 71.79C203.753 72.0247 204.19 72.142 204.649 72.142C205.118 72.142 205.556 72.0247 205.961 71.79C206.377 71.5447 206.708 71.1927 206.953 70.734C207.209 70.2754 207.337 69.742 207.337 69.134ZM214.197 73.726C213.504 73.726 212.88 73.6034 212.325 73.358C211.781 73.102 211.349 72.7607 211.029 72.334C210.709 71.8967 210.538 71.4114 210.517 70.878H212.405C212.437 71.2514 212.613 71.566 212.933 71.822C213.264 72.0674 213.674 72.19 214.165 72.19C214.677 72.19 215.072 72.094 215.349 71.902C215.637 71.6994 215.781 71.4434 215.781 71.134C215.781 70.8034 215.621 70.558 215.301 70.398C214.992 70.238 214.496 70.062 213.813 69.87C213.152 69.6887 212.613 69.5127 212.197 69.342C211.781 69.1714 211.418 68.91 211.109 68.558C210.81 68.206 210.661 67.742 210.661 67.166C210.661 66.6967 210.8 66.27 211.077 65.886C211.354 65.4914 211.749 65.182 212.261 64.958C212.784 64.734 213.381 64.622 214.053 64.622C215.056 64.622 215.861 64.878 216.469 65.39C217.088 65.8914 217.418 66.5794 217.461 67.454H215.637C215.605 67.0594 215.445 66.7447 215.157 66.51C214.869 66.2754 214.48 66.158 213.989 66.158C213.509 66.158 213.141 66.2487 212.885 66.43C212.629 66.6114 212.501 66.8514 212.501 67.15C212.501 67.3847 212.586 67.582 212.757 67.742C212.928 67.902 213.136 68.03 213.381 68.126C213.626 68.2114 213.989 68.3234 214.469 68.462C215.109 68.6327 215.632 68.8087 216.037 68.99C216.453 69.1607 216.81 69.4167 217.109 69.758C217.408 70.0994 217.562 70.5527 217.573 71.118C217.573 71.6194 217.434 72.0674 217.157 72.462C216.88 72.8567 216.485 73.166 215.973 73.39C215.472 73.614 214.88 73.726 214.197 73.726ZM218.936 69.166C218.936 68.2594 219.117 67.4647 219.48 66.782C219.853 66.0887 220.365 65.5554 221.016 65.182C221.666 64.8087 222.413 64.622 223.256 64.622C224.322 64.622 225.202 64.878 225.896 65.39C226.6 65.8914 227.074 66.6114 227.32 67.55H225.352C225.192 67.1127 224.936 66.7714 224.584 66.526C224.232 66.2807 223.789 66.158 223.256 66.158C222.509 66.158 221.912 66.4247 221.464 66.958C221.026 67.4807 220.808 68.2167 220.808 69.166C220.808 70.1154 221.026 70.8567 221.464 71.39C221.912 71.9234 222.509 72.19 223.256 72.19C224.312 72.19 225.01 71.726 225.352 70.798H227.32C227.064 71.694 226.584 72.4087 225.88 72.942C225.176 73.4647 224.301 73.726 223.256 73.726C222.413 73.726 221.666 73.5394 221.016 73.166C220.365 72.782 219.853 72.2487 219.48 71.566C219.117 70.8727 218.936 70.0727 218.936 69.166ZM230.962 66.046C231.228 65.598 231.58 65.2514 232.018 65.006C232.466 64.75 232.994 64.622 233.602 64.622V66.51H233.138C232.423 66.51 231.879 66.6914 231.506 67.054C231.143 67.4167 230.962 68.046 230.962 68.942V73.582H229.138V64.766H230.962V66.046ZM236.206 63.598C235.875 63.598 235.598 63.486 235.374 63.262C235.15 63.038 235.038 62.7607 235.038 62.43C235.038 62.0994 235.15 61.822 235.374 61.598C235.598 61.374 235.875 61.262 236.206 61.262C236.526 61.262 236.798 61.374 237.022 61.598C237.246 61.822 237.358 62.0994 237.358 62.43C237.358 62.7607 237.246 63.038 237.022 63.262C236.798 63.486 236.526 63.598 236.206 63.598ZM237.102 64.766V73.582H235.278V64.766H237.102ZM241.321 66.062C241.63 65.6567 242.052 65.3154 242.585 65.038C243.118 64.7607 243.721 64.622 244.393 64.622C245.161 64.622 245.86 64.814 246.489 65.198C247.129 65.5714 247.63 66.0994 247.993 66.782C248.356 67.4647 248.537 68.2487 248.537 69.134C248.537 70.0194 248.356 70.814 247.993 71.518C247.63 72.2114 247.129 72.7554 246.489 73.15C245.86 73.534 245.161 73.726 244.393 73.726C243.721 73.726 243.124 73.5927 242.601 73.326C242.078 73.0487 241.652 72.7074 241.321 72.302V77.774H239.497V64.766H241.321V66.062ZM246.681 69.134C246.681 68.526 246.553 68.0034 246.297 67.566C246.052 67.118 245.721 66.782 245.305 66.558C244.9 66.3234 244.462 66.206 243.993 66.206C243.534 66.206 243.097 66.3234 242.681 66.558C242.276 66.7927 241.945 67.134 241.689 67.582C241.444 68.03 241.321 68.558 241.321 69.166C241.321 69.774 241.444 70.3074 241.689 70.766C241.945 71.214 242.276 71.5554 242.681 71.79C243.097 72.0247 243.534 72.142 243.993 72.142C244.462 72.142 244.9 72.0247 245.305 71.79C245.721 71.5447 246.052 71.1927 246.297 70.734C246.553 70.2754 246.681 69.742 246.681 69.134ZM252.469 66.254V71.134C252.469 71.4647 252.543 71.7047 252.693 71.854C252.853 71.9927 253.119 72.062 253.493 72.062H254.613V73.582H253.173C252.351 73.582 251.722 73.39 251.285 73.006C250.847 72.622 250.629 71.998 250.629 71.134V66.254H249.589V64.766H250.629V62.574H252.469V64.766H254.613V66.254H252.469ZM257.222 63.598C256.891 63.598 256.614 63.486 256.39 63.262C256.166 63.038 256.054 62.7607 256.054 62.43C256.054 62.0994 256.166 61.822 256.39 61.598C256.614 61.374 256.891 61.262 257.222 61.262C257.542 61.262 257.814 61.374 258.038 61.598C258.262 61.822 258.374 62.0994 258.374 62.43C258.374 62.7607 258.262 63.038 258.038 63.262C257.814 63.486 257.542 63.598 257.222 63.598ZM258.118 64.766V73.582H256.294V64.766H258.118ZM264.337 73.726C263.505 73.726 262.753 73.5394 262.081 73.166C261.409 72.782 260.881 72.2487 260.497 71.566C260.113 70.8727 259.921 70.0727 259.921 69.166C259.921 68.27 260.118 67.4754 260.513 66.782C260.907 66.0887 261.446 65.5554 262.129 65.182C262.811 64.8087 263.574 64.622 264.417 64.622C265.259 64.622 266.022 64.8087 266.705 65.182C267.387 65.5554 267.926 66.0887 268.321 66.782C268.715 67.4754 268.913 68.27 268.913 69.166C268.913 70.062 268.71 70.8567 268.305 71.55C267.899 72.2434 267.345 72.782 266.641 73.166C265.947 73.5394 265.179 73.726 264.337 73.726ZM264.337 72.142C264.806 72.142 265.243 72.03 265.649 71.806C266.065 71.582 266.401 71.246 266.657 70.798C266.913 70.35 267.041 69.806 267.041 69.166C267.041 68.526 266.918 67.9874 266.673 67.55C266.427 67.102 266.102 66.766 265.697 66.542C265.291 66.318 264.854 66.206 264.385 66.206C263.915 66.206 263.478 66.318 263.073 66.542C262.678 66.766 262.363 67.102 262.129 67.55C261.894 67.9874 261.777 68.526 261.777 69.166C261.777 70.1154 262.017 70.8514 262.497 71.374C262.987 71.886 263.601 72.142 264.337 72.142ZM275.164 64.622C275.857 64.622 276.476 64.766 277.02 65.054C277.574 65.342 278.006 65.7687 278.316 66.334C278.625 66.8994 278.78 67.582 278.78 68.382V73.582H276.972V68.654C276.972 67.8647 276.774 67.262 276.38 66.846C275.985 66.4194 275.446 66.206 274.764 66.206C274.081 66.206 273.537 66.4194 273.132 66.846C272.737 67.262 272.54 67.8647 272.54 68.654V73.582H270.716V64.766H272.54V65.774C272.838 65.4114 273.217 65.1287 273.676 64.926C274.145 64.7234 274.641 64.622 275.164 64.622Z" fill="black"/>
</g>
<defs>
<filter id="filter0_d_789_3487" x="0" y="0.582031" width="337" height="134" filterUnits="userSpaceOnUse" color-interpolation-filters="sRGB">
<feFlood flood-opacity="0" result="BackgroundImageFix"/>
<feColorMatrix in="SourceAlpha" type="matrix" values="0 0 0 0 0 0 0 0 0 0 0 0 0 0 0 0 0 0 127 0" result="hardAlpha"/>
<feMorphology radius="2" operator="dilate" in="SourceAlpha" result="effect1_dropShadow_789_3487"/>
<feOffset/>
<feGaussianBlur stdDeviation="12.5"/>
<feComposite in2="hardAlpha" operator="out"/>
<feColorMatrix type="matrix" values="0 0 0 0 0 0 0 0 0 0.172549 0 0 0 0 0.431373 0 0 0 0.15 0"/>
<feBlend mode="normal" in2="BackgroundImageFix" result="effect1_dropShadow_789_3487"/>
<feBlend mode="normal" in="SourceGraphic" in2="effect1_dropShadow_789_3487" result="shape"/>
</filter>
</defs>
</svg>
