<svg xmlns="http://www.w3.org/2000/svg" fill="none" viewBox="27 23 295 86">
<g filter="url(#filter0_d_789_3430)">
<rect x="27" y="27" width="292" height="80" rx="20" fill="white"/>
<rect x="27.5" y="27.5" width="291" height="79" rx="19.5" stroke="#002C6E"/>
<rect x="52" y="52" width="30" height="30" rx="15" fill="#DCEAFF"/>
<path d="M63.5187 68.0711V63.8145C63.5187 63.6666 63.3988 63.5467 63.2509 63.5467H62.4599C62.3473 63.5467 62.285 63.4162 62.3557 63.3286L65.4527 59.4918C65.5599 59.359 65.7623 59.359 65.8695 59.4918L68.9666 63.3286C69.0372 63.4162 68.9749 63.5467 68.8624 63.5467H68.0713C67.9234 63.5467 67.8035 63.6666 67.8035 63.8145V68.0711C67.8035 68.219 67.6836 68.3389 67.5357 68.3389H63.7865C63.6386 68.3389 63.5187 68.219 63.5187 68.0711Z" fill="#002C6E"/>
<path d="M66.6291 69.57V70.439C66.6291 70.5869 66.5092 70.7068 66.3613 70.7068H65.6699C65.5579 70.7068 65.4954 70.836 65.5649 70.9238L68.3967 74.5009C68.5039 74.6363 68.7094 74.6363 68.8167 74.5009L71.6485 70.9238C71.718 70.836 71.6555 70.7068 71.5435 70.7068H70.8521C70.7042 70.7068 70.5843 70.5869 70.5843 70.439V66.4643C70.5843 66.3164 70.4644 66.1965 70.3165 66.1965H69.1423" stroke="#002C6E" stroke-width="1.07121" stroke-linecap="round"/>
<path d="M101.864 73.112C101.117 73.112 100.445 72.984 99.848 72.728C99.2507 72.4613 98.7813 72.088 98.44 71.608C98.0987 71.128 97.928 70.568 97.928 69.928H99.88C99.9227 70.408 100.109 70.8027 100.44 71.112C100.781 71.4213 101.256 71.576 101.864 71.576C102.493 71.576 102.984 71.4267 103.336 71.128C103.688 70.8187 103.864 70.424 103.864 69.944C103.864 69.5707 103.752 69.2667 103.528 69.032C103.315 68.7973 103.043 68.616 102.712 68.488C102.392 68.36 101.944 68.2213 101.368 68.072C100.643 67.88 100.051 67.688 99.592 67.496C99.144 67.2933 98.76 66.984 98.44 66.568C98.12 66.152 97.96 65.5973 97.96 64.904C97.96 64.264 98.12 63.704 98.44 63.224C98.76 62.744 99.208 62.376 99.784 62.12C100.36 61.864 101.027 61.736 101.784 61.736C102.861 61.736 103.741 62.008 104.424 62.552C105.117 63.0853 105.501 63.8213 105.576 64.76H103.56C103.528 64.3547 103.336 64.008 102.984 63.72C102.632 63.432 102.168 63.288 101.592 63.288C101.069 63.288 100.643 63.4213 100.312 63.688C99.9813 63.9547 99.816 64.3387 99.816 64.84C99.816 65.1813 99.9173 65.464 100.12 65.688C100.333 65.9013 100.6 66.072 100.92 66.2C101.24 66.328 101.677 66.4667 102.232 66.616C102.968 66.8187 103.565 67.0213 104.024 67.224C104.493 67.4267 104.888 67.7413 105.208 68.168C105.539 68.584 105.704 69.144 105.704 69.848C105.704 70.4133 105.549 70.9467 105.24 71.448C104.941 71.9493 104.499 72.3547 103.912 72.664C103.336 72.9627 102.653 73.112 101.864 73.112ZM115.84 64.184V73H114.016V71.96C113.728 72.3227 113.35 72.6107 112.88 72.824C112.422 73.0267 111.931 73.128 111.408 73.128C110.715 73.128 110.091 72.984 109.536 72.696C108.992 72.408 108.56 71.9813 108.24 71.416C107.931 70.8507 107.776 70.168 107.776 69.368V64.184H109.584V69.096C109.584 69.8853 109.782 70.4933 110.176 70.92C110.571 71.336 111.11 71.544 111.792 71.544C112.475 71.544 113.014 71.336 113.408 70.92C113.814 70.4933 114.016 69.8853 114.016 69.096V64.184H115.84ZM120.071 65.496C120.38 65.0693 120.802 64.7227 121.335 64.456C121.879 64.1787 122.482 64.04 123.143 64.04C123.922 64.04 124.626 64.2267 125.255 64.6C125.884 64.9733 126.38 65.5067 126.743 66.2C127.106 66.8827 127.287 67.6667 127.287 68.552C127.287 69.4373 127.106 70.232 126.743 70.936C126.38 71.6293 125.879 72.1733 125.239 72.568C124.61 72.952 123.911 73.144 123.143 73.144C122.46 73.144 121.852 73.0107 121.319 72.744C120.796 72.4773 120.38 72.136 120.071 71.72V73H118.247V61.16H120.071V65.496ZM125.431 68.552C125.431 67.944 125.303 67.4213 125.047 66.984C124.802 66.536 124.471 66.2 124.055 65.976C123.65 65.7413 123.212 65.624 122.743 65.624C122.284 65.624 121.847 65.7413 121.431 65.976C121.026 66.2107 120.695 66.552 120.439 67C120.194 67.448 120.071 67.976 120.071 68.584C120.071 69.192 120.194 69.7253 120.439 70.184C120.695 70.632 121.026 70.9733 121.431 71.208C121.847 71.4427 122.284 71.56 122.743 71.56C123.212 71.56 123.65 71.4427 124.055 71.208C124.471 70.9627 124.802 70.6107 125.047 70.152C125.303 69.6933 125.431 69.16 125.431 68.552ZM132.291 73.144C131.597 73.144 130.973 73.0213 130.419 72.776C129.875 72.52 129.443 72.1787 129.123 71.752C128.803 71.3147 128.632 70.8293 128.611 70.296H130.499C130.531 70.6693 130.707 70.984 131.027 71.24C131.357 71.4853 131.768 71.608 132.259 71.608C132.771 71.608 133.165 71.512 133.443 71.32C133.731 71.1173 133.875 70.8613 133.875 70.552C133.875 70.2213 133.715 69.976 133.395 69.816C133.085 69.656 132.589 69.48 131.907 69.288C131.245 69.1067 130.707 68.9307 130.291 68.76C129.875 68.5893 129.512 68.328 129.203 67.976C128.904 67.624 128.755 67.16 128.755 66.584C128.755 66.1147 128.893 65.688 129.171 65.304C129.448 64.9093 129.843 64.6 130.355 64.376C130.877 64.152 131.475 64.04 132.147 64.04C133.149 64.04 133.955 64.296 134.563 64.808C135.181 65.3093 135.512 65.9973 135.555 66.872H133.731C133.699 66.4773 133.539 66.1627 133.251 65.928C132.963 65.6933 132.573 65.576 132.083 65.576C131.603 65.576 131.235 65.6667 130.979 65.848C130.723 66.0293 130.595 66.2693 130.595 66.568C130.595 66.8027 130.68 67 130.851 67.16C131.021 67.32 131.229 67.448 131.475 67.544C131.72 67.6293 132.083 67.7413 132.563 67.88C133.203 68.0507 133.725 68.2267 134.131 68.408C134.547 68.5787 134.904 68.8347 135.203 69.176C135.501 69.5173 135.656 69.9707 135.667 70.536C135.667 71.0373 135.528 71.4853 135.251 71.88C134.973 72.2747 134.579 72.584 134.067 72.808C133.565 73.032 132.973 73.144 132.291 73.144ZM137.03 68.584C137.03 67.6773 137.211 66.8827 137.574 66.2C137.947 65.5067 138.459 64.9733 139.11 64.6C139.76 64.2267 140.507 64.04 141.35 64.04C142.416 64.04 143.296 64.296 143.99 64.808C144.694 65.3093 145.168 66.0293 145.414 66.968H143.446C143.286 66.5307 143.03 66.1893 142.678 65.944C142.326 65.6987 141.883 65.576 141.35 65.576C140.603 65.576 140.006 65.8427 139.558 66.376C139.12 66.8987 138.902 67.6347 138.902 68.584C138.902 69.5333 139.12 70.2747 139.558 70.808C140.006 71.3413 140.603 71.608 141.35 71.608C142.406 71.608 143.104 71.144 143.446 70.216H145.414C145.158 71.112 144.678 71.8267 143.974 72.36C143.27 72.8827 142.395 73.144 141.35 73.144C140.507 73.144 139.76 72.9573 139.11 72.584C138.459 72.2 137.947 71.6667 137.574 70.984C137.211 70.2907 137.03 69.4907 137.03 68.584ZM149.055 65.464C149.322 65.016 149.674 64.6693 150.111 64.424C150.559 64.168 151.087 64.04 151.695 64.04V65.928H151.231C150.517 65.928 149.973 66.1093 149.599 66.472C149.237 66.8347 149.055 67.464 149.055 68.36V73H147.231V64.184H149.055V65.464ZM154.3 63.016C153.969 63.016 153.692 62.904 153.468 62.68C153.244 62.456 153.132 62.1787 153.132 61.848C153.132 61.5173 153.244 61.24 153.468 61.016C153.692 60.792 153.969 60.68 154.3 60.68C154.62 60.68 154.892 60.792 155.116 61.016C155.34 61.24 155.452 61.5173 155.452 61.848C155.452 62.1787 155.34 62.456 155.116 62.68C154.892 62.904 154.62 63.016 154.3 63.016ZM155.196 64.184V73H153.372V64.184H155.196ZM159.415 65.496C159.724 65.0693 160.145 64.7227 160.679 64.456C161.223 64.1787 161.825 64.04 162.487 64.04C163.265 64.04 163.969 64.2267 164.599 64.6C165.228 64.9733 165.724 65.5067 166.087 66.2C166.449 66.8827 166.631 67.6667 166.631 68.552C166.631 69.4373 166.449 70.232 166.087 70.936C165.724 71.6293 165.223 72.1733 164.583 72.568C163.953 72.952 163.255 73.144 162.487 73.144C161.804 73.144 161.196 73.0107 160.663 72.744C160.14 72.4773 159.724 72.136 159.415 71.72V73H157.591V61.16H159.415V65.496ZM164.775 68.552C164.775 67.944 164.647 67.4213 164.391 66.984C164.145 66.536 163.815 66.2 163.399 65.976C162.993 65.7413 162.556 65.624 162.087 65.624C161.628 65.624 161.191 65.7413 160.775 65.976C160.369 66.2107 160.039 66.552 159.783 67C159.537 67.448 159.415 67.976 159.415 68.584C159.415 69.192 159.537 69.7253 159.783 70.184C160.039 70.632 160.369 70.9733 160.775 71.208C161.191 71.4427 161.628 71.56 162.087 71.56C162.556 71.56 162.993 71.4427 163.399 71.208C163.815 70.9627 164.145 70.6107 164.391 70.152C164.647 69.6933 164.775 69.16 164.775 68.552ZM176.514 68.376C176.514 68.7067 176.493 69.0053 176.45 69.272H169.714C169.768 69.976 170.029 70.5413 170.498 70.968C170.968 71.3947 171.544 71.608 172.226 71.608C173.208 71.608 173.901 71.1973 174.306 70.376H176.274C176.008 71.1867 175.522 71.8533 174.818 72.376C174.125 72.888 173.261 73.144 172.226 73.144C171.384 73.144 170.626 72.9573 169.954 72.584C169.293 72.2 168.77 71.6667 168.386 70.984C168.013 70.2907 167.826 69.4907 167.826 68.584C167.826 67.6773 168.008 66.8827 168.37 66.2C168.744 65.5067 169.261 64.9733 169.922 64.6C170.594 64.2267 171.362 64.04 172.226 64.04C173.058 64.04 173.8 64.2213 174.45 64.584C175.101 64.9467 175.608 65.4587 175.97 66.12C176.333 66.7707 176.514 67.5227 176.514 68.376ZM174.61 67.8C174.6 67.128 174.36 66.5893 173.89 66.184C173.421 65.7787 172.84 65.576 172.146 65.576C171.517 65.576 170.978 65.7787 170.53 66.184C170.082 66.5787 169.816 67.1173 169.73 67.8H174.61ZM186.098 61.88C187.282 61.88 188.316 62.1093 189.202 62.568C190.098 63.016 190.786 63.6667 191.266 64.52C191.756 65.3627 192.002 66.3493 192.002 67.48C192.002 68.6107 191.756 69.592 191.266 70.424C190.786 71.256 190.098 71.896 189.202 72.344C188.316 72.7813 187.282 73 186.098 73H182.466V61.88H186.098ZM186.098 71.512C187.399 71.512 188.396 71.16 189.09 70.456C189.783 69.752 190.13 68.76 190.13 67.48C190.13 66.1893 189.783 65.1813 189.09 64.456C188.396 63.7307 187.399 63.368 186.098 63.368H184.29V71.512H186.098ZM193.201 68.552C193.201 67.6667 193.383 66.8827 193.745 66.2C194.119 65.5173 194.62 64.9893 195.249 64.616C195.889 64.232 196.593 64.04 197.361 64.04C198.055 64.04 198.657 64.1787 199.169 64.456C199.692 64.7227 200.108 65.0587 200.417 65.464V64.184H202.257V73H200.417V71.688C200.108 72.104 199.687 72.4507 199.153 72.728C198.62 73.0053 198.012 73.144 197.329 73.144C196.572 73.144 195.879 72.952 195.249 72.568C194.62 72.1733 194.119 71.6293 193.745 70.936C193.383 70.232 193.201 69.4373 193.201 68.552ZM200.417 68.584C200.417 67.976 200.289 67.448 200.033 67C199.788 66.552 199.463 66.2107 199.057 65.976C198.652 65.7413 198.215 65.624 197.745 65.624C197.276 65.624 196.839 65.7413 196.433 65.976C196.028 66.2 195.697 66.536 195.441 66.984C195.196 67.4213 195.073 67.944 195.073 68.552C195.073 69.16 195.196 69.6933 195.441 70.152C195.697 70.6107 196.028 70.9627 196.433 71.208C196.849 71.4427 197.287 71.56 197.745 71.56C198.215 71.56 198.652 71.4427 199.057 71.208C199.463 70.9733 199.788 70.632 200.033 70.184C200.289 69.7253 200.417 69.192 200.417 68.584ZM206.781 65.672V70.552C206.781 70.8827 206.856 71.1227 207.005 71.272C207.165 71.4107 207.432 71.48 207.805 71.48H208.925V73H207.485C206.664 73 206.034 72.808 205.597 72.424C205.16 72.04 204.941 71.416 204.941 70.552V65.672H203.901V64.184H204.941V61.992H206.781V64.184H208.925V65.672H206.781ZM209.998 68.552C209.998 67.6667 210.18 66.8827 210.542 66.2C210.916 65.5173 211.417 64.9893 212.046 64.616C212.686 64.232 213.39 64.04 214.158 64.04C214.852 64.04 215.454 64.1787 215.966 64.456C216.489 64.7227 216.905 65.0587 217.214 65.464V64.184H219.054V73H217.214V71.688C216.905 72.104 216.484 72.4507 215.95 72.728C215.417 73.0053 214.809 73.144 214.126 73.144C213.369 73.144 212.676 72.952 212.046 72.568C211.417 72.1733 210.916 71.6293 210.542 70.936C210.18 70.232 209.998 69.4373 209.998 68.552ZM217.214 68.584C217.214 67.976 217.086 67.448 216.83 67C216.585 66.552 216.26 66.2107 215.854 65.976C215.449 65.7413 215.012 65.624 214.542 65.624C214.073 65.624 213.636 65.7413 213.23 65.976C212.825 66.2 212.494 66.536 212.238 66.984C211.993 67.4213 211.87 67.944 211.87 68.552C211.87 69.16 211.993 69.6933 212.238 70.152C212.494 70.6107 212.825 70.9627 213.23 71.208C213.646 71.4427 214.084 71.56 214.542 71.56C215.012 71.56 215.449 71.4427 215.854 71.208C216.26 70.9733 216.585 70.632 216.83 70.184C217.086 69.7253 217.214 69.192 217.214 68.584ZM231.558 67.288C232.156 67.3947 232.662 67.7093 233.078 68.232C233.494 68.7547 233.702 69.3467 233.702 70.008C233.702 70.5733 233.553 71.0853 233.254 71.544C232.966 71.992 232.545 72.3493 231.99 72.616C231.436 72.872 230.79 73 230.054 73H225.606V61.88H229.846C230.604 61.88 231.254 62.008 231.798 62.264C232.342 62.52 232.753 62.8667 233.03 63.304C233.308 63.7307 233.446 64.2107 233.446 64.744C233.446 65.384 233.276 65.9173 232.934 66.344C232.593 66.7707 232.134 67.0853 231.558 67.288ZM227.43 66.552H229.686C230.284 66.552 230.748 66.4187 231.078 66.152C231.42 65.8747 231.59 65.48 231.59 64.968C231.59 64.4667 231.42 64.0773 231.078 63.8C230.748 63.512 230.284 63.368 229.686 63.368H227.43V66.552ZM229.894 71.512C230.513 71.512 230.998 71.3627 231.35 71.064C231.702 70.7653 231.878 70.3493 231.878 69.816C231.878 69.272 231.692 68.84 231.318 68.52C230.945 68.2 230.449 68.04 229.83 68.04H227.43V71.512H229.894ZM243.668 64.184V73H241.844V71.96C241.556 72.3227 241.178 72.6107 240.708 72.824C240.25 73.0267 239.759 73.128 239.236 73.128C238.543 73.128 237.919 72.984 237.364 72.696C236.82 72.408 236.388 71.9813 236.068 71.416C235.759 70.8507 235.604 70.168 235.604 69.368V64.184H237.412V69.096C237.412 69.8853 237.61 70.4933 238.004 70.92C238.399 71.336 238.938 71.544 239.62 71.544C240.303 71.544 240.842 71.336 241.236 70.92C241.642 70.4933 241.844 69.8853 241.844 69.096V64.184H243.668ZM250.523 64.04C251.216 64.04 251.835 64.184 252.379 64.472C252.934 64.76 253.366 65.1867 253.675 65.752C253.984 66.3173 254.139 67 254.139 67.8V73H252.331V68.072C252.331 67.2827 252.134 66.68 251.739 66.264C251.344 65.8373 250.806 65.624 250.123 65.624C249.44 65.624 248.896 65.8373 248.491 66.264C248.096 66.68 247.899 67.2827 247.899 68.072V73H246.075V64.184H247.899V65.192C248.198 64.8293 248.576 64.5467 249.035 64.344C249.504 64.1413 250 64.04 250.523 64.04ZM255.858 68.552C255.858 67.6667 256.039 66.8827 256.402 66.2C256.775 65.5173 257.276 64.9893 257.906 64.616C258.546 64.232 259.255 64.04 260.034 64.04C260.61 64.04 261.175 64.168 261.73 64.424C262.295 64.6693 262.743 65 263.074 65.416V61.16H264.914V73H263.074V71.672C262.775 72.0987 262.359 72.4507 261.826 72.728C261.303 73.0053 260.7 73.144 260.018 73.144C259.25 73.144 258.546 72.952 257.906 72.568C257.276 72.1733 256.775 71.6293 256.402 70.936C256.039 70.232 255.858 69.4373 255.858 68.552ZM263.074 68.584C263.074 67.976 262.946 67.448 262.69 67C262.444 66.552 262.119 66.2107 261.714 65.976C261.308 65.7413 260.871 65.624 260.402 65.624C259.932 65.624 259.495 65.7413 259.09 65.976C258.684 66.2 258.354 66.536 258.098 66.984C257.852 67.4213 257.73 67.944 257.73 68.552C257.73 69.16 257.852 69.6933 258.098 70.152C258.354 70.6107 258.684 70.9627 259.09 71.208C259.506 71.4427 259.943 71.56 260.402 71.56C260.871 71.56 261.308 71.4427 261.714 71.208C262.119 70.9733 262.444 70.632 262.69 70.184C262.946 69.7253 263.074 69.192 263.074 68.584ZM269.133 61.16V73H267.309V61.16H269.133ZM279.608 68.376C279.608 68.7067 279.587 69.0053 279.544 69.272H272.808C272.861 69.976 273.123 70.5413 273.592 70.968C274.061 71.3947 274.637 71.608 275.32 71.608C276.301 71.608 276.995 71.1973 277.4 70.376H279.368C279.101 71.1867 278.616 71.8533 277.912 72.376C277.219 72.888 276.355 73.144 275.32 73.144C274.477 73.144 273.72 72.9573 273.048 72.584C272.387 72.2 271.864 71.6667 271.48 70.984C271.107 70.2907 270.92 69.4907 270.92 68.584C270.92 67.6773 271.101 66.8827 271.464 66.2C271.837 65.5067 272.355 64.9733 273.016 64.6C273.688 64.2267 274.456 64.04 275.32 64.04C276.152 64.04 276.893 64.2213 277.544 64.584C278.195 64.9467 278.701 65.4587 279.064 66.12C279.427 66.7707 279.608 67.5227 279.608 68.376ZM277.704 67.8C277.693 67.128 277.453 66.5893 276.984 66.184C276.515 65.7787 275.933 65.576 275.24 65.576C274.611 65.576 274.072 65.7787 273.624 66.184C273.176 66.5787 272.909 67.1173 272.824 67.8H277.704ZM284.603 73.144C283.91 73.144 283.286 73.0213 282.731 72.776C282.187 72.52 281.755 72.1787 281.435 71.752C281.115 71.3147 280.944 70.8293 280.923 70.296H282.811C282.843 70.6693 283.019 70.984 283.339 71.24C283.67 71.4853 284.08 71.608 284.571 71.608C285.083 71.608 285.478 71.512 285.755 71.32C286.043 71.1173 286.187 70.8613 286.187 70.552C286.187 70.2213 286.027 69.976 285.707 69.816C285.398 69.656 284.902 69.48 284.219 69.288C283.558 69.1067 283.019 68.9307 282.603 68.76C282.187 68.5893 281.824 68.328 281.515 67.976C281.216 67.624 281.067 67.16 281.067 66.584C281.067 66.1147 281.206 65.688 281.483 65.304C281.76 64.9093 282.155 64.6 282.667 64.376C283.19 64.152 283.787 64.04 284.459 64.04C285.462 64.04 286.267 64.296 286.875 64.808C287.494 65.3093 287.824 65.9973 287.867 66.872H286.043C286.011 66.4773 285.851 66.1627 285.563 65.928C285.275 65.6933 284.886 65.576 284.395 65.576C283.915 65.576 283.547 65.6667 283.291 65.848C283.035 66.0293 282.907 66.2693 282.907 66.568C282.907 66.8027 282.992 67 283.163 67.16C283.334 67.32 283.542 67.448 283.787 67.544C284.032 67.6293 284.395 67.7413 284.875 67.88C285.515 68.0507 286.038 68.2267 286.443 68.408C286.859 68.5787 287.216 68.8347 287.515 69.176C287.814 69.5173 287.968 69.9707 287.979 70.536C287.979 71.0373 287.84 71.4853 287.563 71.88C287.286 72.2747 286.891 72.584 286.379 72.808C285.878 73.032 285.286 73.144 284.603 73.144Z" fill="black"/>
</g>
<defs>
<filter id="filter0_d_789_3430" x="0" y="0" width="346" height="134" filterUnits="userSpaceOnUse" color-interpolation-filters="sRGB">
<feFlood flood-opacity="0" result="BackgroundImageFix"/>
<feColorMatrix in="SourceAlpha" type="matrix" values="0 0 0 0 0 0 0 0 0 0 0 0 0 0 0 0 0 0 127 0" result="hardAlpha"/>
<feMorphology radius="2" operator="dilate" in="SourceAlpha" result="effect1_dropShadow_789_3430"/>
<feOffset/>
<feGaussianBlur stdDeviation="12.5"/>
<feComposite in2="hardAlpha" operator="out"/>
<feColorMatrix type="matrix" values="0 0 0 0 0 0 0 0 0 0.172549 0 0 0 0 0.431373 0 0 0 0.15 0"/>
<feBlend mode="normal" in2="BackgroundImageFix" result="effect1_dropShadow_789_3430"/>
<feBlend mode="normal" in="SourceGraphic" in2="effect1_dropShadow_789_3430" result="shape"/>
</filter>
</defs>
</svg>