<svg width="221" height="221" viewBox="0 0 221 221" fill="none" xmlns="http://www.w3.org/2000/svg">
<rect x="2.81519" y="2.58203" width="215" height="215" rx="17.5" fill="white"/>
<rect x="2.81519" y="2.58203" width="215" height="215" rx="17.5" stroke="#327CEB" stroke-width="5"/>
<path d="M22.8152 176.461V155.341H65.0566V197.582H22.8152V176.461ZM59.0221 176.461V161.375H28.8497V191.548H59.0221V176.461ZM34.8842 176.461V167.41H52.9876V185.513H34.8842V176.461ZM77.1255 194.565V191.548H71.091V179.479H77.1255V161.375H83.16V155.341H71.091V149.306H46.9531V143.272H52.9876V137.237H40.9186V149.306H34.8842V143.272H22.8152V137.237H34.8842V125.168H28.8497V131.203H22.8152V119.134H34.8842V125.168H40.9186V131.203H46.9531V125.168H52.9876V131.203H65.0566V125.168H59.0221V119.134H40.9186V113.099H59.0221V107.065H40.9186V101.03H34.8842V107.065H22.8152V88.9613H28.8497V94.9958H65.0566V88.9613H59.0221V82.9269H46.9531V88.9613H40.9186V82.9269H28.8497V70.8579H40.9186V82.9269H46.9531V76.8924H59.0221V70.8579H65.0566V76.8924H59.0221V82.9269H65.0566V88.9613H71.091V76.8924H77.1255V70.8579H71.091V52.7544H83.16V58.7889H89.1945V64.8234H83.16V70.8579H89.1945V107.065H77.1255V101.03H71.091V107.065H65.0566V113.099H59.0221V119.134H65.0566V125.168H71.091V131.203H83.16V125.168H77.1255V119.134H71.091V113.099H83.16V125.168H89.1945V113.099H95.229V125.168H101.263V107.065H107.298V101.03H113.332V107.065H107.298V113.099H113.332V119.134H131.436V113.099H125.401V107.065H119.367V94.9958H113.332V88.9613H119.367V82.9269H125.401V76.8924H119.367V70.8579H113.332V82.9269H107.298V76.8924H101.263V82.9269H95.229V76.8924H101.263V70.8579H95.229V52.7544H89.1945V46.72H95.229V52.7544H101.263V28.6165H107.298V40.6855H119.367V34.651H113.332V22.582H125.401V28.6165H119.367V34.651H131.436V28.6165H137.47V22.582H149.539V40.6855H137.47V34.651H131.436V46.72H137.47V64.8234H143.505V58.7889H149.539V88.9613H161.608V82.9269H155.574V70.8579H167.643V88.9613H179.712V82.9269H173.677V70.8579H179.712V82.9269H185.746V76.8924H197.815V88.9613H191.781V82.9269H185.746V88.9613H179.712V107.065H185.746V113.099H179.712V119.134H167.643V125.168H161.608V131.203H149.539V125.168H143.505V119.134H137.47V131.203H143.505V137.237H161.608V143.272H173.677V137.237H167.643V131.203H173.677V125.168H179.712V131.203H185.746V137.237H191.781V125.168H185.746V119.134H197.815V137.237H191.781V149.306H197.815V161.375H191.781V179.479H197.815V185.513H179.712V197.582H161.608V191.548H173.677V185.513H161.608V173.444H155.574V185.513H149.539V191.548H155.574V197.582H143.505V179.479H137.47V191.548H131.436V185.513H125.401V161.375H131.436V179.479H137.47V161.375H143.505V149.306H137.47V143.272H131.436V137.237H137.47V131.203H131.436V125.168H125.401V149.306H131.436V155.341H119.367V167.41H113.332V179.479H119.367V185.513H113.332V191.548H125.401V197.582H113.332V191.548H107.298V185.513H101.263V197.582H77.1255V194.565ZM95.229 185.513V179.479H101.263V161.375H89.1945V167.41H95.229V173.444H83.16V179.479H77.1255V185.513H83.16V191.548H95.229V185.513ZM179.712 179.479V173.444H185.746V161.375H191.781V155.341H185.746V137.237H179.712V155.341H185.746V161.375H179.712V167.41H173.677V185.513H179.712V179.479ZM149.539 176.461V173.444H143.505V179.479H149.539V176.461ZM113.332 164.392V161.375H107.298V167.41H113.332V164.392ZM167.643 158.358V149.306H149.539V167.41H167.643V158.358ZM155.574 158.358V155.341H161.608V161.375H155.574V158.358ZM107.298 152.323V149.306H119.367V143.272H107.298V137.237H101.263V143.272H107.298V149.306H95.229V143.272H89.1945V149.306H83.16V143.272H77.1255V137.237H71.091V131.203H65.0566V137.237H59.0221V143.272H65.0566V137.237H71.091V143.272H77.1255V149.306H83.16V155.341H107.298V152.323ZM89.1945 134.22V131.203H83.16V137.237H89.1945V134.22ZM119.367 131.203V125.168H107.298V131.203H113.332V137.237H119.367V131.203ZM155.574 122.151V119.134H149.539V125.168H155.574V122.151ZM167.643 116.117V113.099H173.677V94.9958H167.643V101.03H161.608V107.065H155.574V101.03H143.505V94.9958H137.47V88.9613H143.505V70.8579H137.47V64.8234H131.436V58.7889H125.401V64.8234H119.367V46.72H125.401V52.7544H131.436V46.72H125.401V40.6855H119.367V46.72H113.332V64.8234H119.367V70.8579H125.401V64.8234H131.436V82.9269H125.401V88.9613H119.367V94.9958H125.401V107.065H131.436V101.03H143.505V107.065H149.539V113.099H161.608V119.134H167.643V116.117ZM161.608 110.082V107.065H167.643V113.099H161.608V110.082ZM65.0566 104.048V101.03H71.091V94.9958H65.0566V101.03H59.0221V107.065H65.0566V104.048ZM83.16 91.9786V88.9613H77.1255V94.9958H83.16V91.9786ZM83.16 61.8062V58.7889H77.1255V64.8234H83.16V61.8062ZM107.298 58.7889V52.7544H101.263V64.8234H107.298V58.7889ZM143.505 31.6338V28.6165H137.47V34.651H143.505V31.6338ZM191.781 194.565V191.548H197.815V197.582H191.781V194.565ZM191.781 107.065V101.03H185.746V94.9958H191.781V101.03H197.815V113.099H191.781V107.065ZM22.8152 43.7027V22.582H65.0566V64.8234H22.8152V43.7027ZM59.0221 43.7027V28.6165H28.8497V58.7889H59.0221V43.7027ZM34.8842 43.7027V34.651H52.9876V52.7544H34.8842V43.7027ZM155.574 43.7027V22.582H197.815V64.8234H155.574V43.7027ZM191.781 43.7027V28.6165H161.608V58.7889H191.781V43.7027ZM167.643 43.7027V34.651H185.746V52.7544H167.643V43.7027ZM71.091 43.7027V40.6855H77.1255V46.72H71.091V43.7027ZM83.16 37.6682V34.651H77.1255V22.582H83.16V28.6165H89.1945V22.582H95.229V28.6165H89.1945V40.6855H83.16V37.6682Z" fill="black"/>
</svg>
