<svg width="128" height="48" viewBox="0 0 128 48" fill="none" xmlns="http://www.w3.org/2000/svg">
<g filter="url(#filter0_d_156_12233)">
<rect x="9.8977" y="10.2673" width="107.788" height="27.8307" rx="6.95769" fill="white"/>
<rect x="10.0716" y="10.4413" width="107.441" height="27.4829" rx="6.78374" stroke="#002C6E" stroke-width="0.347884"/>
<rect x="18.5948" y="18.9644" width="10.4365" height="10.4365" rx="5.21827" fill="#DCEAFF"/>
<path d="M21.2123 25.6783V22.9475C21.2123 22.5166 21.5616 22.1672 21.9925 22.1672H24.8534C25.7152 22.1672 26.4139 22.8659 26.4139 23.7277V26.1985C26.4139 26.4858 26.181 26.7186 25.8937 26.7186H22.2526C21.678 26.7186 21.2123 26.2529 21.2123 25.6783Z" fill="#002C6E"/>
<path d="M22.7728 21.647L23.1629 22.2972H23.553L23.9431 21.647" stroke="#002C6E" stroke-width="0.39012" stroke-linecap="round"/>
<rect x="21.6024" y="22.5576" width="3.251" height="3.251" rx="0.39012" fill="#DCEAFF"/>
<path d="M22.5127 24.4431H23.1629L22.9678 25.2234H23.2279L24.0082 23.923H23.2279L23.488 23.2078H23.2279L22.5127 24.4431Z" fill="#002C6E"/>
<path d="M36.6764 26.1826L35.7859 24.6352H35.3016V26.1826H34.6671V22.3141H36.0029C36.2998 22.3141 36.5503 22.3661 36.7544 22.47C36.9622 22.5739 37.1162 22.7131 37.2164 22.8875C37.3203 23.0619 37.3722 23.2567 37.3722 23.4719C37.3722 23.7242 37.298 23.9543 37.1496 24.1621C37.0048 24.3662 36.7803 24.5054 36.4761 24.5796L37.4334 26.1826H36.6764ZM35.3016 24.1287H36.0029C36.2404 24.1287 36.4185 24.0693 36.5373 23.9506C36.6597 23.8318 36.721 23.6723 36.721 23.4719C36.721 23.2715 36.6616 23.1157 36.5429 23.0043C36.4241 22.8893 36.2441 22.8318 36.0029 22.8318H35.3016V24.1287ZM40.9949 24.574C40.9949 24.689 40.9874 24.7929 40.9726 24.8857H38.6292C38.6478 25.1306 38.7387 25.3273 38.902 25.4757C39.0653 25.6241 39.2656 25.6984 39.5031 25.6984C39.8445 25.6984 40.0857 25.5555 40.2267 25.2698H40.9114C40.8186 25.5518 40.6498 25.7837 40.4049 25.9655C40.1637 26.1437 39.8631 26.2327 39.5031 26.2327C39.21 26.2327 38.9465 26.1678 38.7127 26.0379C38.4827 25.9043 38.3008 25.7188 38.1673 25.4813C38.0374 25.2401 37.9724 24.9618 37.9724 24.6464C37.9724 24.3309 38.0355 24.0545 38.1617 23.817C38.2916 23.5758 38.4715 23.3903 38.7016 23.2604C38.9354 23.1305 39.2026 23.0656 39.5031 23.0656C39.7926 23.0656 40.0505 23.1287 40.2768 23.2548C40.5032 23.381 40.6794 23.5591 40.8056 23.7892C40.9318 24.0155 40.9949 24.2771 40.9949 24.574ZM40.3325 24.3736C40.3288 24.1398 40.2453 23.9524 40.082 23.8114C39.9187 23.6704 39.7165 23.5999 39.4753 23.5999C39.2564 23.5999 39.069 23.6704 38.9131 23.8114C38.7573 23.9487 38.6645 24.1361 38.6348 24.3736H40.3325ZM41.4078 24.6464C41.4078 24.3309 41.4709 24.0545 41.5971 23.817C41.7269 23.5758 41.905 23.3903 42.1314 23.2604C42.3578 23.1305 42.6175 23.0656 42.9107 23.0656C43.2817 23.0656 43.5879 23.1546 43.8291 23.3327C44.074 23.5072 44.2391 23.7576 44.3245 24.0842H43.6398C43.5842 23.932 43.4951 23.8133 43.3727 23.7279C43.2502 23.6426 43.0962 23.5999 42.9107 23.5999C42.6509 23.5999 42.4431 23.6927 42.2873 23.8782C42.1351 24.0601 42.059 24.3161 42.059 24.6464C42.059 24.9766 42.1351 25.2345 42.2873 25.4201C42.4431 25.6056 42.6509 25.6984 42.9107 25.6984C43.278 25.6984 43.5211 25.5369 43.6398 25.2141H44.3245C44.2354 25.5258 44.0684 25.7744 43.8235 25.96C43.5786 26.1418 43.2743 26.2327 42.9107 26.2327C42.6175 26.2327 42.3578 26.1678 42.1314 26.0379C41.905 25.9043 41.7269 25.7188 41.5971 25.4813C41.4709 25.2401 41.4078 24.9618 41.4078 24.6464ZM47.7677 24.574C47.7677 24.689 47.7603 24.7929 47.7455 24.8857H45.4021C45.4207 25.1306 45.5116 25.3273 45.6749 25.4757C45.8381 25.6241 46.0385 25.6984 46.276 25.6984C46.6174 25.6984 46.8586 25.5555 46.9996 25.2698H47.6842C47.5915 25.5518 47.4226 25.7837 47.1777 25.9655C46.9365 26.1437 46.636 26.2327 46.276 26.2327C45.9829 26.2327 45.7194 26.1678 45.4856 26.0379C45.2555 25.9043 45.0737 25.7188 44.9401 25.4813C44.8103 25.2401 44.7453 24.9618 44.7453 24.6464C44.7453 24.3309 44.8084 24.0545 44.9346 23.817C45.0644 23.5758 45.2444 23.3903 45.4745 23.2604C45.7083 23.1305 45.9754 23.0656 46.276 23.0656C46.5654 23.0656 46.8233 23.1287 47.0497 23.2548C47.2761 23.381 47.4523 23.5591 47.5785 23.7892C47.7047 24.0155 47.7677 24.2771 47.7677 24.574ZM47.1054 24.3736C47.1017 24.1398 47.0182 23.9524 46.8549 23.8114C46.6916 23.6704 46.4894 23.5999 46.2482 23.5999C46.0292 23.5999 45.8418 23.6704 45.686 23.8114C45.5301 23.9487 45.4374 24.1361 45.4077 24.3736H47.1054ZM48.715 22.7093C48.6 22.7093 48.5035 22.6704 48.4256 22.5925C48.3477 22.5145 48.3087 22.418 48.3087 22.303C48.3087 22.188 48.3477 22.0915 48.4256 22.0136C48.5035 21.9356 48.6 21.8967 48.715 21.8967C48.8263 21.8967 48.921 21.9356 48.9989 22.0136C49.0768 22.0915 49.1158 22.188 49.1158 22.303C49.1158 22.418 49.0768 22.5145 48.9989 22.5925C48.921 22.6704 48.8263 22.7093 48.715 22.7093ZM49.0267 23.1157V26.1826H48.3922V23.1157H49.0267ZM51.0454 25.6149L51.9137 23.1157H52.5872L51.4183 26.1826H50.6614L49.498 23.1157H50.1771L51.0454 25.6149ZM55.8778 24.574C55.8778 24.689 55.8704 24.7929 55.8555 24.8857H53.5122C53.5307 25.1306 53.6216 25.3273 53.7849 25.4757C53.9482 25.6241 54.1486 25.6984 54.3861 25.6984C54.7275 25.6984 54.9687 25.5555 55.1097 25.2698H55.7943C55.7015 25.5518 55.5327 25.7837 55.2878 25.9655C55.0466 26.1437 54.746 26.2327 54.3861 26.2327C54.0929 26.2327 53.8294 26.1678 53.5957 26.0379C53.3656 25.9043 53.1838 25.7188 53.0502 25.4813C52.9203 25.2401 52.8554 24.9618 52.8554 24.6464C52.8554 24.3309 52.9185 24.0545 53.0446 23.817C53.1745 23.5758 53.3545 23.3903 53.5845 23.2604C53.8183 23.1305 54.0855 23.0656 54.3861 23.0656C54.6755 23.0656 54.9334 23.1287 55.1598 23.2548C55.3861 23.381 55.5624 23.5591 55.6885 23.7892C55.8147 24.0155 55.8778 24.2771 55.8778 24.574ZM55.2154 24.3736C55.2117 24.1398 55.1282 23.9524 54.9649 23.8114C54.8017 23.6704 54.5994 23.5999 54.3582 23.5999C54.1393 23.5999 53.9519 23.6704 53.7961 23.8114C53.6402 23.9487 53.5474 24.1361 53.5177 24.3736H55.2154ZM58.5827 22.3141V26.1826H57.9481V22.3141H58.5827ZM60.9632 23.0656C61.2044 23.0656 61.4196 23.1157 61.6088 23.2159C61.8018 23.3161 61.9521 23.4645 62.0597 23.6612C62.1673 23.8578 62.2211 24.0953 62.2211 24.3736V26.1826H61.5921V24.4682C61.5921 24.1936 61.5235 23.984 61.3862 23.8393C61.2489 23.6908 61.0615 23.6166 60.824 23.6166C60.5865 23.6166 60.3973 23.6908 60.2563 23.8393C60.119 23.984 60.0503 24.1936 60.0503 24.4682V26.1826H59.4158V23.1157H60.0503V23.4663C60.1542 23.3402 60.2859 23.2418 60.4455 23.1713C60.6088 23.1008 60.7813 23.0656 60.9632 23.0656ZM64.1437 26.2327C63.9025 26.2327 63.6855 26.19 63.4925 26.1047C63.3033 26.0156 63.153 25.8969 63.0416 25.7485C62.9303 25.5963 62.8709 25.4275 62.8635 25.2419H63.5203C63.5315 25.3718 63.5927 25.4813 63.704 25.5703C63.819 25.6557 63.9619 25.6984 64.1326 25.6984C64.3107 25.6984 64.448 25.665 64.5445 25.5982C64.6447 25.5277 64.6948 25.4386 64.6948 25.331C64.6948 25.216 64.6391 25.1306 64.5278 25.075C64.4202 25.0193 64.2476 24.9581 64.0102 24.8913C63.7801 24.8282 63.5927 24.767 63.448 24.7076C63.3033 24.6482 63.1771 24.5573 63.0695 24.4348C62.9656 24.3124 62.9136 24.151 62.9136 23.9506C62.9136 23.7873 62.9619 23.6389 63.0583 23.5053C63.1548 23.368 63.2921 23.2604 63.4702 23.1825C63.6521 23.1045 63.8599 23.0656 64.0936 23.0656C64.4425 23.0656 64.7226 23.1546 64.9341 23.3327C65.1494 23.5072 65.2644 23.7465 65.2792 24.0508H64.6447C64.6336 23.9135 64.5779 23.804 64.4777 23.7224C64.3775 23.6407 64.2421 23.5999 64.0714 23.5999C63.9044 23.5999 63.7764 23.6315 63.6873 23.6945C63.5983 23.7576 63.5537 23.8411 63.5537 23.945C63.5537 24.0267 63.5834 24.0953 63.6428 24.151C63.7022 24.2066 63.7745 24.2512 63.8599 24.2846C63.9452 24.3142 64.0714 24.3532 64.2384 24.4014C64.461 24.4608 64.6428 24.522 64.7838 24.5851C64.9286 24.6445 65.0529 24.7336 65.1568 24.8523C65.2607 24.9711 65.3145 25.1288 65.3182 25.3254C65.3182 25.4998 65.27 25.6557 65.1735 25.793C65.077 25.9303 64.9397 26.0379 64.7616 26.1158C64.5872 26.1937 64.3812 26.2327 64.1437 26.2327ZM66.7441 23.6333V25.331C66.7441 25.446 66.7701 25.5295 66.8221 25.5815C66.8777 25.6297 66.9705 25.6538 67.1004 25.6538H67.49V26.1826H66.989C66.7033 26.1826 66.4844 26.1158 66.3322 25.9822C66.1801 25.8486 66.104 25.6316 66.104 25.331V23.6333H65.7422V23.1157H66.104V22.3531H66.7441V23.1157H67.49V23.6333H66.7441ZM67.8633 24.6352C67.8633 24.3272 67.9264 24.0545 68.0526 23.817C68.1824 23.5795 68.3569 23.3958 68.5758 23.266C68.7984 23.1324 69.0433 23.0656 69.3105 23.0656C69.5517 23.0656 69.7614 23.1138 69.9395 23.2103C70.1213 23.3031 70.266 23.42 70.3737 23.561V23.1157H71.0138V26.1826H70.3737V25.7262C70.266 25.8709 70.1195 25.9915 69.9339 26.088C69.7484 26.1845 69.5369 26.2327 69.2994 26.2327C69.0359 26.2327 68.7947 26.1659 68.5758 26.0323C68.3569 25.895 68.1824 25.7058 68.0526 25.4646C67.9264 25.2197 67.8633 24.9432 67.8633 24.6352ZM70.3737 24.6464C70.3737 24.4348 70.3291 24.2512 70.2401 24.0953C70.1547 23.9395 70.0415 23.8207 69.9005 23.7391C69.7595 23.6574 69.6074 23.6166 69.4441 23.6166C69.2808 23.6166 69.1287 23.6574 68.9877 23.7391C68.8467 23.817 68.7316 23.9339 68.6426 24.0897C68.5572 24.2419 68.5146 24.4237 68.5146 24.6352C68.5146 24.8467 68.5572 25.0323 68.6426 25.1918C68.7316 25.3514 68.8467 25.4739 68.9877 25.5592C69.1324 25.6408 69.2845 25.6817 69.4441 25.6817C69.6074 25.6817 69.7595 25.6408 69.9005 25.5592C70.0415 25.4776 70.1547 25.3588 70.2401 25.203C70.3291 25.0434 70.3737 24.8579 70.3737 24.6464ZM73.3946 23.0656C73.6358 23.0656 73.851 23.1157 74.0403 23.2159C74.2332 23.3161 74.3835 23.4645 74.4911 23.6612C74.5987 23.8578 74.6525 24.0953 74.6525 24.3736V26.1826H74.0236V24.4682C74.0236 24.1936 73.9549 23.984 73.8176 23.8393C73.6803 23.6908 73.4929 23.6166 73.2554 23.6166C73.0179 23.6166 72.8287 23.6908 72.6877 23.8393C72.5504 23.984 72.4817 24.1936 72.4817 24.4682V26.1826H71.8472V23.1157H72.4817V23.4663C72.5856 23.3402 72.7174 23.2418 72.8769 23.1713C73.0402 23.1008 73.2128 23.0656 73.3946 23.0656ZM76.2022 23.6333V25.331C76.2022 25.446 76.2282 25.5295 76.2802 25.5815C76.3358 25.6297 76.4286 25.6538 76.5585 25.6538H76.9481V26.1826H76.4471C76.1614 26.1826 75.9425 26.1158 75.7903 25.9822C75.6382 25.8486 75.5621 25.6316 75.5621 25.331V23.6333H75.2003V23.1157H75.5621V22.3531H76.2022V23.1157H76.9481V23.6333H76.2022ZM81.684 23.4663C81.684 23.663 81.6376 23.8485 81.5448 24.023C81.4521 24.1974 81.3036 24.3402 81.0995 24.4515C80.8954 24.5592 80.6338 24.613 80.3147 24.613H79.6134V26.1826H78.9788V22.3141H80.3147C80.6116 22.3141 80.862 22.3661 81.0661 22.47C81.2739 22.5702 81.4279 22.7075 81.5281 22.8819C81.632 23.0563 81.684 23.2511 81.684 23.4663ZM80.3147 24.0953C80.5559 24.0953 80.7359 24.0415 80.8546 23.9339C80.9734 23.8226 81.0327 23.6667 81.0327 23.4663C81.0327 23.0433 80.7934 22.8318 80.3147 22.8318H79.6134V24.0953H80.3147ZM82.0777 24.6352C82.0777 24.3272 82.1407 24.0545 82.2669 23.817C82.3968 23.5795 82.5712 23.3958 82.7901 23.266C83.0128 23.1324 83.2577 23.0656 83.5249 23.0656C83.7661 23.0656 83.9757 23.1138 84.1538 23.2103C84.3357 23.3031 84.4804 23.42 84.588 23.561V23.1157H85.2281V26.1826H84.588V25.7262C84.4804 25.8709 84.3338 25.9915 84.1483 26.088C83.9627 26.1845 83.7512 26.2327 83.5137 26.2327C83.2503 26.2327 83.0091 26.1659 82.7901 26.0323C82.5712 25.895 82.3968 25.7058 82.2669 25.4646C82.1407 25.2197 82.0777 24.9432 82.0777 24.6352ZM84.588 24.6464C84.588 24.4348 84.5435 24.2512 84.4544 24.0953C84.3691 23.9395 84.2559 23.8207 84.1149 23.7391C83.9739 23.6574 83.8217 23.6166 83.6584 23.6166C83.4952 23.6166 83.343 23.6574 83.202 23.7391C83.061 23.817 82.946 23.9339 82.8569 24.0897C82.7716 24.2419 82.7289 24.4237 82.7289 24.6352C82.7289 24.8467 82.7716 25.0323 82.8569 25.1918C82.946 25.3514 83.061 25.4739 83.202 25.5592C83.3467 25.6408 83.4989 25.6817 83.6584 25.6817C83.8217 25.6817 83.9739 25.6408 84.1149 25.5592C84.2559 25.4776 84.3691 25.3588 84.4544 25.203C84.5435 25.0434 84.588 24.8579 84.588 24.6464ZM88.8223 23.1157L86.941 27.6242H86.2842L86.9076 26.1325L85.6997 23.1157H86.4066L87.2694 25.4535L88.1655 23.1157H88.8223ZM93.0138 23.0656C93.255 23.0656 93.4703 23.1157 93.6595 23.2159C93.8525 23.3161 94.0028 23.4645 94.1104 23.6612C94.2217 23.8578 94.2773 24.0953 94.2773 24.3736V26.1826H93.6484V24.4682C93.6484 24.1936 93.5797 23.984 93.4424 23.8393C93.3051 23.6908 93.1177 23.6166 92.8802 23.6166C92.6428 23.6166 92.4535 23.6908 92.3125 23.8393C92.1752 23.984 92.1066 24.1936 92.1066 24.4682V26.1826H91.4776V24.4682C91.4776 24.1936 91.4089 23.984 91.2716 23.8393C91.1343 23.6908 90.9469 23.6166 90.7094 23.6166C90.472 23.6166 90.2827 23.6908 90.1417 23.8393C90.0044 23.984 89.9358 24.1936 89.9358 24.4682V26.1826H89.3012V23.1157H89.9358V23.4663C90.0397 23.3402 90.1714 23.2418 90.3309 23.1713C90.4905 23.1008 90.6612 23.0656 90.843 23.0656C91.0879 23.0656 91.3069 23.1175 91.4998 23.2214C91.6928 23.3253 91.8412 23.4756 91.9451 23.6723C92.0379 23.4867 92.1826 23.3402 92.3793 23.2326C92.576 23.1212 92.7875 23.0656 93.0138 23.0656ZM97.8957 24.574C97.8957 24.689 97.8883 24.7929 97.8734 24.8857H95.5301C95.5486 25.1306 95.6395 25.3273 95.8028 25.4757C95.9661 25.6241 96.1665 25.6984 96.404 25.6984C96.7454 25.6984 96.9866 25.5555 97.1276 25.2698H97.8122C97.7194 25.5518 97.5506 25.7837 97.3057 25.9655C97.0645 26.1437 96.7639 26.2327 96.404 26.2327C96.1108 26.2327 95.8474 26.1678 95.6136 26.0379C95.3835 25.9043 95.2017 25.7188 95.0681 25.4813C94.9382 25.2401 94.8733 24.9618 94.8733 24.6464C94.8733 24.3309 94.9364 24.0545 95.0625 23.817C95.1924 23.5758 95.3724 23.3903 95.6024 23.2604C95.8362 23.1305 96.1034 23.0656 96.404 23.0656C96.6934 23.0656 96.9513 23.1287 97.1777 23.2548C97.404 23.381 97.5803 23.5591 97.7064 23.7892C97.8326 24.0155 97.8957 24.2771 97.8957 24.574ZM97.2333 24.3736C97.2296 24.1398 97.1461 23.9524 96.9828 23.8114C96.8196 23.6704 96.6173 23.5999 96.3761 23.5999C96.1572 23.5999 95.9698 23.6704 95.814 23.8114C95.6581 23.9487 95.5653 24.1361 95.5356 24.3736H97.2333ZM100.068 23.0656C100.309 23.0656 100.524 23.1157 100.713 23.2159C100.906 23.3161 101.056 23.4645 101.164 23.6612C101.272 23.8578 101.325 24.0953 101.325 24.3736V26.1826H100.697V24.4682C100.697 24.1936 100.628 23.984 100.491 23.8393C100.353 23.6908 100.166 23.6166 99.9284 23.6166C99.6909 23.6166 99.5016 23.6908 99.3606 23.8393C99.2233 23.984 99.1547 24.1936 99.1547 24.4682V26.1826H98.5201V23.1157H99.1547V23.4663C99.2586 23.3402 99.3903 23.2418 99.5499 23.1713C99.7132 23.1008 99.8857 23.0656 100.068 23.0656ZM102.875 23.6333V25.331C102.875 25.446 102.901 25.5295 102.953 25.5815C103.009 25.6297 103.102 25.6538 103.231 25.6538H103.621V26.1826H103.12C102.834 26.1826 102.615 26.1158 102.463 25.9822C102.311 25.8486 102.235 25.6316 102.235 25.331V23.6333H101.873V23.1157H102.235V22.3531H102.875V23.1157H103.621V23.6333H102.875ZM105.319 26.2327C105.078 26.2327 104.861 26.19 104.668 26.1047C104.479 26.0156 104.328 25.8969 104.217 25.7485C104.106 25.5963 104.046 25.4275 104.039 25.2419H104.696C104.707 25.3718 104.768 25.4813 104.879 25.5703C104.994 25.6557 105.137 25.6984 105.308 25.6984C105.486 25.6984 105.623 25.665 105.72 25.5982C105.82 25.5277 105.87 25.4386 105.87 25.331C105.87 25.216 105.815 25.1306 105.703 25.075C105.596 25.0193 105.423 24.9581 105.186 24.8913C104.955 24.8282 104.768 24.767 104.623 24.7076C104.479 24.6482 104.352 24.5573 104.245 24.4348C104.141 24.3124 104.089 24.151 104.089 23.9506C104.089 23.7873 104.137 23.6389 104.234 23.5053C104.33 23.368 104.467 23.2604 104.646 23.1825C104.827 23.1045 105.035 23.0656 105.269 23.0656C105.618 23.0656 105.898 23.1546 106.11 23.3327C106.325 23.5072 106.44 23.7465 106.455 24.0508H105.82C105.809 23.9135 105.753 23.804 105.653 23.7224C105.553 23.6407 105.417 23.5999 105.247 23.5999C105.08 23.5999 104.952 23.6315 104.863 23.6945C104.774 23.7576 104.729 23.8411 104.729 23.945C104.729 24.0267 104.759 24.0953 104.818 24.151C104.878 24.2066 104.95 24.2512 105.035 24.2846C105.121 24.3142 105.247 24.3532 105.414 24.4014C105.636 24.4608 105.818 24.522 105.959 24.5851C106.104 24.6445 106.228 24.7336 106.332 24.8523C106.436 24.9711 106.49 25.1288 106.494 25.3254C106.494 25.4998 106.445 25.6557 106.349 25.793C106.252 25.9303 106.115 26.0379 105.937 26.1158C105.763 26.1937 105.557 26.2327 105.319 26.2327Z" fill="black"/>
</g>
<defs>
<filter id="filter0_d_156_12233" x="0.504824" y="0.874457" width="126.574" height="46.6166" filterUnits="userSpaceOnUse" color-interpolation-filters="sRGB">
<feFlood flood-opacity="0" result="BackgroundImageFix"/>
<feColorMatrix in="SourceAlpha" type="matrix" values="0 0 0 0 0 0 0 0 0 0 0 0 0 0 0 0 0 0 127 0" result="hardAlpha"/>
<feMorphology radius="0.695769" operator="dilate" in="SourceAlpha" result="effect1_dropShadow_156_12233"/>
<feOffset/>
<feGaussianBlur stdDeviation="4.34855"/>
<feComposite in2="hardAlpha" operator="out"/>
<feColorMatrix type="matrix" values="0 0 0 0 0 0 0 0 0 0.172549 0 0 0 0 0.431373 0 0 0 0.15 0"/>
<feBlend mode="normal" in2="BackgroundImageFix" result="effect1_dropShadow_156_12233"/>
<feBlend mode="normal" in="SourceGraphic" in2="effect1_dropShadow_156_12233" result="shape"/>
</filter>
</defs>
</svg>
