<svg width="220" height="220" viewBox="0 0 220 220" fill="none" xmlns="http://www.w3.org/2000/svg">
<rect x="2.5" y="2.5" width="215" height="215" rx="17.5" fill="white"/>
<rect x="2.5" y="2.5" width="215" height="215" rx="17.5" stroke="#327CEB" stroke-width="5"/>
<path d="M22.5 176.379V155.259H64.7414V197.5H22.5V176.379ZM58.7069 176.379V161.293H28.5345V191.466H58.7069V176.379ZM34.569 176.379V167.328H52.6724V185.431H34.569V176.379ZM76.8103 194.483V191.466H70.7759V179.397H76.8103V161.293H82.8448V155.259H70.7759V149.224H46.6379V143.19H52.6724V137.155H40.6034V149.224H34.569V143.19H22.5V137.155H34.569V125.086H28.5345V131.121H22.5V119.052H34.569V125.086H40.6034V131.121H46.6379V125.086H52.6724V131.121H64.7414V125.086H58.7069V119.052H40.6034V113.017H58.7069V106.983H40.6034V100.948H34.569V106.983H22.5V88.8793H28.5345V94.9138H64.7414V88.8793H58.7069V82.8448H46.6379V88.8793H40.6034V82.8448H28.5345V70.7759H40.6034V82.8448H46.6379V76.8103H58.7069V70.7759H64.7414V76.8103H58.7069V82.8448H64.7414V88.8793H70.7759V76.8103H76.8103V70.7759H70.7759V52.6724H82.8448V58.7069H88.8793V64.7414H82.8448V70.7759H88.8793V106.983H76.8103V100.948H70.7759V106.983H64.7414V113.017H58.7069V119.052H64.7414V125.086H70.7759V131.121H82.8448V125.086H76.8103V119.052H70.7759V113.017H82.8448V125.086H88.8793V113.017H94.9138V125.086H100.948V106.983H106.983V100.948H113.017V106.983H106.983V113.017H113.017V119.052H131.121V113.017H125.086V106.983H119.052V94.9138H113.017V88.8793H119.052V82.8448H125.086V76.8103H119.052V70.7759H113.017V82.8448H106.983V76.8103H100.948V82.8448H94.9138V76.8103H100.948V70.7759H94.9138V52.6724H88.8793V46.6379H94.9138V52.6724H100.948V28.5345H106.983V40.6034H119.052V34.569H113.017V22.5H125.086V28.5345H119.052V34.569H131.121V28.5345H137.155V22.5H149.224V40.6034H137.155V34.569H131.121V46.6379H137.155V64.7414H143.19V58.7069H149.224V88.8793H161.293V82.8448H155.259V70.7759H167.328V88.8793H179.397V82.8448H173.362V70.7759H179.397V82.8448H185.431V76.8103H197.5V88.8793H191.466V82.8448H185.431V88.8793H179.397V106.983H185.431V113.017H179.397V119.052H167.328V125.086H161.293V131.121H149.224V125.086H143.19V119.052H137.155V131.121H143.19V137.155H161.293V143.19H173.362V137.155H167.328V131.121H173.362V125.086H179.397V131.121H185.431V137.155H191.466V125.086H185.431V119.052H197.5V137.155H191.466V149.224H197.5V161.293H191.466V179.397H197.5V185.431H179.397V197.5H161.293V191.466H173.362V185.431H161.293V173.362H155.259V185.431H149.224V191.466H155.259V197.5H143.19V179.397H137.155V191.466H131.121V185.431H125.086V161.293H131.121V179.397H137.155V161.293H143.19V149.224H137.155V143.19H131.121V137.155H137.155V131.121H131.121V125.086H125.086V149.224H131.121V155.259H119.052V167.328H113.017V179.397H119.052V185.431H113.017V191.466H125.086V197.5H113.017V191.466H106.983V185.431H100.948V197.5H76.8103V194.483ZM94.9138 185.431V179.397H100.948V161.293H88.8793V167.328H94.9138V173.362H82.8448V179.397H76.8103V185.431H82.8448V191.466H94.9138V185.431ZM179.397 179.397V173.362H185.431V161.293H191.466V155.259H185.431V137.155H179.397V155.259H185.431V161.293H179.397V167.328H173.362V185.431H179.397V179.397ZM149.224 176.379V173.362H143.19V179.397H149.224V176.379ZM113.017 164.31V161.293H106.983V167.328H113.017V164.31ZM167.328 158.276V149.224H149.224V167.328H167.328V158.276ZM155.259 158.276V155.259H161.293V161.293H155.259V158.276ZM106.983 152.241V149.224H119.052V143.19H106.983V137.155H100.948V143.19H106.983V149.224H94.9138V143.19H88.8793V149.224H82.8448V143.19H76.8103V137.155H70.7759V131.121H64.7414V137.155H58.7069V143.19H64.7414V137.155H70.7759V143.19H76.8103V149.224H82.8448V155.259H106.983V152.241ZM88.8793 134.138V131.121H82.8448V137.155H88.8793V134.138ZM119.052 131.121V125.086H106.983V131.121H113.017V137.155H119.052V131.121ZM155.259 122.069V119.052H149.224V125.086H155.259V122.069ZM167.328 116.034V113.017H173.362V94.9138H167.328V100.948H161.293V106.983H155.259V100.948H143.19V94.9138H137.155V88.8793H143.19V70.7759H137.155V64.7414H131.121V58.7069H125.086V64.7414H119.052V46.6379H125.086V52.6724H131.121V46.6379H125.086V40.6034H119.052V46.6379H113.017V64.7414H119.052V70.7759H125.086V64.7414H131.121V82.8448H125.086V88.8793H119.052V94.9138H125.086V106.983H131.121V100.948H143.19V106.983H149.224V113.017H161.293V119.052H167.328V116.034ZM161.293 110V106.983H167.328V113.017H161.293V110ZM64.7414 103.966V100.948H70.7759V94.9138H64.7414V100.948H58.7069V106.983H64.7414V103.966ZM82.8448 91.8966V88.8793H76.8103V94.9138H82.8448V91.8966ZM82.8448 61.7241V58.7069H76.8103V64.7414H82.8448V61.7241ZM106.983 58.7069V52.6724H100.948V64.7414H106.983V58.7069ZM143.19 31.5517V28.5345H137.155V34.569H143.19V31.5517ZM191.466 194.483V191.466H197.5V197.5H191.466V194.483ZM191.466 106.983V100.948H185.431V94.9138H191.466V100.948H197.5V113.017H191.466V106.983ZM22.5 43.6207V22.5H64.7414V64.7414H22.5V43.6207ZM58.7069 43.6207V28.5345H28.5345V58.7069H58.7069V43.6207ZM34.569 43.6207V34.569H52.6724V52.6724H34.569V43.6207ZM155.259 43.6207V22.5H197.5V64.7414H155.259V43.6207ZM191.466 43.6207V28.5345H161.293V58.7069H191.466V43.6207ZM167.328 43.6207V34.569H185.431V52.6724H167.328V43.6207ZM70.7759 43.6207V40.6034H76.8103V46.6379H70.7759V43.6207ZM82.8448 37.5862V34.569H76.8103V22.5H82.8448V28.5345H88.8793V22.5H94.9138V28.5345H88.8793V40.6034H82.8448V37.5862Z" fill="#DCEAFF"/>
</svg>
