<svg xmlns="http://www.w3.org/2000/svg" fill="none" viewBox="14.31 14.31 163.07 187.86">
<g filter="url(#filter0_d_457_7702)">
<rect x="14.3081" y="14.3145" width="163.071" height="187.858" rx="13.0457" fill="white"/>
<rect x="14.6342" y="14.6406" width="162.418" height="187.205" rx="12.7195" stroke="black" stroke-width="0.652283"/>
<path d="M26.247 44.347V45.2464H27.4548V45.8168H26.247V46.7676H27.6089V47.3535H25.5275V43.7611H27.6089V44.347H26.247ZM29.8406 44.4652C30.1798 44.4652 30.4539 44.5731 30.6629 44.7889C30.8719 45.0014 30.9764 45.2995 30.9764 45.6832V47.3535H30.2569V45.7809C30.2569 45.5547 30.2004 45.3817 30.0873 45.2618C29.9742 45.1384 29.8201 45.0768 29.6248 45.0768C29.426 45.0768 29.2684 45.1384 29.1519 45.2618C29.0389 45.3817 28.9823 45.5547 28.9823 45.7809V47.3535H28.2628V44.5063H28.9823V44.8609C29.0783 44.7375 29.1999 44.6416 29.3472 44.5731C29.498 44.5011 29.6624 44.4652 29.8406 44.4652ZM32.4984 45.0973V46.4747C32.4984 46.5706 32.5206 46.6408 32.5652 46.6854C32.6132 46.7265 32.692 46.7471 32.8016 46.7471H33.1357V47.3535H32.6834C32.0769 47.3535 31.7737 47.0589 31.7737 46.4695V45.0973H31.4345V44.5063H31.7737V43.8022H32.4984V44.5063H33.1357V45.0973H32.4984ZM36.3 45.8682C36.3 45.971 36.2931 46.0635 36.2794 46.1458H34.198C34.2151 46.3513 34.287 46.5124 34.4138 46.6289C34.5406 46.7454 34.6965 46.8036 34.8815 46.8036C35.1488 46.8036 35.3389 46.6888 35.452 46.4593H36.228C36.1458 46.7334 35.9882 46.9595 35.7552 47.1377C35.5222 47.3124 35.2361 47.3998 34.8969 47.3998C34.6228 47.3998 34.3761 47.3398 34.1568 47.2199C33.941 47.0965 33.7714 46.9235 33.648 46.7008C33.5281 46.4781 33.4682 46.2211 33.4682 45.9299C33.4682 45.6352 33.5281 45.3766 33.648 45.1538C33.768 44.9311 33.9358 44.7598 34.1517 44.6399C34.3676 44.52 34.616 44.46 34.8969 44.46C35.1676 44.46 35.4091 44.5183 35.6216 44.6348C35.8374 44.7513 36.0036 44.9174 36.1201 45.1333C36.24 45.3457 36.3 45.5907 36.3 45.8682ZM35.5548 45.6626C35.5513 45.4776 35.4845 45.3303 35.3543 45.2207C35.2241 45.1076 35.0648 45.0511 34.8764 45.0511C34.6982 45.0511 34.5474 45.1059 34.4241 45.2155C34.3042 45.3217 34.2305 45.4708 34.2031 45.6626H35.5548ZM37.5447 44.9483C37.6372 44.7975 37.7571 44.6793 37.9044 44.5936C38.0552 44.508 38.2265 44.4652 38.4184 44.4652V45.2207H38.2282C38.0021 45.2207 37.8308 45.2738 37.7143 45.38C37.6012 45.4862 37.5447 45.6712 37.5447 45.935V47.3535H36.8252V44.5063H37.5447V44.9483ZM42.3273 46.67H40.8986L40.6621 47.3535H39.9067L41.1966 43.7611H42.0344L43.3244 47.3535H42.5637L42.3273 46.67ZM42.132 46.0944L41.6129 44.5936L41.0939 46.0944H42.132ZM47.3425 44.4652C47.692 44.4652 47.9729 44.5731 48.1853 44.7889C48.4012 45.0014 48.5091 45.2995 48.5091 45.6832V47.3535H47.7896V45.7809C47.7896 45.5581 47.7331 45.3885 47.62 45.272C47.5069 45.1521 47.3528 45.0922 47.1575 45.0922C46.9622 45.0922 46.8063 45.1521 46.6898 45.272C46.5767 45.3885 46.5202 45.5581 46.5202 45.7809V47.3535H45.8006V45.7809C45.8006 45.5581 45.7441 45.3885 45.631 45.272C45.518 45.1521 45.3638 45.0922 45.1685 45.0922C44.9698 45.0922 44.8122 45.1521 44.6957 45.272C44.5826 45.3885 44.5261 45.5581 44.5261 45.7809V47.3535H43.8066V44.5063H44.5261V44.8506C44.6186 44.7307 44.7368 44.6365 44.8807 44.5679C45.028 44.4994 45.1891 44.4652 45.3638 44.4652C45.5865 44.4652 45.7852 44.5131 45.96 44.6091C46.1347 44.7016 46.27 44.8352 46.366 45.0099C46.4585 44.8455 46.5921 44.7136 46.7669 44.6142C46.945 44.5148 47.1369 44.4652 47.3425 44.4652ZM50.4562 47.3998C50.1821 47.3998 49.9354 47.3398 49.7161 47.2199C49.4968 47.0965 49.3238 46.9235 49.197 46.7008C49.0737 46.4781 49.012 46.2211 49.012 45.9299C49.012 45.6387 49.0754 45.3817 49.2022 45.159C49.3324 44.9363 49.5088 44.765 49.7315 44.645C49.9543 44.5217 50.2027 44.46 50.4768 44.46C50.7509 44.46 50.9993 44.5217 51.222 44.645C51.4447 44.765 51.6194 44.9363 51.7462 45.159C51.8764 45.3817 51.9415 45.6387 51.9415 45.9299C51.9415 46.2211 51.8747 46.4781 51.7411 46.7008C51.6109 46.9235 51.4327 47.0965 51.2066 47.2199C50.9838 47.3398 50.7337 47.3998 50.4562 47.3998ZM50.4562 46.7728C50.5864 46.7728 50.708 46.7419 50.8211 46.6803C50.9376 46.6152 51.0301 46.5192 51.0986 46.3924C51.1672 46.2657 51.2014 46.1115 51.2014 45.9299C51.2014 45.6592 51.1295 45.4519 50.9856 45.308C50.8451 45.1607 50.6721 45.087 50.4665 45.087C50.2609 45.087 50.0879 45.1607 49.9474 45.308C49.8103 45.4519 49.7418 45.6592 49.7418 45.9299C49.7418 46.2006 49.8086 46.4096 49.9423 46.5569C50.0793 46.7008 50.2506 46.7728 50.4562 46.7728ZM55.1572 44.5063V47.3535H54.4325V46.9938C54.34 47.1171 54.2184 47.2148 54.0677 47.2867C53.9203 47.3552 53.7593 47.3895 53.5845 47.3895C53.3618 47.3895 53.1648 47.3432 52.9935 47.2507C52.8222 47.1548 52.6869 47.016 52.5875 46.8344C52.4916 46.6494 52.4436 46.4301 52.4436 46.1766V44.5063H53.1631V46.0738C53.1631 46.2999 53.2196 46.4747 53.3327 46.598C53.4458 46.7179 53.6 46.7779 53.7953 46.7779C53.994 46.7779 54.1499 46.7179 54.2629 46.598C54.376 46.4747 54.4325 46.2999 54.4325 46.0738V44.5063H55.1572ZM57.4449 44.4652C57.7841 44.4652 58.0582 44.5731 58.2672 44.7889C58.4762 45.0014 58.5807 45.2995 58.5807 45.6832V47.3535H57.8612V45.7809C57.8612 45.5547 57.8047 45.3817 57.6916 45.2618C57.5786 45.1384 57.4244 45.0768 57.2291 45.0768C57.0304 45.0768 56.8727 45.1384 56.7563 45.2618C56.6432 45.3817 56.5867 45.5547 56.5867 45.7809V47.3535H55.8671V44.5063H56.5867V44.8609C56.6826 44.7375 56.8042 44.6416 56.9516 44.5731C57.1023 44.5011 57.2668 44.4652 57.4449 44.4652ZM60.1027 45.0973V46.4747C60.1027 46.5706 60.125 46.6408 60.1695 46.6854C60.2175 46.7265 60.2963 46.7471 60.4059 46.7471H60.74V47.3535H60.2877C59.6813 47.3535 59.378 47.0589 59.378 46.4695V45.0973H59.0388V44.5063H59.378V43.8022H60.1027V44.5063H60.74V45.0973H60.1027Z" fill="black"/>
<rect x="24.9588" y="57.8428" width="141.769" height="21.8425" rx="2.35557" stroke="#D9D9D9" stroke-width="0.428285"/>
<path d="M31.5816 70.0806H30.1529L29.9165 70.7642H29.161L30.451 67.1717H31.2887L32.5787 70.7642H31.8181L31.5816 70.0806ZM31.3863 69.505L30.8673 68.0043L30.3482 69.505H31.3863ZM36.5968 67.8758C36.9463 67.8758 37.2272 67.9837 37.4397 68.1996C37.6555 68.412 37.7634 68.7101 37.7634 69.0938V70.7642H37.0439V69.1915C37.0439 68.9688 36.9874 68.7992 36.8743 68.6827C36.7613 68.5628 36.6071 68.5028 36.4118 68.5028C36.2165 68.5028 36.0606 68.5628 35.9441 68.6827C35.831 68.7992 35.7745 68.9688 35.7745 69.1915V70.7642H35.055V69.1915C35.055 68.9688 34.9984 68.7992 34.8854 68.6827C34.7723 68.5628 34.6181 68.5028 34.4228 68.5028C34.2241 68.5028 34.0665 68.5628 33.95 68.6827C33.8369 68.7992 33.7804 68.9688 33.7804 69.1915V70.7642H33.0609V67.9169H33.7804V68.2613C33.8729 68.1413 33.9911 68.0471 34.135 67.9786C34.2823 67.9101 34.4434 67.8758 34.6181 67.8758C34.8408 67.8758 35.0395 67.9238 35.2143 68.0197C35.389 68.1122 35.5244 68.2458 35.6203 68.4206C35.7128 68.2561 35.8464 68.1242 36.0212 68.0248C36.1993 67.9255 36.3912 67.8758 36.5968 67.8758ZM39.7105 70.8104C39.4364 70.8104 39.1897 70.7505 38.9704 70.6305C38.7512 70.5072 38.5781 70.3342 38.4514 70.1115C38.328 69.8887 38.2663 69.6318 38.2663 69.3405C38.2663 69.0493 38.3297 68.7923 38.4565 68.5696C38.5867 68.3469 38.7632 68.1756 38.9859 68.0557C39.2086 67.9323 39.457 67.8707 39.7311 67.8707C40.0052 67.8707 40.2536 67.9323 40.4763 68.0557C40.699 68.1756 40.8737 68.3469 41.0005 68.5696C41.1307 68.7923 41.1958 69.0493 41.1958 69.3405C41.1958 69.6318 41.129 69.8887 40.9954 70.1115C40.8652 70.3342 40.687 70.5072 40.4609 70.6305C40.2382 70.7505 39.988 70.8104 39.7105 70.8104ZM39.7105 70.1834C39.8407 70.1834 39.9623 70.1526 40.0754 70.0909C40.1919 70.0258 40.2844 69.9299 40.3529 69.8031C40.4215 69.6763 40.4557 69.5221 40.4557 69.3405C40.4557 69.0699 40.3838 68.8626 40.2399 68.7187C40.0994 68.5713 39.9264 68.4977 39.7208 68.4977C39.5152 68.4977 39.3422 68.5713 39.2017 68.7187C39.0647 68.8626 38.9961 69.0699 38.9961 69.3405C38.9961 69.6112 39.063 69.8202 39.1966 69.9675C39.3336 70.1115 39.5049 70.1834 39.7105 70.1834ZM44.4115 67.9169V70.7642H43.6869V70.4044C43.5944 70.5277 43.4727 70.6254 43.322 70.6973C43.1746 70.7659 43.0136 70.8001 42.8389 70.8001C42.6162 70.8001 42.4191 70.7539 42.2478 70.6614C42.0765 70.5654 41.9412 70.4267 41.8418 70.2451C41.7459 70.0601 41.6979 69.8408 41.6979 69.5872V67.9169H42.4174V69.4844C42.4174 69.7106 42.474 69.8853 42.587 70.0087C42.7001 70.1286 42.8543 70.1885 43.0496 70.1885C43.2483 70.1885 43.4042 70.1286 43.5173 70.0087C43.6303 69.8853 43.6869 69.7106 43.6869 69.4844V67.9169H44.4115ZM46.6992 67.8758C47.0385 67.8758 47.3126 67.9837 47.5216 68.1996C47.7306 68.412 47.8351 68.7101 47.8351 69.0938V70.7642H47.1155V69.1915C47.1155 68.9654 47.059 68.7923 46.9459 68.6724C46.8329 68.5491 46.6787 68.4874 46.4834 68.4874C46.2847 68.4874 46.1271 68.5491 46.0106 68.6724C45.8975 68.7923 45.841 68.9654 45.841 69.1915V70.7642H45.1214V67.9169H45.841V68.2715C45.9369 68.1482 46.0585 68.0523 46.2059 67.9837C46.3566 67.9118 46.5211 67.8758 46.6992 67.8758ZM49.357 68.508V69.8853C49.357 69.9813 49.3793 70.0515 49.4238 70.096C49.4718 70.1372 49.5506 70.1577 49.6602 70.1577H49.9943V70.7642H49.542C48.9356 70.7642 48.6324 70.4695 48.6324 69.8802V68.508H48.2932V67.9169H48.6324V67.2128H49.357V67.9169H49.9943V68.508H49.357Z" fill="#888787"/>
<path d="M26.2504 101.619V102.519H27.4582V103.089H26.2504V104.04H27.6124V104.626H25.5309V101.033H27.6124V101.619H26.2504ZM29.844 101.737C30.1832 101.737 30.4573 101.845 30.6663 102.061C30.8753 102.274 30.9798 102.572 30.9798 102.955V104.626H30.2603V103.053C30.2603 102.827 30.2038 102.654 30.0907 102.534C29.9777 102.411 29.8235 102.349 29.6282 102.349C29.4295 102.349 29.2718 102.411 29.1553 102.534C29.0423 102.654 28.9857 102.827 28.9857 103.053V104.626H28.2662V101.778H28.9857V102.133C29.0817 102.01 29.2033 101.914 29.3506 101.845C29.5014 101.773 29.6659 101.737 29.844 101.737ZM32.5018 102.37V103.747C32.5018 103.843 32.5241 103.913 32.5686 103.958C32.6166 103.999 32.6954 104.019 32.805 104.019H33.1391V104.626H32.6868C32.0804 104.626 31.7771 104.331 31.7771 103.742V102.37H31.4379V101.778H31.7771V101.074H32.5018V101.778H33.1391V102.37H32.5018ZM36.3034 103.14C36.3034 103.243 36.2965 103.336 36.2828 103.418H34.2014C34.2185 103.624 34.2905 103.785 34.4172 103.901C34.544 104.018 34.6999 104.076 34.8849 104.076C35.1522 104.076 35.3423 103.961 35.4554 103.731H36.2314C36.1492 104.006 35.9916 104.232 35.7586 104.41C35.5256 104.585 35.2395 104.672 34.9003 104.672C34.6262 104.672 34.3795 104.612 34.1603 104.492C33.9444 104.369 33.7748 104.196 33.6515 103.973C33.5315 103.75 33.4716 103.493 33.4716 103.202C33.4716 102.907 33.5315 102.649 33.6515 102.426C33.7714 102.203 33.9393 102.032 34.1551 101.912C34.371 101.792 34.6194 101.732 34.9003 101.732C35.171 101.732 35.4126 101.79 35.625 101.907C35.8409 102.023 36.007 102.19 36.1235 102.406C36.2434 102.618 36.3034 102.863 36.3034 103.14ZM35.5582 102.935C35.5548 102.75 35.4879 102.603 35.3577 102.493C35.2275 102.38 35.0682 102.323 34.8798 102.323C34.7016 102.323 34.5509 102.378 34.4275 102.488C34.3076 102.594 34.2339 102.743 34.2065 102.935H35.5582ZM37.5481 102.22C37.6406 102.07 37.7605 101.952 37.9079 101.866C38.0586 101.78 38.2299 101.737 38.4218 101.737V102.493H38.2316C38.0055 102.493 37.8342 102.546 37.7177 102.652C37.6046 102.758 37.5481 102.943 37.5481 103.207V104.626H36.8286V101.778H37.5481V102.22ZM44.0422 101.038V104.626H43.3226V102.292L42.3616 104.626H41.8168L40.8506 102.292V104.626H40.1311V101.038H40.9482L42.0892 103.706L43.2301 101.038H44.0422ZM47.4003 103.14C47.4003 103.243 47.3935 103.336 47.3798 103.418H45.2983C45.3154 103.624 45.3874 103.785 45.5142 103.901C45.6409 104.018 45.7968 104.076 45.9819 104.076C46.2491 104.076 46.4393 103.961 46.5523 103.731H47.3284C47.2462 104.006 47.0885 104.232 46.8556 104.41C46.6226 104.585 46.3365 104.672 45.9973 104.672C45.7232 104.672 45.4765 104.612 45.2572 104.492C45.0413 104.369 44.8717 104.196 44.7484 103.973C44.6285 103.75 44.5685 103.493 44.5685 103.202C44.5685 102.907 44.6285 102.649 44.7484 102.426C44.8683 102.203 45.0362 102.032 45.2521 101.912C45.4679 101.792 45.7163 101.732 45.9973 101.732C46.268 101.732 46.5095 101.79 46.7219 101.907C46.9378 102.023 47.104 102.19 47.2205 102.406C47.3404 102.618 47.4003 102.863 47.4003 103.14ZM46.6551 102.935C46.6517 102.75 46.5849 102.603 46.4547 102.493C46.3245 102.38 46.1652 102.323 45.9767 102.323C45.7986 102.323 45.6478 102.378 45.5244 102.488C45.4045 102.594 45.3309 102.743 45.3035 102.935H46.6551ZM48.645 102.22C48.7376 102.07 48.8575 101.952 49.0048 101.866C49.1556 101.78 49.3269 101.737 49.5187 101.737V102.493H49.3286C49.1025 102.493 48.9311 102.546 48.8146 102.652C48.7016 102.758 48.645 102.943 48.645 103.207V104.626H47.9255V101.778H48.645V102.22ZM49.8184 103.202C49.8184 102.907 49.8783 102.65 49.9982 102.431C50.1182 102.208 50.2843 102.037 50.4968 101.917C50.7092 101.794 50.9525 101.732 51.2266 101.732C51.5795 101.732 51.8707 101.821 52.1003 101.999C52.3332 102.174 52.4891 102.421 52.5679 102.74H51.7919C51.7508 102.616 51.6805 102.52 51.5812 102.452C51.4852 102.38 51.3653 102.344 51.2214 102.344C51.0158 102.344 50.8531 102.419 50.7332 102.57C50.6133 102.717 50.5533 102.928 50.5533 103.202C50.5533 103.473 50.6133 103.684 50.7332 103.834C50.8531 103.982 51.0158 104.055 51.2214 104.055C51.5127 104.055 51.7028 103.925 51.7919 103.665H52.5679C52.4891 103.973 52.3332 104.218 52.1003 104.4C51.8673 104.581 51.576 104.672 51.2266 104.672C50.9525 104.672 50.7092 104.612 50.4968 104.492C50.2843 104.369 50.1182 104.197 49.9982 103.978C49.8783 103.755 49.8184 103.497 49.8184 103.202ZM54.6986 101.737C54.9144 101.737 55.1063 101.785 55.2742 101.881C55.4421 101.974 55.5723 102.113 55.6648 102.298C55.7607 102.479 55.8087 102.698 55.8087 102.955V104.626H55.0892V103.053C55.0892 102.827 55.0326 102.654 54.9196 102.534C54.8065 102.411 54.6523 102.349 54.457 102.349C54.2583 102.349 54.1007 102.411 53.9842 102.534C53.8711 102.654 53.8146 102.827 53.8146 103.053V104.626H53.0951V100.823H53.8146V102.133C53.9071 102.01 54.0304 101.914 54.1846 101.845C54.3388 101.773 54.5101 101.737 54.6986 101.737ZM56.3079 103.192C56.3079 102.904 56.3644 102.649 56.4775 102.426C56.594 102.203 56.7499 102.032 56.9452 101.912C57.1439 101.792 57.3649 101.732 57.6082 101.732C57.8206 101.732 58.0056 101.775 58.1632 101.861C58.3242 101.946 58.4527 102.054 58.5487 102.185V101.778H59.2733V104.626H58.5487V104.209C58.4562 104.343 58.3277 104.454 58.1632 104.544C58.0022 104.629 57.8154 104.672 57.603 104.672C57.3632 104.672 57.1439 104.61 56.9452 104.487C56.7499 104.364 56.594 104.191 56.4775 103.968C56.3644 103.742 56.3079 103.483 56.3079 103.192ZM58.5487 103.202C58.5487 103.027 58.5144 102.878 58.4459 102.755C58.3774 102.628 58.2848 102.532 58.1684 102.467C58.0519 102.399 57.9268 102.364 57.7932 102.364C57.6596 102.364 57.5362 102.397 57.4231 102.462C57.3101 102.527 57.2176 102.623 57.1456 102.75C57.0771 102.873 57.0428 103.021 57.0428 103.192C57.0428 103.363 57.0771 103.514 57.1456 103.644C57.2176 103.771 57.3101 103.869 57.4231 103.937C57.5396 104.006 57.663 104.04 57.7932 104.04C57.9268 104.04 58.0519 104.007 58.1684 103.942C58.2848 103.874 58.3774 103.778 58.4459 103.654C58.5144 103.528 58.5487 103.377 58.5487 103.202ZM61.5539 101.737C61.8931 101.737 62.1672 101.845 62.3762 102.061C62.5852 102.274 62.6897 102.572 62.6897 102.955V104.626H61.9702V103.053C61.9702 102.827 61.9136 102.654 61.8006 102.534C61.6875 102.411 61.5333 102.349 61.338 102.349C61.1393 102.349 60.9817 102.411 60.8652 102.534C60.7521 102.654 60.6956 102.827 60.6956 103.053V104.626H59.9761V101.778H60.6956V102.133C60.7915 102.01 60.9132 101.914 61.0605 101.845C61.2112 101.773 61.3757 101.737 61.5539 101.737ZM64.2116 102.37V103.747C64.2116 103.843 64.2339 103.913 64.2784 103.958C64.3264 103.999 64.4052 104.019 64.5149 104.019H64.8489V104.626H64.3967C63.7902 104.626 63.487 104.331 63.487 103.742V102.37H63.1478V101.778H63.487V101.074H64.2116V101.778H64.8489V102.37H64.2116ZM67.3106 101.038V104.626H66.5911V101.038H67.3106ZM69.2755 101.038C69.6524 101.038 69.983 101.112 70.2674 101.259C70.5552 101.407 70.7762 101.617 70.9304 101.892C71.088 102.162 71.1668 102.477 71.1668 102.837C71.1668 103.197 71.088 103.512 70.9304 103.783C70.7762 104.05 70.5552 104.257 70.2674 104.405C69.983 104.552 69.6524 104.626 69.2755 104.626H68.0215V101.038H69.2755ZM69.2498 104.014C69.6267 104.014 69.9179 103.911 70.1235 103.706C70.3291 103.5 70.4319 103.211 70.4319 102.837C70.4319 102.464 70.3291 102.173 70.1235 101.964C69.9179 101.751 69.6267 101.645 69.2498 101.645H68.741V104.014H69.2498Z" fill="black"/>
<path d="M124.693 108.836C124.693 108.542 124.759 108.279 124.89 108.048C125.025 107.814 125.206 107.632 125.434 107.504C125.666 107.373 125.924 107.307 126.209 107.307C126.544 107.307 126.836 107.393 127.087 107.564C127.339 107.735 127.514 107.972 127.614 108.275H126.925C126.856 108.132 126.759 108.025 126.633 107.954C126.511 107.882 126.368 107.847 126.205 107.847C126.031 107.847 125.875 107.888 125.738 107.971C125.604 108.051 125.499 108.165 125.421 108.313C125.347 108.462 125.31 108.636 125.31 108.836C125.31 109.033 125.347 109.207 125.421 109.358C125.499 109.507 125.604 109.623 125.738 109.705C125.875 109.785 126.031 109.825 126.205 109.825C126.368 109.825 126.511 109.79 126.633 109.718C126.759 109.644 126.856 109.535 126.925 109.393H127.614C127.514 109.698 127.339 109.937 127.087 110.108C126.839 110.276 126.546 110.361 126.209 110.361C125.924 110.361 125.666 110.296 125.434 110.168C125.206 110.037 125.025 109.855 124.89 109.624C124.759 109.393 124.693 109.13 124.693 108.836ZM129.463 107.928C129.643 107.928 129.802 107.968 129.942 108.048C130.082 108.125 130.191 108.241 130.268 108.395C130.348 108.546 130.388 108.729 130.388 108.943V110.335H129.788V109.024C129.788 108.836 129.741 108.692 129.647 108.592C129.553 108.489 129.424 108.438 129.261 108.438C129.096 108.438 128.964 108.489 128.867 108.592C128.773 108.692 128.726 108.836 128.726 109.024V110.335H128.126V107.166H128.726V108.258C128.803 108.155 128.906 108.075 129.034 108.018C129.163 107.958 129.306 107.928 129.463 107.928ZM132.012 110.374C131.783 110.374 131.578 110.324 131.395 110.224C131.212 110.121 131.068 109.977 130.962 109.791C130.859 109.605 130.808 109.391 130.808 109.149C130.808 108.906 130.861 108.692 130.966 108.506C131.075 108.321 131.222 108.178 131.408 108.078C131.593 107.975 131.8 107.924 132.029 107.924C132.257 107.924 132.464 107.975 132.65 108.078C132.835 108.178 132.981 108.321 133.087 108.506C133.195 108.692 133.249 108.906 133.249 109.149C133.249 109.391 133.194 109.605 133.082 109.791C132.974 109.977 132.825 110.121 132.637 110.224C132.451 110.324 132.243 110.374 132.012 110.374ZM132.012 109.851C132.12 109.851 132.221 109.825 132.316 109.774C132.413 109.72 132.49 109.64 132.547 109.534C132.604 109.428 132.633 109.3 132.633 109.149C132.633 108.923 132.573 108.75 132.453 108.63C132.336 108.508 132.191 108.446 132.02 108.446C131.849 108.446 131.705 108.508 131.588 108.63C131.473 108.75 131.416 108.923 131.416 109.149C131.416 109.374 131.472 109.548 131.583 109.671C131.697 109.791 131.84 109.851 132.012 109.851ZM134.743 110.374C134.514 110.374 134.309 110.324 134.126 110.224C133.943 110.121 133.799 109.977 133.693 109.791C133.591 109.605 133.539 109.391 133.539 109.149C133.539 108.906 133.592 108.692 133.698 108.506C133.806 108.321 133.953 108.178 134.139 108.078C134.324 107.975 134.531 107.924 134.76 107.924C134.988 107.924 135.195 107.975 135.381 108.078C135.566 108.178 135.712 108.321 135.818 108.506C135.926 108.692 135.98 108.906 135.98 109.149C135.98 109.391 135.925 109.605 135.813 109.791C135.705 109.977 135.556 110.121 135.368 110.224C135.182 110.324 134.974 110.374 134.743 110.374ZM134.743 109.851C134.851 109.851 134.953 109.825 135.047 109.774C135.144 109.72 135.221 109.64 135.278 109.534C135.335 109.428 135.364 109.3 135.364 109.149C135.364 108.923 135.304 108.75 135.184 108.63C135.067 108.508 134.923 108.446 134.751 108.446C134.58 108.446 134.436 108.508 134.319 108.63C134.204 108.75 134.147 108.923 134.147 109.149C134.147 109.374 134.203 109.548 134.314 109.671C134.429 109.791 134.571 109.851 134.743 109.851ZM137.328 110.374C137.134 110.374 136.96 110.339 136.806 110.271C136.652 110.199 136.529 110.104 136.437 109.984C136.349 109.864 136.3 109.731 136.292 109.585H136.896C136.907 109.677 136.951 109.752 137.028 109.812C137.108 109.872 137.207 109.902 137.324 109.902C137.438 109.902 137.527 109.88 137.589 109.834C137.655 109.788 137.688 109.73 137.688 109.658C137.688 109.581 137.648 109.524 137.568 109.487C137.491 109.447 137.367 109.404 137.195 109.358C137.018 109.316 136.873 109.271 136.759 109.226C136.647 109.18 136.55 109.11 136.467 109.016C136.387 108.922 136.347 108.795 136.347 108.635C136.347 108.503 136.385 108.383 136.459 108.275C136.536 108.166 136.644 108.081 136.784 108.018C136.927 107.955 137.094 107.924 137.285 107.924C137.568 107.924 137.794 107.995 137.962 108.138C138.131 108.278 138.223 108.468 138.24 108.707H137.667C137.658 108.613 137.618 108.539 137.547 108.485C137.478 108.428 137.385 108.399 137.268 108.399C137.16 108.399 137.076 108.419 137.016 108.459C136.958 108.499 136.93 108.555 136.93 108.626C136.93 108.706 136.97 108.767 137.05 108.81C137.13 108.85 137.254 108.892 137.422 108.934C137.594 108.977 137.735 109.022 137.846 109.067C137.958 109.113 138.053 109.184 138.133 109.281C138.216 109.376 138.259 109.501 138.262 109.658C138.262 109.795 138.223 109.918 138.146 110.027C138.072 110.135 137.963 110.221 137.821 110.284C137.681 110.344 137.517 110.374 137.328 110.374ZM140.96 109.097C140.96 109.183 140.954 109.26 140.943 109.328H139.208C139.222 109.5 139.282 109.634 139.388 109.731C139.494 109.828 139.623 109.877 139.778 109.877C140 109.877 140.159 109.781 140.253 109.59H140.9C140.831 109.818 140.7 110.007 140.506 110.155C140.312 110.301 140.073 110.374 139.791 110.374C139.562 110.374 139.357 110.324 139.174 110.224C138.994 110.121 138.853 109.977 138.75 109.791C138.65 109.605 138.6 109.391 138.6 109.149C138.6 108.903 138.65 108.687 138.75 108.502C138.85 108.316 138.99 108.174 139.169 108.074C139.349 107.974 139.556 107.924 139.791 107.924C140.016 107.924 140.217 107.972 140.394 108.069C140.574 108.166 140.713 108.305 140.81 108.485C140.91 108.662 140.96 108.866 140.96 109.097ZM140.339 108.926C140.336 108.772 140.28 108.649 140.172 108.558C140.063 108.463 139.93 108.416 139.773 108.416C139.625 108.416 139.499 108.462 139.396 108.553C139.297 108.642 139.235 108.766 139.212 108.926H140.339ZM144.114 108.802C144.282 108.833 144.421 108.917 144.529 109.054C144.638 109.191 144.692 109.348 144.692 109.526C144.692 109.685 144.652 109.827 144.572 109.95C144.495 110.069 144.382 110.164 144.234 110.232C144.085 110.301 143.91 110.335 143.707 110.335H142.418V107.346H143.651C143.854 107.346 144.028 107.378 144.174 107.444C144.322 107.51 144.434 107.601 144.508 107.718C144.585 107.835 144.624 107.968 144.624 108.116C144.624 108.291 144.576 108.436 144.482 108.553C144.391 108.67 144.268 108.753 144.114 108.802ZM143.018 108.579H143.566C143.708 108.579 143.818 108.548 143.895 108.485C143.973 108.419 144.011 108.326 144.011 108.206C144.011 108.086 143.973 107.994 143.895 107.928C143.818 107.862 143.708 107.829 143.566 107.829H143.018V108.579ZM143.621 109.847C143.767 109.847 143.88 109.812 143.96 109.744C144.043 109.675 144.084 109.578 144.084 109.453C144.084 109.324 144.041 109.224 143.955 109.153C143.87 109.079 143.754 109.042 143.609 109.042H143.018V109.847H143.621ZM147.376 109.097C147.376 109.183 147.37 109.26 147.359 109.328H145.624C145.638 109.5 145.698 109.634 145.804 109.731C145.909 109.828 146.039 109.877 146.194 109.877C146.416 109.877 146.575 109.781 146.669 109.59H147.316C147.247 109.818 147.116 110.007 146.922 110.155C146.728 110.301 146.489 110.374 146.206 110.374C145.978 110.374 145.772 110.324 145.59 110.224C145.41 110.121 145.268 109.977 145.166 109.791C145.066 109.605 145.016 109.391 145.016 109.149C145.016 108.903 145.066 108.687 145.166 108.502C145.266 108.316 145.406 108.174 145.585 108.074C145.765 107.974 145.972 107.924 146.206 107.924C146.432 107.924 146.633 107.972 146.81 108.069C146.99 108.166 147.129 108.305 147.226 108.485C147.326 108.662 147.376 108.866 147.376 109.097ZM146.755 108.926C146.752 108.772 146.696 108.649 146.588 108.558C146.479 108.463 146.346 108.416 146.189 108.416C146.041 108.416 145.915 108.462 145.812 108.553C145.712 108.642 145.651 108.766 145.628 108.926H146.755ZM149.128 107.928C149.411 107.928 149.639 108.018 149.813 108.198C149.988 108.375 150.075 108.623 150.075 108.943V110.335H149.475V109.024C149.475 108.836 149.428 108.692 149.334 108.592C149.239 108.489 149.111 108.438 148.948 108.438C148.783 108.438 148.651 108.489 148.554 108.592C148.46 108.692 148.413 108.836 148.413 109.024V110.335H147.813V107.962H148.413V108.258C148.493 108.155 148.594 108.075 148.717 108.018C148.843 107.958 148.98 107.928 149.128 107.928ZM152.851 109.097C152.851 109.183 152.845 109.26 152.833 109.328H151.099C151.113 109.5 151.173 109.634 151.279 109.731C151.384 109.828 151.514 109.877 151.668 109.877C151.891 109.877 152.05 109.781 152.144 109.59H152.791C152.722 109.818 152.591 110.007 152.397 110.155C152.202 110.301 151.964 110.374 151.681 110.374C151.453 110.374 151.247 110.324 151.065 110.224C150.885 110.121 150.743 109.977 150.641 109.791C150.541 109.605 150.491 109.391 150.491 109.149C150.491 108.903 150.541 108.687 150.641 108.502C150.74 108.316 150.88 108.174 151.06 108.074C151.24 107.974 151.447 107.924 151.681 107.924C151.907 107.924 152.108 107.972 152.285 108.069C152.465 108.166 152.604 108.305 152.701 108.485C152.801 108.662 152.851 108.866 152.851 109.097ZM152.229 108.926C152.227 108.772 152.171 108.649 152.062 108.558C151.954 108.463 151.821 108.416 151.664 108.416C151.516 108.416 151.39 108.462 151.287 108.553C151.187 108.642 151.126 108.766 151.103 108.926H152.229ZM154.376 108.455H153.961V110.335H153.352V108.455H153.083V107.962H153.352V107.842C153.352 107.551 153.435 107.337 153.601 107.2C153.766 107.063 154.016 106.999 154.35 107.007V107.513C154.205 107.51 154.103 107.534 154.046 107.585C153.989 107.637 153.961 107.73 153.961 107.864V107.962H154.376V108.455ZM155.069 107.68C154.963 107.68 154.874 107.647 154.803 107.581C154.735 107.513 154.7 107.428 154.7 107.328C154.7 107.228 154.735 107.146 154.803 107.08C154.874 107.011 154.963 106.977 155.069 106.977C155.174 106.977 155.261 107.011 155.33 107.08C155.401 107.146 155.437 107.228 155.437 107.328C155.437 107.428 155.401 107.513 155.33 107.581C155.261 107.647 155.174 107.68 155.069 107.68ZM155.364 107.962V110.335H154.765V107.962H155.364ZM155.802 109.149C155.802 108.903 155.852 108.689 155.952 108.506C156.052 108.321 156.191 108.178 156.368 108.078C156.545 107.975 156.747 107.924 156.976 107.924C157.27 107.924 157.513 107.998 157.704 108.146C157.898 108.292 158.028 108.498 158.094 108.763H157.447C157.413 108.66 157.354 108.58 157.271 108.523C157.191 108.463 157.092 108.433 156.972 108.433C156.8 108.433 156.665 108.496 156.565 108.622C156.465 108.745 156.415 108.92 156.415 109.149C156.415 109.374 156.465 109.55 156.565 109.675C156.665 109.798 156.8 109.86 156.972 109.86C157.214 109.86 157.373 109.751 157.447 109.534H158.094C158.028 109.791 157.898 109.995 157.704 110.147C157.51 110.298 157.267 110.374 156.976 110.374C156.747 110.374 156.545 110.324 156.368 110.224C156.191 110.121 156.052 109.978 155.952 109.795C155.852 109.61 155.802 109.394 155.802 109.149ZM158.837 107.68C158.731 107.68 158.643 107.647 158.572 107.581C158.503 107.513 158.469 107.428 158.469 107.328C158.469 107.228 158.503 107.146 158.572 107.08C158.643 107.011 158.731 106.977 158.837 106.977C158.943 106.977 159.03 107.011 159.098 107.08C159.17 107.146 159.205 107.228 159.205 107.328C159.205 107.428 159.17 107.513 159.098 107.581C159.03 107.647 158.943 107.68 158.837 107.68ZM159.133 107.962V110.335H158.533V107.962H159.133ZM159.571 109.14C159.571 108.9 159.618 108.687 159.712 108.502C159.809 108.316 159.939 108.174 160.102 108.074C160.267 107.974 160.452 107.924 160.654 107.924C160.831 107.924 160.986 107.959 161.117 108.031C161.251 108.102 161.358 108.192 161.438 108.301V107.962H162.042V110.335H161.438V109.988C161.361 110.099 161.254 110.192 161.117 110.266C160.983 110.338 160.827 110.374 160.65 110.374C160.45 110.374 160.267 110.322 160.102 110.219C159.939 110.117 159.809 109.972 159.712 109.787C159.618 109.598 159.571 109.383 159.571 109.14ZM161.438 109.149C161.438 109.003 161.41 108.879 161.352 108.776C161.295 108.67 161.218 108.59 161.121 108.536C161.024 108.479 160.92 108.451 160.809 108.451C160.697 108.451 160.594 108.478 160.5 108.532C160.406 108.586 160.329 108.666 160.269 108.772C160.212 108.875 160.183 108.997 160.183 109.14C160.183 109.283 160.212 109.408 160.269 109.517C160.329 109.623 160.406 109.704 160.5 109.761C160.597 109.818 160.7 109.847 160.809 109.847C160.92 109.847 161.024 109.82 161.121 109.765C161.218 109.708 161.295 109.628 161.352 109.526C161.41 109.42 161.438 109.294 161.438 109.149ZM163.227 108.331C163.304 108.205 163.404 108.106 163.527 108.035C163.653 107.964 163.795 107.928 163.955 107.928V108.558H163.797C163.608 108.558 163.466 108.602 163.369 108.69C163.274 108.779 163.227 108.933 163.227 109.153V110.335H162.628V107.962H163.227V108.331ZM166.629 107.962L165.16 111.457H164.522L165.036 110.275L164.085 107.962H164.757L165.37 109.62L165.991 107.962H166.629Z" fill="black"/>
<rect x="24.9622" y="115.115" width="141.769" height="21.8425" rx="2.35557" stroke="#D9D9D9" stroke-width="0.428285"/>
<path d="M32.0013 125.559C32.0013 125.751 31.9551 125.931 31.8626 126.099C31.7735 126.267 31.6313 126.402 31.436 126.505C31.2441 126.608 31.0009 126.659 30.7062 126.659H30.1049V128.036H29.3854V124.449H30.7062C30.9837 124.449 31.2202 124.497 31.4155 124.593C31.6108 124.689 31.7564 124.821 31.8523 124.989C31.9517 125.157 32.0013 125.347 32.0013 125.559ZM30.6754 126.078C30.8741 126.078 31.0214 126.034 31.1174 125.945C31.2133 125.852 31.2613 125.724 31.2613 125.559C31.2613 125.21 31.066 125.035 30.6754 125.035H30.1049V126.078H30.6754ZM32.3272 126.602C32.3272 126.315 32.3837 126.059 32.4968 125.837C32.6133 125.614 32.7692 125.443 32.9645 125.323C33.1632 125.203 33.3842 125.143 33.6275 125.143C33.8399 125.143 34.0249 125.186 34.1825 125.271C34.3435 125.357 34.472 125.465 34.568 125.595V125.189H35.2926V128.036H34.568V127.62C34.4755 127.754 34.347 127.865 34.1825 127.954C34.0215 128.04 33.8347 128.083 33.6223 128.083C33.3825 128.083 33.1632 128.021 32.9645 127.898C32.7692 127.774 32.6133 127.601 32.4968 127.379C32.3837 127.152 32.3272 126.894 32.3272 126.602ZM34.568 126.613C34.568 126.438 34.5337 126.289 34.4652 126.166C34.3967 126.039 34.3041 125.943 34.1877 125.878C34.0712 125.809 33.9461 125.775 33.8125 125.775C33.6788 125.775 33.5555 125.808 33.4424 125.873C33.3294 125.938 33.2369 126.034 33.1649 126.16C33.0964 126.284 33.0621 126.431 33.0621 126.602C33.0621 126.774 33.0964 126.925 33.1649 127.055C33.2369 127.182 33.3294 127.279 33.4424 127.348C33.5589 127.416 33.6823 127.45 33.8125 127.45C33.9461 127.45 34.0712 127.418 34.1877 127.353C34.3041 127.284 34.3967 127.188 34.4652 127.065C34.5337 126.938 34.568 126.787 34.568 126.613ZM38.7193 125.189L36.9564 129.383H36.1907L36.8074 127.964L35.6664 125.189H36.4733L37.2083 127.178L37.9535 125.189H38.7193ZM43.0542 125.189L42.2216 128.036H41.4456L40.9265 126.047L40.4074 128.036H39.6262L38.7885 125.189H39.5183L40.0219 127.358L40.5667 125.189H41.3274L41.8619 127.353L42.3655 125.189H43.0542ZM43.2585 126.602C43.2585 126.315 43.315 126.059 43.4281 125.837C43.5446 125.614 43.7005 125.443 43.8958 125.323C44.0945 125.203 44.3155 125.143 44.5588 125.143C44.7712 125.143 44.9562 125.186 45.1138 125.271C45.2749 125.357 45.4033 125.465 45.4993 125.595V125.189H46.2239V128.036H45.4993V127.62C45.4068 127.754 45.2783 127.865 45.1138 127.954C44.9528 128.04 44.7661 128.083 44.5536 128.083C44.3138 128.083 44.0945 128.021 43.8958 127.898C43.7005 127.774 43.5446 127.601 43.4281 127.379C43.315 127.152 43.2585 126.894 43.2585 126.602ZM45.4993 126.613C45.4993 126.438 45.465 126.289 45.3965 126.166C45.328 126.039 45.2355 125.943 45.119 125.878C45.0025 125.809 44.8774 125.775 44.7438 125.775C44.6102 125.775 44.4868 125.808 44.3737 125.873C44.2607 125.938 44.1682 126.034 44.0962 126.16C44.0277 126.284 43.9934 126.431 43.9934 126.602C43.9934 126.774 44.0277 126.925 44.0962 127.055C44.1682 127.182 44.2607 127.279 44.3737 127.348C44.4902 127.416 44.6136 127.45 44.7438 127.45C44.8774 127.45 45.0025 127.418 45.119 127.353C45.2355 127.284 45.328 127.188 45.3965 127.065C45.465 126.938 45.4993 126.787 45.4993 126.613ZM48.1139 127.373L48.8334 125.189H49.5992L48.5456 128.036H47.6719L46.6234 125.189H47.3944L48.1139 127.373ZM52.6501 126.551C52.6501 126.654 52.6433 126.746 52.6295 126.829H50.5481C50.5652 127.034 50.6372 127.195 50.7639 127.312C50.8907 127.428 51.0466 127.486 51.2316 127.486C51.4989 127.486 51.689 127.372 51.8021 127.142H52.5782C52.4959 127.416 52.3383 127.642 52.1053 127.821C51.8723 127.995 51.5862 128.083 51.247 128.083C50.9729 128.083 50.7262 128.023 50.507 127.903C50.2911 127.779 50.1215 127.606 49.9982 127.384C49.8782 127.161 49.8183 126.904 49.8183 126.613C49.8183 126.318 49.8782 126.059 49.9982 125.837C50.1181 125.614 50.286 125.443 50.5018 125.323C50.7177 125.203 50.9661 125.143 51.247 125.143C51.5177 125.143 51.7593 125.201 51.9717 125.318C52.1876 125.434 52.3537 125.6 52.4702 125.816C52.5901 126.029 52.6501 126.274 52.6501 126.551ZM51.9049 126.346C51.9015 126.16 51.8346 126.013 51.7045 125.904C51.5743 125.79 51.4149 125.734 51.2265 125.734C51.0483 125.734 50.8976 125.789 50.7742 125.898C50.6543 126.005 50.5806 126.154 50.5532 126.346H51.9049ZM55.1194 124.449V128.036H54.3999V124.449H55.1194ZM57.0843 124.449C57.4612 124.449 57.7919 124.523 58.0763 124.67C58.3641 124.817 58.5851 125.028 58.7392 125.302C58.8968 125.573 58.9756 125.888 58.9756 126.248C58.9756 126.608 58.8968 126.923 58.7392 127.194C58.5851 127.461 58.3641 127.668 58.0763 127.815C57.7919 127.963 57.4612 128.036 57.0843 128.036H55.8303V124.449H57.0843ZM57.0586 127.425C57.4355 127.425 57.7268 127.322 57.9323 127.116C58.1379 126.911 58.2407 126.621 58.2407 126.248C58.2407 125.874 58.1379 125.583 57.9323 125.374C57.7268 125.162 57.4355 125.056 57.0586 125.056H56.5498V127.425H57.0586Z" fill="#888787"/>
<path d="M92.0239 155.638C91.683 155.638 91.3699 155.558 91.0846 155.398C90.7994 155.238 90.5732 155.017 90.4063 154.735C90.2393 154.45 90.1558 154.128 90.1558 153.769C90.1558 153.415 90.2393 153.096 90.4063 152.815C90.5732 152.529 90.7994 152.307 91.0846 152.147C91.3699 151.987 91.683 151.907 92.0239 151.907C92.3683 151.907 92.6814 151.987 92.9632 152.147C93.2485 152.307 93.4729 152.529 93.6364 152.815C93.8034 153.096 93.8868 153.415 93.8868 153.769C93.8868 154.128 93.8034 154.45 93.6364 154.735C93.4729 155.017 93.2485 155.238 92.9632 155.398C92.6779 155.558 92.3648 155.638 92.0239 155.638ZM92.0239 154.985C92.2431 154.985 92.4362 154.937 92.6032 154.839C92.7701 154.738 92.9006 154.596 92.9945 154.411C93.0884 154.227 93.1354 154.013 93.1354 153.769C93.1354 153.526 93.0884 153.314 92.9945 153.133C92.9006 152.948 92.7701 152.808 92.6032 152.71C92.4362 152.613 92.2431 152.564 92.0239 152.564C91.8048 152.564 91.6099 152.613 91.4395 152.71C91.2725 152.808 91.142 152.948 91.0481 153.133C90.9542 153.314 90.9072 153.526 90.9072 153.769C90.9072 154.013 90.9542 154.227 91.0481 154.411C91.142 154.596 91.2725 154.738 91.4395 154.839C91.6099 154.937 91.8048 154.985 92.0239 154.985ZM96.3089 155.601L95.5053 154.182H95.1609V155.601H94.4304V151.959H95.7975C96.0793 151.959 96.3194 152.009 96.5177 152.11C96.716 152.207 96.8638 152.341 96.9612 152.512C97.0621 152.679 97.1125 152.867 97.1125 153.075C97.1125 153.315 97.043 153.533 96.9038 153.728C96.7647 153.919 96.5577 154.051 96.2828 154.124L97.1543 155.601H96.3089ZM95.1609 153.634H95.7715C95.9697 153.634 96.1176 153.587 96.215 153.493C96.3124 153.395 96.3611 153.262 96.3611 153.091C96.3611 152.924 96.3124 152.795 96.215 152.705C96.1176 152.611 95.9697 152.564 95.7715 152.564H95.1609V153.634Z" fill="black"/>
<rect x="25.1573" y="166.283" width="141.771" height="23.4847" rx="3.20247" stroke="#002C6E" stroke-width="0.426995"/>
<path d="M77.8581 180.074C77.5256 180.074 77.225 180.017 76.9563 179.903C76.6921 179.789 76.4826 179.625 76.3277 179.411C76.1729 179.197 76.0932 178.944 76.0886 178.653H77.1134C77.1271 178.849 77.1954 179.003 77.3184 179.117C77.4459 179.231 77.619 179.288 77.8376 179.288C78.0608 179.288 78.2361 179.236 78.3636 179.131C78.4912 179.022 78.5549 178.88 78.5549 178.707C78.5549 178.566 78.5117 178.45 78.4251 178.359C78.3386 178.268 78.2293 178.197 78.0972 178.147C77.9697 178.092 77.792 178.033 77.5643 177.969C77.2546 177.878 77.0018 177.79 76.806 177.703C76.6147 177.612 76.4484 177.478 76.3072 177.3C76.1706 177.118 76.1023 176.876 76.1023 176.576C76.1023 176.293 76.1729 176.047 76.3141 175.838C76.4553 175.628 76.6534 175.469 76.9084 175.36C77.1635 175.246 77.455 175.189 77.7829 175.189C78.2748 175.189 78.6734 175.31 78.9785 175.551C79.2882 175.788 79.459 176.12 79.4909 176.548H78.4388C78.4297 176.384 78.3591 176.25 78.227 176.145C78.0995 176.036 77.9287 175.981 77.7146 175.981C77.5279 175.981 77.3776 176.029 77.2637 176.125C77.1544 176.22 77.0997 176.359 77.0997 176.542C77.0997 176.669 77.1407 176.776 77.2227 176.863C77.3092 176.945 77.414 177.013 77.537 177.068C77.6645 177.118 77.8421 177.177 78.0699 177.245C78.3796 177.336 78.6324 177.427 78.8282 177.519C79.0241 177.61 79.1926 177.746 79.3338 177.928C79.475 178.111 79.5456 178.35 79.5456 178.646C79.5456 178.901 79.4795 179.138 79.3474 179.356C79.2154 179.575 79.0218 179.75 78.7667 179.882C78.5117 180.01 78.2088 180.074 77.8581 180.074ZM80.1288 178.133C80.1288 177.742 80.2085 177.4 80.368 177.109C80.5274 176.813 80.7483 176.585 81.0307 176.425C81.313 176.261 81.6364 176.18 82.0008 176.18C82.4699 176.18 82.8571 176.298 83.1622 176.535C83.4719 176.767 83.6792 177.095 83.7839 177.519H82.7523C82.6976 177.355 82.6043 177.227 82.4722 177.136C82.3447 177.04 82.1853 176.993 81.994 176.993C81.7207 176.993 81.5043 177.093 81.3449 177.293C81.1855 177.489 81.1058 177.769 81.1058 178.133C81.1058 178.493 81.1855 178.773 81.3449 178.974C81.5043 179.17 81.7207 179.268 81.994 179.268C82.3811 179.268 82.6339 179.094 82.7523 178.748H83.7839C83.6792 179.158 83.4719 179.484 83.1622 179.725C82.8525 179.967 82.4654 180.087 82.0008 180.087C81.6364 180.087 81.313 180.008 81.0307 179.848C80.7483 179.684 80.5274 179.457 80.368 179.165C80.2085 178.869 80.1288 178.525 80.1288 178.133ZM84.2387 178.12C84.2387 177.737 84.3138 177.398 84.4641 177.102C84.619 176.806 84.8262 176.578 85.0858 176.419C85.35 176.259 85.6438 176.18 85.9671 176.18C86.2495 176.18 86.4955 176.236 86.705 176.35C86.9191 176.464 87.0899 176.608 87.2174 176.781V176.241H88.1807V180.026H87.2174V179.472C87.0944 179.65 86.9236 179.798 86.705 179.917C86.4909 180.03 86.2427 180.087 85.9603 180.087C85.6415 180.087 85.35 180.005 85.0858 179.841C84.8262 179.677 84.619 179.447 84.4641 179.151C84.3138 178.851 84.2387 178.507 84.2387 178.12ZM87.2174 178.133C87.2174 177.901 87.1718 177.703 87.0808 177.539C86.9897 177.371 86.8667 177.243 86.7118 177.156C86.557 177.065 86.3907 177.02 86.2131 177.02C86.0355 177.02 85.8715 177.063 85.7212 177.15C85.5709 177.236 85.4479 177.364 85.3523 177.532C85.2612 177.696 85.2156 177.892 85.2156 178.12C85.2156 178.348 85.2612 178.548 85.3523 178.721C85.4479 178.89 85.5709 179.019 85.7212 179.11C85.8761 179.201 86.04 179.247 86.2131 179.247C86.3907 179.247 86.557 179.204 86.7118 179.117C86.8667 179.026 86.9897 178.899 87.0808 178.735C87.1718 178.566 87.2174 178.366 87.2174 178.133ZM91.2123 176.186C91.6632 176.186 92.0275 176.33 92.3054 176.617C92.5832 176.899 92.7221 177.295 92.7221 177.806V180.026H91.7656V177.935C91.7656 177.635 91.6905 177.405 91.5402 177.245C91.3899 177.081 91.1849 176.999 90.9253 176.999C90.6611 176.999 90.4516 177.081 90.2968 177.245C90.1465 177.405 90.0713 177.635 90.0713 177.935V180.026H89.1149V176.241H90.0713V176.712C90.1989 176.548 90.3605 176.421 90.5564 176.33C90.7568 176.234 90.9754 176.186 91.2123 176.186ZM96.3732 177.027V178.858C96.3732 178.985 96.4028 179.079 96.462 179.138C96.5258 179.192 96.6305 179.22 96.7763 179.22H97.2203V180.026H96.6191C95.813 180.026 95.4099 179.634 95.4099 178.851V177.027H94.959V176.241H95.4099V175.305H96.3732V176.241H97.2203V177.027H96.3732ZM99.5889 180.087C99.2246 180.087 98.8966 180.008 98.6051 179.848C98.3137 179.684 98.0836 179.454 97.9151 179.158C97.7512 178.862 97.6692 178.521 97.6692 178.133C97.6692 177.746 97.7534 177.405 97.922 177.109C98.095 176.813 98.3296 176.585 98.6256 176.425C98.9217 176.261 99.2519 176.18 99.6163 176.18C99.9806 176.18 100.311 176.261 100.607 176.425C100.903 176.585 101.135 176.813 101.304 177.109C101.477 177.405 101.563 177.746 101.563 178.133C101.563 178.521 101.475 178.862 101.297 179.158C101.124 179.454 100.887 179.684 100.586 179.848C100.29 180.008 99.9579 180.087 99.5889 180.087ZM99.5889 179.254C99.762 179.254 99.9237 179.213 100.074 179.131C100.229 179.044 100.352 178.917 100.443 178.748C100.534 178.58 100.58 178.375 100.58 178.133C100.58 177.774 100.484 177.498 100.293 177.307C100.106 177.111 99.8759 177.013 99.6026 177.013C99.3293 177.013 99.0993 177.111 98.9126 177.307C98.7304 177.498 98.6393 177.774 98.6393 178.133C98.6393 178.493 98.7281 178.771 98.9058 178.967C99.0879 179.158 99.3157 179.254 99.5889 179.254ZM107.37 176.733C107.37 176.988 107.309 177.227 107.186 177.45C107.067 177.673 106.878 177.853 106.619 177.99C106.364 178.127 106.04 178.195 105.649 178.195H104.849V180.026H103.893V175.257H105.649C106.018 175.257 106.332 175.321 106.592 175.448C106.851 175.576 107.045 175.751 107.172 175.975C107.304 176.198 107.37 176.451 107.37 176.733ZM105.608 177.423C105.872 177.423 106.068 177.364 106.195 177.245C106.323 177.122 106.387 176.952 106.387 176.733C106.387 176.268 106.127 176.036 105.608 176.036H104.849V177.423H105.608ZM107.803 178.12C107.803 177.737 107.879 177.398 108.029 177.102C108.184 176.806 108.391 176.578 108.651 176.419C108.915 176.259 109.209 176.18 109.532 176.18C109.814 176.18 110.06 176.236 110.27 176.35C110.484 176.464 110.655 176.608 110.782 176.781V176.241H111.746V180.026H110.782V179.472C110.659 179.65 110.488 179.798 110.27 179.917C110.056 180.03 109.808 180.087 109.525 180.087C109.206 180.087 108.915 180.005 108.651 179.841C108.391 179.677 108.184 179.447 108.029 179.151C107.879 178.851 107.803 178.507 107.803 178.12ZM110.782 178.133C110.782 177.901 110.737 177.703 110.646 177.539C110.554 177.371 110.431 177.243 110.277 177.156C110.122 177.065 109.956 177.02 109.778 177.02C109.6 177.02 109.436 177.063 109.286 177.15C109.136 177.236 109.013 177.364 108.917 177.532C108.826 177.696 108.78 177.892 108.78 178.12C108.78 178.348 108.826 178.548 108.917 178.721C109.013 178.89 109.136 179.019 109.286 179.11C109.441 179.201 109.605 179.247 109.778 179.247C109.956 179.247 110.122 179.204 110.277 179.117C110.431 179.026 110.554 178.899 110.646 178.735C110.737 178.566 110.782 178.366 110.782 178.133ZM116.301 176.241L113.957 181.816H112.939L113.759 179.93L112.242 176.241H113.315L114.292 178.885L115.283 176.241H116.301Z" fill="#002C6E"/>
</g>
<defs>
<filter id="filter0_d_457_7702" x="0.218791" y="0.225138" width="191.249" height="216.036" filterUnits="userSpaceOnUse" color-interpolation-filters="sRGB">
<feFlood flood-opacity="0" result="BackgroundImageFix"/>
<feColorMatrix in="SourceAlpha" type="matrix" values="0 0 0 0 0 0 0 0 0 0 0 0 0 0 0 0 0 0 127 0" result="hardAlpha"/>
<feMorphology radius="1.04365" operator="dilate" in="SourceAlpha" result="effect1_dropShadow_457_7702"/>
<feOffset/>
<feGaussianBlur stdDeviation="6.52283"/>
<feComposite in2="hardAlpha" operator="out"/>
<feColorMatrix type="matrix" values="0 0 0 0 0 0 0 0 0 0.172549 0 0 0 0 0.431373 0 0 0 0.15 0"/>
<feBlend mode="normal" in2="BackgroundImageFix" result="effect1_dropShadow_457_7702"/>
<feBlend mode="normal" in="SourceGraphic" in2="effect1_dropShadow_457_7702" result="shape"/>
</filter>
</defs>
</svg>