<svg xmlns="http://www.w3.org/2000/svg" fill="none" viewBox="15.38 15.55 167.08 43.26"><g filter="url(#filter0_d_505_6739)"><rect x="15.3789" y="15.5496" width="167.078" height="43.2624" rx="10.8156" fill="white"></rect><rect x="15.6493" y="15.82" width="166.537" height="42.7216" rx="10.5452" stroke="#002C6E" stroke-width="0.54078"></rect><rect x="28.8984" y="29.0691" width="16.2234" height="16.2234" rx="8.1117" fill="#DCEAFF"></rect><path fill-rule="evenodd" clip-rule="evenodd" d="M34.4434 40.1942L33.9969 39.7478L34.8228 38.9219C34.8618 38.8829 34.8678 38.8219 34.8373 38.7761C34.3486 38.0432 34.4453 37.0673 35.0681 36.4445L36.3537 35.1589C36.5458 34.9668 36.5935 34.6732 36.472 34.4301L36.2799 34.0461C36.2495 33.9853 36.2614 33.9119 36.3095 33.8639L36.508 33.6653C36.5389 33.6345 36.5888 33.6345 36.6197 33.6653L37.5683 34.6139L38.6843 33.4979C38.746 33.4362 38.8459 33.4362 38.9076 33.4979L39.1308 33.7211C39.1924 33.7827 39.1924 33.8827 39.1308 33.9443L38.0147 35.0604L39.1308 36.1764L40.2468 35.0604C40.3084 34.9987 40.4084 34.9987 40.47 35.0604L40.6932 35.2836C40.7549 35.3452 40.7549 35.4451 40.6932 35.5068L39.5772 36.6228L40.5258 37.5715C40.5566 37.6023 40.5566 37.6523 40.5258 37.6831L40.3273 37.8816C40.2792 37.9297 40.2058 37.9416 40.1451 37.9112L39.761 37.7192C39.5179 37.5976 39.2244 37.6453 39.0322 37.8374L37.7467 39.123C37.1238 39.7458 36.1479 39.8425 35.415 39.3539C35.3692 39.3233 35.3082 39.3294 35.2692 39.3683L34.4434 40.1942ZM36.7308 37.3481L36.1728 36.79L37.8468 36.3436L38.0701 36.5668L37.233 36.9574L37.9026 37.6271L36.117 38.0735L35.8938 37.8503L36.7308 37.3481Z" fill="#002C6E"></path><path d="M57.0059 40.6807L55.6215 38.2753H54.8687V40.6807H53.8823V34.6672H55.9589C56.4204 34.6672 56.8098 34.7479 57.127 34.9095C57.45 35.071 57.6894 35.2873 57.8452 35.5584C58.0067 35.8295 58.0874 36.1323 58.0874 36.4669C58.0874 36.8592 57.9721 37.2168 57.7413 37.5398C57.5164 37.8571 57.1674 38.0734 56.6944 38.1887L58.1826 40.6807H57.0059ZM54.8687 37.4879H55.9589C56.3281 37.4879 56.605 37.3956 56.7896 37.211C56.9799 37.0264 57.0751 36.7784 57.0751 36.4669C57.0751 36.1554 56.9828 35.9131 56.7982 35.7401C56.6136 35.5613 56.3339 35.4719 55.9589 35.4719H54.8687V37.4879ZM63.7188 38.1801C63.7188 38.3589 63.7073 38.5204 63.6842 38.6646H60.0415C60.0703 39.0453 60.2116 39.3511 60.4655 39.5818C60.7193 39.8125 61.0307 39.9279 61.3999 39.9279C61.9306 39.9279 62.3055 39.7058 62.5247 39.2617H63.589C63.4448 39.7 63.1823 40.0606 62.8016 40.3432C62.4267 40.6201 61.9594 40.7585 61.3999 40.7585C60.9442 40.7585 60.5347 40.6576 60.1713 40.4557C59.8136 40.248 59.531 39.9596 59.3233 39.5905C59.1214 39.2155 59.0205 38.7829 59.0205 38.2926C59.0205 37.8023 59.1186 37.3725 59.3147 37.0034C59.5166 36.6284 59.7963 36.34 60.154 36.1381C60.5174 35.9362 60.9327 35.8353 61.3999 35.8353C61.8499 35.8353 62.2507 35.9333 62.6026 36.1295C62.9545 36.3256 63.2285 36.6025 63.4246 36.9601C63.6207 37.312 63.7188 37.7186 63.7188 38.1801ZM62.6891 37.8686C62.6834 37.5052 62.5536 37.2139 62.2998 36.9947C62.046 36.7755 61.7316 36.6659 61.3567 36.6659C61.0163 36.6659 60.725 36.7755 60.4828 36.9947C60.2405 37.2081 60.0963 37.4994 60.0501 37.8686H62.6891ZM64.3607 38.2926C64.3607 37.8023 64.4588 37.3725 64.6549 37.0034C64.8568 36.6284 65.1336 36.34 65.4855 36.1381C65.8374 35.9362 66.2412 35.8353 66.6969 35.8353C67.2737 35.8353 67.7496 35.9737 68.1245 36.2506C68.5052 36.5217 68.7619 36.9111 68.8946 37.4187H67.8303C67.7438 37.1822 67.6054 36.9976 67.415 36.8649C67.2247 36.7322 66.9853 36.6659 66.6969 36.6659C66.2931 36.6659 65.9701 36.8101 65.7278 37.0985C65.4913 37.3812 65.373 37.7792 65.373 38.2926C65.373 38.806 65.4913 39.2069 65.7278 39.4953C65.9701 39.7837 66.2931 39.9279 66.6969 39.9279C67.2679 39.9279 67.6458 39.677 67.8303 39.1751H68.8946C68.7562 39.6597 68.4966 40.0461 68.1159 40.3346C67.7352 40.6172 67.2622 40.7585 66.6969 40.7585C66.2412 40.7585 65.8374 40.6576 65.4855 40.4557C65.1336 40.248 64.8568 39.9596 64.6549 39.5905C64.4588 39.2155 64.3607 38.7829 64.3607 38.2926ZM74.2471 38.1801C74.2471 38.3589 74.2356 38.5204 74.2125 38.6646H70.5698C70.5986 39.0453 70.74 39.3511 70.9938 39.5818C71.2476 39.8125 71.5591 39.9279 71.9282 39.9279C72.4589 39.9279 72.8339 39.7058 73.0531 39.2617H74.1173C73.9731 39.7 73.7106 40.0606 73.3299 40.3432C72.955 40.6201 72.4878 40.7585 71.9282 40.7585C71.4725 40.7585 71.063 40.6576 70.6996 40.4557C70.3419 40.248 70.0593 39.9596 69.8516 39.5905C69.6497 39.2155 69.5488 38.7829 69.5488 38.2926C69.5488 37.8023 69.6469 37.3725 69.843 37.0034C70.0449 36.6284 70.3246 36.34 70.6823 36.1381C71.0457 35.9362 71.461 35.8353 71.9282 35.8353C72.3782 35.8353 72.7791 35.9333 73.1309 36.1295C73.4828 36.3256 73.7568 36.6025 73.9529 36.9601C74.149 37.312 74.2471 37.7186 74.2471 38.1801ZM73.2175 37.8686C73.2117 37.5052 73.0819 37.2139 72.8281 36.9947C72.5743 36.7755 72.2599 36.6659 71.885 36.6659C71.5446 36.6659 71.2533 36.7755 71.0111 36.9947C70.7688 37.2081 70.6246 37.4994 70.5784 37.8686H73.2175ZM75.7196 35.2815C75.5408 35.2815 75.3909 35.2209 75.2697 35.0998C75.1486 34.9787 75.088 34.8287 75.088 34.6499C75.088 34.4711 75.1486 34.3211 75.2697 34.2C75.3909 34.0788 75.5408 34.0183 75.7196 34.0183C75.8927 34.0183 76.0398 34.0788 76.1609 34.2C76.2821 34.3211 76.3426 34.4711 76.3426 34.6499C76.3426 34.8287 76.2821 34.9787 76.1609 35.0998C76.0398 35.2209 75.8927 35.2815 75.7196 35.2815ZM76.2042 35.9131V40.6807H75.2178V35.9131H76.2042ZM79.3422 39.7981L80.692 35.9131H81.7389L79.9219 40.6807H78.7452L76.9368 35.9131H77.9924L79.3422 39.7981ZM86.854 38.1801C86.854 38.3589 86.8425 38.5204 86.8194 38.6646H83.1767C83.2056 39.0453 83.3469 39.3511 83.6007 39.5818C83.8545 39.8125 84.166 39.9279 84.5352 39.9279C85.0659 39.9279 85.4408 39.7058 85.66 39.2617H86.7243C86.58 39.7 86.3176 40.0606 85.9369 40.3432C85.5619 40.6201 85.0947 40.7585 84.5352 40.7585C84.0795 40.7585 83.6699 40.6576 83.3065 40.4557C82.9489 40.248 82.6662 39.9596 82.4586 39.5905C82.2567 39.2155 82.1557 38.7829 82.1557 38.2926C82.1557 37.8023 82.2538 37.3725 82.4499 37.0034C82.6518 36.6284 82.9316 36.34 83.2892 36.1381C83.6526 35.9362 84.0679 35.8353 84.5352 35.8353C84.9851 35.8353 85.386 35.9333 85.7379 36.1295C86.0897 36.3256 86.3637 36.6025 86.5599 36.9601C86.756 37.312 86.854 37.7186 86.854 38.1801ZM85.8244 37.8686C85.8186 37.5052 85.6888 37.2139 85.435 36.9947C85.1812 36.7755 84.8669 36.6659 84.4919 36.6659C84.1516 36.6659 83.8603 36.7755 83.618 36.9947C83.3757 37.2081 83.2315 37.4994 83.1854 37.8686H85.8244ZM91.0587 34.6672V40.6807H90.0724V34.6672H91.0587ZM94.7592 35.8353C95.1341 35.8353 95.4687 35.9131 95.7628 36.0689C96.0628 36.2246 96.2964 36.4554 96.4637 36.7611C96.631 37.0668 96.7146 37.436 96.7146 37.8686V40.6807H95.7369V38.0157C95.7369 37.5888 95.6302 37.2629 95.4167 37.038C95.2033 36.8072 94.912 36.6919 94.5428 36.6919C94.1737 36.6919 93.8795 36.8072 93.6603 37.038C93.4469 37.2629 93.3402 37.5888 93.3402 38.0157V40.6807H92.3538V35.9131H93.3402V36.4583C93.5017 36.2621 93.7064 36.1093 93.9545 35.9997C94.2083 35.8901 94.4765 35.8353 94.7592 35.8353ZM99.7033 40.7585C99.3284 40.7585 98.9909 40.6922 98.691 40.5595C98.3968 40.4211 98.1632 40.2365 97.9901 40.0058C97.8171 39.7693 97.7248 39.5068 97.7132 39.2184H98.7342C98.7515 39.4203 98.8467 39.5905 99.0198 39.7289C99.1986 39.8616 99.4207 39.9279 99.686 39.9279C99.9629 39.9279 100.176 39.876 100.326 39.7722C100.482 39.6626 100.56 39.5241 100.56 39.3568C100.56 39.178 100.473 39.0453 100.3 38.9588C100.133 38.8723 99.8648 38.7771 99.4957 38.6733C99.138 38.5752 98.8467 38.48 98.6218 38.3878C98.3968 38.2955 98.2007 38.1541 98.0334 37.9638C97.8719 37.7734 97.7911 37.5225 97.7911 37.211C97.7911 36.9572 97.8661 36.7265 98.0161 36.5188C98.1661 36.3054 98.3795 36.1381 98.6564 36.017C98.939 35.8958 99.262 35.8353 99.6254 35.8353C100.168 35.8353 100.603 35.9737 100.932 36.2506C101.267 36.5217 101.445 36.8938 101.468 37.3668H100.482C100.465 37.1533 100.378 36.9832 100.222 36.8563C100.067 36.7294 99.8562 36.6659 99.5908 36.6659C99.3313 36.6659 99.1322 36.7149 98.9938 36.813C98.8554 36.9111 98.7861 37.0409 98.7861 37.2024C98.7861 37.3293 98.8323 37.436 98.9246 37.5225C99.0169 37.609 99.1294 37.6783 99.262 37.7302C99.3947 37.7763 99.5908 37.8369 99.8504 37.9119C100.197 38.0042 100.479 38.0993 100.698 38.1974C100.923 38.2897 101.117 38.4281 101.278 38.6127C101.44 38.7973 101.523 39.0425 101.529 39.3482C101.529 39.6193 101.454 39.8616 101.304 40.075C101.154 40.2884 100.941 40.4557 100.664 40.5768C100.393 40.698 100.072 40.7585 99.7033 40.7585ZM103.746 36.7178V39.3568C103.746 39.5357 103.786 39.6654 103.867 39.7462C103.953 39.8212 104.097 39.8587 104.299 39.8587H104.905V40.6807H104.126C103.682 40.6807 103.342 40.5768 103.105 40.3692C102.869 40.1615 102.751 39.8241 102.751 39.3568V36.7178H102.188V35.9131H102.751V34.7278H103.746V35.9131H104.905V36.7178H103.746ZM105.485 38.2753C105.485 37.7965 105.583 37.3725 105.78 37.0034C105.981 36.6342 106.253 36.3487 106.593 36.1468C106.939 35.9391 107.32 35.8353 107.735 35.8353C108.11 35.8353 108.436 35.9103 108.713 36.0602C108.995 36.2044 109.22 36.3861 109.388 36.6053V35.9131H110.383V40.6807H109.388V39.9712C109.22 40.1961 108.992 40.3836 108.704 40.5336C108.416 40.6835 108.087 40.7585 107.718 40.7585C107.308 40.7585 106.933 40.6547 106.593 40.447C106.253 40.2336 105.981 39.9394 105.78 39.5645C105.583 39.1838 105.485 38.754 105.485 38.2753ZM109.388 38.2926C109.388 37.9638 109.318 37.6783 109.18 37.436C109.047 37.1937 108.871 37.0091 108.652 36.8822C108.433 36.7553 108.196 36.6919 107.943 36.6919C107.689 36.6919 107.452 36.7553 107.233 36.8822C107.014 37.0034 106.835 37.1851 106.697 37.4273C106.564 37.6638 106.498 37.9465 106.498 38.2753C106.498 38.6041 106.564 38.8925 106.697 39.1405C106.835 39.3886 107.014 39.5789 107.233 39.7116C107.458 39.8385 107.695 39.9019 107.943 39.9019C108.196 39.9019 108.433 39.8385 108.652 39.7116C108.871 39.5847 109.047 39.4001 109.18 39.1578C109.318 38.9098 109.388 38.6214 109.388 38.2926ZM114.084 35.8353C114.459 35.8353 114.793 35.9131 115.087 36.0689C115.387 36.2246 115.621 36.4554 115.788 36.7611C115.955 37.0668 116.039 37.436 116.039 37.8686V40.6807H115.061V38.0157C115.061 37.5888 114.955 37.2629 114.741 37.038C114.528 36.8072 114.236 36.6919 113.867 36.6919C113.498 36.6919 113.204 36.8072 112.985 37.038C112.771 37.2629 112.665 37.5888 112.665 38.0157V40.6807H111.678V35.9131H112.665V36.4583C112.826 36.2621 113.031 36.1093 113.279 35.9997C113.533 35.8901 113.801 35.8353 114.084 35.8353ZM118.448 36.7178V39.3568C118.448 39.5357 118.488 39.6654 118.569 39.7462C118.656 39.8212 118.8 39.8587 119.002 39.8587H119.607V40.6807H118.829C118.385 40.6807 118.044 40.5768 117.808 40.3692C117.571 40.1615 117.453 39.8241 117.453 39.3568V36.7178H116.891V35.9131H117.453V34.7278H118.448V35.9131H119.607V36.7178H118.448ZM126.969 36.4583C126.969 36.764 126.897 37.0524 126.753 37.3235C126.609 37.5946 126.378 37.8167 126.061 37.9897C125.744 38.157 125.337 38.2407 124.841 38.2407H123.751V40.6807H122.764V34.6672H124.841C125.302 34.6672 125.692 34.7479 126.009 34.9095C126.332 35.0652 126.571 35.2786 126.727 35.5497C126.889 35.8209 126.969 36.1237 126.969 36.4583ZM124.841 37.436C125.216 37.436 125.496 37.3523 125.68 37.1851C125.865 37.012 125.957 36.7697 125.957 36.4583C125.957 35.8007 125.585 35.4719 124.841 35.4719H123.751V37.436H124.841ZM127.581 38.2753C127.581 37.7965 127.679 37.3725 127.875 37.0034C128.077 36.6342 128.348 36.3487 128.689 36.1468C129.035 35.9391 129.416 35.8353 129.831 35.8353C130.206 35.8353 130.532 35.9103 130.809 36.0602C131.091 36.2044 131.316 36.3861 131.484 36.6053V35.9131H132.479V40.6807H131.484V39.9712C131.316 40.1961 131.088 40.3836 130.8 40.5336C130.512 40.6835 130.183 40.7585 129.814 40.7585C129.404 40.7585 129.029 40.6547 128.689 40.447C128.348 40.2336 128.077 39.9394 127.875 39.5645C127.679 39.1838 127.581 38.754 127.581 38.2753ZM131.484 38.2926C131.484 37.9638 131.414 37.6783 131.276 37.436C131.143 37.1937 130.967 37.0091 130.748 36.8822C130.529 36.7553 130.292 36.6919 130.039 36.6919C129.785 36.6919 129.548 36.7553 129.329 36.8822C129.11 37.0034 128.931 37.1851 128.793 37.4273C128.66 37.6638 128.594 37.9465 128.594 38.2753C128.594 38.6041 128.66 38.8925 128.793 39.1405C128.931 39.3886 129.11 39.5789 129.329 39.7116C129.554 39.8385 129.791 39.9019 130.039 39.9019C130.292 39.9019 130.529 39.8385 130.748 39.7116C130.967 39.5847 131.143 39.4001 131.276 39.1578C131.414 38.9098 131.484 38.6214 131.484 38.2926ZM138.066 35.9131L135.141 42.9217H134.12L135.089 40.6028L133.212 35.9131H134.311L135.652 39.5472L137.045 35.9131H138.066ZM144.581 35.8353C144.956 35.8353 145.291 35.9131 145.585 36.0689C145.885 36.2246 146.119 36.4554 146.286 36.7611C146.459 37.0668 146.545 37.436 146.545 37.8686V40.6807H145.568V38.0157C145.568 37.5888 145.461 37.2629 145.248 37.038C145.034 36.8072 144.743 36.6919 144.374 36.6919C144.005 36.6919 143.71 36.8072 143.491 37.038C143.278 37.2629 143.171 37.5888 143.171 38.0157V40.6807H142.193V38.0157C142.193 37.5888 142.087 37.2629 141.873 37.038C141.66 36.8072 141.368 36.6919 140.999 36.6919C140.63 36.6919 140.336 36.8072 140.117 37.038C139.903 37.2629 139.797 37.5888 139.797 38.0157V40.6807H138.81V35.9131H139.797V36.4583C139.958 36.2621 140.163 36.1093 140.411 35.9997C140.659 35.8901 140.924 35.8353 141.207 35.8353C141.588 35.8353 141.928 35.916 142.228 36.0775C142.528 36.2391 142.759 36.4727 142.92 36.7784C143.064 36.49 143.289 36.2621 143.595 36.0948C143.901 35.9218 144.229 35.8353 144.581 35.8353ZM152.17 38.1801C152.17 38.3589 152.159 38.5204 152.136 38.6646H148.493C148.522 39.0453 148.663 39.3511 148.917 39.5818C149.171 39.8125 149.482 39.9279 149.851 39.9279C150.382 39.9279 150.757 39.7058 150.976 39.2617H152.04C151.896 39.7 151.634 40.0606 151.253 40.3432C150.878 40.6201 150.411 40.7585 149.851 40.7585C149.396 40.7585 148.986 40.6576 148.623 40.4557C148.265 40.248 147.982 39.9596 147.775 39.5905C147.573 39.2155 147.472 38.7829 147.472 38.2926C147.472 37.8023 147.57 37.3725 147.766 37.0034C147.968 36.6284 148.248 36.34 148.605 36.1381C148.969 35.9362 149.384 35.8353 149.851 35.8353C150.301 35.8353 150.702 35.9333 151.054 36.1295C151.406 36.3256 151.68 36.6025 151.876 36.9601C152.072 37.312 152.17 37.7186 152.17 38.1801ZM151.14 37.8686C151.135 37.5052 151.005 37.2139 150.751 36.9947C150.497 36.7755 150.183 36.6659 149.808 36.6659C149.468 36.6659 149.176 36.7755 148.934 36.9947C148.692 37.2081 148.548 37.4994 148.501 37.8686H151.14ZM155.546 35.8353C155.921 35.8353 156.256 35.9131 156.55 36.0689C156.85 36.2246 157.083 36.4554 157.251 36.7611C157.418 37.0668 157.502 37.436 157.502 37.8686V40.6807H156.524V38.0157C156.524 37.5888 156.417 37.2629 156.204 37.038C155.99 36.8072 155.699 36.6919 155.33 36.6919C154.961 36.6919 154.667 36.8072 154.447 37.038C154.234 37.2629 154.127 37.5888 154.127 38.0157V40.6807H153.141V35.9131H154.127V36.4583C154.289 36.2621 154.494 36.1093 154.742 35.9997C154.995 35.8901 155.264 35.8353 155.546 35.8353ZM159.911 36.7178V39.3568C159.911 39.5357 159.951 39.6654 160.032 39.7462C160.118 39.8212 160.263 39.8587 160.464 39.8587H161.07V40.6807H160.291C159.847 40.6807 159.507 40.5768 159.27 40.3692C159.034 40.1615 158.916 39.8241 158.916 39.3568V36.7178H158.353V35.9131H158.916V34.7278H159.911V35.9131H161.07V36.7178H159.911ZM163.71 40.7585C163.335 40.7585 162.997 40.6922 162.697 40.5595C162.403 40.4211 162.17 40.2365 161.997 40.0058C161.823 39.7693 161.731 39.5068 161.72 39.2184H162.741C162.758 39.4203 162.853 39.5905 163.026 39.7289C163.205 39.8616 163.427 39.9279 163.692 39.9279C163.969 39.9279 164.183 39.876 164.333 39.7722C164.488 39.6626 164.566 39.5241 164.566 39.3568C164.566 39.178 164.48 39.0453 164.307 38.9588C164.139 38.8723 163.871 38.7771 163.502 38.6733C163.144 38.5752 162.853 38.48 162.628 38.3878C162.403 38.2955 162.207 38.1541 162.04 37.9638C161.878 37.7734 161.798 37.5225 161.798 37.211C161.798 36.9572 161.872 36.7265 162.022 36.5188C162.172 36.3054 162.386 36.1381 162.663 36.017C162.945 35.8958 163.268 35.8353 163.632 35.8353C164.174 35.8353 164.61 35.9737 164.938 36.2506C165.273 36.5217 165.452 36.8938 165.475 37.3668H164.488C164.471 37.1533 164.385 36.9832 164.229 36.8563C164.073 36.7294 163.863 36.6659 163.597 36.6659C163.338 36.6659 163.139 36.7149 163 36.813C162.862 36.9111 162.793 37.0409 162.793 37.2024C162.793 37.3293 162.839 37.436 162.931 37.5225C163.023 37.609 163.136 37.6783 163.268 37.7302C163.401 37.7763 163.597 37.8369 163.857 37.9119C164.203 38.0042 164.486 38.0993 164.705 38.1974C164.93 38.2897 165.123 38.4281 165.284 38.6127C165.446 38.7973 165.53 39.0425 165.535 39.3482C165.535 39.6193 165.46 39.8616 165.31 40.075C165.16 40.2884 164.947 40.4557 164.67 40.5768C164.399 40.698 164.079 40.7585 163.71 40.7585Z" fill="black"></path></g><defs><filter id="filter0_d_505_6739" x="0.777842" y="0.948497" width="196.28" height="72.4646" filterUnits="userSpaceOnUse" color-interpolation-filters="sRGB"><feFlood flood-opacity="0" result="BackgroundImageFix"></feFlood><feColorMatrix in="SourceAlpha" type="matrix" values="0 0 0 0 0 0 0 0 0 0 0 0 0 0 0 0 0 0 127 0" result="hardAlpha"></feColorMatrix><feMorphology radius="1.08156" operator="dilate" in="SourceAlpha" result="effect1_dropShadow_505_6739"></feMorphology><feOffset></feOffset><feGaussianBlur stdDeviation="6.75975"></feGaussianBlur><feComposite in2="hardAlpha" operator="out"></feComposite><feColorMatrix type="matrix" values="0 0 0 0 0 0 0 0 0 0.172549 0 0 0 0 0.431373 0 0 0 0.15 0"></feColorMatrix><feBlend mode="normal" in2="BackgroundImageFix" result="effect1_dropShadow_505_6739"></feBlend><feBlend mode="normal" in="SourceGraphic" in2="effect1_dropShadow_505_6739" result="shape"></feBlend></filter></defs></svg>