<svg width="192" height="217" viewBox="0 0 192 217" fill="none" xmlns="http://www.w3.org/2000/svg">
<g filter="url(#filter0_d_141_11506)">
<rect x="14.6696" y="14.3147" width="163.071" height="187.858" rx="13.0457" fill="white"/>
<rect x="14.9957" y="14.6408" width="162.418" height="187.205" rx="12.7195" stroke="black" stroke-width="0.652283"/>
<path d="M26.6085 44.3472V45.2466H27.8163V45.8171H26.6085V46.7679H27.9704V47.3538H25.889V43.7613H27.9704V44.3472H26.6085ZM30.2021 44.4654C30.5413 44.4654 30.8154 44.5733 31.0244 44.7892C31.2334 45.0016 31.3379 45.2997 31.3379 45.6834V47.3538H30.6184V45.7811C30.6184 45.555 30.5619 45.3819 30.4488 45.262C30.3357 45.1387 30.1816 45.077 29.9863 45.077C29.7875 45.077 29.6299 45.1387 29.5134 45.262C29.4004 45.3819 29.3438 45.555 29.3438 45.7811V47.3538H28.6243V44.5065H29.3438V44.8611C29.4398 44.7378 29.5614 44.6419 29.7087 44.5733C29.8595 44.5014 30.024 44.4654 30.2021 44.4654ZM32.8599 45.0976V46.4749C32.8599 46.5709 32.8822 46.6411 32.9267 46.6856C32.9747 46.7268 33.0535 46.7473 33.1631 46.7473H33.4972V47.3538H33.0449C32.4385 47.3538 32.1352 47.0591 32.1352 46.4698V45.0976H31.796V44.5065H32.1352V43.8024H32.8599V44.5065H33.4972V45.0976H32.8599ZM36.6615 45.8685C36.6615 45.9713 36.6546 46.0638 36.6409 46.146H34.5595C34.5766 46.3516 34.6486 46.5126 34.7753 46.6291C34.9021 46.7456 35.058 46.8038 35.243 46.8038C35.5103 46.8038 35.7004 46.6891 35.8135 46.4595H36.5895C36.5073 46.7336 36.3497 46.9597 36.1167 47.1379C35.8837 47.3126 35.5976 47.4 35.2584 47.4C34.9843 47.4 34.7376 47.3401 34.5184 47.2201C34.3025 47.0968 34.1329 46.9238 34.0096 46.7011C33.8896 46.4783 33.8297 46.2214 33.8297 45.9301C33.8297 45.6355 33.8896 45.3768 34.0096 45.1541C34.1295 44.9314 34.2974 44.7601 34.5132 44.6401C34.7291 44.5202 34.9775 44.4603 35.2584 44.4603C35.5291 44.4603 35.7707 44.5185 35.9831 44.635C36.1989 44.7515 36.3651 44.9177 36.4816 45.1335C36.6015 45.346 36.6615 45.5909 36.6615 45.8685ZM35.9163 45.6629C35.9129 45.4779 35.846 45.3305 35.7158 45.2209C35.5856 45.1078 35.4263 45.0513 35.2379 45.0513C35.0597 45.0513 34.909 45.1061 34.7856 45.2158C34.6657 45.322 34.592 45.471 34.5646 45.6629H35.9163ZM37.9062 44.9485C37.9987 44.7978 38.1186 44.6795 38.266 44.5939C38.4167 44.5082 38.588 44.4654 38.7799 44.4654V45.2209H38.5897C38.3636 45.2209 38.1923 45.274 38.0758 45.3802C37.9627 45.4864 37.9062 45.6715 37.9062 45.9353V47.3538H37.1867V44.5065H37.9062V44.9485ZM42.6888 46.6702H41.2601L41.0237 47.3538H40.2682L41.5582 43.7613H42.3959L43.6859 47.3538H42.9252L42.6888 46.6702ZM42.4935 46.0946L41.9745 44.5939L41.4554 46.0946H42.4935ZM47.704 44.4654C48.0535 44.4654 48.3344 44.5733 48.5469 44.7892C48.7627 45.0016 48.8706 45.2997 48.8706 45.6834V47.3538H48.1511V45.7811C48.1511 45.5584 48.0946 45.3888 47.9815 45.2723C47.8684 45.1524 47.7143 45.0924 47.519 45.0924C47.3237 45.0924 47.1678 45.1524 47.0513 45.2723C46.9382 45.3888 46.8817 45.5584 46.8817 45.7811V47.3538H46.1622V45.7811C46.1622 45.5584 46.1056 45.3888 45.9926 45.2723C45.8795 45.1524 45.7253 45.0924 45.53 45.0924C45.3313 45.0924 45.1737 45.1524 45.0572 45.2723C44.9441 45.3888 44.8876 45.5584 44.8876 45.7811V47.3538H44.1681V44.5065H44.8876V44.8509C44.9801 44.7309 45.0983 44.6367 45.2422 44.5682C45.3895 44.4997 45.5506 44.4654 45.7253 44.4654C45.948 44.4654 46.1467 44.5134 46.3215 44.6093C46.4962 44.7018 46.6316 44.8354 46.7275 45.0102C46.82 44.8457 46.9536 44.7138 47.1284 44.6144C47.3065 44.5151 47.4984 44.4654 47.704 44.4654ZM50.8177 47.4C50.5436 47.4 50.2969 47.3401 50.0776 47.2201C49.8584 47.0968 49.6853 46.9238 49.5586 46.7011C49.4352 46.4783 49.3735 46.2214 49.3735 45.9301C49.3735 45.6389 49.4369 45.3819 49.5637 45.1592C49.6939 44.9365 49.8703 44.7652 50.0931 44.6453C50.3158 44.5219 50.5642 44.4603 50.8383 44.4603C51.1124 44.4603 51.3608 44.5219 51.5835 44.6453C51.8062 44.7652 51.9809 44.9365 52.1077 45.1592C52.2379 45.3819 52.303 45.6389 52.303 45.9301C52.303 46.2214 52.2362 46.4783 52.1026 46.7011C51.9724 46.9238 51.7942 47.0968 51.5681 47.2201C51.3454 47.3401 51.0952 47.4 50.8177 47.4ZM50.8177 46.773C50.9479 46.773 51.0695 46.7422 51.1826 46.6805C51.2991 46.6154 51.3916 46.5195 51.4601 46.3927C51.5287 46.2659 51.5629 46.1117 51.5629 45.9301C51.5629 45.6595 51.491 45.4522 51.3471 45.3083C51.2066 45.1609 51.0336 45.0873 50.828 45.0873C50.6224 45.0873 50.4494 45.1609 50.3089 45.3083C50.1719 45.4522 50.1033 45.6595 50.1033 45.9301C50.1033 46.2008 50.1701 46.4098 50.3038 46.5571C50.4408 46.7011 50.6121 46.773 50.8177 46.773ZM55.5187 44.5065V47.3538H54.7941V46.994C54.7016 47.1173 54.5799 47.215 54.4292 47.2869C54.2818 47.3555 54.1208 47.3897 53.9461 47.3897C53.7233 47.3897 53.5263 47.3435 53.355 47.251C53.1837 47.155 53.0484 47.0163 52.949 46.8347C52.8531 46.6497 52.8051 46.4304 52.8051 46.1768V44.5065H53.5246V46.074C53.5246 46.3002 53.5812 46.4749 53.6942 46.5983C53.8073 46.7182 53.9615 46.7781 54.1568 46.7781C54.3555 46.7781 54.5114 46.7182 54.6245 46.5983C54.7375 46.4749 54.7941 46.3002 54.7941 46.074V44.5065H55.5187ZM57.8064 44.4654C58.1456 44.4654 58.4198 44.5733 58.6288 44.7892C58.8378 45.0016 58.9423 45.2997 58.9423 45.6834V47.3538H58.2227V45.7811C58.2227 45.555 58.1662 45.3819 58.0531 45.262C57.9401 45.1387 57.7859 45.077 57.5906 45.077C57.3919 45.077 57.2343 45.1387 57.1178 45.262C57.0047 45.3819 56.9482 45.555 56.9482 45.7811V47.3538H56.2286V44.5065H56.9482V44.8611C57.0441 44.7378 57.1657 44.6419 57.3131 44.5733C57.4638 44.5014 57.6283 44.4654 57.8064 44.4654ZM60.4642 45.0976V46.4749C60.4642 46.5709 60.4865 46.6411 60.531 46.6856C60.579 46.7268 60.6578 46.7473 60.7674 46.7473H61.1015V47.3538H60.6492C60.0428 47.3538 59.7395 47.0591 59.7395 46.4698V45.0976H59.4003V44.5065H59.7395V43.8024H60.4642V44.5065H61.1015V45.0976H60.4642Z" fill="black"/>
<rect x="25.3202" y="57.843" width="141.769" height="21.8425" rx="2.35557" stroke="#D9D9D9" stroke-width="0.428285"/>
<path d="M31.9432 70.0809H30.5144L30.278 70.7644H29.5225L30.8125 67.1719H31.6503L32.9403 70.7644H32.1796L31.9432 70.0809ZM31.7479 69.5052L31.2288 68.0045L30.7097 69.5052H31.7479ZM36.9584 67.876C37.3078 67.876 37.5888 67.984 37.8012 68.1998C38.0171 68.4123 38.125 68.7103 38.125 69.0941V70.7644H37.4055V69.1917C37.4055 68.969 37.349 68.7994 37.2359 68.6829C37.1228 68.563 36.9686 68.5031 36.7733 68.5031C36.578 68.5031 36.4221 68.563 36.3057 68.6829C36.1926 68.7994 36.1361 68.969 36.1361 69.1917V70.7644H35.4165V69.1917C35.4165 68.969 35.36 68.7994 35.2469 68.6829C35.1339 68.563 34.9797 68.5031 34.7844 68.5031C34.5857 68.5031 34.4281 68.563 34.3116 68.6829C34.1985 68.7994 34.142 68.969 34.142 69.1917V70.7644H33.4224V67.9172H34.142V68.2615C34.2345 68.1416 34.3527 68.0474 34.4966 67.9788C34.6439 67.9103 34.8049 67.876 34.9797 67.876C35.2024 67.876 35.4011 67.924 35.5759 68.02C35.7506 68.1125 35.8859 68.2461 35.9819 68.4208C36.0744 68.2564 36.208 68.1245 36.3827 68.0251C36.5609 67.9257 36.7528 67.876 36.9584 67.876ZM40.0721 70.8107C39.798 70.8107 39.5513 70.7507 39.332 70.6308C39.1127 70.5074 38.9397 70.3344 38.8129 70.1117C38.6896 69.889 38.6279 69.632 38.6279 69.3408C38.6279 69.0496 38.6913 68.7926 38.8181 68.5699C38.9483 68.3472 39.1247 68.1758 39.3474 68.0559C39.5701 67.9326 39.8185 67.8709 40.0926 67.8709C40.3668 67.8709 40.6152 67.9326 40.8379 68.0559C41.0606 68.1758 41.2353 68.3472 41.3621 68.5699C41.4923 68.7926 41.5574 69.0496 41.5574 69.3408C41.5574 69.632 41.4906 69.889 41.3569 70.1117C41.2267 70.3344 41.0486 70.5074 40.8224 70.6308C40.5997 70.7507 40.3496 70.8107 40.0721 70.8107ZM40.0721 70.1836C40.2023 70.1836 40.3239 70.1528 40.437 70.0911C40.5535 70.026 40.646 69.9301 40.7145 69.8033C40.783 69.6766 40.8173 69.5224 40.8173 69.3408C40.8173 69.0701 40.7454 68.8628 40.6015 68.7189C40.461 68.5716 40.2879 68.4979 40.0824 68.4979C39.8768 68.4979 39.7038 68.5716 39.5633 68.7189C39.4262 68.8628 39.3577 69.0701 39.3577 69.3408C39.3577 69.6115 39.4245 69.8205 39.5581 69.9678C39.6952 70.1117 39.8665 70.1836 40.0721 70.1836ZM44.7731 67.9172V70.7644H44.0484V70.4046C43.9559 70.528 43.8343 70.6256 43.6835 70.6976C43.5362 70.7661 43.3752 70.8004 43.2004 70.8004C42.9777 70.8004 42.7807 70.7541 42.6094 70.6616C42.4381 70.5657 42.3027 70.4269 42.2034 70.2453C42.1074 70.0603 42.0595 69.841 42.0595 69.5875V67.9172H42.779V69.4847C42.779 69.7108 42.8355 69.8856 42.9486 70.0089C43.0617 70.1288 43.2159 70.1888 43.4111 70.1888C43.6099 70.1888 43.7658 70.1288 43.8788 70.0089C43.9919 69.8856 44.0484 69.7108 44.0484 69.4847V67.9172H44.7731ZM47.0608 67.876C47.4 67.876 47.6741 67.984 47.8831 68.1998C48.0921 68.4123 48.1966 68.7103 48.1966 69.0941V70.7644H47.4771V69.1917C47.4771 68.9656 47.4206 68.7926 47.3075 68.6727C47.1944 68.5493 47.0403 68.4876 46.845 68.4876C46.6462 68.4876 46.4886 68.5493 46.3721 68.6727C46.2591 68.7926 46.2025 68.9656 46.2025 69.1917V70.7644H45.483V67.9172H46.2025V68.2718C46.2985 68.1484 46.4201 68.0525 46.5674 67.984C46.7182 67.912 46.8827 67.876 47.0608 67.876ZM49.7186 68.5082V69.8856C49.7186 69.9815 49.7409 70.0517 49.7854 70.0963C49.8334 70.1374 49.9122 70.158 50.0218 70.158H50.3559V70.7644H49.9036C49.2972 70.7644 48.9939 70.4697 48.9939 69.8804V68.5082H48.6547V67.9172H48.9939V67.2131H49.7186V67.9172H50.3559V68.5082H49.7186Z" fill="#888787"/>
<path d="M26.612 101.619V102.519H27.8198V103.089H26.612V104.04H27.974V104.626H25.8925V101.034H27.974V101.619H26.612ZM30.2056 101.738C30.5448 101.738 30.8189 101.846 31.0279 102.061C31.2369 102.274 31.3414 102.572 31.3414 102.956V104.626H30.6219V103.053C30.6219 102.827 30.5654 102.654 30.4523 102.534C30.3393 102.411 30.1851 102.349 29.9898 102.349C29.7911 102.349 29.6334 102.411 29.517 102.534C29.4039 102.654 29.3473 102.827 29.3473 103.053V104.626H28.6278V101.779H29.3473V102.133C29.4433 102.01 29.5649 101.914 29.7122 101.846C29.863 101.774 30.0275 101.738 30.2056 101.738ZM32.8634 102.37V103.747C32.8634 103.843 32.8857 103.913 32.9302 103.958C32.9782 103.999 33.057 104.02 33.1666 104.02H33.5007V104.626H33.0484C32.442 104.626 32.1387 104.331 32.1387 103.742V102.37H31.7995V101.779H32.1387V101.075H32.8634V101.779H33.5007V102.37H32.8634ZM36.665 103.141C36.665 103.243 36.6582 103.336 36.6444 103.418H34.563C34.5801 103.624 34.6521 103.785 34.7788 103.901C34.9056 104.018 35.0615 104.076 35.2465 104.076C35.5138 104.076 35.7039 103.961 35.817 103.732H36.5931C36.5108 104.006 36.3532 104.232 36.1202 104.41C35.8872 104.585 35.6011 104.672 35.2619 104.672C34.9878 104.672 34.7411 104.612 34.5219 104.492C34.306 104.369 34.1364 104.196 34.0131 103.973C33.8931 103.751 33.8332 103.494 33.8332 103.202C33.8332 102.908 33.8931 102.649 34.0131 102.426C34.133 102.204 34.3009 102.032 34.5167 101.912C34.7326 101.792 34.981 101.732 35.2619 101.732C35.5326 101.732 35.7742 101.791 35.9866 101.907C36.2025 102.024 36.3686 102.19 36.4851 102.406C36.605 102.618 36.665 102.863 36.665 103.141ZM35.9198 102.935C35.9164 102.75 35.8495 102.603 35.7194 102.493C35.5892 102.38 35.4298 102.324 35.2414 102.324C35.0632 102.324 34.9125 102.378 34.7891 102.488C34.6692 102.594 34.5955 102.743 34.5681 102.935H35.9198ZM37.9097 102.221C38.0022 102.07 38.1221 101.952 38.2695 101.866C38.4202 101.78 38.5915 101.738 38.7834 101.738V102.493H38.5933C38.3671 102.493 38.1958 102.546 38.0793 102.652C37.9662 102.759 37.9097 102.944 37.9097 103.207V104.626H37.1902V101.779H37.9097V102.221ZM44.4038 101.039V104.626H43.6843V102.293L42.7232 104.626H42.1784L41.2122 102.293V104.626H40.4927V101.039H41.3098L42.4508 103.706L43.5917 101.039H44.4038ZM47.7619 103.141C47.7619 103.243 47.7551 103.336 47.7414 103.418H45.6599C45.677 103.624 45.749 103.785 45.8758 103.901C46.0025 104.018 46.1584 104.076 46.3435 104.076C46.6107 104.076 46.8009 103.961 46.9139 103.732H47.69C47.6078 104.006 47.4502 104.232 47.2172 104.41C46.9842 104.585 46.6981 104.672 46.3589 104.672C46.0848 104.672 45.8381 104.612 45.6188 104.492C45.4029 104.369 45.2333 104.196 45.11 103.973C44.9901 103.751 44.9301 103.494 44.9301 103.202C44.9301 102.908 44.9901 102.649 45.11 102.426C45.2299 102.204 45.3978 102.032 45.6137 101.912C45.8295 101.792 46.0779 101.732 46.3589 101.732C46.6296 101.732 46.8711 101.791 47.0835 101.907C47.2994 102.024 47.4656 102.19 47.5821 102.406C47.702 102.618 47.7619 102.863 47.7619 103.141ZM47.0167 102.935C47.0133 102.75 46.9465 102.603 46.8163 102.493C46.6861 102.38 46.5268 102.324 46.3383 102.324C46.1602 102.324 46.0094 102.378 45.8861 102.488C45.7661 102.594 45.6925 102.743 45.6651 102.935H47.0167ZM49.0066 102.221C49.0992 102.07 49.2191 101.952 49.3664 101.866C49.5172 101.78 49.6885 101.738 49.8803 101.738V102.493H49.6902C49.4641 102.493 49.2927 102.546 49.1762 102.652C49.0632 102.759 49.0066 102.944 49.0066 103.207V104.626H48.2871V101.779H49.0066V102.221ZM50.18 103.202C50.18 102.908 50.2399 102.651 50.3598 102.431C50.4798 102.209 50.6459 102.037 50.8584 101.918C51.0708 101.794 51.3141 101.732 51.5882 101.732C51.9411 101.732 52.2323 101.822 52.4619 102C52.6949 102.174 52.8507 102.421 52.9296 102.74H52.1535C52.1124 102.616 52.0421 102.521 51.9428 102.452C51.8468 102.38 51.7269 102.344 51.583 102.344C51.3774 102.344 51.2147 102.419 51.0948 102.57C50.9749 102.718 50.9149 102.928 50.9149 103.202C50.9149 103.473 50.9749 103.684 51.0948 103.835C51.2147 103.982 51.3774 104.056 51.583 104.056C51.8743 104.056 52.0644 103.925 52.1535 103.665H52.9296C52.8507 103.973 52.6949 104.218 52.4619 104.4C52.2289 104.581 51.9376 104.672 51.5882 104.672C51.3141 104.672 51.0708 104.612 50.8584 104.492C50.6459 104.369 50.4798 104.198 50.3598 103.978C50.2399 103.756 50.18 103.497 50.18 103.202ZM55.0602 101.738C55.276 101.738 55.4679 101.786 55.6358 101.882C55.8037 101.974 55.9339 102.113 56.0264 102.298C56.1223 102.479 56.1703 102.699 56.1703 102.956V104.626H55.4508V103.053C55.4508 102.827 55.3942 102.654 55.2812 102.534C55.1681 102.411 55.0139 102.349 54.8186 102.349C54.6199 102.349 54.4623 102.411 54.3458 102.534C54.2327 102.654 54.1762 102.827 54.1762 103.053V104.626H53.4567V100.823H54.1762V102.133C54.2687 102.01 54.392 101.914 54.5462 101.846C54.7004 101.774 54.8717 101.738 55.0602 101.738ZM56.6695 103.192C56.6695 102.904 56.726 102.649 56.8391 102.426C56.9556 102.204 57.1115 102.032 57.3068 101.912C57.5055 101.792 57.7265 101.732 57.9698 101.732C58.1822 101.732 58.3672 101.775 58.5248 101.861C58.6859 101.947 58.8143 102.055 58.9103 102.185V101.779H59.6349V104.626H58.9103V104.21C58.8178 104.343 58.6893 104.455 58.5248 104.544C58.3638 104.629 58.177 104.672 57.9646 104.672C57.7248 104.672 57.5055 104.611 57.3068 104.487C57.1115 104.364 56.9556 104.191 56.8391 103.968C56.726 103.742 56.6695 103.483 56.6695 103.192ZM58.9103 103.202C58.9103 103.028 58.876 102.879 58.8075 102.755C58.739 102.628 58.6464 102.533 58.53 102.467C58.4135 102.399 58.2884 102.365 58.1548 102.365C58.0212 102.365 57.8978 102.397 57.7847 102.462C57.6717 102.527 57.5792 102.623 57.5072 102.75C57.4387 102.873 57.4044 103.021 57.4044 103.192C57.4044 103.363 57.4387 103.514 57.5072 103.644C57.5792 103.771 57.6717 103.869 57.7847 103.937C57.9012 104.006 58.0246 104.04 58.1548 104.04C58.2884 104.04 58.4135 104.008 58.53 103.942C58.6464 103.874 58.739 103.778 58.8075 103.655C58.876 103.528 58.9103 103.377 58.9103 103.202ZM61.9155 101.738C62.2547 101.738 62.5288 101.846 62.7378 102.061C62.9468 102.274 63.0513 102.572 63.0513 102.956V104.626H62.3318V103.053C62.3318 102.827 62.2752 102.654 62.1622 102.534C62.0491 102.411 61.8949 102.349 61.6996 102.349C61.5009 102.349 61.3433 102.411 61.2268 102.534C61.1137 102.654 61.0572 102.827 61.0572 103.053V104.626H60.3377V101.779H61.0572V102.133C61.1531 102.01 61.2748 101.914 61.4221 101.846C61.5728 101.774 61.7373 101.738 61.9155 101.738ZM64.5732 102.37V103.747C64.5732 103.843 64.5955 103.913 64.64 103.958C64.688 103.999 64.7668 104.02 64.8765 104.02H65.2105V104.626H64.7583C64.1518 104.626 63.8486 104.331 63.8486 103.742V102.37H63.5094V101.779H63.8486V101.075H64.5732V101.779H65.2105V102.37H64.5732ZM67.6722 101.039V104.626H66.9527V101.039H67.6722ZM69.6371 101.039C70.014 101.039 70.3446 101.112 70.629 101.26C70.9168 101.407 71.1378 101.618 71.292 101.892C71.4496 102.162 71.5284 102.478 71.5284 102.837C71.5284 103.197 71.4496 103.512 71.292 103.783C71.1378 104.05 70.9168 104.258 70.629 104.405C70.3446 104.552 70.014 104.626 69.6371 104.626H68.3831V101.039H69.6371ZM69.6114 104.014C69.9883 104.014 70.2795 103.912 70.4851 103.706C70.6907 103.5 70.7935 103.211 70.7935 102.837C70.7935 102.464 70.6907 102.173 70.4851 101.964C70.2795 101.751 69.9883 101.645 69.6114 101.645H69.1026V104.014H69.6114Z" fill="black"/>
<path d="M125.055 108.836C125.055 108.542 125.12 108.279 125.252 108.048C125.386 107.814 125.567 107.633 125.796 107.504C126.027 107.373 126.285 107.307 126.571 107.307C126.905 107.307 127.198 107.393 127.449 107.564C127.7 107.736 127.876 107.972 127.976 108.275H127.286C127.218 108.132 127.121 108.025 126.995 107.954C126.872 107.883 126.729 107.847 126.567 107.847C126.392 107.847 126.237 107.888 126.1 107.971C125.966 108.051 125.86 108.165 125.783 108.314C125.709 108.462 125.672 108.636 125.672 108.836C125.672 109.033 125.709 109.207 125.783 109.359C125.86 109.507 125.966 109.623 126.1 109.706C126.237 109.786 126.392 109.826 126.567 109.826C126.729 109.826 126.872 109.79 126.995 109.718C127.121 109.644 127.218 109.536 127.286 109.393H127.976C127.876 109.698 127.7 109.937 127.449 110.108C127.201 110.277 126.908 110.361 126.571 110.361C126.285 110.361 126.027 110.297 125.796 110.168C125.567 110.037 125.386 109.856 125.252 109.624C125.12 109.393 125.055 109.13 125.055 108.836ZM129.824 107.928C130.004 107.928 130.164 107.968 130.304 108.048C130.444 108.125 130.552 108.241 130.629 108.395C130.709 108.546 130.749 108.729 130.749 108.943V110.335H130.15V109.025C130.15 108.836 130.102 108.692 130.008 108.592C129.914 108.489 129.786 108.438 129.623 108.438C129.457 108.438 129.326 108.489 129.229 108.592C129.135 108.692 129.087 108.836 129.087 109.025V110.335H128.488V107.166H129.087V108.258C129.165 108.155 129.267 108.075 129.396 108.018C129.524 107.958 129.667 107.928 129.824 107.928ZM132.373 110.374C132.145 110.374 131.939 110.324 131.756 110.224C131.573 110.121 131.429 109.977 131.324 109.791C131.221 109.606 131.169 109.392 131.169 109.149C131.169 108.906 131.222 108.692 131.328 108.506C131.436 108.321 131.583 108.178 131.769 108.078C131.955 107.975 132.162 107.924 132.39 107.924C132.619 107.924 132.826 107.975 133.011 108.078C133.197 108.178 133.342 108.321 133.448 108.506C133.556 108.692 133.611 108.906 133.611 109.149C133.611 109.392 133.555 109.606 133.444 109.791C133.335 109.977 133.187 110.121 132.998 110.224C132.813 110.324 132.604 110.374 132.373 110.374ZM132.373 109.851C132.481 109.851 132.583 109.826 132.677 109.774C132.774 109.72 132.851 109.64 132.908 109.534C132.965 109.429 132.994 109.3 132.994 109.149C132.994 108.923 132.934 108.751 132.814 108.631C132.697 108.508 132.553 108.446 132.382 108.446C132.21 108.446 132.066 108.508 131.949 108.631C131.835 108.751 131.778 108.923 131.778 109.149C131.778 109.374 131.833 109.549 131.945 109.671C132.059 109.791 132.202 109.851 132.373 109.851ZM135.104 110.374C134.876 110.374 134.67 110.324 134.487 110.224C134.305 110.121 134.16 109.977 134.055 109.791C133.952 109.606 133.901 109.392 133.901 109.149C133.901 108.906 133.953 108.692 134.059 108.506C134.168 108.321 134.315 108.178 134.5 108.078C134.686 107.975 134.893 107.924 135.121 107.924C135.35 107.924 135.557 107.975 135.742 108.078C135.928 108.178 136.073 108.321 136.179 108.506C136.288 108.692 136.342 108.906 136.342 109.149C136.342 109.392 136.286 109.606 136.175 109.791C136.066 109.977 135.918 110.121 135.729 110.224C135.544 110.324 135.335 110.374 135.104 110.374ZM135.104 109.851C135.213 109.851 135.314 109.826 135.408 109.774C135.505 109.72 135.582 109.64 135.639 109.534C135.697 109.429 135.725 109.3 135.725 109.149C135.725 108.923 135.665 108.751 135.545 108.631C135.428 108.508 135.284 108.446 135.113 108.446C134.941 108.446 134.797 108.508 134.68 108.631C134.566 108.751 134.509 108.923 134.509 109.149C134.509 109.374 134.564 109.549 134.676 109.671C134.79 109.791 134.933 109.851 135.104 109.851ZM137.69 110.374C137.496 110.374 137.321 110.339 137.167 110.271C137.013 110.2 136.89 110.104 136.799 109.984C136.71 109.864 136.662 109.731 136.653 109.586H137.257C137.269 109.677 137.313 109.753 137.39 109.813C137.47 109.873 137.568 109.903 137.685 109.903C137.8 109.903 137.888 109.88 137.951 109.834C138.017 109.788 138.049 109.73 138.049 109.659C138.049 109.581 138.009 109.524 137.929 109.487C137.852 109.447 137.728 109.404 137.557 109.359C137.38 109.316 137.234 109.272 137.12 109.226C137.009 109.18 136.912 109.11 136.829 109.016C136.749 108.922 136.709 108.795 136.709 108.635C136.709 108.504 136.746 108.384 136.82 108.275C136.897 108.167 137.006 108.081 137.146 108.018C137.288 107.955 137.456 107.924 137.647 107.924C137.929 107.924 138.155 107.995 138.324 108.138C138.492 108.278 138.585 108.468 138.602 108.708H138.028C138.019 108.613 137.979 108.539 137.908 108.485C137.84 108.428 137.747 108.399 137.63 108.399C137.521 108.399 137.437 108.419 137.377 108.459C137.32 108.499 137.291 108.555 137.291 108.626C137.291 108.706 137.331 108.768 137.411 108.811C137.491 108.85 137.615 108.892 137.784 108.935C137.955 108.978 138.097 109.022 138.208 109.067C138.319 109.113 138.415 109.185 138.495 109.282C138.578 109.376 138.62 109.501 138.623 109.659C138.623 109.796 138.585 109.918 138.508 110.027C138.433 110.135 138.325 110.221 138.182 110.284C138.042 110.344 137.878 110.374 137.69 110.374ZM141.321 109.097C141.321 109.183 141.315 109.26 141.304 109.329H139.569C139.584 109.5 139.644 109.634 139.749 109.731C139.855 109.828 139.985 109.877 140.139 109.877C140.362 109.877 140.52 109.781 140.615 109.59H141.261C141.193 109.818 141.061 110.007 140.867 110.155C140.673 110.301 140.435 110.374 140.152 110.374C139.924 110.374 139.718 110.324 139.535 110.224C139.355 110.121 139.214 109.977 139.111 109.791C139.011 109.606 138.961 109.392 138.961 109.149C138.961 108.903 139.011 108.688 139.111 108.502C139.211 108.317 139.351 108.174 139.531 108.074C139.711 107.974 139.918 107.924 140.152 107.924C140.378 107.924 140.579 107.972 140.756 108.07C140.936 108.167 141.074 108.305 141.171 108.485C141.271 108.662 141.321 108.866 141.321 109.097ZM140.7 108.926C140.697 108.772 140.642 108.649 140.533 108.558C140.425 108.464 140.292 108.416 140.135 108.416C139.986 108.416 139.861 108.462 139.758 108.554C139.658 108.642 139.597 108.766 139.574 108.926H140.7ZM144.475 108.802C144.644 108.833 144.782 108.918 144.891 109.055C144.999 109.192 145.054 109.349 145.054 109.526C145.054 109.686 145.014 109.827 144.934 109.95C144.857 110.07 144.744 110.164 144.595 110.232C144.447 110.301 144.271 110.335 144.068 110.335H142.779V107.346H144.013C144.216 107.346 144.39 107.379 144.535 107.444C144.684 107.51 144.795 107.601 144.869 107.718C144.946 107.835 144.985 107.968 144.985 108.117C144.985 108.291 144.938 108.436 144.844 108.554C144.752 108.671 144.63 108.753 144.475 108.802ZM143.379 108.579H143.927C144.07 108.579 144.18 108.548 144.257 108.485C144.334 108.419 144.373 108.327 144.373 108.207C144.373 108.087 144.334 107.994 144.257 107.928C144.18 107.863 144.07 107.83 143.927 107.83H143.379V108.579ZM143.983 109.847C144.128 109.847 144.241 109.813 144.321 109.744C144.404 109.676 144.445 109.579 144.445 109.453C144.445 109.324 144.403 109.225 144.317 109.153C144.231 109.079 144.116 109.042 143.97 109.042H143.379V109.847H143.983ZM147.737 109.097C147.737 109.183 147.731 109.26 147.72 109.329H145.985C146 109.5 146.06 109.634 146.165 109.731C146.271 109.828 146.401 109.877 146.555 109.877C146.778 109.877 146.936 109.781 147.03 109.59H147.677C147.609 109.818 147.477 110.007 147.283 110.155C147.089 110.301 146.851 110.374 146.568 110.374C146.339 110.374 146.134 110.324 145.951 110.224C145.771 110.121 145.63 109.977 145.527 109.791C145.427 109.606 145.377 109.392 145.377 109.149C145.377 108.903 145.427 108.688 145.527 108.502C145.627 108.317 145.767 108.174 145.947 108.074C146.127 107.974 146.334 107.924 146.568 107.924C146.793 107.924 146.995 107.972 147.172 108.07C147.352 108.167 147.49 108.305 147.587 108.485C147.687 108.662 147.737 108.866 147.737 109.097ZM147.116 108.926C147.113 108.772 147.058 108.649 146.949 108.558C146.841 108.464 146.708 108.416 146.551 108.416C146.402 108.416 146.277 108.462 146.174 108.554C146.074 108.642 146.013 108.766 145.99 108.926H147.116ZM149.49 107.928C149.772 107.928 150.001 108.018 150.175 108.198C150.349 108.375 150.436 108.623 150.436 108.943V110.335H149.836V109.025C149.836 108.836 149.789 108.692 149.695 108.592C149.601 108.489 149.472 108.438 149.31 108.438C149.144 108.438 149.013 108.489 148.916 108.592C148.821 108.692 148.774 108.836 148.774 109.025V110.335H148.175V107.963H148.774V108.258C148.854 108.155 148.956 108.075 149.078 108.018C149.204 107.958 149.341 107.928 149.49 107.928ZM153.212 109.097C153.212 109.183 153.206 109.26 153.195 109.329H151.46C151.475 109.5 151.535 109.634 151.64 109.731C151.746 109.828 151.876 109.877 152.03 109.877C152.253 109.877 152.411 109.781 152.505 109.59H153.152C153.083 109.818 152.952 110.007 152.758 110.155C152.564 110.301 152.325 110.374 152.043 110.374C151.814 110.374 151.609 110.324 151.426 110.224C151.246 110.121 151.105 109.977 151.002 109.791C150.902 109.606 150.852 109.392 150.852 109.149C150.852 108.903 150.902 108.688 151.002 108.502C151.102 108.317 151.242 108.174 151.422 108.074C151.602 107.974 151.809 107.924 152.043 107.924C152.268 107.924 152.47 107.972 152.647 108.07C152.826 108.167 152.965 108.305 153.062 108.485C153.162 108.662 153.212 108.866 153.212 109.097ZM152.591 108.926C152.588 108.772 152.532 108.649 152.424 108.558C152.315 108.464 152.183 108.416 152.026 108.416C151.877 108.416 151.752 108.462 151.649 108.554C151.549 108.642 151.487 108.766 151.465 108.926H152.591ZM154.737 108.455H154.322V110.335H153.714V108.455H153.444V107.963H153.714V107.843C153.714 107.551 153.797 107.337 153.962 107.2C154.128 107.063 154.378 106.999 154.712 107.007V107.513C154.566 107.51 154.465 107.534 154.408 107.586C154.351 107.637 154.322 107.73 154.322 107.864V107.963H154.737V108.455ZM155.43 107.68C155.324 107.68 155.236 107.647 155.165 107.581C155.096 107.513 155.062 107.429 155.062 107.329C155.062 107.229 155.096 107.146 155.165 107.08C155.236 107.012 155.324 106.977 155.43 106.977C155.536 106.977 155.623 107.012 155.691 107.08C155.763 107.146 155.798 107.229 155.798 107.329C155.798 107.429 155.763 107.513 155.691 107.581C155.623 107.647 155.536 107.68 155.43 107.68ZM155.726 107.963V110.335H155.126V107.963H155.726ZM156.164 109.149C156.164 108.903 156.214 108.689 156.314 108.506C156.414 108.321 156.552 108.178 156.729 108.078C156.906 107.975 157.109 107.924 157.337 107.924C157.631 107.924 157.874 107.998 158.065 108.147C158.26 108.292 158.389 108.498 158.455 108.763H157.808C157.774 108.661 157.716 108.581 157.633 108.524C157.553 108.464 157.453 108.434 157.333 108.434C157.162 108.434 157.026 108.496 156.926 108.622C156.826 108.745 156.776 108.92 156.776 109.149C156.776 109.374 156.826 109.55 156.926 109.676C157.026 109.798 157.162 109.86 157.333 109.86C157.576 109.86 157.734 109.751 157.808 109.534H158.455C158.389 109.791 158.26 109.995 158.065 110.147C157.871 110.298 157.629 110.374 157.337 110.374C157.109 110.374 156.906 110.324 156.729 110.224C156.552 110.121 156.414 109.978 156.314 109.796C156.214 109.61 156.164 109.394 156.164 109.149ZM159.199 107.68C159.093 107.68 159.004 107.647 158.933 107.581C158.864 107.513 158.83 107.429 158.83 107.329C158.83 107.229 158.864 107.146 158.933 107.08C159.004 107.012 159.093 106.977 159.199 106.977C159.304 106.977 159.391 107.012 159.46 107.08C159.531 107.146 159.567 107.229 159.567 107.329C159.567 107.429 159.531 107.513 159.46 107.581C159.391 107.647 159.304 107.68 159.199 107.68ZM159.494 107.963V110.335H158.894V107.963H159.494ZM159.932 109.14C159.932 108.9 159.979 108.688 160.074 108.502C160.171 108.317 160.301 108.174 160.463 108.074C160.629 107.974 160.813 107.924 161.016 107.924C161.193 107.924 161.347 107.96 161.478 108.031C161.613 108.102 161.72 108.192 161.8 108.301V107.963H162.403V110.335H161.8V109.988C161.722 110.1 161.615 110.192 161.478 110.267C161.344 110.338 161.189 110.374 161.012 110.374C160.812 110.374 160.629 110.322 160.463 110.22C160.301 110.117 160.171 109.973 160.074 109.787C159.979 109.599 159.932 109.383 159.932 109.14ZM161.8 109.149C161.8 109.003 161.771 108.879 161.714 108.776C161.657 108.671 161.58 108.591 161.483 108.536C161.386 108.479 161.281 108.451 161.17 108.451C161.059 108.451 160.956 108.478 160.862 108.532C160.767 108.586 160.69 108.666 160.63 108.772C160.573 108.875 160.545 108.998 160.545 109.14C160.545 109.283 160.573 109.409 160.63 109.517C160.69 109.623 160.767 109.704 160.862 109.761C160.959 109.818 161.061 109.847 161.17 109.847C161.281 109.847 161.386 109.82 161.483 109.766C161.58 109.708 161.657 109.629 161.714 109.526C161.771 109.42 161.8 109.294 161.8 109.149ZM163.589 108.331C163.666 108.205 163.766 108.107 163.888 108.035C164.014 107.964 164.157 107.928 164.317 107.928V108.558H164.158C163.97 108.558 163.827 108.602 163.73 108.691C163.636 108.779 163.589 108.933 163.589 109.153V110.335H162.989V107.963H163.589V108.331ZM166.991 107.963L165.522 111.457H164.883L165.397 110.275L164.447 107.963H165.119L165.731 109.62L166.352 107.963H166.991Z" fill="black"/>
<rect x="25.3237" y="115.115" width="141.769" height="21.8425" rx="2.35557" stroke="#D9D9D9" stroke-width="0.428285"/>
<path d="M32.363 125.559C32.363 125.751 32.3167 125.931 32.2242 126.099C32.1351 126.267 31.9929 126.402 31.7976 126.505C31.6058 126.608 31.3625 126.659 31.0678 126.659H30.4665V128.037H29.747V124.449H31.0678C31.3454 124.449 31.5818 124.497 31.7771 124.593C31.9724 124.689 32.118 124.821 32.2139 124.989C32.3133 125.157 32.363 125.347 32.363 125.559ZM31.037 126.079C31.2357 126.079 31.3831 126.034 31.479 125.945C31.5749 125.852 31.6229 125.724 31.6229 125.559C31.6229 125.21 31.4276 125.035 31.037 125.035H30.4665V126.079H31.037ZM32.6888 126.603C32.6888 126.315 32.7453 126.06 32.8584 125.837C32.9749 125.614 33.1308 125.443 33.3261 125.323C33.5248 125.203 33.7458 125.143 33.9891 125.143C34.2015 125.143 34.3865 125.186 34.5441 125.272C34.7052 125.357 34.8337 125.465 34.9296 125.595V125.189H35.6543V128.037H34.9296V127.62C34.8371 127.754 34.7086 127.865 34.5441 127.954C34.3831 128.04 34.1964 128.083 33.9839 128.083C33.7441 128.083 33.5248 128.021 33.3261 127.898C33.1308 127.775 32.9749 127.601 32.8584 127.379C32.7453 127.153 32.6888 126.894 32.6888 126.603ZM34.9296 126.613C34.9296 126.438 34.8953 126.289 34.8268 126.166C34.7583 126.039 34.6658 125.943 34.5493 125.878C34.4328 125.81 34.3077 125.775 34.1741 125.775C34.0405 125.775 33.9171 125.808 33.8041 125.873C33.691 125.938 33.5985 126.034 33.5265 126.161C33.458 126.284 33.4238 126.431 33.4238 126.603C33.4238 126.774 33.458 126.925 33.5265 127.055C33.5985 127.182 33.691 127.279 33.8041 127.348C33.9206 127.416 34.0439 127.451 34.1741 127.451C34.3077 127.451 34.4328 127.418 34.5493 127.353C34.6658 127.285 34.7583 127.189 34.8268 127.065C34.8953 126.938 34.9296 126.788 34.9296 126.613ZM39.0809 125.189L37.3181 129.383H36.5523L37.169 127.965L36.0281 125.189H36.835L37.5699 127.178L38.3151 125.189H39.0809ZM43.4158 125.189L42.5832 128.037H41.8072L41.2881 126.048L40.769 128.037H39.9878L39.1501 125.189H39.8799L40.3836 127.358L40.9284 125.189H41.689L42.2235 127.353L42.7272 125.189H43.4158ZM43.6201 126.603C43.6201 126.315 43.6767 126.06 43.7897 125.837C43.9062 125.614 44.0621 125.443 44.2574 125.323C44.4561 125.203 44.6771 125.143 44.9204 125.143C45.1328 125.143 45.3178 125.186 45.4755 125.272C45.6365 125.357 45.765 125.465 45.8609 125.595V125.189H46.5856V128.037H45.8609V127.62C45.7684 127.754 45.6399 127.865 45.4755 127.954C45.3144 128.04 45.1277 128.083 44.9153 128.083C44.6754 128.083 44.4561 128.021 44.2574 127.898C44.0621 127.775 43.9062 127.601 43.7897 127.379C43.6767 127.153 43.6201 126.894 43.6201 126.603ZM45.8609 126.613C45.8609 126.438 45.8266 126.289 45.7581 126.166C45.6896 126.039 45.5971 125.943 45.4806 125.878C45.3641 125.81 45.239 125.775 45.1054 125.775C44.9718 125.775 44.8484 125.808 44.7354 125.873C44.6223 125.938 44.5298 126.034 44.4579 126.161C44.3893 126.284 44.3551 126.431 44.3551 126.603C44.3551 126.774 44.3893 126.925 44.4579 127.055C44.5298 127.182 44.6223 127.279 44.7354 127.348C44.8519 127.416 44.9752 127.451 45.1054 127.451C45.239 127.451 45.3641 127.418 45.4806 127.353C45.5971 127.285 45.6896 127.189 45.7581 127.065C45.8266 126.938 45.8609 126.788 45.8609 126.613ZM48.4755 127.374L49.195 125.189H49.9608L48.9072 128.037H48.0335L46.9851 125.189H47.756L48.4755 127.374ZM53.0117 126.551C53.0117 126.654 53.0049 126.747 52.9912 126.829H50.9097C50.9268 127.034 50.9988 127.195 51.1256 127.312C51.2523 127.428 51.4082 127.487 51.5933 127.487C51.8605 127.487 52.0507 127.372 52.1637 127.142H52.9398C52.8576 127.416 52.6999 127.643 52.467 127.821C52.234 127.996 51.9479 128.083 51.6087 128.083C51.3346 128.083 51.0879 128.023 50.8686 127.903C50.6527 127.78 50.4831 127.607 50.3598 127.384C50.2399 127.161 50.1799 126.904 50.1799 126.613C50.1799 126.318 50.2399 126.06 50.3598 125.837C50.4797 125.614 50.6476 125.443 50.8635 125.323C51.0793 125.203 51.3277 125.143 51.6087 125.143C51.8794 125.143 52.1209 125.201 52.3333 125.318C52.5492 125.434 52.7154 125.601 52.8319 125.816C52.9518 126.029 53.0117 126.274 53.0117 126.551ZM52.2665 126.346C52.2631 126.161 52.1963 126.013 52.0661 125.904C51.9359 125.791 51.7766 125.734 51.5881 125.734C51.41 125.734 51.2592 125.789 51.1358 125.899C51.0159 126.005 50.9423 126.154 50.9149 126.346H52.2665ZM55.4811 124.449V128.037H54.7615V124.449H55.4811ZM57.446 124.449C57.8229 124.449 58.1535 124.523 58.4379 124.67C58.7257 124.818 58.9467 125.028 59.1009 125.302C59.2585 125.573 59.3373 125.888 59.3373 126.248C59.3373 126.608 59.2585 126.923 59.1009 127.194C58.9467 127.461 58.7257 127.668 58.4379 127.816C58.1535 127.963 57.8229 128.037 57.446 128.037H56.192V124.449H57.446ZM57.4203 127.425C57.7972 127.425 58.0884 127.322 58.294 127.117C58.4996 126.911 58.6023 126.622 58.6023 126.248C58.6023 125.875 58.4996 125.583 58.294 125.374C58.0884 125.162 57.7972 125.056 57.4203 125.056H56.9115V127.425H57.4203Z" fill="#888787"/>
<path d="M92.3852 155.638C92.0442 155.638 91.7311 155.558 91.4459 155.398C91.1606 155.238 90.9345 155.017 90.7675 154.735C90.6005 154.45 90.517 154.128 90.517 153.769C90.517 153.415 90.6005 153.096 90.7675 152.815C90.9345 152.529 91.1606 152.307 91.4459 152.147C91.7311 151.987 92.0442 151.907 92.3852 151.907C92.7296 151.907 93.0427 151.987 93.3244 152.147C93.6097 152.307 93.8341 152.529 93.9976 152.815C94.1646 153.096 94.2481 153.415 94.2481 153.769C94.2481 154.128 94.1646 154.45 93.9976 154.735C93.8341 155.017 93.6097 155.238 93.3244 155.398C93.0392 155.558 92.7261 155.638 92.3852 155.638ZM92.3852 154.985C92.6043 154.985 92.7974 154.937 92.9644 154.839C93.1314 154.738 93.2618 154.596 93.3558 154.411C93.4497 154.227 93.4966 154.013 93.4966 153.769C93.4966 153.526 93.4497 153.314 93.3558 153.133C93.2618 152.948 93.1314 152.808 92.9644 152.71C92.7974 152.613 92.6043 152.564 92.3852 152.564C92.166 152.564 91.9712 152.613 91.8007 152.71C91.6337 152.808 91.5033 152.948 91.4093 153.133C91.3154 153.314 91.2685 153.526 91.2685 153.769C91.2685 154.013 91.3154 154.227 91.4093 154.411C91.5033 154.596 91.6337 154.738 91.8007 154.839C91.9712 154.937 92.166 154.985 92.3852 154.985ZM96.6702 155.601L95.8666 154.182H95.5222V155.601H94.7916V151.959H96.1588C96.4406 151.959 96.6806 152.009 96.8789 152.11C97.0772 152.207 97.225 152.341 97.3225 152.512C97.4233 152.679 97.4738 152.867 97.4738 153.075C97.4738 153.315 97.4042 153.533 97.2651 153.728C97.1259 153.919 96.9189 154.051 96.6441 154.124L97.5155 155.601H96.6702ZM95.5222 153.634H96.1327C96.331 153.634 96.4788 153.587 96.5762 153.493C96.6736 153.395 96.7224 153.262 96.7224 153.091C96.7224 152.924 96.6736 152.795 96.5762 152.705C96.4788 152.611 96.331 152.564 96.1327 152.564H95.5222V153.634Z" fill="black"/>
<rect x="25.5186" y="166.283" width="141.771" height="23.4847" rx="3.20247" stroke="#002C6E" stroke-width="0.426995"/>
<path d="M78.2196 180.073C77.8871 180.073 77.5865 180.017 77.3177 179.903C77.0536 179.789 76.8441 179.625 76.6892 179.411C76.5344 179.197 76.4546 178.944 76.4501 178.652H77.4749C77.4885 178.848 77.5569 179.003 77.6798 179.117C77.8074 179.231 77.9804 179.288 78.1991 179.288C78.4222 179.288 78.5976 179.235 78.7251 179.131C78.8527 179.021 78.9164 178.88 78.9164 178.707C78.9164 178.566 78.8731 178.45 78.7866 178.359C78.7001 178.268 78.5908 178.197 78.4587 178.147C78.3311 178.092 78.1535 178.033 77.9258 177.969C77.6161 177.878 77.3633 177.789 77.1674 177.703C76.9761 177.612 76.8099 177.477 76.6687 177.3C76.5321 177.118 76.4638 176.876 76.4638 176.576C76.4638 176.293 76.5344 176.047 76.6755 175.838C76.8167 175.628 77.0149 175.469 77.2699 175.359C77.525 175.246 77.8165 175.189 78.1444 175.189C78.6363 175.189 79.0348 175.309 79.34 175.551C79.6497 175.788 79.8205 176.12 79.8524 176.548H78.8003C78.7912 176.384 78.7206 176.25 78.5885 176.145C78.461 176.036 78.2902 175.981 78.0761 175.981C77.8893 175.981 77.739 176.029 77.6252 176.125C77.5159 176.22 77.4612 176.359 77.4612 176.541C77.4612 176.669 77.5022 176.776 77.5842 176.862C77.6707 176.944 77.7755 177.013 77.8985 177.067C78.026 177.118 78.2036 177.177 78.4313 177.245C78.7411 177.336 78.9938 177.427 79.1897 177.518C79.3855 177.609 79.5541 177.746 79.6953 177.928C79.8364 178.11 79.907 178.35 79.907 178.646C79.907 178.901 79.841 179.137 79.7089 179.356C79.5768 179.575 79.3833 179.75 79.1282 179.882C78.8731 180.01 78.5703 180.073 78.2196 180.073ZM80.4903 178.133C80.4903 177.741 80.57 177.4 80.7294 177.108C80.8889 176.812 81.1097 176.585 81.3921 176.425C81.6745 176.261 81.9979 176.179 82.3623 176.179C82.8314 176.179 83.2185 176.298 83.5237 176.535C83.8334 176.767 84.0406 177.095 84.1454 177.518H83.1138C83.0591 177.354 82.9658 177.227 82.8337 177.136C82.7061 177.04 82.5467 176.992 82.3554 176.992C82.0822 176.992 81.8658 177.092 81.7064 177.293C81.547 177.489 81.4673 177.769 81.4673 178.133C81.4673 178.493 81.547 178.773 81.7064 178.974C81.8658 179.169 82.0822 179.267 82.3554 179.267C82.7426 179.267 82.9954 179.094 83.1138 178.748H84.1454C84.0406 179.158 83.8334 179.484 83.5237 179.725C83.214 179.966 82.8268 180.087 82.3623 180.087C81.9979 180.087 81.6745 180.007 81.3921 179.848C81.1097 179.684 80.8889 179.456 80.7294 179.165C80.57 178.869 80.4903 178.525 80.4903 178.133ZM84.6002 178.12C84.6002 177.737 84.6753 177.398 84.8256 177.102C84.9805 176.806 85.1877 176.578 85.4473 176.418C85.7115 176.259 86.0053 176.179 86.3286 176.179C86.611 176.179 86.857 176.236 87.0665 176.35C87.2805 176.464 87.4513 176.607 87.5789 176.78V176.241H88.5422V180.026H87.5789V179.472C87.4559 179.65 87.2851 179.798 87.0665 179.916C86.8524 180.03 86.6042 180.087 86.3218 180.087C86.003 180.087 85.7115 180.005 85.4473 179.841C85.1877 179.677 84.9805 179.447 84.8256 179.151C84.6753 178.851 84.6002 178.507 84.6002 178.12ZM87.5789 178.133C87.5789 177.901 87.5333 177.703 87.4422 177.539C87.3511 177.37 87.2282 177.243 87.0733 177.156C86.9185 177.065 86.7522 177.02 86.5746 177.02C86.3969 177.02 86.233 177.063 86.0827 177.149C85.9324 177.236 85.8094 177.363 85.7138 177.532C85.6227 177.696 85.5771 177.892 85.5771 178.12C85.5771 178.347 85.6227 178.548 85.7138 178.721C85.8094 178.889 85.9324 179.019 86.0827 179.11C86.2375 179.201 86.4015 179.247 86.5746 179.247C86.7522 179.247 86.9185 179.204 87.0733 179.117C87.2282 179.026 87.3511 178.898 87.4422 178.734C87.5333 178.566 87.5789 178.365 87.5789 178.133ZM91.5737 176.186C92.0246 176.186 92.389 176.33 92.6668 176.617C92.9447 176.899 93.0836 177.295 93.0836 177.805V180.026H92.1271V177.935C92.1271 177.634 92.052 177.404 91.9017 177.245C91.7514 177.081 91.5464 176.999 91.2868 176.999C91.0226 176.999 90.8131 177.081 90.6583 177.245C90.508 177.404 90.4328 177.634 90.4328 177.935V180.026H89.4763V176.241H90.4328V176.712C90.5603 176.548 90.722 176.421 90.9179 176.33C91.1183 176.234 91.3369 176.186 91.5737 176.186ZM96.7347 177.026V178.857C96.7347 178.985 96.7643 179.078 96.8235 179.137C96.8872 179.192 96.992 179.219 97.1378 179.219H97.5818V180.026H96.9806C96.1745 180.026 95.7714 179.634 95.7714 178.851V177.026H95.3205V176.241H95.7714V175.305H96.7347V176.241H97.5818V177.026H96.7347ZM99.9504 180.087C99.5861 180.087 99.2581 180.007 98.9666 179.848C98.6751 179.684 98.4451 179.454 98.2766 179.158C98.1126 178.862 98.0307 178.52 98.0307 178.133C98.0307 177.746 98.1149 177.404 98.2834 177.108C98.4565 176.812 98.6911 176.585 98.9871 176.425C99.2832 176.261 99.6134 176.179 99.9778 176.179C100.342 176.179 100.672 176.261 100.968 176.425C101.264 176.585 101.497 176.812 101.665 177.108C101.838 177.404 101.925 177.746 101.925 178.133C101.925 178.52 101.836 178.862 101.658 179.158C101.485 179.454 101.248 179.684 100.948 179.848C100.652 180.007 100.319 180.087 99.9504 180.087ZM99.9504 179.254C100.124 179.254 100.285 179.213 100.435 179.131C100.59 179.044 100.713 178.917 100.804 178.748C100.896 178.58 100.941 178.375 100.941 178.133C100.941 177.773 100.845 177.498 100.654 177.307C100.467 177.111 100.237 177.013 99.9641 177.013C99.6908 177.013 99.4608 177.111 99.2741 177.307C99.0919 177.498 99.0008 177.773 99.0008 178.133C99.0008 178.493 99.0896 178.771 99.2672 178.967C99.4494 179.158 99.6771 179.254 99.9504 179.254ZM107.732 176.733C107.732 176.988 107.67 177.227 107.547 177.45C107.429 177.673 107.24 177.853 106.98 177.99C106.725 178.126 106.402 178.195 106.01 178.195H105.211V180.026H104.254V175.257H106.01C106.379 175.257 106.693 175.321 106.953 175.448C107.213 175.576 107.406 175.751 107.534 175.974C107.666 176.197 107.732 176.45 107.732 176.733ZM105.969 177.423C106.233 177.423 106.429 177.363 106.557 177.245C106.684 177.122 106.748 176.951 106.748 176.733C106.748 176.268 106.488 176.036 105.969 176.036H105.211V177.423H105.969ZM108.165 178.12C108.165 177.737 108.24 177.398 108.39 177.102C108.545 176.806 108.753 176.578 109.012 176.418C109.276 176.259 109.57 176.179 109.893 176.179C110.176 176.179 110.422 176.236 110.631 176.35C110.845 176.464 111.016 176.607 111.144 176.78V176.241H112.107V180.026H111.144V179.472C111.021 179.65 110.85 179.798 110.631 179.916C110.417 180.03 110.169 180.087 109.887 180.087C109.568 180.087 109.276 180.005 109.012 179.841C108.753 179.677 108.545 179.447 108.39 179.151C108.24 178.851 108.165 178.507 108.165 178.12ZM111.144 178.133C111.144 177.901 111.098 177.703 111.007 177.539C110.916 177.37 110.793 177.243 110.638 177.156C110.483 177.065 110.317 177.02 110.139 177.02C109.962 177.02 109.798 177.063 109.647 177.149C109.497 177.236 109.374 177.363 109.279 177.532C109.187 177.696 109.142 177.892 109.142 178.12C109.142 178.347 109.187 178.548 109.279 178.721C109.374 178.889 109.497 179.019 109.647 179.11C109.802 179.201 109.966 179.247 110.139 179.247C110.317 179.247 110.483 179.204 110.638 179.117C110.793 179.026 110.916 178.898 111.007 178.734C111.098 178.566 111.144 178.365 111.144 178.133ZM116.662 176.241L114.319 181.816H113.301L114.121 179.93L112.604 176.241H113.677L114.653 178.885L115.644 176.241H116.662Z" fill="#002C6E"/>
</g>
<defs>
<filter id="filter0_d_141_11506" x="0.580256" y="0.225382" width="191.249" height="216.036" filterUnits="userSpaceOnUse" color-interpolation-filters="sRGB">
<feFlood flood-opacity="0" result="BackgroundImageFix"/>
<feColorMatrix in="SourceAlpha" type="matrix" values="0 0 0 0 0 0 0 0 0 0 0 0 0 0 0 0 0 0 127 0" result="hardAlpha"/>
<feMorphology radius="1.04365" operator="dilate" in="SourceAlpha" result="effect1_dropShadow_141_11506"/>
<feOffset/>
<feGaussianBlur stdDeviation="6.52283"/>
<feComposite in2="hardAlpha" operator="out"/>
<feColorMatrix type="matrix" values="0 0 0 0 0 0 0 0 0 0.172549 0 0 0 0 0.431373 0 0 0 0.15 0"/>
<feBlend mode="normal" in2="BackgroundImageFix" result="effect1_dropShadow_141_11506"/>
<feBlend mode="normal" in="SourceGraphic" in2="effect1_dropShadow_141_11506" result="shape"/>
</filter>
</defs>
</svg>
