<svg width="49" height="47" viewBox="0 0 49 47" fill="none" xmlns="http://www.w3.org/2000/svg">
<g clip-path="url(#clip0_708_3714)">
<path d="M48.6949 15.2114L46.7973 20.9347L46.193 22.7576C45.7382 22.3808 45.2731 22.0142 44.7978 21.651H44.7944C43.8372 20.9144 42.8357 20.1913 41.7834 19.492C32.7639 13.4631 24.1754 11.4841 19.8133 10.5234C15.8721 9.65774 12.2025 9.20625 8.91992 9.00937L11.9004 0C15.6549 0.251203 19.9898 0.838475 24.6914 2.03678C28.9279 3.11628 41.5797 7.41049 48.6949 15.2114Z" fill="#327CEB"/>
<path d="M46.1933 22.7577L43.61 30.5619C40.7891 31.5192 37.3401 32.3713 33.365 32.7141C29.1421 33.0808 25.4691 32.7752 22.6006 32.3034L25.5268 23.4705C28.1576 23.8168 31.3418 23.9933 34.9197 23.6844C38.7251 23.3551 42.0451 22.5574 44.7947 21.651H44.7981C45.2734 22.0142 45.7384 22.3809 46.1933 22.7577Z" fill="white"/>
<path d="M40.2388 37.6803L37.2549 46.6897C33.5039 46.4385 29.1689 45.8512 24.4639 44.6529C20.2308 43.57 7.57563 39.2724 0.463867 31.4817L2.35807 25.755L2.96232 23.9354C3.4172 24.3055 3.88227 24.6721 4.35752 25.0387H4.3643C5.32159 25.7753 6.32301 26.4984 7.37195 27.1977C16.3915 33.2266 24.9833 35.1988 29.3454 36.1663C33.2832 37.0286 36.9528 37.4834 40.2388 37.6803Z" fill="#327CEB"/>
<path d="M26.5512 14.3864L23.6285 23.2193C20.9976 22.873 17.8168 22.6999 14.2389 23.0088C10.4301 23.3381 7.11355 24.1324 4.3639 25.0422H4.35711C3.88186 24.6722 3.4168 24.3056 2.96191 23.9322L5.54523 16.1279C8.36278 15.1672 11.8117 14.3185 15.7869 13.9723C20.0098 13.6057 23.6862 13.9146 26.5512 14.3864Z" fill="white"/>
</g>
<defs>
<clipPath id="clip0_708_3714">
<rect width="48.231" height="46.6898" fill="white" transform="translate(0.463867)"/>
</clipPath>
</defs>
</svg>
