<svg width="49" height="47" viewBox="0 0 49 47" fill="none" xmlns="http://www.w3.org/2000/svg">
<g clip-path="url(#clip0_118_9949)">
<path d="M48.6943 15.2114L46.7967 20.9347L46.1924 22.7576C45.7375 22.3808 45.2725 22.0142 44.7972 21.651H44.7938C43.8365 20.9144 42.8351 20.1913 41.7828 19.492C32.7632 13.4631 24.1748 11.4841 19.8127 10.5234C15.8715 9.65774 12.2019 9.20625 8.91931 9.00937L11.8998 0C15.6543 0.251203 19.9892 0.838475 24.6908 2.03678C28.9273 3.11628 41.5791 7.41049 48.6943 15.2114Z" fill="#327CEB"/>
<path d="M46.1922 22.7577L43.6089 30.5619C40.788 31.5192 37.339 32.3713 33.3639 32.7141C29.141 33.0808 25.468 32.7752 22.5995 32.3034L25.5257 23.4705C28.1565 23.8168 31.3407 23.9933 34.9186 23.6844C38.724 23.3551 42.044 22.5574 44.7936 21.651H44.797C45.2723 22.0142 45.7373 22.3809 46.1922 22.7577Z" fill="#002C6E"/>
<path d="M40.238 37.6803L37.2541 46.6897C33.503 46.4385 29.1681 45.8512 24.4631 44.6529C20.23 43.57 7.57478 39.2724 0.463013 31.4817L2.35722 25.755L2.96147 23.9354C3.41635 24.3055 3.88141 24.6721 4.35666 25.0387H4.36345C5.32074 25.7753 6.32216 26.4984 7.3711 27.1977C16.3906 33.2266 24.9825 35.1989 29.3446 36.1663C33.2824 37.0286 36.952 37.4834 40.238 37.6803Z" fill="#327CEB"/>
<path d="M26.5506 14.3864L23.6278 23.2193C20.997 22.873 17.8162 22.6999 14.2383 23.0088C10.4295 23.3381 7.11294 24.1324 4.36329 25.0422H4.3565C3.88125 24.6722 3.41619 24.3056 2.9613 23.9322L5.54462 16.1279C8.36217 15.1672 11.8111 14.3186 15.7862 13.9723C20.0092 13.6057 23.6856 13.9146 26.5506 14.3864Z" fill="#002C6E"/>
</g>
<defs>
<clipPath id="clip0_118_9949">
<rect width="48.231" height="46.6898" fill="white" transform="translate(0.463013)"/>
</clipPath>
</defs>
</svg>