<svg width="333" height="123" viewBox="0 0 333 123" fill="none" xmlns="http://www.w3.org/2000/svg">
<rect x="0.597656" y="1.16406" width="331" height="121" rx="5.5" fill="white"/>
<rect x="0.597656" y="1.16406" width="331" height="121" rx="5.5" stroke="#888787"/>
<rect width="20" height="20" transform="translate(10.0977 10.6641)" fill="#327CEB"/>
<g clip-path="url(#clip0_405_7691)">
<path d="M15.6777 60.7901C14.8017 60.7901 14.0097 60.6401 13.3017 60.3401C12.6057 60.0401 12.0537 59.6081 11.6457 59.0441C11.2377 58.4801 11.0277 57.8141 11.0157 57.0461H13.7157C13.7517 57.5621 13.9317 57.9701 14.2557 58.2701C14.5917 58.5701 15.0477 58.7201 15.6237 58.7201C16.2117 58.7201 16.6737 58.5821 17.0097 58.3061C17.3457 58.0181 17.5137 57.6461 17.5137 57.1901C17.5137 56.8181 17.3997 56.5121 17.1717 56.2721C16.9437 56.0321 16.6557 55.8461 16.3077 55.7141C15.9717 55.5701 15.5037 55.4141 14.9037 55.2461C14.0877 55.0061 13.4217 54.7721 12.9057 54.5441C12.4017 54.3041 11.9637 53.9501 11.5917 53.4821C11.2317 53.0021 11.0517 52.3661 11.0517 51.5741C11.0517 50.8301 11.2377 50.1821 11.6097 49.6301C11.9817 49.0781 12.5037 48.6581 13.1757 48.3701C13.8477 48.0701 14.6157 47.9201 15.4797 47.9201C16.7757 47.9201 17.8257 48.2381 18.6297 48.8741C19.4457 49.4981 19.8957 50.3741 19.9797 51.5021H17.2077C17.1837 51.0701 16.9977 50.7161 16.6497 50.4401C16.3137 50.1521 15.8637 50.0081 15.2997 50.0081C14.8077 50.0081 14.4117 50.1341 14.1117 50.3861C13.8237 50.6381 13.6797 51.0041 13.6797 51.4841C13.6797 51.8201 13.7877 52.1021 14.0037 52.3301C14.2317 52.5461 14.5077 52.7261 14.8317 52.8701C15.1677 53.0021 15.6357 53.1581 16.2357 53.3381C17.0517 53.5781 17.7177 53.8181 18.2337 54.0581C18.7497 54.2981 19.1937 54.6581 19.5657 55.1381C19.9377 55.6181 20.1237 56.2481 20.1237 57.0281C20.1237 57.7001 19.9497 58.3241 19.6017 58.9001C19.2537 59.4761 18.7437 59.9381 18.0717 60.2861C17.3997 60.6221 16.6017 60.7901 15.6777 60.7901ZM21.6604 55.6421C21.6604 54.6341 21.8584 53.7401 22.2544 52.9601C22.6624 52.1801 23.2084 51.5801 23.8924 51.1601C24.5884 50.7401 25.3624 50.5301 26.2144 50.5301C26.9584 50.5301 27.6064 50.6801 28.1584 50.9801C28.7224 51.2801 29.1724 51.6581 29.5084 52.1141V50.6921H32.0464V60.6641H29.5084V59.2061C29.1844 59.6741 28.7344 60.0641 28.1584 60.3761C27.5944 60.6761 26.9404 60.8261 26.1964 60.8261C25.3564 60.8261 24.5884 60.6101 23.8924 60.1781C23.2084 59.7461 22.6624 59.1401 22.2544 58.3601C21.8584 57.5681 21.6604 56.6621 21.6604 55.6421ZM29.5084 55.6781C29.5084 55.0661 29.3884 54.5441 29.1484 54.1121C28.9084 53.6681 28.5844 53.3321 28.1764 53.1041C27.7684 52.8641 27.3304 52.7441 26.8624 52.7441C26.3944 52.7441 25.9624 52.8581 25.5664 53.0861C25.1704 53.3141 24.8464 53.6501 24.5944 54.0941C24.3544 54.5261 24.2344 55.0421 24.2344 55.6421C24.2344 56.2421 24.3544 56.7701 24.5944 57.2261C24.8464 57.6701 25.1704 58.0121 25.5664 58.2521C25.9744 58.4921 26.4064 58.6121 26.8624 58.6121C27.3304 58.6121 27.7684 58.4981 28.1764 58.2701C28.5844 58.0301 28.9084 57.6941 29.1484 57.2621C29.3884 56.8181 29.5084 56.2901 29.5084 55.6781ZM38.6656 58.3421L41.1856 50.6921H43.8676L40.1776 60.6641H37.1176L33.4456 50.6921H36.1456L38.6656 58.3421ZM46.561 49.5041C46.117 49.5041 45.745 49.3661 45.445 49.0901C45.157 48.8021 45.013 48.4481 45.013 48.0281C45.013 47.6081 45.157 47.2601 45.445 46.9841C45.745 46.6961 46.117 46.5521 46.561 46.5521C47.005 46.5521 47.371 46.6961 47.659 46.9841C47.959 47.2601 48.109 47.6081 48.109 48.0281C48.109 48.4481 47.959 48.8021 47.659 49.0901C47.371 49.3661 47.005 49.5041 46.561 49.5041ZM47.803 50.6921V60.6641H45.283V50.6921H47.803ZM55.8188 50.5481C57.0068 50.5481 57.9668 50.9261 58.6988 51.6821C59.4308 52.4261 59.7968 53.4701 59.7968 54.8141V60.6641H57.2768V55.1561C57.2768 54.3641 57.0788 53.7581 56.6828 53.3381C56.2868 52.9061 55.7468 52.6901 55.0628 52.6901C54.3668 52.6901 53.8148 52.9061 53.4068 53.3381C53.0108 53.7581 52.8128 54.3641 52.8128 55.1561V60.6641H50.2928V50.6921H52.8128V51.9341C53.1488 51.5021 53.5748 51.1661 54.0908 50.9261C54.6188 50.6741 55.1948 50.5481 55.8188 50.5481ZM66.0992 50.5301C66.8432 50.5301 67.4972 50.6801 68.0612 50.9801C68.6252 51.2681 69.0692 51.6461 69.3932 52.1141V50.6921H71.9312V60.7361C71.9312 61.6601 71.7452 62.4821 71.3732 63.2021C71.0012 63.9341 70.4432 64.5101 69.6992 64.9301C68.9552 65.3621 68.0552 65.5781 66.9992 65.5781C65.5832 65.5781 64.4192 65.2481 63.5072 64.5881C62.6072 63.9281 62.0972 63.0281 61.9772 61.8881H64.4792C64.6112 62.3441 64.8932 62.7041 65.3252 62.9681C65.7692 63.2441 66.3032 63.3821 66.9272 63.3821C67.6592 63.3821 68.2532 63.1601 68.7092 62.7161C69.1652 62.2841 69.3932 61.6241 69.3932 60.7361V59.1881C69.0692 59.6561 68.6192 60.0461 68.0432 60.3581C67.4792 60.6701 66.8312 60.8261 66.0992 60.8261C65.2592 60.8261 64.4912 60.6101 63.7952 60.1781C63.0992 59.7461 62.5472 59.1401 62.1392 58.3601C61.7432 57.5681 61.5452 56.6621 61.5452 55.6421C61.5452 54.6341 61.7432 53.7401 62.1392 52.9601C62.5472 52.1801 63.0932 51.5801 63.7772 51.1601C64.4732 50.7401 65.2472 50.5301 66.0992 50.5301ZM69.3932 55.6781C69.3932 55.0661 69.2732 54.5441 69.0332 54.1121C68.7932 53.6681 68.4692 53.3321 68.0612 53.1041C67.6532 52.8641 67.2152 52.7441 66.7472 52.7441C66.2792 52.7441 65.8472 52.8581 65.4512 53.0861C65.0552 53.3141 64.7312 53.6501 64.4792 54.0941C64.2392 54.5261 64.1192 55.0421 64.1192 55.6421C64.1192 56.2421 64.2392 56.7701 64.4792 57.2261C64.7312 57.6701 65.0552 58.0121 65.4512 58.2521C65.8592 58.4921 66.2912 58.6121 66.7472 58.6121C67.2152 58.6121 67.6532 58.4981 68.0612 58.2701C68.4692 58.0301 68.7932 57.6941 69.0332 57.2621C69.2732 56.8181 69.3932 56.2901 69.3932 55.6781ZM83.2535 52.7621H81.5075V60.6641H78.9515V52.7621H77.8175V50.6921H78.9515V50.1881C78.9515 48.9641 79.2995 48.0641 79.9955 47.4881C80.6915 46.9121 81.7415 46.6421 83.1455 46.6781V48.8021C82.5335 48.7901 82.1075 48.8921 81.8675 49.1081C81.6275 49.3241 81.5075 49.7141 81.5075 50.2781V50.6921H83.2535V52.7621ZM89.3145 60.8261C88.3545 60.8261 87.4905 60.6161 86.7225 60.1961C85.9545 59.7641 85.3485 59.1581 84.9045 58.3781C84.4725 57.5981 84.2565 56.6981 84.2565 55.6781C84.2565 54.6581 84.4785 53.7581 84.9225 52.9781C85.3785 52.1981 85.9965 51.5981 86.7765 51.1781C87.5565 50.7461 88.4265 50.5301 89.3865 50.5301C90.3465 50.5301 91.2165 50.7461 91.9965 51.1781C92.7765 51.5981 93.3885 52.1981 93.8325 52.9781C94.2885 53.7581 94.5165 54.6581 94.5165 55.6781C94.5165 56.6981 94.2825 57.5981 93.8145 58.3781C93.3585 59.1581 92.7345 59.7641 91.9425 60.1961C91.1625 60.6161 90.2865 60.8261 89.3145 60.8261ZM89.3145 58.6301C89.7705 58.6301 90.1965 58.5221 90.5925 58.3061C91.0005 58.0781 91.3245 57.7421 91.5645 57.2981C91.8045 56.8541 91.9245 56.3141 91.9245 55.6781C91.9245 54.7301 91.6725 54.0041 91.1685 53.5001C90.6765 52.9841 90.0705 52.7261 89.3505 52.7261C88.6305 52.7261 88.0245 52.9841 87.5325 53.5001C87.0525 54.0041 86.8125 54.7301 86.8125 55.6781C86.8125 56.6261 87.0465 57.3581 87.5145 57.8741C87.9945 58.3781 88.5945 58.6301 89.3145 58.6301ZM98.885 52.2401C99.209 51.7121 99.629 51.2981 100.145 50.9981C100.673 50.6981 101.273 50.5481 101.945 50.5481V53.1941H101.279C100.487 53.1941 99.887 53.3801 99.479 53.7521C99.083 54.1241 98.885 54.7721 98.885 55.6961V60.6641H96.365V50.6921H98.885V52.2401ZM114.411 60.6641L111.639 55.7681H110.451V60.6641H107.931V48.1001H112.647C113.619 48.1001 114.447 48.2741 115.131 48.6221C115.815 48.9581 116.325 49.4201 116.661 50.0081C117.009 50.5841 117.183 51.2321 117.183 51.9521C117.183 52.7801 116.943 53.5301 116.463 54.2021C115.983 54.8621 115.269 55.3181 114.321 55.5701L117.327 60.6641H114.411ZM110.451 53.8781H112.557C113.241 53.8781 113.751 53.7161 114.087 53.3921C114.423 53.0561 114.591 52.5941 114.591 52.0061C114.591 51.4301 114.423 50.9861 114.087 50.6741C113.751 50.3501 113.241 50.1881 112.557 50.1881H110.451V53.8781ZM128.733 55.4621C128.733 55.8221 128.709 56.1461 128.661 56.4341H121.371C121.431 57.1541 121.683 57.7181 122.127 58.1261C122.571 58.5341 123.117 58.7381 123.765 58.7381C124.701 58.7381 125.367 58.3361 125.763 57.5321H128.481C128.193 58.4921 127.641 59.2841 126.825 59.9081C126.009 60.5201 125.007 60.8261 123.819 60.8261C122.859 60.8261 121.995 60.6161 121.227 60.1961C120.471 59.7641 119.877 59.1581 119.445 58.3781C119.025 57.5981 118.815 56.6981 118.815 55.6781C118.815 54.6461 119.025 53.7401 119.445 52.9601C119.865 52.1801 120.453 51.5801 121.209 51.1601C121.965 50.7401 122.835 50.5301 123.819 50.5301C124.767 50.5301 125.613 50.7341 126.357 51.1421C127.113 51.5501 127.695 52.1321 128.103 52.8881C128.523 53.6321 128.733 54.4901 128.733 55.4621ZM126.123 54.7421C126.111 54.0941 125.877 53.5781 125.421 53.1941C124.965 52.7981 124.407 52.6001 123.747 52.6001C123.123 52.6001 122.595 52.7921 122.163 53.1761C121.743 53.5481 121.485 54.0701 121.389 54.7421H126.123ZM136.098 50.5481C137.286 50.5481 138.246 50.9261 138.978 51.6821C139.71 52.4261 140.076 53.4701 140.076 54.8141V60.6641H137.556V55.1561C137.556 54.3641 137.358 53.7581 136.962 53.3381C136.566 52.9061 136.026 52.6901 135.342 52.6901C134.646 52.6901 134.094 52.9061 133.686 53.3381C133.29 53.7581 133.092 54.3641 133.092 55.1561V60.6641H130.572V50.6921H133.092V51.9341C133.428 51.5021 133.854 51.1661 134.37 50.9261C134.898 50.6741 135.474 50.5481 136.098 50.5481ZM145.406 52.7621V57.5861C145.406 57.9221 145.484 58.1681 145.64 58.3241C145.808 58.4681 146.084 58.5401 146.468 58.5401H147.638V60.6641H146.054C143.93 60.6641 142.868 59.6321 142.868 57.5681V52.7621H141.68V50.6921H142.868V48.2261H145.406V50.6921H147.638V52.7621H145.406Z" fill="black"/>
<path d="M14.8077 77.6941V78.4341H11.7777V80.7841H14.2377V81.5241H11.7777V84.6641H10.8677V77.6941H14.8077ZM16.3767 78.2941C16.2034 78.2941 16.0567 78.2341 15.9367 78.1141C15.8167 77.9941 15.7567 77.8474 15.7567 77.6741C15.7567 77.5007 15.8167 77.3541 15.9367 77.2341C16.0567 77.1141 16.2034 77.0541 16.3767 77.0541C16.5434 77.0541 16.6834 77.1141 16.7967 77.2341C16.9167 77.3541 16.9767 77.5007 16.9767 77.6741C16.9767 77.8474 16.9167 77.9941 16.7967 78.1141C16.6834 78.2341 16.5434 78.2941 16.3767 78.2941ZM16.8167 79.1841V84.6641H15.9067V79.1841H16.8167ZM21.2277 84.6641L19.9277 82.6241L18.6777 84.6641H17.7277L19.4977 81.9441L17.7277 79.1841H18.7577L20.0577 81.2141L21.2977 79.1841H22.2477L20.4877 81.8941L22.2577 84.6641H21.2277ZM28.1528 81.7141C28.1528 81.8874 28.1428 82.0707 28.1228 82.2641H23.7428C23.7761 82.8041 23.9595 83.2274 24.2928 83.5341C24.6328 83.8341 25.0428 83.9841 25.5228 83.9841C25.9161 83.9841 26.2428 83.8941 26.5028 83.7141C26.7695 83.5274 26.9561 83.2807 27.0628 82.9741H28.0428C27.8961 83.5007 27.6028 83.9307 27.1628 84.2641C26.7228 84.5907 26.1761 84.7541 25.5228 84.7541C25.0028 84.7541 24.5361 84.6374 24.1228 84.4041C23.7161 84.1707 23.3961 83.8407 23.1628 83.4141C22.9295 82.9807 22.8128 82.4807 22.8128 81.9141C22.8128 81.3474 22.9261 80.8507 23.1528 80.4241C23.3795 79.9974 23.6961 79.6707 24.1028 79.4441C24.5161 79.2107 24.9895 79.0941 25.5228 79.0941C26.0428 79.0941 26.5028 79.2074 26.9028 79.4341C27.3028 79.6607 27.6095 79.9741 27.8228 80.3741C28.0428 80.7674 28.1528 81.2141 28.1528 81.7141ZM27.2128 81.5241C27.2128 81.1774 27.1361 80.8807 26.9828 80.6341C26.8295 80.3807 26.6195 80.1907 26.3528 80.0641C26.0928 79.9307 25.8028 79.8641 25.4828 79.8641C25.0228 79.8641 24.6295 80.0107 24.3028 80.3041C23.9828 80.5974 23.7995 81.0041 23.7528 81.5241H27.2128ZM29.014 81.9041C29.014 81.3441 29.1273 80.8541 29.354 80.4341C29.5807 80.0074 29.8907 79.6774 30.284 79.4441C30.684 79.2107 31.1307 79.0941 31.624 79.0941C32.0507 79.0941 32.4473 79.1941 32.814 79.3941C33.1807 79.5874 33.4607 79.8441 33.654 80.1641V77.2641H34.574V84.6641H33.654V83.6341C33.474 83.9607 33.2073 84.2307 32.854 84.4441C32.5007 84.6507 32.0873 84.7541 31.614 84.7541C31.1273 84.7541 30.684 84.6341 30.284 84.3941C29.8907 84.1541 29.5807 83.8174 29.354 83.3841C29.1273 82.9507 29.014 82.4574 29.014 81.9041ZM33.654 81.9141C33.654 81.5007 33.5707 81.1407 33.404 80.8341C33.2373 80.5274 33.0107 80.2941 32.724 80.1341C32.444 79.9674 32.134 79.8841 31.794 79.8841C31.454 79.8841 31.144 79.9641 30.864 80.1241C30.584 80.2841 30.3607 80.5174 30.194 80.8241C30.0273 81.1307 29.944 81.4907 29.944 81.9041C29.944 82.3241 30.0273 82.6907 30.194 83.0041C30.3607 83.3107 30.584 83.5474 30.864 83.7141C31.144 83.8741 31.454 83.9541 31.794 83.9541C32.134 83.9541 32.444 83.8741 32.724 83.7141C33.0107 83.5474 33.2373 83.3107 33.404 83.0041C33.5707 82.6907 33.654 82.3274 33.654 81.9141ZM40.9478 77.6941C41.7078 77.6941 42.3645 77.8374 42.9178 78.1241C43.4778 78.4041 43.9045 78.8074 44.1978 79.3341C44.4978 79.8607 44.6478 80.4807 44.6478 81.1941C44.6478 81.9074 44.4978 82.5274 44.1978 83.0541C43.9045 83.5741 43.4778 83.9741 42.9178 84.2541C42.3645 84.5274 41.7078 84.6641 40.9478 84.6641H38.7778V77.6941H40.9478ZM40.9478 83.9141C41.8478 83.9141 42.5345 83.6774 43.0078 83.2041C43.4811 82.7241 43.7178 82.0541 43.7178 81.1941C43.7178 80.3274 43.4778 79.6507 42.9978 79.1641C42.5245 78.6774 41.8411 78.4341 40.9478 78.4341H39.6878V83.9141H40.9478ZM50.8481 81.7141C50.8481 81.8874 50.8381 82.0707 50.8181 82.2641H46.4381C46.4715 82.8041 46.6548 83.2274 46.9881 83.5341C47.3281 83.8341 47.7381 83.9841 48.2181 83.9841C48.6115 83.9841 48.9381 83.8941 49.1981 83.7141C49.4648 83.5274 49.6515 83.2807 49.7581 82.9741H50.7381C50.5915 83.5007 50.2981 83.9307 49.8581 84.2641C49.4181 84.5907 48.8715 84.7541 48.2181 84.7541C47.6981 84.7541 47.2315 84.6374 46.8181 84.4041C46.4115 84.1707 46.0915 83.8407 45.8581 83.4141C45.6248 82.9807 45.5081 82.4807 45.5081 81.9141C45.5081 81.3474 45.6215 80.8507 45.8481 80.4241C46.0748 79.9974 46.3915 79.6707 46.7981 79.4441C47.2115 79.2107 47.6848 79.0941 48.2181 79.0941C48.7381 79.0941 49.1981 79.2074 49.5981 79.4341C49.9981 79.6607 50.3048 79.9741 50.5181 80.3741C50.7381 80.7674 50.8481 81.2141 50.8481 81.7141ZM49.9081 81.5241C49.9081 81.1774 49.8315 80.8807 49.6781 80.6341C49.5248 80.3807 49.3148 80.1907 49.0481 80.0641C48.7881 79.9307 48.4981 79.8641 48.1781 79.8641C47.7181 79.8641 47.3248 80.0107 46.9981 80.3041C46.6781 80.5974 46.4948 81.0041 46.4481 81.5241H49.9081ZM52.9593 80.1941C53.1393 79.8807 53.406 79.6207 53.7593 79.4141C54.1193 79.2007 54.536 79.0941 55.0093 79.0941C55.496 79.0941 55.936 79.2107 56.3293 79.4441C56.7293 79.6774 57.0426 80.0074 57.2693 80.4341C57.496 80.8541 57.6093 81.3441 57.6093 81.9041C57.6093 82.4574 57.496 82.9507 57.2693 83.3841C57.0426 83.8174 56.7293 84.1541 56.3293 84.3941C55.936 84.6341 55.496 84.7541 55.0093 84.7541C54.5426 84.7541 54.1293 84.6507 53.7693 84.4441C53.416 84.2307 53.146 83.9674 52.9593 83.6541V87.2641H52.0493V79.1841H52.9593V80.1941ZM56.6793 81.9041C56.6793 81.4907 56.596 81.1307 56.4293 80.8241C56.2626 80.5174 56.036 80.2841 55.7493 80.1241C55.4693 79.9641 55.1593 79.8841 54.8193 79.8841C54.486 79.8841 54.176 79.9674 53.8893 80.1341C53.6093 80.2941 53.3826 80.5307 53.2093 80.8441C53.0426 81.1507 52.9593 81.5074 52.9593 81.9141C52.9593 82.3274 53.0426 82.6907 53.2093 83.0041C53.3826 83.3107 53.6093 83.5474 53.8893 83.7141C54.176 83.8741 54.486 83.9541 54.8193 83.9541C55.1593 83.9541 55.4693 83.8741 55.7493 83.7141C56.036 83.5474 56.2626 83.3107 56.4293 83.0041C56.596 82.6907 56.6793 82.3241 56.6793 81.9041ZM61.1971 84.7541C60.6838 84.7541 60.2171 84.6374 59.7971 84.4041C59.3838 84.1707 59.0571 83.8407 58.8171 83.4141C58.5838 82.9807 58.4671 82.4807 58.4671 81.9141C58.4671 81.3541 58.5871 80.8607 58.8271 80.4341C59.0738 80.0007 59.4071 79.6707 59.8271 79.4441C60.2471 79.2107 60.7171 79.0941 61.2371 79.0941C61.7571 79.0941 62.2271 79.2107 62.6471 79.4441C63.0671 79.6707 63.3971 79.9974 63.6371 80.4241C63.8838 80.8507 64.0071 81.3474 64.0071 81.9141C64.0071 82.4807 63.8804 82.9807 63.6271 83.4141C63.3804 83.8407 63.0438 84.1707 62.6171 84.4041C62.1904 84.6374 61.7171 84.7541 61.1971 84.7541ZM61.1971 83.9541C61.5238 83.9541 61.8304 83.8774 62.1171 83.7241C62.4038 83.5707 62.6338 83.3407 62.8071 83.0341C62.9871 82.7274 63.0771 82.3541 63.0771 81.9141C63.0771 81.4741 62.9904 81.1007 62.8171 80.7941C62.6438 80.4874 62.4171 80.2607 62.1371 80.1141C61.8571 79.9607 61.5538 79.8841 61.2271 79.8841C60.8938 79.8841 60.5871 79.9607 60.3071 80.1141C60.0338 80.2607 59.8138 80.4874 59.6471 80.7941C59.4804 81.1007 59.3971 81.4741 59.3971 81.9141C59.3971 82.3607 59.4771 82.7374 59.6371 83.0441C59.8038 83.3507 60.0238 83.5807 60.2971 83.7341C60.5704 83.8807 60.8704 83.9541 61.1971 83.9541ZM67.1436 84.7541C66.7236 84.7541 66.3469 84.6841 66.0136 84.5441C65.6803 84.3974 65.4169 84.1974 65.2236 83.9441C65.0303 83.6841 64.9236 83.3874 64.9036 83.0541H65.8436C65.8703 83.3274 65.9969 83.5507 66.2236 83.7241C66.4569 83.8974 66.7603 83.9841 67.1336 83.9841C67.4803 83.9841 67.7536 83.9074 67.9536 83.7541C68.1536 83.6007 68.2536 83.4074 68.2536 83.1741C68.2536 82.9341 68.1469 82.7574 67.9336 82.6441C67.7203 82.5241 67.3903 82.4074 66.9436 82.2941C66.5369 82.1874 66.2036 82.0807 65.9436 81.9741C65.6903 81.8607 65.4703 81.6974 65.2836 81.4841C65.1036 81.2641 65.0136 80.9774 65.0136 80.6241C65.0136 80.3441 65.0969 80.0874 65.2636 79.8541C65.4303 79.6207 65.6669 79.4374 65.9736 79.3041C66.2803 79.1641 66.6303 79.0941 67.0236 79.0941C67.6303 79.0941 68.1203 79.2474 68.4936 79.5541C68.8669 79.8607 69.0669 80.2807 69.0936 80.8141H68.1836C68.1636 80.5274 68.0469 80.2974 67.8336 80.1241C67.6269 79.9507 67.3469 79.8641 66.9936 79.8641C66.6669 79.8641 66.4069 79.9341 66.2136 80.0741C66.0203 80.2141 65.9236 80.3974 65.9236 80.6241C65.9236 80.8041 65.9803 80.9541 66.0936 81.0741C66.2136 81.1874 66.3603 81.2807 66.5336 81.3541C66.7136 81.4207 66.9603 81.4974 67.2736 81.5841C67.6669 81.6907 67.9869 81.7974 68.2336 81.9041C68.4803 82.0041 68.6903 82.1574 68.8636 82.3641C69.0436 82.5707 69.1369 82.8407 69.1436 83.1741C69.1436 83.4741 69.0603 83.7441 68.8936 83.9841C68.7269 84.2241 68.4903 84.4141 68.1836 84.5541C67.8836 84.6874 67.5369 84.7541 67.1436 84.7541ZM70.8982 78.2941C70.7249 78.2941 70.5782 78.2341 70.4582 78.1141C70.3382 77.9941 70.2782 77.8474 70.2782 77.6741C70.2782 77.5007 70.3382 77.3541 70.4582 77.2341C70.5782 77.1141 70.7249 77.0541 70.8982 77.0541C71.0649 77.0541 71.2049 77.1141 71.3182 77.2341C71.4382 77.3541 71.4982 77.5007 71.4982 77.6741C71.4982 77.8474 71.4382 77.9941 71.3182 78.1141C71.2049 78.2341 71.0649 78.2941 70.8982 78.2941ZM71.3382 79.1841V84.6641H70.4282V79.1841H71.3382ZM73.9991 79.9341V83.1641C73.9991 83.4307 74.0558 83.6207 74.1691 83.7341C74.2825 83.8407 74.4791 83.8941 74.7591 83.8941H75.4291V84.6641H74.6091C74.1025 84.6641 73.7225 84.5474 73.4691 84.3141C73.2158 84.0807 73.0891 83.6974 73.0891 83.1641V79.9341H72.3791V79.1841H73.0891V77.8041H73.9991V79.1841H75.4291V79.9341H73.9991Z" fill="black"/>
<path d="M241.648 62.2941C241.681 61.6274 241.914 61.1141 242.348 60.7541C242.788 60.3874 243.364 60.2041 244.078 60.2041C244.564 60.2041 244.981 60.2907 245.328 60.4641C245.674 60.6307 245.934 60.8607 246.108 61.1541C246.288 61.4407 246.378 61.7674 246.378 62.1341C246.378 62.5541 246.268 62.9107 246.048 63.2041C245.834 63.4907 245.578 63.6841 245.278 63.7841V63.8241C245.664 63.9441 245.964 64.1574 246.178 64.4641C246.398 64.7707 246.508 65.1641 246.508 65.6441C246.508 66.0441 246.414 66.4007 246.228 66.7141C246.048 67.0274 245.778 67.2741 245.418 67.4541C245.064 67.6274 244.638 67.7141 244.138 67.7141C243.384 67.7141 242.771 67.5241 242.298 67.1441C241.824 66.7641 241.574 66.2041 241.548 65.4641H242.908C242.921 65.7907 243.031 66.0541 243.238 66.2541C243.451 66.4474 243.741 66.5441 244.108 66.5441C244.448 66.5441 244.708 66.4507 244.888 66.2641C245.074 66.0707 245.168 65.8241 245.168 65.5241C245.168 65.1241 245.041 64.8374 244.788 64.6641C244.534 64.4907 244.141 64.4041 243.608 64.4041H243.318V63.2541H243.608C244.554 63.2541 245.028 62.9374 245.028 62.3041C245.028 62.0174 244.941 61.7941 244.768 61.6341C244.601 61.4741 244.358 61.3941 244.038 61.3941C243.724 61.3941 243.481 61.4807 243.308 61.6541C243.141 61.8207 243.044 62.0341 243.018 62.2941H241.648ZM248.834 63.8041C248.167 63.4574 247.834 62.9207 247.834 62.1941C247.834 61.8341 247.924 61.5074 248.104 61.2141C248.291 60.9141 248.567 60.6774 248.934 60.5041C249.307 60.3241 249.761 60.2341 250.294 60.2341C250.827 60.2341 251.277 60.3241 251.644 60.5041C252.017 60.6774 252.294 60.9141 252.474 61.2141C252.661 61.5074 252.754 61.8341 252.754 62.1941C252.754 62.5607 252.664 62.8841 252.484 63.1641C252.304 63.4374 252.064 63.6507 251.764 63.8041C252.131 63.9641 252.417 64.1974 252.624 64.5041C252.831 64.8107 252.934 65.1741 252.934 65.5941C252.934 66.0474 252.817 66.4441 252.584 66.7841C252.357 67.1174 252.044 67.3741 251.644 67.5541C251.244 67.7341 250.794 67.8241 250.294 67.8241C249.794 67.8241 249.344 67.7341 248.944 67.5541C248.551 67.3741 248.237 67.1174 248.004 66.7841C247.777 66.4441 247.664 66.0474 247.664 65.5941C247.664 65.1741 247.767 64.8107 247.974 64.5041C248.181 64.1907 248.467 63.9574 248.834 63.8041ZM251.394 62.3941C251.394 62.0674 251.294 61.8141 251.094 61.6341C250.901 61.4541 250.634 61.3641 250.294 61.3641C249.961 61.3641 249.694 61.4541 249.494 61.6341C249.301 61.8141 249.204 62.0707 249.204 62.4041C249.204 62.7041 249.304 62.9441 249.504 63.1241C249.711 63.3041 249.974 63.3941 250.294 63.3941C250.614 63.3941 250.877 63.3041 251.084 63.1241C251.291 62.9374 251.394 62.6941 251.394 62.3941ZM250.294 64.4141C249.914 64.4141 249.604 64.5107 249.364 64.7041C249.131 64.8974 249.014 65.1741 249.014 65.5341C249.014 65.8674 249.127 66.1407 249.354 66.3541C249.587 66.5607 249.901 66.6641 250.294 66.6641C250.687 66.6641 250.997 66.5574 251.224 66.3441C251.451 66.1307 251.564 65.8607 251.564 65.5341C251.564 65.1807 251.447 64.9074 251.214 64.7141C250.981 64.5141 250.674 64.4141 250.294 64.4141ZM253.88 62.1641C253.88 61.6574 254.026 61.2607 254.32 60.9741C254.62 60.6874 255.003 60.5441 255.47 60.5441C255.936 60.5441 256.316 60.6874 256.61 60.9741C256.91 61.2607 257.06 61.6574 257.06 62.1641C257.06 62.6774 256.91 63.0774 256.61 63.3641C256.316 63.6507 255.936 63.7941 255.47 63.7941C255.003 63.7941 254.62 63.6507 254.32 63.3641C254.026 63.0774 253.88 62.6774 253.88 62.1641ZM260.3 60.6641L256.37 67.6641H255.01L258.93 60.6641H260.3ZM255.46 61.3841C255.093 61.3841 254.91 61.6441 254.91 62.1641C254.91 62.6907 255.093 62.9541 255.46 62.9541C255.64 62.9541 255.78 62.8907 255.88 62.7641C255.98 62.6307 256.03 62.4307 256.03 62.1641C256.03 61.6441 255.84 61.3841 255.46 61.3841ZM258.27 66.1541C258.27 65.6407 258.416 65.2441 258.71 64.9641C259.01 64.6774 259.393 64.5341 259.86 64.5341C260.326 64.5341 260.703 64.6774 260.99 64.9641C261.283 65.2441 261.43 65.6407 261.43 66.1541C261.43 66.6674 261.283 67.0674 260.99 67.3541C260.703 67.6407 260.326 67.7841 259.86 67.7841C259.386 67.7841 259.003 67.6407 258.71 67.3541C258.416 67.0674 258.27 66.6674 258.27 66.1541ZM259.85 65.3741C259.47 65.3741 259.28 65.6341 259.28 66.1541C259.28 66.6807 259.47 66.9441 259.85 66.9441C260.223 66.9441 260.41 66.6807 260.41 66.1541C260.41 65.6341 260.223 65.3741 259.85 65.3741ZM264.534 64.1641C264.534 63.4774 264.687 62.8641 264.994 62.3241C265.307 61.7774 265.73 61.3541 266.264 61.0541C266.804 60.7474 267.407 60.5941 268.074 60.5941C268.854 60.5941 269.537 60.7941 270.124 61.1941C270.71 61.5941 271.12 62.1474 271.354 62.8541H269.744C269.584 62.5207 269.357 62.2707 269.064 62.1041C268.777 61.9374 268.444 61.8541 268.064 61.8541C267.657 61.8541 267.294 61.9507 266.974 62.1441C266.66 62.3307 266.414 62.5974 266.234 62.9441C266.06 63.2907 265.974 63.6974 265.974 64.1641C265.974 64.6241 266.06 65.0307 266.234 65.3841C266.414 65.7307 266.66 66.0007 266.974 66.1941C267.294 66.3807 267.657 66.4741 268.064 66.4741C268.444 66.4741 268.777 66.3907 269.064 66.2241C269.357 66.0507 269.584 65.7974 269.744 65.4641H271.354C271.12 66.1774 270.71 66.7341 270.124 67.1341C269.544 67.5274 268.86 67.7241 268.074 67.7241C267.407 67.7241 266.804 67.5741 266.264 67.2741C265.73 66.9674 265.307 66.5441 264.994 66.0041C264.687 65.4641 264.534 64.8507 264.534 64.1641ZM275.009 67.7541C274.476 67.7541 273.996 67.6374 273.569 67.4041C273.143 67.1641 272.806 66.8274 272.559 66.3941C272.319 65.9607 272.199 65.4607 272.199 64.8941C272.199 64.3274 272.323 63.8274 272.569 63.3941C272.823 62.9607 273.166 62.6274 273.599 62.3941C274.033 62.1541 274.516 62.0341 275.049 62.0341C275.583 62.0341 276.066 62.1541 276.499 62.3941C276.933 62.6274 277.273 62.9607 277.519 63.3941C277.773 63.8274 277.899 64.3274 277.899 64.8941C277.899 65.4607 277.769 65.9607 277.509 66.3941C277.256 66.8274 276.909 67.1641 276.469 67.4041C276.036 67.6374 275.549 67.7541 275.009 67.7541ZM275.009 66.5341C275.263 66.5341 275.499 66.4741 275.719 66.3541C275.946 66.2274 276.126 66.0407 276.259 65.7941C276.393 65.5474 276.459 65.2474 276.459 64.8941C276.459 64.3674 276.319 63.9641 276.039 63.6841C275.766 63.3974 275.429 63.2541 275.029 63.2541C274.629 63.2541 274.293 63.3974 274.019 63.6841C273.753 63.9641 273.619 64.3674 273.619 64.8941C273.619 65.4207 273.749 65.8274 274.009 66.1141C274.276 66.3941 274.609 66.5341 275.009 66.5341ZM285.806 62.0441C286.486 62.0441 287.033 62.2541 287.446 62.6741C287.866 63.0874 288.076 63.6674 288.076 64.4141V67.6641H286.676V64.6041C286.676 64.1707 286.566 63.8407 286.346 63.6141C286.126 63.3807 285.826 63.2641 285.446 63.2641C285.066 63.2641 284.763 63.3807 284.536 63.6141C284.316 63.8407 284.206 64.1707 284.206 64.6041V67.6641H282.806V64.6041C282.806 64.1707 282.696 63.8407 282.476 63.6141C282.256 63.3807 281.956 63.2641 281.576 63.2641C281.19 63.2641 280.883 63.3807 280.656 63.6141C280.436 63.8407 280.326 64.1707 280.326 64.6041V67.6641H278.926V62.1241H280.326V62.7941C280.506 62.5607 280.736 62.3774 281.016 62.2441C281.303 62.1107 281.616 62.0441 281.956 62.0441C282.39 62.0441 282.776 62.1374 283.116 62.3241C283.456 62.5041 283.72 62.7641 283.906 63.1041C284.086 62.7841 284.346 62.5274 284.686 62.3341C285.033 62.1407 285.406 62.0441 285.806 62.0441ZM290.805 62.9241C290.985 62.6707 291.232 62.4607 291.545 62.2941C291.865 62.1207 292.228 62.0341 292.635 62.0341C293.108 62.0341 293.535 62.1507 293.915 62.3841C294.302 62.6174 294.605 62.9507 294.825 63.3841C295.052 63.8107 295.165 64.3074 295.165 64.8741C295.165 65.4407 295.052 65.9441 294.825 66.3841C294.605 66.8174 294.302 67.1541 293.915 67.3941C293.535 67.6341 293.108 67.7541 292.635 67.7541C292.228 67.7541 291.868 67.6707 291.555 67.5041C291.248 67.3374 290.998 67.1274 290.805 66.8741V70.3041H289.405V62.1241H290.805V62.9241ZM293.735 64.8741C293.735 64.5407 293.665 64.2541 293.525 64.0141C293.392 63.7674 293.212 63.5807 292.985 63.4541C292.765 63.3274 292.525 63.2641 292.265 63.2641C292.012 63.2641 291.772 63.3307 291.545 63.4641C291.325 63.5907 291.145 63.7774 291.005 64.0241C290.872 64.2707 290.805 64.5607 290.805 64.8941C290.805 65.2274 290.872 65.5174 291.005 65.7641C291.145 66.0107 291.325 66.2007 291.545 66.3341C291.772 66.4607 292.012 66.5241 292.265 66.5241C292.525 66.5241 292.765 66.4574 292.985 66.3241C293.212 66.1907 293.392 66.0007 293.525 65.7541C293.665 65.5074 293.735 65.2141 293.735 64.8741ZM297.582 60.2641V67.6641H296.182V60.2641H297.582ZM304.115 64.7741C304.115 64.9741 304.102 65.1541 304.075 65.3141H300.025C300.059 65.7141 300.199 66.0274 300.445 66.2541C300.692 66.4807 300.995 66.5941 301.355 66.5941C301.875 66.5941 302.245 66.3707 302.465 65.9241H303.975C303.815 66.4574 303.509 66.8974 303.055 67.2441C302.602 67.5841 302.045 67.7541 301.385 67.7541C300.852 67.7541 300.372 67.6374 299.945 67.4041C299.525 67.1641 299.195 66.8274 298.955 66.3941C298.722 65.9607 298.605 65.4607 298.605 64.8941C298.605 64.3207 298.722 63.8174 298.955 63.3841C299.189 62.9507 299.515 62.6174 299.935 62.3841C300.355 62.1507 300.839 62.0341 301.385 62.0341C301.912 62.0341 302.382 62.1474 302.795 62.3741C303.215 62.6007 303.539 62.9241 303.765 63.3441C303.999 63.7574 304.115 64.2341 304.115 64.7741ZM302.665 64.3741C302.659 64.0141 302.529 63.7274 302.275 63.5141C302.022 63.2941 301.712 63.1841 301.345 63.1841C300.999 63.1841 300.705 63.2907 300.465 63.5041C300.232 63.7107 300.089 64.0007 300.035 64.3741H302.665ZM306.767 63.2741V65.9541C306.767 66.1407 306.811 66.2774 306.897 66.3641C306.991 66.4441 307.144 66.4841 307.357 66.4841H308.007V67.6641H307.127C305.947 67.6641 305.357 67.0907 305.357 65.9441V63.2741H304.697V62.1241H305.357V60.7541H306.767V62.1241H308.007V63.2741H306.767ZM314.164 64.7741C314.164 64.9741 314.151 65.1541 314.124 65.3141H310.074C310.108 65.7141 310.248 66.0274 310.494 66.2541C310.741 66.4807 311.044 66.5941 311.404 66.5941C311.924 66.5941 312.294 66.3707 312.514 65.9241H314.024C313.864 66.4574 313.558 66.8974 313.104 67.2441C312.651 67.5841 312.094 67.7541 311.434 67.7541C310.901 67.7541 310.421 67.6374 309.994 67.4041C309.574 67.1641 309.244 66.8274 309.004 66.3941C308.771 65.9607 308.654 65.4607 308.654 64.8941C308.654 64.3207 308.771 63.8174 309.004 63.3841C309.238 62.9507 309.564 62.6174 309.984 62.3841C310.404 62.1507 310.888 62.0341 311.434 62.0341C311.961 62.0341 312.431 62.1474 312.844 62.3741C313.264 62.6007 313.588 62.9241 313.814 63.3441C314.048 63.7574 314.164 64.2341 314.164 64.7741ZM312.714 64.3741C312.708 64.0141 312.578 63.7274 312.324 63.5141C312.071 63.2941 311.761 63.1841 311.394 63.1841C311.048 63.1841 310.754 63.2907 310.514 63.5041C310.281 63.7107 310.138 64.0007 310.084 64.3741H312.714ZM314.826 64.8741C314.826 64.3141 314.936 63.8174 315.156 63.3841C315.383 62.9507 315.689 62.6174 316.076 62.3841C316.463 62.1507 316.893 62.0341 317.366 62.0341C317.726 62.0341 318.069 62.1141 318.396 62.2741C318.723 62.4274 318.983 62.6341 319.176 62.8941V60.2641H320.596V67.6641H319.176V66.8441C319.003 67.1174 318.759 67.3374 318.446 67.5041C318.133 67.6707 317.769 67.7541 317.356 67.7541C316.889 67.7541 316.463 67.6341 316.076 67.3941C315.689 67.1541 315.383 66.8174 315.156 66.3841C314.936 65.9441 314.826 65.4407 314.826 64.8741ZM319.186 64.8941C319.186 64.5541 319.119 64.2641 318.986 64.0241C318.853 63.7774 318.673 63.5907 318.446 63.4641C318.219 63.3307 317.976 63.2641 317.716 63.2641C317.456 63.2641 317.216 63.3274 316.996 63.4541C316.776 63.5807 316.596 63.7674 316.456 64.0141C316.323 64.2541 316.256 64.5407 316.256 64.8741C316.256 65.2074 316.323 65.5007 316.456 65.7541C316.596 66.0007 316.776 66.1907 316.996 66.3241C317.223 66.4574 317.463 66.5241 317.716 66.5241C317.976 66.5241 318.219 66.4607 318.446 66.3341C318.673 66.2007 318.853 66.0141 318.986 65.7741C319.119 65.5274 319.186 65.2341 319.186 64.8941Z" fill="black"/>
<path d="M201.168 78.1441L198.388 84.6641H197.468L200.288 78.2341H196.428V77.4541H201.168V78.1441ZM206.207 79.1541C206.06 78.4141 205.603 78.0441 204.837 78.0441C204.243 78.0441 203.8 78.2741 203.507 78.7341C203.213 79.1874 203.07 79.9374 203.077 80.9841C203.23 80.6374 203.483 80.3674 203.837 80.1741C204.197 79.9741 204.597 79.8741 205.037 79.8741C205.723 79.8741 206.27 80.0874 206.677 80.5141C207.09 80.9407 207.297 81.5307 207.297 82.2841C207.297 82.7374 207.207 83.1441 207.027 83.5041C206.853 83.8641 206.587 84.1507 206.227 84.3641C205.873 84.5774 205.443 84.6841 204.937 84.6841C204.25 84.6841 203.713 84.5307 203.327 84.2241C202.94 83.9174 202.67 83.4941 202.517 82.9541C202.363 82.4141 202.287 81.7474 202.287 80.9541C202.287 78.5074 203.14 77.2841 204.847 77.2841C205.5 77.2841 206.013 77.4607 206.387 77.8141C206.76 78.1674 206.98 78.6141 207.047 79.1541H206.207ZM204.847 80.6441C204.56 80.6441 204.29 80.7041 204.037 80.8241C203.783 80.9374 203.577 81.1141 203.417 81.3541C203.263 81.5874 203.187 81.8741 203.187 82.2141C203.187 82.7207 203.333 83.1341 203.627 83.4541C203.92 83.7674 204.34 83.9241 204.887 83.9241C205.353 83.9241 205.723 83.7807 205.997 83.4941C206.277 83.2007 206.417 82.8074 206.417 82.3141C206.417 81.7941 206.283 81.3874 206.017 81.0941C205.75 80.7941 205.36 80.6441 204.847 80.6441ZM209.614 83.4041L208.494 86.0941H207.884L208.614 83.4041H209.614ZM210.507 80.9741C210.507 79.8274 210.693 78.9341 211.067 78.2941C211.44 77.6474 212.093 77.3241 213.027 77.3241C213.953 77.3241 214.603 77.6474 214.977 78.2941C215.35 78.9341 215.537 79.8274 215.537 80.9741C215.537 82.1407 215.35 83.0474 214.977 83.6941C214.603 84.3407 213.953 84.6641 213.027 84.6641C212.093 84.6641 211.44 84.3407 211.067 83.6941C210.693 83.0474 210.507 82.1407 210.507 80.9741ZM214.637 80.9741C214.637 80.3941 214.597 79.9041 214.517 79.5041C214.443 79.0974 214.287 78.7707 214.047 78.5241C213.813 78.2774 213.473 78.1541 213.027 78.1541C212.573 78.1541 212.227 78.2774 211.987 78.5241C211.753 78.7707 211.597 79.0974 211.517 79.5041C211.443 79.9041 211.407 80.3941 211.407 80.9741C211.407 81.5741 211.443 82.0774 211.517 82.4841C211.597 82.8907 211.753 83.2174 211.987 83.4641C212.227 83.7107 212.573 83.8341 213.027 83.8341C213.473 83.8341 213.813 83.7107 214.047 83.4641C214.287 83.2174 214.443 82.8907 214.517 82.4841C214.597 82.0774 214.637 81.5741 214.637 80.9741ZM216.786 80.9741C216.786 79.8274 216.973 78.9341 217.346 78.2941C217.719 77.6474 218.373 77.3241 219.306 77.3241C220.233 77.3241 220.883 77.6474 221.256 78.2941C221.629 78.9341 221.816 79.8274 221.816 80.9741C221.816 82.1407 221.629 83.0474 221.256 83.6941C220.883 84.3407 220.233 84.6641 219.306 84.6641C218.373 84.6641 217.719 84.3407 217.346 83.6941C216.973 83.0474 216.786 82.1407 216.786 80.9741ZM220.916 80.9741C220.916 80.3941 220.876 79.9041 220.796 79.5041C220.723 79.0974 220.566 78.7707 220.326 78.5241C220.093 78.2774 219.753 78.1541 219.306 78.1541C218.853 78.1541 218.506 78.2774 218.266 78.5241C218.033 78.7707 217.876 79.0974 217.796 79.5041C217.723 79.9041 217.686 80.3941 217.686 80.9741C217.686 81.5741 217.723 82.0774 217.796 82.4841C217.876 82.8907 218.033 83.2174 218.266 83.4641C218.506 83.7107 218.853 83.8341 219.306 83.8341C219.753 83.8341 220.093 83.7107 220.326 83.4641C220.566 83.2174 220.723 82.8907 220.796 82.4841C220.876 82.0774 220.916 81.5741 220.916 80.9741ZM223.065 80.9741C223.065 79.8274 223.252 78.9341 223.625 78.2941C223.999 77.6474 224.652 77.3241 225.585 77.3241C226.512 77.3241 227.162 77.6474 227.535 78.2941C227.909 78.9341 228.095 79.8274 228.095 80.9741C228.095 82.1407 227.909 83.0474 227.535 83.6941C227.162 84.3407 226.512 84.6641 225.585 84.6641C224.652 84.6641 223.999 84.3407 223.625 83.6941C223.252 83.0474 223.065 82.1407 223.065 80.9741ZM227.195 80.9741C227.195 80.3941 227.155 79.9041 227.075 79.5041C227.002 79.0974 226.845 78.7707 226.605 78.5241C226.372 78.2774 226.032 78.1541 225.585 78.1541C225.132 78.1541 224.785 78.2774 224.545 78.5241C224.312 78.7707 224.155 79.0974 224.075 79.5041C224.002 79.9041 223.965 80.3941 223.965 80.9741C223.965 81.5741 224.002 82.0774 224.075 82.4841C224.155 82.8907 224.312 83.2174 224.545 83.4641C224.785 83.7107 225.132 83.8341 225.585 83.8341C226.032 83.8341 226.372 83.7107 226.605 83.4641C226.845 83.2174 227.002 82.8907 227.075 82.4841C227.155 82.0774 227.195 81.5741 227.195 80.9741ZM237.641 84.6641H236.731L233.071 79.1141V84.6641H232.161V77.6841H233.071L236.731 83.2241V77.6841H237.641V84.6641ZM244.472 79.7141C244.279 79.3074 243.999 78.9941 243.632 78.7741C243.265 78.5474 242.839 78.4341 242.352 78.4341C241.865 78.4341 241.425 78.5474 241.032 78.7741C240.645 78.9941 240.339 79.3141 240.112 79.7341C239.892 80.1474 239.782 80.6274 239.782 81.1741C239.782 81.7207 239.892 82.2007 240.112 82.6141C240.339 83.0274 240.645 83.3474 241.032 83.5741C241.425 83.7941 241.865 83.9041 242.352 83.9041C243.032 83.9041 243.592 83.7007 244.032 83.2941C244.472 82.8874 244.729 82.3374 244.802 81.6441H242.022V80.9041H245.772V81.6041C245.719 82.1774 245.539 82.7041 245.232 83.1841C244.925 83.6574 244.522 84.0341 244.022 84.3141C243.522 84.5874 242.965 84.7241 242.352 84.7241C241.705 84.7241 241.115 84.5741 240.582 84.2741C240.049 83.9674 239.625 83.5441 239.312 83.0041C239.005 82.4641 238.852 81.8541 238.852 81.1741C238.852 80.4941 239.005 79.8841 239.312 79.3441C239.625 78.7974 240.049 78.3741 240.582 78.0741C241.115 77.7674 241.705 77.6141 242.352 77.6141C243.092 77.6141 243.745 77.7974 244.312 78.1641C244.885 78.5307 245.302 79.0474 245.562 79.7141H244.472ZM252.455 84.6641H251.545L247.885 79.1141V84.6641H246.975V77.6841H247.885L251.545 83.2241V77.6841H252.455V84.6641ZM257.406 75.2441L254.666 86.3641H253.766L256.496 75.2441H257.406ZM258.502 83.9341C259.349 83.2541 260.012 82.6974 260.492 82.2641C260.972 81.8241 261.376 81.3674 261.702 80.8941C262.036 80.4141 262.202 79.9441 262.202 79.4841C262.202 79.0507 262.096 78.7107 261.882 78.4641C261.676 78.2107 261.339 78.0841 260.872 78.0841C260.419 78.0841 260.066 78.2274 259.812 78.5141C259.566 78.7941 259.432 79.1707 259.412 79.6441H258.532C258.559 78.8974 258.786 78.3207 259.212 77.9141C259.639 77.5074 260.189 77.3041 260.862 77.3041C261.549 77.3041 262.092 77.4941 262.492 77.8741C262.899 78.2541 263.102 78.7774 263.102 79.4441C263.102 79.9974 262.936 80.5374 262.602 81.0641C262.276 81.5841 261.902 82.0441 261.482 82.4441C261.062 82.8374 260.526 83.2974 259.872 83.8241H263.312V84.5841H258.502V83.9341ZM264.364 80.9741C264.364 79.8274 264.551 78.9341 264.924 78.2941C265.297 77.6474 265.951 77.3241 266.884 77.3241C267.811 77.3241 268.461 77.6474 268.834 78.2941C269.207 78.9341 269.394 79.8274 269.394 80.9741C269.394 82.1407 269.207 83.0474 268.834 83.6941C268.461 84.3407 267.811 84.6641 266.884 84.6641C265.951 84.6641 265.297 84.3407 264.924 83.6941C264.551 83.0474 264.364 82.1407 264.364 80.9741ZM268.494 80.9741C268.494 80.3941 268.454 79.9041 268.374 79.5041C268.301 79.0974 268.144 78.7707 267.904 78.5241C267.671 78.2774 267.331 78.1541 266.884 78.1541C266.431 78.1541 266.084 78.2774 265.844 78.5241C265.611 78.7707 265.454 79.0974 265.374 79.5041C265.301 79.9041 265.264 80.3941 265.264 80.9741C265.264 81.5741 265.301 82.0774 265.374 82.4841C265.454 82.8907 265.611 83.2174 265.844 83.4641C266.084 83.7107 266.431 83.8341 266.884 83.8341C267.331 83.8341 267.671 83.7107 267.904 83.4641C268.144 83.2174 268.301 82.8907 268.374 82.4841C268.454 82.0774 268.494 81.5741 268.494 80.9741ZM270.643 80.9741C270.643 79.8274 270.83 78.9341 271.203 78.2941C271.577 77.6474 272.23 77.3241 273.163 77.3241C274.09 77.3241 274.74 77.6474 275.113 78.2941C275.487 78.9341 275.673 79.8274 275.673 80.9741C275.673 82.1407 275.487 83.0474 275.113 83.6941C274.74 84.3407 274.09 84.6641 273.163 84.6641C272.23 84.6641 271.577 84.3407 271.203 83.6941C270.83 83.0474 270.643 82.1407 270.643 80.9741ZM274.773 80.9741C274.773 80.3941 274.733 79.9041 274.653 79.5041C274.58 79.0974 274.423 78.7707 274.183 78.5241C273.95 78.2774 273.61 78.1541 273.163 78.1541C272.71 78.1541 272.363 78.2774 272.123 78.5241C271.89 78.7707 271.733 79.0974 271.653 79.5041C271.58 79.9041 271.543 80.3941 271.543 80.9741C271.543 81.5741 271.58 82.0774 271.653 82.4841C271.733 82.8907 271.89 83.2174 272.123 83.4641C272.363 83.7107 272.71 83.8341 273.163 83.8341C273.61 83.8341 273.95 83.7107 274.183 83.4641C274.423 83.2174 274.58 82.8907 274.653 82.4841C274.733 82.0774 274.773 81.5741 274.773 80.9741ZM278.013 83.4041L276.893 86.0941H276.283L277.013 83.4041H278.013ZM278.905 80.9741C278.905 79.8274 279.092 78.9341 279.465 78.2941C279.838 77.6474 280.492 77.3241 281.425 77.3241C282.352 77.3241 283.002 77.6474 283.375 78.2941C283.748 78.9341 283.935 79.8274 283.935 80.9741C283.935 82.1407 283.748 83.0474 283.375 83.6941C283.002 84.3407 282.352 84.6641 281.425 84.6641C280.492 84.6641 279.838 84.3407 279.465 83.6941C279.092 83.0474 278.905 82.1407 278.905 80.9741ZM283.035 80.9741C283.035 80.3941 282.995 79.9041 282.915 79.5041C282.842 79.0974 282.685 78.7707 282.445 78.5241C282.212 78.2774 281.872 78.1541 281.425 78.1541C280.972 78.1541 280.625 78.2774 280.385 78.5241C280.152 78.7707 279.995 79.0974 279.915 79.5041C279.842 79.9041 279.805 80.3941 279.805 80.9741C279.805 81.5741 279.842 82.0774 279.915 82.4841C279.995 82.8907 280.152 83.2174 280.385 83.4641C280.625 83.7107 280.972 83.8341 281.425 83.8341C281.872 83.8341 282.212 83.7107 282.445 83.4641C282.685 83.2174 282.842 82.8907 282.915 82.4841C282.995 82.0774 283.035 81.5741 283.035 80.9741ZM285.184 80.9741C285.184 79.8274 285.371 78.9341 285.744 78.2941C286.118 77.6474 286.771 77.3241 287.704 77.3241C288.631 77.3241 289.281 77.6474 289.654 78.2941C290.028 78.9341 290.214 79.8274 290.214 80.9741C290.214 82.1407 290.028 83.0474 289.654 83.6941C289.281 84.3407 288.631 84.6641 287.704 84.6641C286.771 84.6641 286.118 84.3407 285.744 83.6941C285.371 83.0474 285.184 82.1407 285.184 80.9741ZM289.314 80.9741C289.314 80.3941 289.274 79.9041 289.194 79.5041C289.121 79.0974 288.964 78.7707 288.724 78.5241C288.491 78.2774 288.151 78.1541 287.704 78.1541C287.251 78.1541 286.904 78.2774 286.664 78.5241C286.431 78.7707 286.274 79.0974 286.194 79.5041C286.121 79.9041 286.084 80.3941 286.084 80.9741C286.084 81.5741 286.121 82.0774 286.194 82.4841C286.274 82.8907 286.431 83.2174 286.664 83.4641C286.904 83.7107 287.251 83.8341 287.704 83.8341C288.151 83.8341 288.491 83.7107 288.724 83.4641C288.964 83.2174 289.121 82.8907 289.194 82.4841C289.274 82.0774 289.314 81.5741 289.314 80.9741ZM291.464 80.9741C291.464 79.8274 291.65 78.9341 292.024 78.2941C292.397 77.6474 293.05 77.3241 293.984 77.3241C294.91 77.3241 295.56 77.6474 295.934 78.2941C296.307 78.9341 296.494 79.8274 296.494 80.9741C296.494 82.1407 296.307 83.0474 295.934 83.6941C295.56 84.3407 294.91 84.6641 293.984 84.6641C293.05 84.6641 292.397 84.3407 292.024 83.6941C291.65 83.0474 291.464 82.1407 291.464 80.9741ZM295.594 80.9741C295.594 80.3941 295.554 79.9041 295.474 79.5041C295.4 79.0974 295.244 78.7707 295.004 78.5241C294.77 78.2774 294.43 78.1541 293.984 78.1541C293.53 78.1541 293.184 78.2774 292.944 78.5241C292.71 78.7707 292.554 79.0974 292.474 79.5041C292.4 79.9041 292.364 80.3941 292.364 80.9741C292.364 81.5741 292.4 82.0774 292.474 82.4841C292.554 82.8907 292.71 83.2174 292.944 83.4641C293.184 83.7107 293.53 83.8341 293.984 83.8341C294.43 83.8341 294.77 83.7107 295.004 83.4641C295.244 83.2174 295.4 82.8907 295.474 82.4841C295.554 82.0774 295.594 81.5741 295.594 80.9741ZM306.039 84.6641H305.129L301.469 79.1141V84.6641H300.559V77.6841H301.469L305.129 83.2241V77.6841H306.039V84.6641ZM312.87 79.7141C312.677 79.3074 312.397 78.9941 312.03 78.7741C311.664 78.5474 311.237 78.4341 310.75 78.4341C310.264 78.4341 309.824 78.5474 309.43 78.7741C309.044 78.9941 308.737 79.3141 308.51 79.7341C308.29 80.1474 308.18 80.6274 308.18 81.1741C308.18 81.7207 308.29 82.2007 308.51 82.6141C308.737 83.0274 309.044 83.3474 309.43 83.5741C309.824 83.7941 310.264 83.9041 310.75 83.9041C311.43 83.9041 311.99 83.7007 312.43 83.2941C312.87 82.8874 313.127 82.3374 313.2 81.6441H310.42V80.9041H314.17V81.6041C314.117 82.1774 313.937 82.7041 313.63 83.1841C313.324 83.6574 312.92 84.0341 312.42 84.3141C311.92 84.5874 311.364 84.7241 310.75 84.7241C310.104 84.7241 309.514 84.5741 308.98 84.2741C308.447 83.9674 308.024 83.5441 307.71 83.0041C307.404 82.4641 307.25 81.8541 307.25 81.1741C307.25 80.4941 307.404 79.8841 307.71 79.3441C308.024 78.7974 308.447 78.3741 308.98 78.0741C309.514 77.7674 310.104 77.6141 310.75 77.6141C311.49 77.6141 312.144 77.7974 312.71 78.1641C313.284 78.5307 313.7 79.0474 313.96 79.7141H312.87ZM320.854 84.6641H319.944L316.284 79.1141V84.6641H315.374V77.6841H316.284L319.944 83.2241V77.6841H320.854V84.6641Z" fill="black"/>
<rect x="10.5977" y="99.1641" width="311" height="13" rx="6.5" fill="white"/>
<rect x="10.5977" y="99.1641" width="311" height="13" rx="6.5" stroke="#888787"/>
<rect x="12.0977" y="100.664" width="100" height="10" rx="5" fill="#327CEB"/>
</g>
<defs>
<clipPath id="clip0_405_7691">
<rect width="312" height="72" fill="white" transform="translate(10.0977 40.6641)"/>
</clipPath>
</defs>
</svg>
