<svg xmlns="http://www.w3.org/2000/svg" fill="none" viewBox="0 0 1924.7583643122678 1190" style="max-height: 500px" width="1924.7583643122678" height="1190">
<path stroke-width="0.5" stroke="#327CEB" d="M1841.07 123.003C1932.78 166.707 2031.66 227.21 2102.87 305.237L2064.92 419.717L2052.93 455.877C2043.91 448.41 2034.68 441.143 2025.26 433.942L2025.2 433.891H2025.13C2005.97 419.153 1985.94 404.687 1964.88 390.695C1784.21 269.93 1612.17 230.288 1524.81 211.047L1524.81 211.047C1446 193.737 1372.6 184.695 1306.94 180.741L1366.46 0.806084C1441.59 5.84318 1528.33 17.6026 1622.38 41.5759C1664.79 52.3815 1749.33 79.2805 1841.07 123.003Z"/>
<path stroke-width="0.5" stroke="#327CEB" d="M2025.01 434.402C2034.45 441.619 2043.69 448.902 2052.73 456.385L2001.08 612.398C1944.63 631.548 1875.62 648.588 1796.09 655.447C1711.68 662.775 1638.25 656.691 1580.86 647.271L1639.31 470.853C1691.97 477.771 1755.68 481.29 1827.27 475.11C1903.46 468.517 1969.94 452.548 2025.01 434.402Z"/>
<path stroke-width="0.5" stroke="#327CEB" d="M1187.25 480.313L1175.27 516.408L1175.27 516.409L1137.38 630.957C1208.55 708.882 1307.44 769.351 1399.14 813.055C1490.88 856.777 1575.42 883.71 1617.8 894.55C1617.8 894.55 1617.8 894.55 1617.8 894.55L1617.73 894.792C1711.96 918.79 1798.77 930.551 1873.9 935.582L1187.25 480.313ZM1187.25 480.313C1196.27 487.647 1205.5 494.915 1214.92 502.183L1214.99 502.235H1215.07H1215.12C1234.28 516.973 1254.31 531.439 1275.3 545.43C1455.97 666.195 1628.07 705.701 1715.44 725.078L1715.44 725.078C1794.19 742.321 1867.58 751.431 1933.31 755.385L1873.72 935.32L1187.25 480.313Z"/>
<path stroke-width="0.5" stroke="#327CEB" d="M1444.08 280.615C1528.48 273.287 1601.98 279.439 1659.3 288.859L1600.92 465.277C1548.26 458.359 1484.61 454.908 1413.03 461.088C1336.75 467.683 1270.33 483.59 1215.25 501.809H1215.24C1205.79 494.453 1196.55 487.165 1187.51 479.744L1239.15 323.732C1295.54 304.515 1364.55 287.543 1444.08 280.615Z"/>
<path stroke-width="0.5" stroke="#327CEB" d="M520.95 377.003C612.654 420.707 711.539 481.21 782.747 559.237L744.791 673.717L732.805 709.877C723.782 702.41 714.559 695.143 705.138 687.942L705.071 687.891H705.003C685.848 673.153 665.811 658.687 644.755 644.695C464.085 523.93 292.05 484.288 204.684 465.047L204.683 465.047C125.871 447.737 52.4799 438.695 -13.1889 434.741L46.3374 254.806C121.469 259.843 208.2 271.603 302.26 295.576C344.667 306.382 429.206 333.281 520.95 377.003Z"/>
<path stroke-width="0.5" stroke="#327CEB" d="M704.884 688.402C714.324 695.619 723.564 702.902 732.601 710.385L680.959 866.398C624.503 885.548 555.492 902.588 475.962 909.447C391.557 916.775 318.125 910.691 260.739 901.271L319.183 724.853C371.845 731.771 435.559 735.29 507.142 729.11C583.337 722.517 649.817 706.548 704.884 688.402Z"/>
<path stroke-width="0.5" stroke="#327CEB" d="M-132.872 734.313L-144.859 770.408L-144.859 770.409L-182.748 884.957C-111.574 962.882 -12.6889 1023.35 79.0155 1067.05C170.76 1110.78 255.298 1137.71 297.672 1148.55C297.672 1148.55 297.672 1148.55 297.672 1148.55L297.61 1148.79C391.835 1172.79 478.649 1184.55 553.771 1189.58L-132.872 734.313ZM-132.872 734.313C-123.85 741.647 -114.628 748.915 -105.207 756.183L-105.14 756.235H-105.055H-105.004C-85.8487 770.973 -65.8115 785.439 -44.8244 799.43C135.847 920.195 307.95 959.701 395.316 979.078L395.316 979.078C474.061 996.321 547.452 1005.43 613.188 1009.38L553.594 1189.32L-132.872 734.313Z"/>
<path stroke-width="0.5" stroke="#327CEB" d="M123.951 534.615C208.356 527.287 281.855 533.439 339.175 542.859L280.798 719.277C228.136 712.359 164.49 708.908 92.9075 715.088C16.626 721.683 -49.7997 737.59 -104.874 755.809H-104.884C-114.331 748.453 -123.576 741.165 -132.62 733.744L-80.9776 577.732C-24.5896 558.515 44.4208 541.542 123.951 534.615Z"/>
</svg>